<svg width="20" height="20" viewBox="0 0 20 20" fill="none" xmlns="http://www.w3.org/2000/svg">
<path d="M8.51677 1.15833C7.10539 1.39224 5.77073 1.9614 4.62489 2.81801C3.47905 3.67461 2.55547 4.79365 1.93173 6.08115C1.30798 7.36865 1.00227 8.78703 1.04026 10.2172C1.07826 11.6473 1.45886 13.0474 2.1501 14.3C2.16917 14.3539 2.16917 14.4127 2.1501 14.4667L1.50844 16.6667C1.43563 16.9192 1.43122 17.1865 1.49564 17.4413C1.56007 17.696 1.69102 17.9291 1.8751 18.1167C2.06195 18.3045 2.29643 18.4378 2.55337 18.5024C2.8103 18.567 3.07998 18.5604 3.33344 18.4833L5.54177 17.825C5.56817 17.814 5.5965 17.8083 5.6251 17.8083C5.65371 17.8083 5.68203 17.814 5.70844 17.825C7.01949 18.5612 8.4965 18.9513 10.0001 18.9583C10.6469 18.957 11.2919 18.8899 11.9251 18.7583C14.2066 18.2532 16.2008 16.8773 17.483 14.9237C18.7652 12.9701 19.2341 10.5931 18.7898 8.29892C18.3455 6.00475 17.0232 3.97465 15.1044 2.64093C13.1856 1.30721 10.8219 0.775251 8.51677 1.15833Z" fill="white"/>
<path d="M11.6176 5.04167C11.4536 4.86532 11.255 4.7247 11.0342 4.62863C10.8134 4.53256 10.5751 4.4831 10.3343 4.48334H9.66761C9.42718 4.48127 9.18898 4.52948 8.96829 4.62488C8.74759 4.72028 8.54927 4.86076 8.38606 5.03731C8.22285 5.21386 8.09835 5.42258 8.02055 5.65007C7.94274 5.87757 7.91336 6.11882 7.93427 6.35834L8.26761 10.3833C8.30986 10.8137 8.51072 11.213 8.83111 11.5035C9.15149 11.7939 9.56848 11.9548 10.0009 11.9548C10.4334 11.9548 10.8504 11.7939 11.1708 11.5035C11.4912 11.213 11.692 10.8137 11.7343 10.3833L12.0676 6.35834C12.0871 6.11973 12.0572 5.87966 11.9798 5.65312C11.9024 5.42657 11.7791 5.21843 11.6176 5.04167Z" fill="#CDE3FF"/>
<path d="M9.99935 15.525C10.8048 15.525 11.4577 14.8721 11.4577 14.0667C11.4577 13.2613 10.8048 12.6083 9.99935 12.6083C9.19393 12.6083 8.54102 13.2613 8.54102 14.0667C8.54102 14.8721 9.19393 15.525 9.99935 15.525Z" fill="#CDE3FF"/>
<path d="M10.0004 18.9583C9.11024 18.9585 8.22517 18.8236 7.37544 18.5583C7.2918 18.539 7.21303 18.5026 7.14405 18.4516C7.07508 18.4005 7.01736 18.3357 6.97451 18.2613C6.93166 18.1869 6.90459 18.1045 6.89499 18.0192C6.88538 17.9339 6.89346 17.8476 6.9187 17.7655C6.94395 17.6835 6.98582 17.6075 7.04172 17.5424C7.09761 17.4772 7.16633 17.4243 7.24358 17.3869C7.32083 17.3494 7.40497 17.3283 7.49074 17.3248C7.57651 17.3214 7.66207 17.3356 7.7421 17.3666C9.45985 17.9028 11.3106 17.8246 12.977 17.1453C14.6433 16.466 16.0214 15.228 16.8747 13.6437C17.728 12.0594 18.0034 10.2275 17.6536 8.46236C17.3039 6.69719 16.3508 5.10875 14.9578 3.96953C13.5648 2.83031 11.8189 2.21132 10.0194 2.21876C8.21992 2.22619 6.47912 2.85959 5.09563 4.01028C3.71213 5.16097 2.77218 6.75724 2.43703 8.52524C2.10187 10.2932 2.3924 12.1228 3.25877 13.7C3.35266 13.87 3.41203 14.0569 3.43348 14.25C3.45493 14.4431 3.43804 14.6385 3.38377 14.825L2.7171 17.0333C2.70666 17.0694 2.70578 17.1076 2.71455 17.1441C2.72332 17.1806 2.74143 17.2142 2.7671 17.2416C2.79565 17.2654 2.82929 17.2823 2.86543 17.291C2.90156 17.2997 2.9392 17.2999 2.97544 17.2916L5.52544 16.525C5.68457 16.4774 5.85606 16.4951 6.00218 16.574C6.1483 16.6529 6.25709 16.7867 6.3046 16.9458C6.35212 17.1049 6.33448 17.2764 6.25556 17.4225C6.17664 17.5687 6.0429 17.6774 5.88377 17.725L3.33377 18.4833C3.0809 18.5655 2.81022 18.5761 2.55168 18.5141C2.29313 18.452 2.05678 18.3196 1.86877 18.1316C1.68075 17.9436 1.5484 17.7073 1.48634 17.4487C1.42427 17.1902 1.43492 16.9195 1.5171 16.6666L2.17544 14.4583C2.1945 14.4044 2.1945 14.3456 2.17544 14.2916C1.27368 12.6398 0.915047 10.7459 1.15044 8.8787C1.38583 7.01151 2.20328 5.26588 3.48679 3.88951C4.77031 2.51315 6.45469 1.57597 8.30092 1.21095C10.1471 0.845938 12.0614 1.07164 13.7722 1.85602C15.4829 2.6404 16.9031 3.94362 17.8313 5.58075C18.7595 7.21788 19.1486 9.10576 18.9433 10.9765C18.738 12.8472 17.9487 14.6058 16.6875 16.0026C15.4263 17.3995 13.7572 18.3636 11.9171 18.7583C11.2867 18.8902 10.6445 18.9572 10.0004 18.9583Z" fill="#1F7DBB"/>
<path d="M10.0013 12.2916C9.54459 12.2895 9.10494 12.1178 8.7677 11.8099C8.43046 11.5019 8.21969 11.0796 8.17629 10.6249L7.81796 6.37493C7.79851 6.12284 7.83117 5.86943 7.91392 5.63051C7.99667 5.39159 8.12773 5.17226 8.29894 4.9862C8.47015 4.80014 8.67784 4.65132 8.90907 4.54902C9.1403 4.44673 9.39012 4.39314 9.64296 4.3916H10.3596C10.6125 4.39314 10.8623 4.44673 11.0935 4.54902C11.3247 4.65132 11.5324 4.80014 11.7036 4.9862C11.8749 5.17226 12.0059 5.39159 12.0887 5.63051C12.1714 5.86943 12.2041 6.12284 12.1846 6.37493L11.8263 10.6249C11.7829 11.0796 11.5721 11.5019 11.2349 11.8099C10.8976 12.1178 10.458 12.2895 10.0013 12.2916ZM9.64296 5.62493C9.56266 5.62579 9.48341 5.64321 9.41015 5.67611C9.3369 5.709 9.27123 5.75667 9.21725 5.81613C9.16328 5.87558 9.12216 5.94554 9.09647 6.02162C9.07078 6.0977 9.06107 6.17826 9.06796 6.25827L9.41796 10.5083C9.41796 10.663 9.47942 10.8114 9.58881 10.9207C9.69821 11.0301 9.84658 11.0916 10.0013 11.0916C10.156 11.0916 10.3044 11.0301 10.4138 10.9207C10.5232 10.8114 10.5846 10.663 10.5846 10.5083L10.9346 6.25827C10.9415 6.17826 10.9318 6.0977 10.9061 6.02162C10.8804 5.94554 10.8393 5.87558 10.7853 5.81613C10.7314 5.75667 10.6657 5.709 10.5924 5.67611C10.5192 5.64321 10.4399 5.62579 10.3596 5.62493H9.64296Z" fill="#1F7DBB"/>
<path d="M10.0007 15.8333C9.67102 15.8333 9.34878 15.7355 9.0747 15.5524C8.80062 15.3693 8.587 15.109 8.46085 14.8044C8.33471 14.4999 8.3017 14.1648 8.36601 13.8415C8.43032 13.5182 8.58905 13.2212 8.82214 12.9881C9.05523 12.755 9.3522 12.5963 9.6755 12.532C9.9988 12.4677 10.3339 12.5007 10.6385 12.6268C10.943 12.753 11.2033 12.9666 11.3864 13.2407C11.5696 13.5147 11.6673 13.837 11.6673 14.1666C11.6673 14.6086 11.4917 15.0326 11.1792 15.3451C10.8666 15.6577 10.4427 15.8333 10.0007 15.8333ZM10.0007 13.7499C9.91824 13.7499 9.83768 13.7744 9.76916 13.8202C9.70064 13.8659 9.64724 13.931 9.6157 14.0072C9.58417 14.0833 9.57591 14.1671 9.59199 14.2479C9.60807 14.3287 9.64775 14.403 9.70602 14.4612C9.7643 14.5195 9.83854 14.5592 9.91936 14.5753C10.0002 14.5913 10.084 14.5831 10.1601 14.5516C10.2362 14.52 10.3013 14.4666 10.3471 14.3981C10.3929 14.3296 10.4173 14.249 10.4173 14.1666C10.4173 14.0561 10.3734 13.9501 10.2953 13.872C10.2171 13.7938 10.1112 13.7499 10.0007 13.7499Z" fill="#1F7DBB"/>
</svg>
