<svg width="30" height="30" viewBox="0 0 30 30" fill="none" xmlns="http://www.w3.org/2000/svg">
<g clip-path="url(#clip0_232_3020)">
<mask id="mask0_232_3020" style="mask-type:luminance" maskUnits="userSpaceOnUse" x="0" y="0" width="30" height="30">
<path d="M0 1.90735e-06H30V30H0V1.90735e-06Z" fill="white"/>
</mask>
<g mask="url(#mask0_232_3020)">
<path d="M25.1923 25.1923C19.5633 30.8213 10.4368 30.8213 4.80772 25.1923C-0.821323 19.5632 -0.821323 10.4367 4.80772 4.80769C10.4368 -0.821352 19.5633 -0.821352 25.1923 4.80769C30.8214 10.4367 30.8214 19.5632 25.1923 25.1923Z" fill="#CDE3FF"/>
<path d="M20.0195 8.19419L13.0371 15.1766L9.98055 12.1202L6.66602 15.4347L9.7225 18.4912L13.0371 21.8058L16.3516 18.4912L23.3341 11.5088L20.0195 8.19419Z" fill="white"/>
<path fill-rule="evenodd" clip-rule="evenodd" d="M12.6228 22.2201C12.8516 22.4489 13.2226 22.4489 13.4514 22.2201L23.7484 11.9231C23.8583 11.8132 23.9201 11.6642 23.9201 11.5088C23.9201 11.3534 23.8583 11.2043 23.7484 11.0945L20.4339 7.77987C20.205 7.55105 19.834 7.55105 19.6052 7.77987L13.0371 14.348L10.3949 11.7058C10.166 11.477 9.79505 11.477 9.56623 11.7058L6.2517 15.0204C6.02287 15.2492 6.02287 15.6202 6.25169 15.849L9.30818 18.9055L12.6228 22.2201ZM13.0371 20.9771L7.49465 15.4347L9.98055 12.9488L12.6228 15.591C12.8516 15.8198 13.2226 15.8198 13.4514 15.591L20.0195 9.02283L22.5055 11.5088L15.9373 18.0769L13.0371 20.9771Z" fill="#1F7DBB"/>
<path fill-rule="evenodd" clip-rule="evenodd" d="M4.3934 25.6066C9.66441 30.8776 17.8812 31.4054 23.7429 27.1913C24.0057 27.0024 24.0656 26.6362 23.8767 26.3735C23.6878 26.1107 23.3216 26.0509 23.0589 26.2397C17.6558 30.1241 10.0805 29.6364 5.22204 24.7779C-0.17818 19.3777 -0.17818 10.6222 5.22204 5.22203C10.6223 -0.17819 19.3778 -0.17819 24.778 5.22203C29.6364 10.0805 30.1241 17.6558 26.2398 23.0589C26.0509 23.3216 26.1107 23.6878 26.3735 23.8767C26.6362 24.0656 27.0024 24.0057 27.1913 23.7429C31.4054 17.8812 30.8776 9.6644 25.6066 4.39339C19.7488 -1.46448 10.2513 -1.46448 4.3934 4.39339C-1.46447 10.2513 -1.46447 19.7487 4.3934 25.6066Z" fill="#1F7DBB"/>
</g>
</g>
<defs>
<clipPath id="clip0_232_3020">
<rect width="30" height="30" fill="white"/>
</clipPath>
</defs>
</svg>
