<svg width="75" height="75" viewBox="0 0 75 75" fill="none" xmlns="http://www.w3.org/2000/svg">
<g clip-path="url(#clip0_167_414)">
<mask id="mask0_167_414" style="mask-type:luminance" maskUnits="userSpaceOnUse" x="0" y="0" width="75" height="75">
<path d="M0 7.62939e-06H75V75H0V7.62939e-06Z" fill="white"/>
</mask>
<g mask="url(#mask0_167_414)">
<path d="M61.1019 60.1176L65.573 52.3734C66.2925 51.127 68.0915 51.127 68.8111 52.3734L73.2822 60.1176C74.0017 61.3639 73.1023 62.9218 71.6631 62.9218H62.7208C61.2818 62.9218 60.3823 61.3639 61.1019 60.1176Z" fill="#49B1F7"/>
<path d="M37.5001 37.5L29.4209 45.5792L37.5001 53.6586L45.5793 45.5792L37.5001 37.5Z" fill="#CDE3FF"/>
<path d="M13.1836 39.7198H1.46484V51.4386H13.1836V39.7198Z" fill="#91C271"/>
<path d="M43.3594 67.6758C43.3594 70.9118 40.736 73.5352 37.5 73.5352C34.264 73.5352 31.6406 70.9118 31.6406 67.6758C31.6406 64.4398 34.264 61.8164 37.5 61.8164C40.736 61.8164 43.3594 64.4398 43.3594 67.6758Z" fill="#FF8760"/>
<path d="M28.7109 1.46484H46.2891V12.0117H28.7109V1.46484Z" fill="#FFDD40"/>
<path d="M28.7109 20.2148H46.2891V30.7617H28.7109V20.2148Z" fill="#FFDD40"/>
<path fill-rule="evenodd" clip-rule="evenodd" d="M27.2461 12.0117C27.2461 12.8207 27.9019 13.4766 28.7109 13.4766H46.2891C47.0981 13.4766 47.7539 12.8207 47.7539 12.0117V1.46484C47.7539 0.655834 47.0981 0 46.2891 0H28.7109C27.9019 0 27.2461 0.655834 27.2461 1.46484V12.0117ZM30.1758 10.5469V2.92969H44.8242V10.5469H30.1758Z" fill="#1F7DBB"/>
<path fill-rule="evenodd" clip-rule="evenodd" d="M27.2461 30.7617C27.2461 31.5707 27.9019 32.2266 28.7109 32.2266H46.2891C47.0981 32.2266 47.7539 31.5707 47.7539 30.7617V20.2148C47.7539 19.4058 47.0981 18.75 46.2891 18.75H28.7109C27.9019 18.75 27.2461 19.4058 27.2461 20.2148V30.7617ZM30.1758 29.2969V21.6797H44.8242V29.2969H30.1758Z" fill="#1F7DBB"/>
<path fill-rule="evenodd" clip-rule="evenodd" d="M37.5001 55.1234C37.8886 55.1234 38.2612 54.9691 38.5359 54.6944L46.6151 46.615C47.1872 46.043 47.1872 45.1155 46.6151 44.5434L38.5359 36.4642C37.9638 35.8922 37.0364 35.8922 36.4643 36.4642L28.3851 44.5434C27.813 45.1155 27.813 46.043 28.3851 46.615L36.4643 54.6944C36.739 54.9691 37.1116 55.1234 37.5001 55.1234ZM31.4925 45.5792L37.5001 39.5716L43.5077 45.5792L37.5001 51.5869L31.4925 45.5792Z" fill="#1F7DBB"/>
<path fill-rule="evenodd" clip-rule="evenodd" d="M30.1758 67.6758C30.1758 71.7208 33.455 75 37.5 75C41.545 75 44.8242 71.7208 44.8242 67.6758C44.8242 63.6308 41.545 60.3516 37.5 60.3516C33.455 60.3516 30.1758 63.6308 30.1758 67.6758ZM37.5 72.0703C35.073 72.0703 33.1055 70.1028 33.1055 67.6758C33.1055 65.2488 35.073 63.2813 37.5 63.2813C39.927 63.2813 41.8945 65.2488 41.8945 67.6758C41.8945 70.1028 39.927 72.0703 37.5 72.0703Z" fill="#1F7DBB"/>
<path fill-rule="evenodd" clip-rule="evenodd" d="M59.8335 59.3852C58.5502 61.608 60.1543 64.3866 62.721 64.3866H71.6633C74.2301 64.3866 75.8344 61.6081 74.551 59.3852L70.0799 51.6411C70.0799 51.641 70.0799 51.6411 70.0799 51.6411C68.7966 49.418 65.5879 49.418 64.3046 51.6411L59.8335 59.3852ZM62.3707 60.85C62.3707 60.85 62.3707 60.85 62.3707 60.85L66.8418 53.1058C66.9976 52.8361 67.3869 52.836 67.5426 53.1058L72.0138 60.85C72.0138 60.85 72.0138 60.85 72.0138 60.85C72.1695 61.1197 71.975 61.4569 71.6633 61.4569H62.721C62.4097 61.4569 62.215 61.1198 62.3707 60.85Z" fill="#1F7DBB"/>
<path fill-rule="evenodd" clip-rule="evenodd" d="M67.192 52.5992C68.001 52.5992 68.6568 51.9434 68.6568 51.1344V45.5793C68.6568 44.7703 68.001 44.1144 67.192 44.1144H58.7627C57.9537 44.1144 57.2979 44.7703 57.2979 45.5793C57.2979 46.3883 57.9537 47.0441 58.7627 47.0441H65.7271V51.1344C65.7271 51.9434 66.383 52.5992 67.192 52.5992Z" fill="#1F7DBB"/>
<path fill-rule="evenodd" clip-rule="evenodd" d="M41.8945 68.7808C41.8945 69.5898 42.5504 70.2456 43.3594 70.2456H67.1922C68.0012 70.2456 68.6571 69.5898 68.6571 68.7808V64.0263C68.6571 63.2173 68.0012 62.5615 67.1922 62.5615C66.3832 62.5615 65.7274 63.2173 65.7274 64.0263V67.3159H43.3594C42.5504 67.3159 41.8945 67.9718 41.8945 68.7808Z" fill="#1F7DBB"/>
<path fill-rule="evenodd" clip-rule="evenodd" d="M0 51.4386C0 52.2476 0.655833 52.9034 1.46484 52.9034H13.1836C13.9926 52.9034 14.6484 52.2476 14.6484 51.4386V39.7199C14.6484 38.9108 13.9926 38.255 13.1836 38.255H1.46484C0.655833 38.255 0 38.9108 0 39.7199V51.4386ZM2.92969 49.9738V41.1847H11.7187V49.9738H2.92969Z" fill="#1F7DBB"/>
<path fill-rule="evenodd" clip-rule="evenodd" d="M11.7188 45.5792C11.7188 46.3882 12.3746 47.0441 13.1836 47.0441H29.4208C30.2298 47.0441 30.8856 46.3882 30.8856 45.5792C30.8856 44.7702 30.2298 44.1144 29.4208 44.1144H13.1836C12.3746 44.1144 11.7188 44.7702 11.7188 45.5792Z" fill="#1F7DBB"/>
<path fill-rule="evenodd" clip-rule="evenodd" d="M7.32422 41.1847C8.13323 41.1847 8.78906 40.5289 8.78906 39.7198V26.9532H28.7109C29.5199 26.9532 30.1758 26.2973 30.1758 25.4883C30.1758 24.6793 29.5199 24.0235 28.7109 24.0235H7.32422C6.51521 24.0235 5.85938 24.6793 5.85938 25.4883V39.7198C5.85938 40.5289 6.51521 41.1847 7.32422 41.1847Z" fill="#1F7DBB"/>
<path fill-rule="evenodd" clip-rule="evenodd" d="M37.5 21.6797C38.309 21.6797 38.9648 21.0239 38.9648 20.2148V12.0117C38.9648 11.2027 38.309 10.5469 37.5 10.5469C36.691 10.5469 36.0352 11.2027 36.0352 12.0117V20.2148C36.0352 21.0239 36.691 21.6797 37.5 21.6797Z" fill="#1F7DBB"/>
<path fill-rule="evenodd" clip-rule="evenodd" d="M37.5 38.9648C38.309 38.9648 38.9648 38.309 38.9648 37.5V30.7617C38.9648 29.9527 38.309 29.2969 37.5 29.2969C36.691 29.2969 36.0352 29.9527 36.0352 30.7617V37.5C36.0352 38.309 36.691 38.9648 37.5 38.9648Z" fill="#1F7DBB"/>
</g>
</g>
<defs>
<clipPath id="clip0_167_414">
<rect width="75" height="75" fill="white"/>
</clipPath>
</defs>
</svg>
