<svg width="75" height="75" viewBox="0 0 75 75" fill="none" xmlns="http://www.w3.org/2000/svg">
<g clip-path="url(#clip0_163_926)">
<mask id="mask0_163_926" style="mask-type:luminance" maskUnits="userSpaceOnUse" x="0" y="0" width="75" height="75">
<path d="M0 7.62939e-06H75V75H0V7.62939e-06Z" fill="white"/>
</mask>
<g mask="url(#mask0_163_926)">
<path d="M24.4595 73.5352H50.5409V70.6049C50.5409 68.9868 49.2292 67.6752 47.6112 67.6752H27.3892C25.7711 67.6752 24.4595 68.9868 24.4595 70.6049V73.5352Z" fill="#CDE3FF"/>
<path d="M43.3594 67.6752H31.6406V61.2302H43.3594V67.6752Z" fill="#CDE3FF"/>
<path d="M44.4192 13.1836H70.6055C72.2235 13.1836 73.5352 14.4952 73.5352 16.1133V58.3005C73.5352 59.9185 72.2235 61.2302 70.6055 61.2302H4.39453C2.77661 61.2302 1.46484 59.9185 1.46484 58.3005V16.1133C1.46484 14.4952 2.77661 13.1836 4.39453 13.1836H22.6931" fill="#F9F9F9"/>
<path d="M70.6055 61.2302H4.39453C2.77647 61.2302 1.46484 59.9185 1.46484 58.3005V51.2692H73.5352V58.3005C73.5352 59.9185 72.2235 61.2302 70.6055 61.2302Z" fill="#CDE3FF"/>
<path fill-rule="evenodd" clip-rule="evenodd" d="M22.9946 73.5352C22.9946 74.3442 23.6505 75 24.4595 75H50.5409C51.3499 75 52.0057 74.3442 52.0057 73.5352V70.6049C52.0057 68.1778 50.0383 66.2104 47.6112 66.2104H27.3892C24.9621 66.2104 22.9946 68.1778 22.9946 70.6049V73.5352ZM25.9243 72.0703V70.6049C25.9243 69.7958 26.5801 69.14 27.3892 69.14H47.6112C48.4202 69.14 49.076 69.7958 49.076 70.6049V72.0703H25.9243Z" fill="#1F7DBB"/>
<path fill-rule="evenodd" clip-rule="evenodd" d="M30.1758 67.6752C30.1758 68.4842 30.8316 69.14 31.6406 69.14H43.3594C44.1684 69.14 44.8242 68.4842 44.8242 67.6752V61.2302C44.8242 60.4211 44.1684 59.7653 43.3594 59.7653H31.6406C30.8316 59.7653 30.1758 60.4211 30.1758 61.2302V67.6752ZM33.1055 66.2103V62.695H41.8945V66.2103H33.1055Z" fill="#1F7DBB"/>
<path fill-rule="evenodd" clip-rule="evenodd" d="M0.659668 51.2692C0.659668 52.0782 1.3155 52.7341 2.12451 52.7341H72.8754C73.6844 52.7341 74.3403 52.0782 74.3403 51.2692C74.3403 50.4602 73.6844 49.8044 72.8754 49.8044H2.12451C1.3155 49.8044 0.659668 50.4602 0.659668 51.2692Z" fill="#1F7DBB"/>
<path fill-rule="evenodd" clip-rule="evenodd" d="M0 58.3005C0 60.7276 1.96745 62.695 4.39453 62.695H70.6055C73.0324 62.695 75 60.7276 75 58.3005V16.1133C75 13.6861 73.0324 11.7187 70.6055 11.7187H43.7256C42.9166 11.7187 42.2607 12.3746 42.2607 13.1836C42.2607 13.9926 42.9166 14.6484 43.7256 14.6484H70.6055C71.4144 14.6484 72.0703 15.3043 72.0703 16.1133V58.3005C72.0703 59.1095 71.4144 59.7653 70.6055 59.7653H4.39453C3.58548 59.7653 2.92969 59.1095 2.92969 58.3005V16.1133C2.92969 15.3042 3.58548 14.6484 4.39453 14.6484H23.3643C24.1733 14.6484 24.8291 13.9926 24.8291 13.1836C24.8291 12.3746 24.1733 11.7187 23.3643 11.7187H4.39453C1.96745 11.7187 0 13.6862 0 16.1133V58.3005Z" fill="#1F7DBB"/>
<path d="M65.625 51.2695H9.375V4.39454C9.375 2.77647 10.6866 1.46485 12.3047 1.46485H62.6953C64.3134 1.46485 65.625 2.77647 65.625 4.39454V51.2695Z" fill="#F9F9F9"/>
<path d="M52.1776 51.2695H55.2246V44.9771H52.1776C51.7912 43.1646 51.0778 41.4731 50.1015 39.9677L52.2568 37.8123L47.8096 33.365L45.6542 35.5204C44.1488 34.5442 42.4573 33.8309 40.6447 33.4443V30.3973H34.3554V33.4443C32.5427 33.8309 30.8514 34.5442 29.3458 35.5204L27.1904 33.365L22.7433 37.8123L24.8985 39.9677C23.9224 41.4731 23.209 43.1646 22.8226 44.9771H19.7754V51.2695H22.8226H52.1776Z" fill="#49B1F7"/>
<path d="M42.4439 51.2665C43.0232 50.3578 43.3602 49.2795 43.3602 48.1218C43.3602 44.8854 40.7365 42.2616 37.4999 42.2616C34.2633 42.2616 31.6396 44.8854 31.6396 48.1218C31.6396 49.2795 31.9767 50.3578 32.5559 51.2665H42.4439Z" fill="white"/>
<path d="M62.6953 1.46484H12.3047C10.6866 1.46484 9.375 2.77647 9.375 4.39453V13.1836H65.625V4.39453C65.625 2.77647 64.3134 1.46484 62.6953 1.46484Z" fill="white"/>
<path d="M65.625 13.1836H9.375V4.39453C9.375 2.77647 10.6866 1.46484 12.3047 1.46484H62.6953C64.3134 1.46484 65.625 2.77647 65.625 4.39453V13.1836Z" fill="#FFDD40"/>
<path fill-rule="evenodd" clip-rule="evenodd" d="M7.91016 51.2695C7.91016 52.0785 8.56599 52.7344 9.375 52.7344H65.625C66.434 52.7344 67.0898 52.0785 67.0898 51.2695V4.39454C67.0898 1.96746 65.1224 3.8147e-06 62.6953 3.8147e-06H12.3047C9.87761 3.8147e-06 7.91016 1.96746 7.91016 4.39454V25.6333C7.91016 26.4423 8.56599 27.0981 9.375 27.0981C10.184 27.0981 10.8398 26.4423 10.8398 25.6333V4.39454C10.8398 3.58548 11.4956 2.92969 12.3047 2.92969H62.6953C63.5044 2.92969 64.1602 3.58548 64.1602 4.39454V49.8047H10.8398V38.8169C10.8398 38.0079 10.184 37.3521 9.375 37.3521C8.56599 37.3521 7.91016 38.0079 7.91016 38.8169V51.2695Z" fill="#1F7DBB"/>
<path fill-rule="evenodd" clip-rule="evenodd" d="M40.4297 7.32422C40.4297 8.13323 41.0855 8.78906 41.8945 8.78906H57.7148C58.5239 8.78906 59.1797 8.13323 59.1797 7.32422C59.1797 6.51521 58.5239 5.85938 57.7148 5.85938H41.8945C41.0855 5.85938 40.4297 6.51521 40.4297 7.32422Z" fill="#1F7DBB"/>
<path fill-rule="evenodd" clip-rule="evenodd" d="M8.34912 13.1836C8.34912 13.9926 9.00495 14.6484 9.81396 14.6484H65.1856C65.9946 14.6484 66.6505 13.9926 66.6505 13.1836C66.6505 12.3746 65.9946 11.7188 65.1856 11.7188H9.81396C9.00495 11.7188 8.34912 12.3746 8.34912 13.1836Z" fill="#1F7DBB"/>
<path fill-rule="evenodd" clip-rule="evenodd" d="M19.7754 52.6001C20.5844 52.6001 21.2402 51.9443 21.2402 51.1353V46.442H22.8224C23.5137 46.442 24.1109 45.9588 24.255 45.2827C24.6036 43.6484 25.2468 42.123 26.1276 40.7645C26.5037 40.1845 26.4231 39.4205 25.9343 38.9317L24.8148 37.8123L27.1905 35.4367L28.31 36.5562C28.7988 37.0449 29.5628 37.1255 30.1428 36.7494C31.5011 35.8686 33.0265 35.2254 34.6607 34.877C35.3368 34.7328 35.8201 34.1356 35.8201 33.4443V31.8622H39.1799V33.4443C39.1799 34.1356 39.6632 34.7328 40.3393 34.877C41.9735 35.2254 43.4989 35.8686 44.8572 36.7494C45.4372 37.1255 46.2012 37.0449 46.69 36.5562L47.8095 35.4367L50.1852 37.8123L49.0657 38.9317C48.5769 39.4205 48.4963 40.1845 48.8724 40.7645C49.7532 42.123 50.3964 43.6484 50.745 45.2827C50.8891 45.9588 51.4863 46.442 52.1776 46.442H53.7598V51.1353C53.7598 51.9443 54.4156 52.6001 55.2246 52.6001C56.0336 52.6001 56.6894 51.9443 56.6894 51.1353V44.9772C56.6894 44.1682 56.0336 43.5124 55.2246 43.5124H53.3184C52.9798 42.3486 52.5166 41.2382 51.9441 40.1966L53.2926 38.8482C53.5673 38.5735 53.7217 38.2009 53.7217 37.8124C53.7217 37.4239 53.5674 37.0513 53.2926 36.7766L48.8454 32.3293C48.2733 31.7572 47.3459 31.7572 46.7738 32.3293L45.4252 33.6777C44.3837 33.1052 43.2733 32.642 42.1096 32.3035V30.3973C42.1096 29.5883 41.4537 28.9325 40.6447 28.9325H34.3553C33.5463 28.9325 32.8904 29.5883 32.8904 30.3973V32.3035C31.7267 32.642 30.6163 33.1052 29.5748 33.6777L28.2262 32.3293C27.6541 31.7572 26.7267 31.7572 26.1546 32.3293L21.7074 36.7766C21.4326 37.0513 21.2783 37.4239 21.2783 37.8124C21.2783 38.2009 21.4327 38.5735 21.7074 38.8482L23.0559 40.1966C22.4834 41.2382 22.0202 42.3486 21.6816 43.5124H19.7754C18.9664 43.5124 18.3105 44.1682 18.3105 44.9772V51.1353C18.3105 51.9443 18.9664 52.6001 19.7754 52.6001Z" fill="#1F7DBB"/>
<path fill-rule="evenodd" clip-rule="evenodd" d="M33.2338 52.3904C33.927 51.9734 34.1508 51.0733 33.7337 50.3801C33.3347 49.7168 33.1045 48.9472 33.1045 48.1219C33.1045 45.6944 35.0725 43.7264 37.4999 43.7264C39.9274 43.7264 41.8953 45.6943 41.8953 48.1219C41.8953 48.9474 41.6652 49.7169 41.2662 50.3801C40.8491 51.0733 41.073 51.9734 41.7662 52.3904C42.4594 52.8075 43.3595 52.5837 43.7766 51.8905C44.4378 50.7914 44.825 49.5026 44.825 48.1219C44.825 44.0764 41.5455 40.7967 37.4999 40.7967C33.4544 40.7967 30.1748 44.0764 30.1748 48.1219C30.1748 49.5027 30.5622 50.7915 31.2234 51.8905C31.6405 52.5837 32.5405 52.8075 33.2338 52.3904Z" fill="#1F7DBB"/>
<path fill-rule="evenodd" clip-rule="evenodd" d="M14.9414 20.2145C14.9414 21.0235 15.5972 21.6794 16.4062 21.6794H19.8923C20.7013 21.6794 21.3571 21.0235 21.3571 20.2145C21.3571 19.4055 20.7013 18.7497 19.8923 18.7497H16.4062C15.5972 18.7497 14.9414 19.4055 14.9414 20.2145Z" fill="#1F7DBB"/>
<path fill-rule="evenodd" clip-rule="evenodd" d="M24.8726 20.2145C24.8726 21.0235 25.5284 21.6794 26.3374 21.6794H39.7756C40.5846 21.6794 41.2404 21.0235 41.2404 20.2145C41.2404 19.4055 40.5846 18.7497 39.7756 18.7497H26.3374C25.5284 18.7497 24.8726 19.4055 24.8726 20.2145Z" fill="#1F7DBB"/>
<path fill-rule="evenodd" clip-rule="evenodd" d="M14.9414 27.2455C14.9414 28.0545 15.5972 28.7103 16.4062 28.7103H24.9023C25.7114 28.7103 26.3672 28.0545 26.3672 27.2455C26.3672 26.4365 25.7114 25.7806 24.9023 25.7806H16.4062C15.5972 25.7806 14.9414 26.4365 14.9414 27.2455Z" fill="#1F7DBB"/>
<path fill-rule="evenodd" clip-rule="evenodd" d="M44.7563 20.2145C44.7563 21.0235 45.4122 21.6794 46.2212 21.6794H58.5938C59.4029 21.6794 60.0587 21.0235 60.0587 20.2145C60.0587 19.4055 59.4029 18.7497 58.5938 18.7497H46.2212C45.4122 18.7497 44.7563 19.4055 44.7563 20.2145Z" fill="#1F7DBB"/>
<path fill-rule="evenodd" clip-rule="evenodd" d="M47.1035 27.2455C47.1035 28.0545 47.7593 28.7103 48.5684 28.7103H58.5936C59.4026 28.7103 60.0584 28.0545 60.0584 27.2455C60.0584 26.4365 59.4026 25.7806 58.5936 25.7806H48.5684C47.7593 25.7806 47.1035 26.4365 47.1035 27.2455Z" fill="#1F7DBB"/>
</g>
</g>
<defs>
<clipPath id="clip0_163_926">
<rect width="75" height="75" fill="white"/>
</clipPath>
</defs>
</svg>
