<svg width="75" height="75" viewBox="0 0 75 75" fill="none" xmlns="http://www.w3.org/2000/svg">
<g clip-path="url(#clip0_163_871)">
<path d="M62.5 6.25V63.75C62.5 66.5114 60.2614 68.75 57.5 68.75H12.5C9.73858 68.75 7.5 66.5114 7.5 63.75V17.5H18.75C21.5114 17.5 23.75 15.2614 23.75 12.5V1.25H57.5C60.2614 1.25 62.5 3.48858 62.5 6.25Z" fill="white"/>
<path d="M57.5 1.25H53.75C56.5114 1.25 58.75 3.48858 58.75 6.25V63.75C58.75 66.5114 56.5114 68.75 53.75 68.75H57.5C60.2614 68.75 62.5 66.5114 62.5 63.75V6.25C62.5 3.48858 60.2614 1.25 57.5 1.25Z" fill="#EFF6FF"/>
<path d="M67.5 11.25V68.75C67.5 71.5114 65.2614 73.75 62.5 73.75H17.5C14.7386 73.75 12.5 71.5114 12.5 68.75H57.5C60.2614 68.75 62.5 66.5114 62.5 63.75V6.25C65.2614 6.25 67.5 8.48858 67.5 11.25Z" fill="#49B1F7"/>
<path d="M55 32.5V40C55 42.7614 52.7614 45 50 45H43.75V51.25C43.75 54.0114 41.5114 56.25 38.75 56.25H31.25C28.4886 56.25 26.25 54.0114 26.25 51.25V41.25C26.25 38.4886 28.4886 36.25 31.25 36.25H38.75C41.5114 36.25 43.75 34.0114 43.75 31.25V27.5H50C52.7614 27.5 55 29.7386 55 32.5Z" fill="#FFDD40"/>
<path d="M40 51.25C40 54.0114 37.7614 56.25 35 56.25H38.75C41.5114 56.25 43.75 54.0114 43.75 51.25V45H40V51.25Z" fill="#FFDD40"/>
<path d="M50 27.5H46.25C49.0114 27.5 51.25 29.7386 51.25 32.5V40C51.25 42.7614 49.0114 45 46.25 45H50C52.7614 45 55 42.7614 55 40V32.5C55 29.7386 52.7614 27.5 50 27.5Z" fill="#FFDD40"/>
<path d="M43.75 21.25V31.25C43.75 34.0114 41.5114 36.25 38.75 36.25H31.25C28.4886 36.25 26.25 38.4886 26.25 41.25V45H20C17.2386 45 15 42.7614 15 40V32.5C15 29.7386 17.2386 27.5 20 27.5H26.25V21.25C26.25 18.4886 28.4886 16.25 31.25 16.25H38.75C41.5114 16.25 43.75 18.4886 43.75 21.25Z" fill="#49B1F7"/>
<path d="M38.75 16.25H35C37.7614 16.25 40 18.4886 40 21.25V31.25C40 34.0114 37.7614 36.25 35 36.25H38.75C41.5114 36.25 43.75 34.0114 43.75 31.25V21.25C43.75 18.4886 41.5114 16.25 38.75 16.25Z" fill="#49B1F7"/>
<path d="M22.5 41.25V45H26.25V41.25C26.25 38.4886 28.4886 36.25 31.25 36.25H27.5C24.7386 36.25 22.5 38.4886 22.5 41.25Z" fill="#49B1F7"/>
<path d="M23.75 1.25V12.5C23.75 15.2614 21.5114 17.5 18.75 17.5H7.5L23.75 1.25Z" fill="#EFF6FF"/>
<path d="M50 7.5H42.5C41.8096 7.5 41.25 6.94036 41.25 6.25C41.25 5.55964 41.8096 5 42.5 5H50C50.6904 5 51.25 5.55964 51.25 6.25C51.25 6.94036 50.6904 7.5 50 7.5Z" fill="#EFF6FF"/>
<path d="M57.5 7.5H55C54.3096 7.5 53.75 6.94036 53.75 6.25C53.75 5.55964 54.3096 5 55 5H57.5C58.1904 5 58.75 5.55964 58.75 6.25C58.75 6.94036 58.1904 7.5 57.5 7.5Z" fill="#EFF6FF"/>
<path d="M17.5 75H62.5C65.9501 74.9959 68.7459 72.2001 68.75 68.75V11.25C68.7447 8.24014 66.5948 5.66159 63.635 5.115C63.0884 2.15518 60.5099 0.0053358 57.5 0H23.75C23.4185 7.08e-05 23.1006 0.131813 22.8663 0.36625L6.61625 16.6163C6.38181 16.8506 6.25007 17.1685 6.25 17.5V63.75C6.25534 66.7599 8.40518 69.3384 11.365 69.885C11.9116 72.8448 14.4901 74.9947 17.5 75ZM66.25 11.25V68.75C66.25 70.8211 64.5711 72.5 62.5 72.5H17.5C15.9165 72.4934 14.5078 71.4929 13.98 70H57.5C60.9501 69.9959 63.7459 67.2001 63.75 63.75V7.73C65.2429 8.25782 66.2434 9.66652 66.25 11.25ZM22.5 4.2675V12.5C22.5 14.5711 20.8211 16.25 18.75 16.25H10.5175L22.5 4.2675ZM8.75 63.75V18.75H18.75C22.2001 18.7459 24.9959 15.9501 25 12.5V2.5H57.5C59.5711 2.5 61.25 4.17893 61.25 6.25V63.75C61.25 65.8211 59.5711 67.5 57.5 67.5H12.5C10.4289 67.5 8.75 65.8211 8.75 63.75Z" fill="#1F7DBB"/>
<path d="M13.75 63.75H15C15.6904 63.75 16.25 63.1904 16.25 62.5C16.25 61.8096 15.6904 61.25 15 61.25H13.75C13.0596 61.25 12.5 61.8096 12.5 62.5C12.5 63.1904 13.0596 63.75 13.75 63.75Z" fill="#1F7DBB"/>
<path d="M45 61.25C44.3096 61.25 43.75 61.8096 43.75 62.5C43.75 63.1904 44.3096 63.75 45 63.75H56.25C56.9404 63.75 57.5 63.1904 57.5 62.5C57.5 61.8096 56.9404 61.25 56.25 61.25H45Z" fill="#1F7DBB"/>
<path d="M38.75 61.25H20C19.3096 61.25 18.75 61.8096 18.75 62.5C18.75 63.1904 19.3096 63.75 20 63.75H38.75C39.4404 63.75 40 63.1904 40 62.5C40 61.8096 39.4404 61.25 38.75 61.25Z" fill="#1F7DBB"/>
<path d="M20 46.25H25V51.25C25.0041 54.7001 27.7999 57.4959 31.25 57.5H38.75C42.2001 57.4959 44.9959 54.7001 45 51.25V46.25H50C53.4501 46.2459 56.2459 43.4501 56.25 40V32.5C56.2459 29.0499 53.4501 26.2541 50 26.25H45V21.25C44.9959 17.7999 42.2001 15.0041 38.75 15H31.25C27.7999 15.0041 25.0041 17.7999 25 21.25V26.25H20C16.5499 26.2541 13.7541 29.0499 13.75 32.5V40C13.7541 43.4501 16.5499 46.2459 20 46.25ZM50 28.75C52.0711 28.75 53.75 30.4289 53.75 32.5V40C53.75 42.0711 52.0711 43.75 50 43.75H35C34.3096 43.75 33.75 44.3096 33.75 45C33.75 45.6904 34.3096 46.25 35 46.25H42.5V51.25C42.5 53.3211 40.8211 55 38.75 55H31.25C29.1789 55 27.5 53.3211 27.5 51.25V41.25C27.5 39.1789 29.1789 37.5 31.25 37.5H38.75C42.2001 37.4959 44.9959 34.7001 45 31.25V28.75H50ZM16.25 32.5C16.25 30.4289 17.9289 28.75 20 28.75H35C35.6904 28.75 36.25 28.1904 36.25 27.5C36.25 26.8096 35.6904 26.25 35 26.25H27.5V21.25C27.5 19.1789 29.1789 17.5 31.25 17.5H38.75C40.8211 17.5 42.5 19.1789 42.5 21.25V31.25C42.5 33.3211 40.8211 35 38.75 35H31.25C27.7999 35.0041 25.0041 37.7999 25 41.25V43.75H20C17.9289 43.75 16.25 42.0711 16.25 40V32.5Z" fill="#1F7DBB"/>
<path d="M32.5 23.75C33.1904 23.75 33.75 23.1904 33.75 22.5C33.75 21.8096 33.1904 21.25 32.5 21.25C31.8096 21.25 31.25 21.8096 31.25 22.5C31.25 23.1904 31.8096 23.75 32.5 23.75Z" fill="#1F7DBB"/>
<path d="M37.5 51.25C38.1904 51.25 38.75 50.6904 38.75 50C38.75 49.3096 38.1904 48.75 37.5 48.75C36.8096 48.75 36.25 49.3096 36.25 50C36.25 50.6904 36.8096 51.25 37.5 51.25Z" fill="#1F7DBB"/>
</g>
<defs>
<clipPath id="clip0_163_871">
<rect width="75" height="75" fill="white"/>
</clipPath>
</defs>
</svg>
