<svg width="75" height="75" viewBox="0 0 75 75" fill="none" xmlns="http://www.w3.org/2000/svg">
<g clip-path="url(#clip0_163_1096)">
<path d="M1.46484 57.2765V12.7442C1.46484 11.126 2.77633 9.81451 4.39453 9.81451H57.7159C59.3341 9.81451 60.6456 11.126 60.6456 12.7442V57.2765C60.6456 58.8947 59.3341 60.2062 57.7159 60.2062H4.39453C2.77633 60.2062 1.46484 58.8947 1.46484 57.2765Z" fill="white"/>
<path d="M60.6456 12.7442C60.6456 11.126 59.3341 9.81451 57.7159 9.81451H4.39453C2.77633 9.81451 1.46484 11.126 1.46484 12.7442V20.3619H60.6456V12.7442Z" fill="#CDE3FF"/>
<path d="M31.6411 61.6711H4.39452C1.97124 61.6711 0 59.6998 0 57.2765V12.7442C0 10.3209 1.97124 8.34967 4.39452 8.34967H57.7159C60.1392 8.34967 62.111 10.3209 62.111 12.7442V26.845C62.111 27.6541 61.4547 28.3099 60.6456 28.3099C59.8371 28.3099 59.1807 27.6541 59.1807 26.845V12.7442C59.1807 11.9368 58.5239 11.2794 57.7159 11.2794H4.39452C3.58715 11.2794 2.92968 11.9368 2.92968 12.7442V57.2765C2.92968 58.0845 3.58715 58.7414 4.39452 58.7414H31.6411C32.4502 58.7414 33.106 59.3977 33.106 60.2062C33.106 61.0153 32.4502 61.6711 31.6411 61.6711Z" fill="#1F7DBB"/>
<path d="M37.52 61.6716C37.1349 61.6716 36.7567 61.5148 36.4843 61.2425C36.2102 60.9701 36.0552 60.5919 36.0552 60.2068C36.0552 59.82 36.2102 59.4435 36.4843 59.1711C36.7567 58.897 37.1332 58.7419 37.52 58.7419C37.9051 58.7419 38.2833 58.897 38.5557 59.1711C38.8281 59.4435 38.9849 59.8217 38.9849 60.2068C38.9849 60.5919 38.8281 60.9684 38.5557 61.2425C38.2833 61.5148 37.9051 61.6716 37.52 61.6716Z" fill="#1F7DBB"/>
<path d="M57.7158 61.671H50.0986C49.2895 61.671 48.6338 61.0153 48.6338 60.2062C48.6338 59.3976 49.2895 58.7413 50.0986 58.7413H57.7158C58.5238 58.7413 59.1806 58.0844 59.1806 57.2765V43.6535C59.1806 42.8444 59.837 42.188 60.6455 42.188C61.4546 42.188 62.1109 42.8444 62.1109 43.6535V57.2765C62.1109 59.6998 60.1391 61.671 57.7158 61.671Z" fill="#1F7DBB"/>
<path d="M60.0561 21.8268H2.65722C1.84813 21.8268 1.19238 21.171 1.19238 20.3619C1.19238 19.5528 1.84813 18.8971 2.65722 18.8971H60.0561C60.8652 18.8971 61.521 19.5528 61.521 20.3619C61.521 21.171 60.8652 21.8268 60.0561 21.8268Z" fill="#1F7DBB"/>
<path d="M53.4192 16.5528H31.7876C30.9785 16.5528 30.3228 15.897 30.3228 15.0879C30.3228 14.2789 30.9785 13.6231 31.7876 13.6231H53.4192C54.2283 13.6231 54.884 14.2789 54.884 15.0879C54.884 15.897 54.2283 16.5528 53.4192 16.5528Z" fill="#1F7DBB"/>
<path d="M12.7168 16.5533C12.3317 16.5533 11.9535 16.3966 11.6811 16.1242C11.4087 15.8518 11.252 15.4736 11.252 15.0885C11.252 14.7017 11.4087 14.3252 11.6811 14.0517C11.9535 13.7787 12.3317 13.6237 12.7168 13.6237C13.1019 13.6237 13.4801 13.7787 13.7525 14.0517C14.0249 14.3252 14.1816 14.7017 14.1816 15.0885C14.1816 15.4736 14.0249 15.8518 13.7525 16.1242C13.4801 16.3966 13.1019 16.5533 12.7168 16.5533Z" fill="#1F7DBB"/>
<path d="M7.31689 16.5533C6.9318 16.5533 6.55414 16.3966 6.28178 16.1242C6.00883 15.8518 5.85205 15.4736 5.85205 15.0885C5.85205 14.7017 6.00883 14.3252 6.28178 14.0517C6.55414 13.7787 6.9318 13.6237 7.31689 13.6237C7.70256 13.6237 8.08021 13.7787 8.35258 14.0517C8.62552 14.3252 8.78231 14.7017 8.78231 15.0885C8.78231 15.4736 8.62552 15.8518 8.35258 16.1242C8.08021 16.3966 7.70256 16.5533 7.31689 16.5533Z" fill="#1F7DBB"/>
<path d="M18.1162 16.5533C17.7311 16.5533 17.3529 16.3966 17.0794 16.1242C16.807 15.8518 16.6514 15.4736 16.6514 15.0885C16.6514 14.7017 16.807 14.3252 17.0794 14.0517C17.3529 13.7787 17.7294 13.6237 18.1162 13.6237C18.5019 13.6237 18.8795 13.7787 19.1519 14.0517C19.4243 14.3252 19.5811 14.7034 19.5811 15.0885C19.5811 15.4736 19.4243 15.8518 19.1519 16.1242C18.8778 16.3966 18.5019 16.5533 18.1162 16.5533Z" fill="#1F7DBB"/>
<path d="M22.1495 46.1855C21.7747 46.1855 21.3993 46.0425 21.1138 45.7564L16.1699 40.8131C15.5983 40.2409 15.5983 39.3133 16.1699 38.7411L21.1138 33.7979C21.6854 33.2257 22.6129 33.2257 23.1852 33.7979C23.7574 34.3701 23.7574 35.2976 23.1852 35.8698L19.2776 39.7774L23.1852 43.685C23.7574 44.2566 23.7574 45.1841 23.1852 45.7564C22.8991 46.0425 22.5243 46.1855 22.1495 46.1855Z" fill="#1F7DBB"/>
<path d="M39.9616 46.1855C39.5868 46.1855 39.2114 46.0425 38.9253 45.7564C38.3537 45.1841 38.3537 44.2566 38.9253 43.6844L42.8329 39.7768L38.9253 35.8692C38.3537 35.2976 38.3537 34.3701 38.9253 33.7979C39.4975 33.2257 40.4251 33.2257 40.9973 33.7979L45.9405 38.7411C46.5127 39.3133 46.5127 40.2409 45.9405 40.8131L40.9973 45.7564C40.7112 46.0425 40.3364 46.1855 39.9616 46.1855Z" fill="#1F7DBB"/>
<path d="M27.5644 47.1811C27.312 47.1811 27.0563 47.1159 26.8234 46.9786C26.1259 46.5689 25.893 45.6711 26.3027 44.9736L33.2824 33.0963C33.6927 32.3988 34.5905 32.1659 35.288 32.5756C35.9855 32.9853 36.2184 33.8831 35.8087 34.5806L28.8284 46.4579C28.5554 46.9225 28.0662 47.1811 27.5644 47.1811Z" fill="#1F7DBB"/>
<path d="M52.2449 57.9386L72.9861 22.0133C74.1191 20.0512 73.4468 17.5427 71.4852 16.4103C69.5231 15.2773 67.0146 15.9497 65.8822 17.9118L45.1404 53.837L43.2676 65.2845L52.2449 57.9386Z" fill="#CDE3FF"/>
<path d="M45.1404 53.837L52.2449 57.9385L43.2676 65.2845L45.1404 53.837Z" fill="#D8D8E4"/>
<path d="M64.4727 20.3539L65.8826 17.9118C67.015 15.9497 69.5235 15.2773 71.4856 16.4103C73.4471 17.5427 74.1194 20.0512 72.987 22.0133L71.5771 24.4555L64.4727 20.3539Z" fill="#FF8760"/>
<path d="M43.2674 66.7494C43.0162 66.7494 42.7633 66.6847 42.5356 66.5531C42.008 66.2487 41.7236 65.649 41.822 65.0482L43.6948 53.6007C43.7235 53.4262 43.7835 53.2579 43.8722 53.1046L47.3793 47.0306C47.7838 46.3297 48.6793 46.0894 49.3803 46.4945C50.0806 46.899 50.321 47.7945 49.9164 48.4955L46.5433 54.3377L45.3388 61.6968L51.11 56.9744L71.718 21.2809C72.4447 20.0221 72.0121 18.4061 70.7526 17.6789C69.4938 16.9516 67.8779 17.3848 67.1506 18.6442L55.8353 38.2433C55.4307 38.9437 54.5352 39.184 53.8343 38.7795C53.1339 38.3749 52.8936 37.4788 53.2981 36.7785L64.614 17.1793C66.1487 14.5209 69.5596 13.6071 72.2181 15.1417C74.8759 16.6764 75.7903 20.0873 74.2557 22.7457L53.5139 58.671C53.4252 58.8243 53.3096 58.9605 53.1728 59.0721L44.1955 66.418C43.9277 66.6372 43.5987 66.7494 43.2674 66.7494Z" fill="#1F7DBB"/>
<path d="M51.6367 44.0506C51.2516 44.0506 50.8734 43.895 50.5999 43.6214C50.3269 43.3491 50.1719 42.9708 50.1719 42.5858C50.1719 42.2007 50.3269 41.8224 50.5999 41.5501C50.8734 41.2777 51.2516 41.1209 51.6367 41.1209C52.0218 41.1209 52.4 41.2777 52.6724 41.5501C52.9448 41.8224 53.1016 42.2007 53.1016 42.5858C53.1016 42.9708 52.9448 43.3491 52.6724 43.6214C52.4 43.895 52.0218 44.0506 51.6367 44.0506Z" fill="#1F7DBB"/>
<path d="M52.0744 59.3061C51.8255 59.3061 51.5737 59.2426 51.3431 59.1099L44.8245 55.3459C44.1236 54.9414 43.8838 54.0459 44.2884 53.3449C44.6929 52.6445 45.589 52.4042 46.2894 52.8088L52.8079 56.5727C53.5089 56.9773 53.7486 57.8728 53.3441 58.5737C53.0729 59.0435 52.5808 59.3061 52.0744 59.3061Z" fill="#1F7DBB"/>
<path d="M71.5753 25.9203C71.3269 25.9203 71.0751 25.8574 70.844 25.724L63.7401 21.6225C63.0391 21.2179 62.7994 20.3219 63.2039 19.6215C63.6085 18.9211 64.5045 18.6808 65.2049 19.0853L72.3088 23.1869C73.0098 23.5914 73.2495 24.4869 72.845 25.1879C72.5738 25.6577 72.0817 25.9203 71.5753 25.9203Z" fill="#1F7DBB"/>
</g>
<defs>
<clipPath id="clip0_163_1096">
<rect width="75" height="75" fill="white"/>
</clipPath>
</defs>
</svg>
