<svg width="75" height="75" viewBox="0 0 75 75" fill="none" xmlns="http://www.w3.org/2000/svg">
<path d="M43.9453 56.25H31.0547V64.7461H43.9453V56.25Z" fill="white"/>
<path d="M22.8516 70.6057H52.1484V69.4338C52.1484 66.845 50.0498 64.7463 47.4609 64.7463H27.5391C24.9502 64.7463 22.8516 66.845 22.8516 69.4338V70.6057Z" fill="#CDE3FF"/>
<path d="M68.8477 4.39429C71.4365 4.39429 73.5352 6.49297 73.5352 9.08179V50.3904C73.5352 53.6264 70.9118 56.2498 67.6758 56.2498H7.32422C4.08823 56.2498 1.46484 53.6264 1.46484 50.3904V9.08179C1.46484 6.49297 3.56353 4.39429 6.15234 4.39429H68.8477Z" fill="white"/>
<path d="M6.15234 4.39429H37.5V44.5316H1.46484V9.08179C1.46484 6.49297 3.56353 4.39429 6.15234 4.39429Z" fill="#EFF6FF"/>
<path d="M1.46484 44.4822V50.3903C1.46484 53.6263 4.08823 56.2497 7.32422 56.2497H67.6758C70.9118 56.2497 73.5352 53.6263 73.5352 50.3903V44.4822H1.46484Z" fill="#CDE3FF"/>
<path d="M66.23 10.2537H43.3784V20.8005H66.23V10.2537Z" fill="#91C271"/>
<path d="M37.6387 48.9255C36.8298 48.9255 36.1738 49.5813 36.1738 50.3904C36.1738 51.1994 36.8298 51.8552 37.6387 51.8552H37.6527C38.4616 51.8552 39.1105 51.1994 39.1105 50.3904C39.1105 49.5813 38.4477 48.9255 37.6387 48.9255Z" fill="#1F7DBB"/>
<path d="M6.88477 43.0664C6.49951 43.0664 6.12158 43.2231 5.84912 43.4956C5.57666 43.7681 5.41992 44.146 5.41992 44.5312C5.41992 44.918 5.57651 45.2944 5.84912 45.5669C6.12173 45.8394 6.49951 45.9961 6.88477 45.9961C7.27002 45.9961 7.64795 45.8394 7.92026 45.5669C8.19287 45.2944 8.34961 44.9165 8.34961 44.5312C8.34961 44.146 8.19287 43.7681 7.92026 43.4956C7.64795 43.2231 7.27002 43.0664 6.88477 43.0664Z" fill="#1F7DBB"/>
<path d="M68.8477 2.92944H6.15234C2.75991 2.92944 0 5.68936 0 9.08179V50.3904C0 54.429 3.28564 57.7146 7.32422 57.7146H29.5898V63.2816H27.5391C24.1466 63.2816 21.3867 66.0415 21.3867 69.4339V70.6058C21.3867 71.4148 22.0427 72.0707 22.8516 72.0707H52.1484C52.9573 72.0707 53.6133 71.4148 53.6133 70.6058V69.4339C53.6133 66.0415 50.8534 63.2816 47.4609 63.2816H45.4102V57.7146H67.6758C71.7144 57.7146 75 54.429 75 50.3904V9.08179C75 5.68936 72.2401 2.92944 68.8477 2.92944ZM72.0703 9.08179V43.0668H38.9648V5.85913H68.8477C70.6247 5.85913 72.0703 7.30479 72.0703 9.08179ZM50.6704 69.141H24.3296C24.4781 67.5006 25.8608 66.2113 27.5391 66.2113H47.4609C49.1392 66.2113 50.5219 67.5006 50.6704 69.141ZM42.4805 63.2816H32.5195V57.7146H42.4805V63.2816ZM67.6758 54.7849H7.32422C4.90107 54.7849 2.92969 52.8135 2.92969 50.3904V9.08179C2.92969 7.30479 4.37534 5.85913 6.15234 5.85913H36.0352V43.0668H12.1582C11.3493 43.0668 10.6934 43.7226 10.6934 44.5316C10.6934 45.3406 11.3493 45.9964 12.1582 45.9964H72.0703V50.3904C72.0703 52.8135 70.0989 54.7849 67.6758 54.7849Z" fill="#1F7DBB"/>
<path d="M43.3779 22.2654H66.2295C67.0384 22.2654 67.6943 21.6096 67.6943 20.8005V10.2537C67.6943 9.44463 67.0384 8.78882 66.2295 8.78882H43.3779C42.569 8.78882 41.9131 9.44463 41.9131 10.2537V20.8005C41.9131 21.6096 42.5689 22.2654 43.3779 22.2654ZM44.8428 11.7185H64.7646V19.3357H44.8428V11.7185Z" fill="#1F7DBB"/>
<path d="M19.8596 26.3667C19.8596 25.5577 19.2036 24.9019 18.3947 24.9019H8.84424C8.03535 24.9019 7.37939 25.5577 7.37939 26.3667C7.37939 27.1757 8.03535 27.8315 8.84424 27.8315H18.3947C19.2038 27.8315 19.8596 27.1757 19.8596 26.3667Z" fill="#1F7DBB"/>
<path d="M23.4355 24.9019C22.6267 24.9019 21.9707 25.5577 21.9707 26.3667C21.9707 27.1757 22.6267 27.8315 23.4355 27.8315H30.7299C31.5388 27.8315 32.1947 27.1757 32.1947 26.3667C32.1947 25.5577 31.5388 24.9019 30.7299 24.9019H23.4355Z" fill="#1F7DBB"/>
<path d="M30.7298 36.619H28.0024C27.1936 36.619 26.5376 37.2748 26.5376 38.0839C26.5376 38.8929 27.1936 39.5487 28.0024 39.5487H30.7298C31.5387 39.5487 32.1947 38.8929 32.1947 38.0839C32.1947 37.2748 31.5389 36.619 30.7298 36.619Z" fill="#1F7DBB"/>
<path d="M23.6264 38.0855C23.6264 37.2764 22.9705 36.6206 22.1616 36.6206H8.84424C8.03535 36.6206 7.37939 37.2764 7.37939 38.0855C7.37939 38.8945 8.03535 39.5503 8.84424 39.5503H22.1616C22.9706 39.5503 23.6264 38.8945 23.6264 38.0855Z" fill="#1F7DBB"/>
<path d="M8.84424 30.761C8.03535 30.761 7.37939 31.4168 7.37939 32.2258C7.37939 33.0349 8.03535 33.6907 8.84424 33.6907H13.6196C14.4285 33.6907 15.0845 33.0349 15.0845 32.2258C15.0845 31.4168 14.4285 30.761 13.6196 30.761H8.84424Z" fill="#1F7DBB"/>
<path d="M30.7299 30.761H20.6543C19.8454 30.761 19.1895 31.4168 19.1895 32.2258C19.1895 33.0349 19.8454 33.6907 20.6543 33.6907H30.7299C31.5388 33.6907 32.1948 33.0349 32.1948 32.2258C32.1948 31.4168 31.539 30.761 30.7299 30.761Z" fill="#1F7DBB"/>
<path d="M43.4429 27.8315H66.2294C67.0383 27.8315 67.6942 27.1757 67.6942 26.3667C67.6942 25.5577 67.0383 24.9019 66.2294 24.9019H43.4429C42.634 24.9019 41.978 25.5577 41.978 26.3667C41.978 27.1757 42.634 27.8315 43.4429 27.8315Z" fill="#1F7DBB"/>
<path d="M66.23 36.6211C65.8433 36.6211 65.4668 36.7764 65.1943 37.0503C64.9204 37.3228 64.7651 37.6992 64.7651 38.0859C64.7651 38.4712 64.9204 38.8491 65.1943 39.1216C65.4668 39.394 65.8434 39.5508 66.23 39.5508C66.6152 39.5508 66.9917 39.394 67.2656 39.1216C67.5379 38.8491 67.6948 38.4712 67.6948 38.0859C67.6948 37.6992 67.5381 37.3228 67.2656 37.0503C66.9917 36.7764 66.6152 36.6211 66.23 36.6211Z" fill="#1F7DBB"/>
<path d="M60.2782 36.6206H43.4429C42.634 36.6206 41.978 37.2764 41.978 38.0855C41.978 38.8945 42.634 39.5503 43.4429 39.5503H60.2782C61.0871 39.5503 61.743 38.8945 61.743 38.0855C61.743 37.2764 61.0871 36.6206 60.2782 36.6206Z" fill="#1F7DBB"/>
<path d="M43.4429 33.6907H66.2294C67.0383 33.6907 67.6942 33.0349 67.6942 32.2258C67.6942 31.4168 67.0383 30.761 66.2294 30.761H43.4429C42.634 30.761 41.978 31.4168 41.978 32.2258C41.978 33.0349 42.634 33.6907 43.4429 33.6907Z" fill="#1F7DBB"/>
<path d="M11.6056 19.7741C11.8917 20.0601 12.2665 20.2031 12.6414 20.2031C13.0162 20.2031 13.3911 20.06 13.6772 19.7741C14.2492 19.202 14.2492 18.2745 13.6772 17.7025L10.9156 14.941L13.6772 12.1794C14.2492 11.6074 14.2492 10.6799 13.6772 10.1078C13.105 9.53583 12.1777 9.53583 11.6054 10.1078L7.80841 13.9053C7.23639 14.4773 7.23639 15.4049 7.80841 15.9769L11.6056 19.7741Z" fill="#1F7DBB"/>
<path d="M25.2876 19.7743C25.5736 20.0603 25.9485 20.2033 26.3234 20.2033C26.6982 20.2033 27.0731 20.0602 27.3591 19.7743L31.1563 15.9771C31.7283 15.4051 31.7283 14.4775 31.1563 13.9055L27.3591 10.1083C26.7873 9.53632 25.86 9.53632 25.2874 10.1083C24.7154 10.6804 24.7154 11.6079 25.2874 12.1799L28.0489 14.9414L25.2874 17.703C24.7155 18.2747 24.7155 19.2021 25.2876 19.7743Z" fill="#1F7DBB"/>
<path d="M16.0594 20.7657C16.2926 20.9028 16.5479 20.9679 16.8002 20.9679C17.3025 20.9679 17.7917 20.7093 18.0645 20.245L23.4261 11.1215C23.8361 10.4241 23.6029 9.52628 22.9054 9.11642C22.2077 8.70641 21.31 8.93961 20.9003 9.63717L15.5387 18.7607C15.1286 19.4581 15.3619 20.3559 16.0594 20.7657Z" fill="#1F7DBB"/>
</svg>
