<svg width="75" height="75" viewBox="0 0 75 75" fill="none" xmlns="http://www.w3.org/2000/svg">
<path d="M60.1318 1.46484H17.6514V46.8627L60.1318 21.1947V1.46484Z" fill="#49B1F7"/>
<path d="M17.6514 64.7461H14.7217C12.2946 64.7461 10.3271 62.7787 10.3271 60.3516V5.85938C10.3271 3.43228 12.2946 1.46484 14.7217 1.46484H17.6514V64.7461Z" fill="#CDE3FF"/>
<path d="M32.2998 73.5352L27.9053 70.6055L23.5107 73.5352V64.7461H32.2998V73.5352Z" fill="#FF7D97"/>
<path d="M58.8135 47.168C60.4315 47.168 61.7432 45.8563 61.7432 44.2383C61.7432 42.6203 60.4315 41.3086 58.8135 41.3086C57.1955 41.3086 55.8838 42.6203 55.8838 44.2383C55.8838 45.8563 57.1955 47.168 58.8135 47.168Z" fill="#FFDD40"/>
<path d="M32.4463 53.0273C34.0643 53.0273 35.376 51.7157 35.376 50.0977C35.376 48.4796 34.0643 47.168 32.4463 47.168C30.8283 47.168 29.5166 48.4796 29.5166 50.0977C29.5166 51.7157 30.8283 53.0273 32.4463 53.0273Z" fill="#FFDD40"/>
<path d="M61.7432 35.4492C63.3612 35.4492 64.6729 34.1376 64.6729 32.5195C64.6729 30.9015 63.3612 29.5898 61.7432 29.5898C60.1251 29.5898 58.8135 30.9015 58.8135 32.5195C58.8135 34.1376 60.1251 35.4492 61.7432 35.4492Z" fill="#FFDD40"/>
<path d="M30.835 10.2539H46.9482C47.7573 10.2539 48.4131 9.59795 48.4131 8.78906C48.4131 7.98018 47.7573 7.32422 46.9482 7.32422H30.835C30.0259 7.32422 29.3701 7.98018 29.3701 8.78906C29.3701 9.59795 30.0259 10.2539 30.835 10.2539Z" fill="#1F7DBB"/>
<path d="M24.2432 16.1133H38.8916C39.7006 16.1133 40.3564 15.4573 40.3564 14.6484C40.3564 13.8396 39.7006 13.1836 38.8916 13.1836H24.2432C23.4341 13.1836 22.7783 13.8396 22.7783 14.6484C22.7783 15.4573 23.4341 16.1133 24.2432 16.1133Z" fill="#1F7DBB"/>
<path d="M43.2861 14.6484C43.2861 15.4573 43.9419 16.1133 44.751 16.1133H53.54C54.3491 16.1133 55.0049 15.4573 55.0049 14.6484C55.0049 13.8396 54.3491 13.1836 53.54 13.1836H44.751C43.9419 13.1836 43.2861 13.8396 43.2861 14.6484Z" fill="#1F7DBB"/>
<path d="M38.8916 58.8867C38.8916 58.0796 38.2339 57.4219 37.4268 57.4219C36.6196 57.4219 35.9619 58.0796 35.9619 58.8867C35.9619 59.6938 36.6196 60.3516 37.4268 60.3516C38.2339 60.3516 38.8916 59.6938 38.8916 58.8867Z" fill="#1F7DBB"/>
<path d="M58.667 53.0273C58.667 53.8345 59.3247 54.4922 60.1318 54.4922C60.939 54.4922 61.5967 53.8345 61.5967 53.0273C61.5967 52.2202 60.939 51.5625 60.1318 51.5625C59.3247 51.5625 58.667 52.2202 58.667 53.0273Z" fill="#1F7DBB"/>
<path d="M58.8135 39.8438C56.9039 39.8438 55.2756 41.0685 54.6709 42.7734H46.9482H45.728V39.8438H47.1929C48 39.8438 48.6577 39.186 48.6577 38.3789C48.6577 37.5718 48 36.9141 47.1929 36.9141H44.2632C43.8765 36.9141 43.5 37.0707 43.2275 37.3433C42.9536 37.6157 42.7983 37.9937 42.7983 38.3789V42.7734H41.0889C40.2798 42.7734 39.624 43.4294 39.624 44.2383V48.6328H36.5889C35.9842 46.9279 34.356 45.7031 32.4463 45.7031C30.0231 45.7031 28.0518 47.6745 28.0518 50.0977C28.0518 52.5208 30.0231 54.4922 32.4463 54.4922C34.3559 54.4922 35.9842 53.2674 36.5889 51.5625H41.0889C41.8979 51.5625 42.5537 50.9065 42.5537 50.0977V45.7031H45.4834V53.0273C45.4834 53.8362 46.1392 54.4922 46.9482 54.4922H51.3428V58.8867C51.3428 59.6956 51.9986 60.3516 52.8076 60.3516H58.667V63.2812H48.4131V58.8867C48.4131 58.5015 48.2563 58.1235 47.9839 57.8511C47.7114 57.5786 47.3335 57.4219 46.9482 57.4219H43.2861C42.479 57.4219 41.8213 58.0796 41.8213 58.8867C41.8213 59.6938 42.479 60.3516 43.2861 60.3516H45.4834V63.2812H19.1162V47.6892L22.0459 45.9189V58.8867C22.0459 59.272 22.2026 59.6499 22.4751 59.9222C22.7476 60.1947 23.1255 60.3516 23.5107 60.3516H31.5674C32.3745 60.3516 33.0322 59.6938 33.0322 58.8867C33.0322 58.0796 32.3745 57.4219 31.5674 57.4219H24.9756V44.1486L33.7646 38.838V41.3086C33.7646 42.1157 34.4224 42.7734 35.2295 42.7734C36.0366 42.7734 36.6943 42.1157 36.6943 41.3086V37.0679L60.8893 22.4484C61.3182 22.1893 61.5967 21.6961 61.5967 21.1947V1.46484C61.5967 0.655957 60.9409 0 60.1318 0H14.7217C11.4908 0 8.8623 2.62852 8.8623 5.85938V60.3516C8.8623 63.5824 11.4908 66.2109 14.7217 66.2109H22.0459V73.5352C22.0459 74.0754 22.3433 74.5717 22.8195 74.8266C23.2957 75.0816 23.8737 75.0536 24.3233 74.7539L27.9053 72.3659L31.4873 74.7539C31.7323 74.9174 32.0156 75 32.2998 75C32.5368 75 32.7744 74.9426 32.9909 74.8266C33.4671 74.5717 33.7645 74.0752 33.7645 73.5352V66.2109H60.1317C60.9407 66.2109 61.5965 65.555 61.5965 64.7461V58.8867C61.5965 58.0778 60.9407 57.4219 60.1317 57.4219H54.2723V54.4922C55.0794 54.4922 55.7372 53.8345 55.7372 53.0273C55.7372 52.2202 55.0794 51.5625 54.2723 51.5625H52.8075H48.4129V45.7031H54.6707C55.2754 47.4081 56.9036 48.6328 58.8133 48.6328C61.2365 48.6328 63.2079 46.6614 63.2079 44.2383C63.2079 41.8151 61.2366 39.8438 58.8135 39.8438ZM32.4463 51.5625C31.6386 51.5625 30.9814 50.9054 30.9814 50.0977C30.9814 49.2899 31.6386 48.6328 32.4463 48.6328C33.254 48.6328 33.9111 49.2899 33.9111 50.0977C33.9111 50.9054 33.254 51.5625 32.4463 51.5625ZM58.667 20.3684L19.1162 44.2663V2.92969H58.667V20.3684ZM11.792 60.3516V5.85938C11.792 4.24395 13.1062 2.92969 14.7217 2.92969H16.1865V63.2812H14.7217C13.1062 63.2812 11.792 61.967 11.792 60.3516ZM30.835 70.798L28.7178 69.3866C28.4719 69.2225 28.1886 69.1405 27.9053 69.1405C27.622 69.1405 27.3387 69.2225 27.0927 69.3866L24.9756 70.798V66.2109H30.835V70.798ZM58.8135 45.7031C58.0058 45.7031 57.3486 45.046 57.3486 44.2383C57.3486 43.4306 58.0058 42.7734 58.8135 42.7734C59.6212 42.7734 60.2783 43.4306 60.2783 44.2383C60.2783 45.046 59.6212 45.7031 58.8135 45.7031Z" fill="#1F7DBB"/>
<path d="M61.7432 28.125C59.8336 28.125 58.2053 29.3498 57.6006 31.0547H53.0522C52.2437 31.0547 51.5874 31.7124 51.5874 32.5195C51.5874 33.3267 52.2437 33.9844 53.0522 33.9844H57.6006C58.2053 35.6893 59.8334 36.9141 61.7432 36.9141C64.1663 36.9141 66.1377 34.9427 66.1377 32.5195C66.1377 30.0964 64.1663 28.125 61.7432 28.125ZM61.7432 33.9844C60.9354 33.9844 60.2783 33.3272 60.2783 32.5195C60.2783 31.7118 60.9354 31.0547 61.7432 31.0547C62.5509 31.0547 63.208 31.7118 63.208 32.5195C63.208 33.3272 62.5509 33.9844 61.7432 33.9844Z" fill="#1F7DBB"/>
<path d="M54.4189 38.2808C54.4189 37.4735 53.7612 36.8159 52.9541 36.8159C52.147 36.8159 51.4893 37.4735 51.4893 38.2808C51.4893 39.0894 52.147 39.7456 52.9541 39.7456C53.7612 39.7456 54.4189 39.0894 54.4189 38.2808Z" fill="#1F7DBB"/>
</svg>
