<svg width="75" height="75" viewBox="0 0 75 75" fill="none" xmlns="http://www.w3.org/2000/svg">
<g clip-path="url(#clip0_167_234)">
<path d="M61.5234 43.3594C61.5234 45.9482 59.4248 48.0469 56.8359 48.0469H18.1641C15.5752 48.0469 13.4766 45.9482 13.4766 43.3594V6.15234C13.4766 3.56353 15.5752 1.46484 18.1641 1.46484H56.8359C59.4248 1.46484 61.5234 3.56353 61.5234 6.15234V43.3594Z" fill="white"/>
<path d="M18.2041 1.46484H56.8358C59.4247 1.46484 61.5233 3.56353 61.5233 6.15234V12.0117H13.5166V6.15234C13.5166 3.56353 15.6153 1.46484 18.2041 1.46484Z" fill="#FF8760"/>
<path d="M66.9067 43.4326H50.9766L45.1172 38.7451V43.4326H42.6636C39.0028 43.4326 36.0352 46.4002 36.0352 50.061V66.9067C36.0352 70.5675 39.0028 73.5352 42.6636 73.5352H66.9067C70.5675 73.5352 73.5352 70.5675 73.5352 66.9067V50.061C73.5352 46.4002 70.5675 43.4326 66.9067 43.4326Z" fill="#CDE3FF"/>
<path d="M38.1977 28.2239H29.1152C26.1939 25.8134 22.4489 24.3652 18.3656 24.3652C9.03164 24.3652 1.46484 31.932 1.46484 41.2662C1.46484 50.6003 9.03164 58.1669 18.3656 58.1669C27.6996 58.1669 35.2666 50.6001 35.2666 41.2662C35.2666 38.3453 34.5255 35.5975 33.2212 33.2004L38.1977 28.2239Z" fill="#EFF6FF"/>
<path d="M37.8066 8.20312H55.2244C56.0334 8.20312 56.6892 7.54717 56.6892 6.73828C56.6892 5.92939 56.0334 5.27344 55.2244 5.27344H37.8066C36.9976 5.27344 36.3418 5.92939 36.3418 6.73828C36.3418 7.54717 36.9976 8.20312 37.8066 8.20312Z" fill="#1F7DBB"/>
<path d="M24.8994 8.20312C25.2847 8.20312 25.6626 8.04639 25.9351 7.77378C26.2075 7.50146 26.3643 7.12354 26.3643 6.73828C26.3643 6.35303 26.2075 5.9751 25.9351 5.70264C25.6626 5.43018 25.2847 5.27344 24.8994 5.27344C24.5127 5.27344 24.1348 5.43003 23.8623 5.70264C23.5898 5.97524 23.4346 6.35303 23.4346 6.73828C23.4346 7.12354 23.5898 7.50146 23.8623 7.77378C24.1362 8.04639 24.5127 8.20312 24.8994 8.20312Z" fill="#1F7DBB"/>
<path d="M19.3286 8.20312C19.7139 8.20312 20.0918 8.04639 20.3643 7.77378C20.6367 7.50146 20.7935 7.12354 20.7935 6.73828C20.7935 6.35303 20.6367 5.9751 20.3643 5.70264C20.0918 5.43018 19.7139 5.27344 19.3286 5.27344C18.9434 5.27344 18.5654 5.43003 18.293 5.70264C18.0205 5.97524 17.8638 6.35303 17.8638 6.73828C17.8638 7.12354 18.0205 7.50146 18.293 7.77378C18.5654 8.04639 18.9434 8.20312 19.3286 8.20312Z" fill="#1F7DBB"/>
<path d="M30.4688 8.20312C30.854 8.20312 31.2319 8.04639 31.5044 7.77378C31.7769 7.50146 31.9336 7.12354 31.9336 6.73828C31.9336 6.35303 31.7769 5.9751 31.5044 5.70264C31.2319 5.43018 30.854 5.27344 30.4688 5.27344C30.0835 5.27344 29.7056 5.43003 29.4331 5.70264C29.1606 5.9751 29.0039 6.35303 29.0039 6.73828C29.0039 7.12354 29.1606 7.50146 29.4331 7.77378C29.7056 8.04639 30.0835 8.20312 30.4688 8.20312Z" fill="#1F7DBB"/>
<path d="M43.5059 19.6354C43.5059 18.8265 42.85 18.1705 42.041 18.1705H36.0352C35.2261 18.1705 34.5703 18.8265 34.5703 19.6354C34.5703 20.4443 35.2261 21.1002 36.0352 21.1002H42.041C42.85 21.1002 43.5059 20.4443 43.5059 19.6354Z" fill="#1F7DBB"/>
<path d="M48.0249 21.1002H54.0186C54.8276 21.1002 55.4834 20.4443 55.4834 19.6354C55.4834 18.8265 54.8276 18.1705 54.0186 18.1705H48.0249C47.2159 18.1705 46.5601 18.8265 46.5601 19.6354C46.5601 20.4443 47.2159 21.1002 48.0249 21.1002Z" fill="#1F7DBB"/>
<path d="M54.0186 32.2281H54.0182L52.4589 32.2287C51.65 32.229 50.9943 32.885 50.9946 33.6942C50.9949 34.5029 51.6507 35.1584 52.4595 35.1584C52.4595 35.1584 52.4598 35.1584 52.4601 35.1584L54.0192 35.1578C54.8281 35.1575 55.4838 34.5016 55.4835 33.6924C55.4832 32.8835 54.8274 32.2281 54.0186 32.2281Z" fill="#1F7DBB"/>
<path d="M47.1678 32.2318C47.1678 32.2318 47.1674 32.2318 47.1671 32.2318L41.5056 32.2349C40.6966 32.2353 40.0411 32.8914 40.0415 33.7005C40.0419 34.5092 40.6976 35.1646 41.5063 35.1646C41.5063 35.1646 41.5068 35.1646 41.5071 35.1646L47.1686 35.1615C47.9776 35.1611 48.6331 34.505 48.6327 33.6959C48.6322 32.8872 47.9766 32.2318 47.1678 32.2318Z" fill="#1F7DBB"/>
<path d="M48.7793 25.2014H43.8828C43.0738 25.2014 42.418 25.8574 42.418 26.6663C42.418 27.4751 43.0738 28.1311 43.8828 28.1311H48.7793C49.5884 28.1311 50.2442 27.4751 50.2442 26.6663C50.2442 25.8574 49.5884 25.2014 48.7793 25.2014Z" fill="#1F7DBB"/>
<path d="M54.019 25.2012C53.6323 25.2012 53.2559 25.3578 52.9819 25.6304C52.7095 25.9028 52.5542 26.2808 52.5542 26.666C52.5542 27.0513 52.7095 27.4292 52.9819 27.7015C53.2559 27.9754 53.6323 28.1309 54.019 28.1309C54.4043 28.1309 54.7808 27.9754 55.0547 27.7015C55.3271 27.4292 55.4839 27.0513 55.4839 26.666C55.4839 26.2808 55.3271 25.9028 55.0547 25.6304C54.7808 25.3578 54.4043 25.2012 54.019 25.2012Z" fill="#1F7DBB"/>
<path d="M54.7852 72.0703C54.3999 72.0703 54.022 72.2269 53.7495 72.4995C53.477 72.772 53.3203 73.1499 53.3203 73.5352C53.3203 73.9204 53.477 74.2983 53.7495 74.5707C54.022 74.8431 54.3999 75 54.7852 75C55.1704 75 55.5483 74.8433 55.8208 74.5707C56.0933 74.2983 56.25 73.9204 56.25 73.5352C56.25 73.1499 56.0933 72.772 55.8208 72.4995C55.5483 72.227 55.1704 72.0703 54.7852 72.0703Z" fill="#1F7DBB"/>
<path d="M66.9067 41.9678H62.9883V6.15234C62.9883 2.75991 60.2284 0 56.8359 0H18.1641C14.7716 0 12.0117 2.75991 12.0117 6.15234V24.034C5.00684 26.6251 0 33.3718 0 41.2661C0 51.393 8.23887 59.6317 18.3656 59.6317C25.3759 59.6317 31.4805 55.683 34.5746 49.8936C34.5734 49.9496 34.5703 50.0049 34.5703 50.061V66.9067C34.5703 71.3694 38.2009 75 42.6636 75H49.5083C50.3174 75 50.9732 74.344 50.9732 73.5352C50.9732 72.7263 50.3174 72.0703 49.5083 72.0703H42.6636C39.8164 72.0703 37.5 69.754 37.5 66.9067V50.061C37.5 47.2138 39.8164 44.8975 42.6636 44.8975H45.1172C45.9262 44.8975 46.582 44.2415 46.582 43.4326V41.793L50.0615 44.5765C50.3212 44.7844 50.644 44.8975 50.9766 44.8975H66.9067C69.754 44.8975 72.0703 47.2138 72.0703 50.061V66.9067C72.0703 69.754 69.754 72.0703 66.9067 72.0703H60.9447C60.1356 72.0703 59.4798 72.7263 59.4798 73.5352C59.4798 74.344 60.1356 75 60.9447 75H66.9067C71.3694 75 75 71.3694 75 66.9067V50.061C75 45.5984 71.3694 41.9678 66.9067 41.9678ZM18.1641 2.92969H56.8359C58.6129 2.92969 60.0586 4.37534 60.0586 6.15234V10.5469H14.9414V6.15234C14.9414 4.37534 16.3871 2.92969 18.1641 2.92969ZM18.3656 56.702C9.85415 56.702 2.92969 49.7774 2.92969 41.2661C2.92969 32.7546 9.85415 25.83 18.3656 25.83C21.9426 25.83 25.4291 27.0814 28.1829 29.3537C28.4454 29.5704 28.775 29.6887 29.1152 29.6887H34.6611L32.1853 32.1645C31.7262 32.6235 31.6241 33.33 31.9343 33.9004C33.1559 36.1455 33.8016 38.6925 33.8016 41.2661C33.8016 49.7774 26.8771 56.702 18.3656 56.702ZM46.0323 37.6012C45.5925 37.2497 44.9902 37.181 44.4826 37.4249C43.9752 37.6688 43.6523 38.182 43.6523 38.7451V41.9678H42.6636C40.1108 41.9678 37.8318 43.1571 36.3473 45.0092C36.5987 43.8003 36.7313 42.5484 36.7313 41.2661C36.7313 38.5758 36.1374 35.9084 35.0061 33.4871L39.2334 29.2598C39.6523 28.8409 39.7777 28.2108 39.5509 27.6634C39.3242 27.1162 38.7901 26.7592 38.1976 26.7592H29.6291C26.4208 24.2672 22.4421 22.9005 18.3656 22.9005C17.1955 22.9005 16.0512 23.0118 14.9414 23.222V13.4766H60.0586V41.9678H51.4904L46.0323 37.6012Z" fill="#1F7DBB"/>
<path d="M45.4134 63.1714C46.2224 63.1714 46.8782 62.5154 46.8782 61.7065V55.2612C46.8782 54.4523 46.2224 53.7964 45.4134 53.7964C44.6043 53.7964 43.9485 54.4523 43.9485 55.2612V57.019H42.2021V55.2612C42.2021 54.4523 41.5463 53.7964 40.7373 53.7964C39.9283 53.7964 39.2725 54.4523 39.2725 55.2612V61.7065C39.2725 62.5154 39.9283 63.1714 40.7373 63.1714C41.5463 63.1714 42.2021 62.5154 42.2021 61.7065V59.9487H43.9485V61.7065C43.9485 62.5154 44.6043 63.1714 45.4134 63.1714Z" fill="#1F7DBB"/>
<path d="M66.7236 53.7964C65.9146 53.7964 65.2588 54.4523 65.2588 55.2612V61.7065C65.2588 62.5154 65.9146 63.1714 66.7236 63.1714H69.491C70.3 63.1714 70.9559 62.5154 70.9559 61.7065C70.9559 60.8977 70.3 60.2417 69.491 60.2417H68.1885V55.2612C68.1885 54.4523 67.5327 53.7964 66.7236 53.7964Z" fill="#1F7DBB"/>
<path d="M53.3305 56.7261C54.1396 56.7261 54.7954 56.0701 54.7954 55.2612C54.7954 54.4523 54.1396 53.7964 53.3305 53.7964H49.5083C48.6993 53.7964 48.0435 54.4523 48.0435 55.2612C48.0435 56.0701 48.6993 56.7261 49.5083 56.7261H49.9545V61.7065C49.9545 62.5154 50.6103 63.1714 51.4193 63.1714C52.2284 63.1714 52.8842 62.5154 52.8842 61.7065V56.7261H53.3305Z" fill="#1F7DBB"/>
<path d="M60.7611 58.7964V61.7065C60.7611 62.5154 61.4169 63.1713 62.226 63.1713C63.035 63.1713 63.6908 62.5154 63.6908 61.7065V55.2612C63.6908 54.6686 63.3338 54.1346 62.7866 53.9078C62.2395 53.6816 61.6093 53.8064 61.1902 54.2254L59.7631 55.6524L58.3361 54.2254C57.9171 53.8064 57.2868 53.6813 56.7397 53.9078C56.1923 54.1346 55.8354 54.6686 55.8354 55.2612V61.7065C55.8354 62.5154 56.4913 63.1713 57.3003 63.1713C58.1093 63.1713 58.7651 62.5154 58.7651 61.7065V58.7964C59.0357 59.0482 59.3922 59.189 59.7631 59.189C60.134 59.189 60.4906 59.0482 60.7611 58.7964Z" fill="#1F7DBB"/>
<path d="M10.7646 38.8389C11.413 38.8389 12.0225 39.0914 12.481 39.5499C13.053 40.1218 13.9807 40.1219 14.5526 39.5499C15.1246 38.9779 15.1248 38.0503 14.5526 37.4782C13.5408 36.4664 12.1955 35.9092 10.7646 35.9092C9.33379 35.9092 7.98848 36.4664 6.97671 37.4782C5.96479 38.4899 5.40771 39.8353 5.40771 41.2661C5.40771 42.697 5.96494 44.0421 6.97671 45.0541C8.021 46.0983 9.39282 46.6204 10.7646 46.6204C12.1365 46.6204 13.5082 46.0983 14.5526 45.0541C15.1246 44.482 15.1248 43.5545 14.5526 42.9823C13.9807 42.4106 13.053 42.4106 12.481 42.9823C11.5344 43.9288 9.99458 43.9288 9.04829 42.9823C8.5898 42.5238 8.33726 41.9143 8.33726 41.266C8.33726 40.6175 8.5898 40.0081 9.04829 39.5496C9.50679 39.0911 10.1163 38.8389 10.7646 38.8389Z" fill="#1F7DBB"/>
<path d="M19.1902 38.8389H21.1362C21.9453 38.8389 22.6011 38.1829 22.6011 37.374C22.6011 36.5651 21.9453 35.9092 21.1362 35.9092H19.1902C17.3095 35.9092 15.7793 37.4392 15.7793 39.3201C15.7793 41.2009 17.3095 42.731 19.1902 42.731C19.4556 42.731 19.6714 42.9469 19.6714 43.2122C19.6714 43.4774 19.4555 43.6934 19.1902 43.6934H17.2441C16.4351 43.6934 15.7793 44.3493 15.7793 45.1582C15.7793 45.9671 16.4351 46.623 17.2441 46.623H19.1902C21.0709 46.623 22.6011 45.093 22.6011 43.2122C22.6011 41.3313 21.0709 39.8013 19.1902 39.8013C18.9248 39.8013 18.709 39.5853 18.709 39.3201C18.709 39.0548 18.9249 38.8389 19.1902 38.8389Z" fill="#1F7DBB"/>
<path d="M27.052 38.8389H28.998C29.8071 38.8389 30.4629 38.1829 30.4629 37.374C30.4629 36.5651 29.8071 35.9092 28.998 35.9092H27.052C25.1713 35.9092 23.6411 37.4392 23.6411 39.3201C23.6411 41.2009 25.1713 42.731 27.052 42.731C27.3174 42.731 27.5332 42.9469 27.5332 43.2122C27.5332 43.4774 27.3173 43.6934 27.052 43.6934H25.106C24.2969 43.6934 23.6411 44.3493 23.6411 45.1582C23.6411 45.9671 24.2969 46.623 25.106 46.623H27.052C28.9327 46.623 30.4629 45.093 30.4629 43.2122C30.4629 41.3313 28.9327 39.8013 27.052 39.8013C26.7866 39.8013 26.5708 39.5853 26.5708 39.3201C26.5708 39.0548 26.7867 38.8389 27.052 38.8389Z" fill="#1F7DBB"/>
</g>
<defs>
<clipPath id="clip0_167_234">
<rect width="75" height="75" fill="white"/>
</clipPath>
</defs>
</svg>
