<svg width="75" height="75" viewBox="0 0 75 75" fill="none" xmlns="http://www.w3.org/2000/svg">
<mask id="mask0_167_1117" style="mask-type:luminance" maskUnits="userSpaceOnUse" x="0" y="0" width="75" height="75">
<path d="M0 7.62939e-06H75V75H0V7.62939e-06Z" fill="white"/>
</mask>
<g mask="url(#mask0_167_1117)">
<path d="M25.8252 48.6082V56.3171C25.8252 58.6051 27.68 60.4598 29.9678 60.4598H54.6346C56.9225 60.4598 58.7773 58.6051 58.7773 56.3171V5.60759C58.7773 3.31965 56.9225 1.46487 54.6346 1.46487H29.9678C27.68 1.46487 25.8252 3.31965 25.8252 5.60759V35.7183" fill="#EFF6FF"/>
<path d="M62.6135 30.4341H58.7773V21.5195H62.6135C65.0751 21.5195 67.0708 23.5152 67.0708 25.9767V25.9769C67.0708 28.4384 65.0751 30.4341 62.6135 30.4341Z" fill="white"/>
<path d="M62.6135 39.3486H58.7773V30.434H62.6135C65.0751 30.434 67.0708 32.4296 67.0708 34.8913C67.0708 37.3529 65.0751 39.3486 62.6135 39.3486Z" fill="white"/>
<path d="M62.6135 48.2632H58.7773V39.3486H62.6135C65.0751 39.3486 67.0708 41.3441 67.0708 43.8058C67.0708 46.2675 65.0751 48.2632 62.6135 48.2632Z" fill="white"/>
<path d="M62.6135 57.1777H58.7773V48.2633H62.6135C65.0751 48.2633 67.0708 50.2588 67.0708 52.7205C67.0708 55.1822 65.0751 57.1777 62.6135 57.1777Z" fill="white"/>
<path d="M42.3144 7.46289C39.9895 7.46289 38.105 5.57822 38.105 3.25352V1.4648H46.5237V3.25352C46.5237 5.57822 44.6392 7.46289 42.3144 7.46289Z" fill="#5C90AE"/>
<path fill-rule="evenodd" clip-rule="evenodd" d="M29.9678 58.995C28.489 58.995 27.29 57.7961 27.29 56.3171V5.6076C27.29 4.12864 28.489 2.92971 29.9678 2.92971H54.6346C56.1135 2.92971 57.3125 4.12867 57.3125 5.6076V56.3171C57.3125 57.796 56.1135 58.995 54.6346 58.995H29.9678ZM24.3604 56.3171C24.3604 59.414 26.8709 61.9247 29.9678 61.9247H54.6346C57.7315 61.9247 60.2421 59.4141 60.2421 56.3171V5.6076C60.2421 2.51065 57.7315 2.28882e-05 54.6346 2.28882e-05H29.9678C26.8709 2.28882e-05 24.3604 2.51068 24.3604 5.6076V56.3171Z" fill="#1F7DBB"/>
<path fill-rule="evenodd" clip-rule="evenodd" d="M57.3125 30.4341C57.3125 31.2431 57.9683 31.8989 58.7773 31.8989H62.6135C65.8841 31.8989 68.5357 29.2474 68.5357 25.9769V25.9767C68.5357 22.7061 65.8841 20.0546 62.6135 20.0546H58.7773C57.9683 20.0546 57.3125 20.7105 57.3125 21.5195V30.4341ZM60.2422 28.9692V22.9843H62.6135C64.2662 22.9843 65.606 24.3242 65.606 25.9767V25.9769C65.606 27.6293 64.2662 28.9692 62.6135 28.9692H60.2422Z" fill="#1F7DBB"/>
<path fill-rule="evenodd" clip-rule="evenodd" d="M57.3125 39.3486C57.3125 40.1576 57.9683 40.8135 58.7773 40.8135H62.6135C65.8842 40.8135 68.5357 38.1619 68.5357 34.8913C68.5357 31.6205 65.8841 28.9692 62.6135 28.9692H58.7773C57.9683 28.9692 57.3125 29.625 57.3125 30.434V39.3486ZM60.2422 37.8838V31.8989H62.6135C64.2662 31.8989 65.606 33.2387 65.606 34.8913C65.606 36.5439 64.2661 37.8838 62.6135 37.8838H60.2422Z" fill="#1F7DBB"/>
<path fill-rule="evenodd" clip-rule="evenodd" d="M57.3125 48.2632C57.3125 49.0722 57.9683 49.728 58.7773 49.728H62.6135C65.8842 49.728 68.5357 47.0765 68.5357 43.8058C68.5357 40.5351 65.8841 37.8837 62.6135 37.8837H58.7773C57.9683 37.8837 57.3125 38.5396 57.3125 39.3486V48.2632ZM60.2422 46.7983V40.8134H62.6135C64.2662 40.8134 65.606 42.1532 65.606 43.8058C65.606 45.4585 64.2661 46.7983 62.6135 46.7983H60.2422Z" fill="#1F7DBB"/>
<path fill-rule="evenodd" clip-rule="evenodd" d="M57.3125 57.1777C57.3125 57.9867 57.9683 58.6426 58.7773 58.6426H62.6135C65.8841 58.6426 68.5357 55.9913 68.5357 52.7205C68.5357 49.4498 65.8841 46.7984 62.6135 46.7984H58.7773C57.9683 46.7984 57.3125 47.4543 57.3125 48.2633V57.1777ZM60.2422 55.7129V49.7281H62.6135C64.2662 49.7281 65.606 51.0679 65.606 52.7205C65.606 54.3731 64.2662 55.7129 62.6135 55.7129H60.2422Z" fill="#1F7DBB"/>
<path d="M25.8252 35.7183V20.3849C25.8252 15.4923 23.5078 11.4127 18.8818 10.5001C17.8652 10.3009 16.9219 11.089 16.9219 12.1247V28.4991C16.9219 30.9199 16.4884 33.322 15.6284 35.5849C14.4489 38.6886 13.9809 43.8683 13.9809 49.2051L7.9292 54.9806V73.5352H24.5208L29.7797 67.7021C29.7797 67.7021 42.7573 66.2651 47.644 60.46H29.9678C27.6798 60.46 25.8252 58.6053 25.8252 56.3174V48.6082V35.7183Z" fill="white"/>
<path fill-rule="evenodd" clip-rule="evenodd" d="M23.5399 74.6231C24.1408 75.1648 25.067 75.1169 25.6087 74.516L30.5041 69.0861C30.5186 69.0841 30.5333 69.082 30.5483 69.08C30.9275 69.0273 31.4703 68.9459 32.1353 68.83C33.4631 68.5985 35.2886 68.2273 37.2761 67.6681C41.1609 66.5748 46.0141 64.6708 48.7646 61.4033C49.1314 60.9674 49.2123 60.3584 48.972 59.8419C48.7316 59.3254 48.2136 58.9951 47.6439 58.9951H29.9678C28.4888 58.9951 27.29 57.7963 27.29 56.3174V20.3849C27.29 15.0672 24.7154 10.1579 19.1652 9.063L19.1634 9.06264C17.2276 8.6833 15.457 10.1816 15.457 12.1247V15.6539C15.457 16.4629 16.1129 17.1187 16.9219 17.1187C17.7309 17.1187 18.3867 16.4629 18.3867 15.6539V12.1247C18.3867 11.9967 18.502 11.9189 18.5993 11.9375C22.3003 12.6682 24.3604 15.9179 24.3604 20.3849V56.3174C24.3604 59.4143 26.8708 61.9248 29.9678 61.9248H43.5993C41.5125 63.1966 38.945 64.1549 36.4824 64.8479C34.6147 65.3735 32.8902 65.7245 31.6321 65.9438C31.004 66.0533 30.4948 66.1296 30.1451 66.1781C29.9704 66.2024 29.8357 66.2198 29.7461 66.2309C29.7013 66.2364 29.6679 66.2404 29.6464 66.243C29.6356 66.2442 29.6278 66.2451 29.6231 66.2456L29.6184 66.2462L29.6183 66.2462C29.6182 66.2462 29.618 66.2462 29.6179 66.2462C29.6181 66.2462 29.6183 66.2462 29.7795 67.7021M23.5399 74.6231C22.939 74.0814 22.8911 73.1551 23.4328 72.5543L23.5399 74.6231ZM23.4328 72.5543L28.6916 66.7213L23.4328 72.5543ZM28.6916 66.7213C28.9318 66.4548 29.2614 66.2858 29.6179 66.2462L28.6916 66.7213Z" fill="#1F7DBB"/>
<path fill-rule="evenodd" clip-rule="evenodd" d="M6.86948 55.9918C7.42802 56.577 8.35525 56.5987 8.94052 56.0402L14.9922 50.2649C15.2819 49.9885 15.4458 49.6056 15.4458 49.2052C15.4458 43.8821 15.9213 38.9382 16.9977 36.1052L15.6453 35.5913L16.9977 36.1052C17.9169 33.6867 18.3811 31.1236 18.3863 28.543C18.3879 27.734 17.7334 27.0768 16.9244 27.0752C16.1154 27.0736 15.4582 27.7281 15.4566 28.5371C15.4521 30.7705 15.0504 32.9825 14.2591 35.0645L14.2591 35.0646C13.0271 38.3068 12.5534 43.4334 12.5182 48.5762L6.91789 53.9207C6.33262 54.4793 6.31095 55.4065 6.86948 55.9918Z" fill="#1F7DBB"/>
<path fill-rule="evenodd" clip-rule="evenodd" d="M36.6401 3.25352C36.6401 6.3872 39.1805 8.92773 42.3144 8.92773C45.4483 8.92773 47.9886 6.3872 47.9886 3.25352V1.4648C47.9886 0.655786 47.3327 -4.86374e-05 46.5237 -4.86374e-05H38.105C37.296 -4.86374e-05 36.6401 0.655786 36.6401 1.4648V3.25352ZM42.3144 5.99805C40.7985 5.99805 39.5698 4.76925 39.5698 3.25352V2.92964H45.0589V3.25352C45.0589 4.76925 43.8302 5.99805 42.3144 5.99805Z" fill="#1F7DBB"/>
<path d="M58.7773 50.0154V45.6138C58.7773 40.9978 55.0479 37.0407 50.4233 36.8485H46.5932C45.6204 38.2361 44.0522 39.0512 42.3521 39.0512C40.6676 39.0512 39.0943 38.2361 38.1214 36.8485H34.1389C29.5289 37.0713 25.8252 41.0015 25.8252 45.6118V50.0154H58.7773Z" fill="#FFC107"/>
<path d="M46.5934 36.8485C44.5332 39.7854 40.1817 39.7854 38.1216 36.8485L38.7954 31.6898C39.827 32.2473 41.0069 32.5634 42.2617 32.5634C43.615 32.5634 44.8763 32.191 45.9562 31.5478L46.5934 36.8485Z" fill="white"/>
<path fill-rule="evenodd" clip-rule="evenodd" d="M36.9224 37.6897C39.5658 41.4581 45.1491 41.4581 47.7926 37.6897C48 37.3941 48.0908 37.0322 48.0477 36.6737L47.4105 31.373C47.3514 30.8808 47.0473 30.452 46.6025 30.2333C46.1577 30.0146 45.6324 30.0356 45.2065 30.2893C44.3455 30.8021 43.3422 31.0985 42.2617 31.0985C41.256 31.0985 40.3147 30.8458 39.4919 30.4011C39.0677 30.1718 38.5578 30.166 38.1285 30.3856C37.6991 30.6051 37.4054 31.0219 37.3429 31.5L36.6691 36.6588C36.6216 37.022 36.712 37.3898 36.9224 37.6897ZM39.6549 36.4195L40.0056 33.7349C40.7261 33.9263 41.4824 34.0282 42.2617 34.0282C43.122 34.0282 43.9523 33.9028 44.7359 33.6701L45.0657 36.4134C43.6126 37.9752 41.1107 37.9773 39.6549 36.4195Z" fill="#1F7DBB"/>
<path d="M49.5651 22.5179V25.4905C49.4271 29.3379 46.2466 32.5634 42.2612 32.5634C38.369 32.5634 35.0986 29.3767 34.9604 25.489V22.5613C40.326 22.4946 42.3573 19.7003 42.3573 19.7003C42.3573 19.7003 44.2602 22.2372 49.5651 22.5179Z" fill="white"/>
<path fill-rule="evenodd" clip-rule="evenodd" d="M33.4965 25.5411C33.6624 30.2092 37.5725 34.0282 42.2612 34.0282C47.0594 34.0282 50.8636 30.154 51.029 25.543C51.0296 25.5255 51.0299 25.508 51.0299 25.4905V22.5179C51.0299 21.739 50.4203 21.0963 49.6425 21.0551C47.2231 20.9271 45.6494 20.2907 44.7141 19.741C44.2426 19.4639 43.9232 19.2028 43.7334 19.0268C43.6384 18.9387 43.5756 18.8717 43.5424 18.8345C43.5281 18.8185 43.5193 18.808 43.5158 18.8038C43.2363 18.4426 42.8039 18.232 42.3464 18.2355C41.8878 18.2389 41.4576 18.4569 41.1836 18.8238C41.1797 18.8287 41.1687 18.8424 41.1504 18.8637C41.1126 18.9074 41.044 18.9831 40.9422 19.0806C40.7388 19.2757 40.4035 19.5581 39.9175 19.8496C38.9556 20.4266 37.3592 21.0665 34.9423 21.0965C34.1404 21.1065 33.4956 21.7593 33.4956 22.5613V25.489C33.4956 25.5064 33.4959 25.5237 33.4965 25.5411ZM42.381 21.7052C42.6234 21.8858 42.9053 22.0761 43.2296 22.2667C44.3456 22.9226 45.9371 23.5671 48.1002 23.8535V25.4628C47.9769 28.5356 45.4253 31.0985 42.2612 31.0985C39.1737 31.0985 36.5486 28.5577 36.4253 25.4615V23.9438C38.6292 23.7161 40.2692 23.0549 41.4245 22.362C41.7951 22.1396 42.1128 21.9159 42.381 21.7052Z" fill="#1F7DBB"/>
<path fill-rule="evenodd" clip-rule="evenodd" d="M24.3604 50.0154C24.3604 50.8244 25.0162 51.4802 25.8252 51.4802H58.7773C59.5863 51.4802 60.2421 50.8244 60.2421 50.0154V45.6138C60.2421 40.226 55.9069 35.6103 50.4841 35.3849C50.4639 35.3841 50.4436 35.3836 50.4233 35.3836H46.5932C46.1155 35.3836 45.6679 35.6165 45.3937 36.0076C44.6958 37.0031 43.5759 37.5863 42.3521 37.5863C41.1448 37.5863 40.0193 37.0038 39.3208 36.0075C39.0466 35.6165 38.599 35.3836 38.1214 35.3836H34.1389C34.1153 35.3836 34.0918 35.3842 34.0682 35.3854C28.669 35.6463 24.3604 40.2286 24.3604 45.6118V50.0154ZM27.29 48.5505V45.6118C27.29 41.7856 30.3707 38.5155 34.176 38.3133H37.4173C38.6697 39.7108 40.4568 40.516 42.3521 40.516C44.2604 40.516 46.0456 39.7113 47.2975 38.3133H50.3914C54.2047 38.4877 57.3125 41.7793 57.3125 45.6138V48.5505H27.29Z" fill="#1F7DBB"/>
<path d="M42.3571 14.0637C33.9873 14.0637 33.9873 22.5441 33.9873 22.5441C40.0827 22.8296 42.3571 19.7004 42.3571 19.7004C42.3571 19.7004 44.4916 22.5441 50.5352 22.5441C50.5352 22.5441 50.5352 14.0637 42.3571 14.0637Z" fill="#5C90AE"/>
<path fill-rule="evenodd" clip-rule="evenodd" d="M35.635 21.0704C35.7651 20.4376 35.9836 19.6887 36.3471 18.9521C36.7852 18.0643 37.4185 17.2239 38.3383 16.6026C39.2479 15.9881 40.525 15.5285 42.3571 15.5285C44.1342 15.5285 45.3705 15.9842 46.2521 16.5937C47.1455 17.2113 47.7641 18.0495 48.1935 18.9401C48.5369 19.6523 48.7483 20.3762 48.8773 20.9963C47.0149 20.8025 45.7248 20.3015 44.8872 19.8395C44.3494 19.5429 43.9853 19.2553 43.7681 19.0587C43.6593 18.9602 43.5871 18.8843 43.5482 18.8412C43.5302 18.8213 43.5193 18.8084 43.5153 18.8035C43.2358 18.4425 42.8034 18.2321 42.3459 18.2356C41.8874 18.2391 41.4574 18.457 41.1835 18.8238C41.1834 18.824 41.1832 18.8242 41.183 18.8244C41.1783 18.8304 41.1651 18.8467 41.1433 18.8718C41.0995 18.922 41.021 19.0072 40.9052 19.1157C40.6736 19.3325 40.2931 19.6421 39.7411 19.9518C38.8723 20.4394 37.5413 20.9486 35.635 21.0704ZM42.381 21.7052C42.0544 21.9618 41.6543 22.2377 41.1748 22.5068C39.6051 23.3876 37.2405 24.1629 33.9188 24.0073C33.1373 23.9707 32.5225 23.3265 32.5225 22.5441H33.9873C32.5225 22.5441 32.5225 22.5434 32.5225 22.5426L32.5225 22.5409L32.5225 22.5369L32.5225 22.5265C32.5226 22.5185 32.5227 22.5085 32.5229 22.4964C32.5233 22.4724 32.524 22.4403 32.5253 22.4007C32.5279 22.3215 32.5329 22.2121 32.5424 22.0767C32.5615 21.8064 32.5989 21.4296 32.6727 20.9813C32.819 20.0916 33.1144 18.8826 33.7199 17.6556C34.328 16.4233 35.2642 15.1436 36.6984 14.1749C38.1427 13.1993 40.0044 12.5988 42.3571 12.5988C44.6691 12.5988 46.4995 13.2031 47.9181 14.1838C49.3248 15.1563 50.2396 16.4381 50.8324 17.6677C51.4231 18.8927 51.7111 20.0992 51.8537 20.9866C51.9256 21.4338 51.9621 21.8096 51.9806 22.079C51.9899 22.214 51.9948 22.323 51.9973 22.4018C51.9986 22.4412 51.9992 22.4731 51.9996 22.497C51.9998 22.5089 51.9999 22.5189 52 22.5267L52 22.537L52 22.5426C52 22.5434 52 22.5441 50.5352 22.5441L52 22.5441C52 23.3531 51.3442 24.0089 50.5352 24.0089C47.2728 24.0089 44.984 23.2386 43.4724 22.4049C43.044 22.1687 42.682 21.9295 42.381 21.7052Z" fill="#1F7DBB"/>
<path fill-rule="evenodd" clip-rule="evenodd" d="M32.9004 51.4802C33.7094 51.4802 34.3652 50.8244 34.3652 50.0154V45.1243C34.3652 44.3153 33.7094 43.6594 32.9004 43.6594C32.0914 43.6594 31.4355 44.3153 31.4355 45.1243V50.0154C31.4355 50.8244 32.0914 51.4802 32.9004 51.4802Z" fill="#1F7DBB"/>
<path fill-rule="evenodd" clip-rule="evenodd" d="M51.7803 51.4802C52.5893 51.4802 53.2451 50.8244 53.2451 50.0154V45.1243C53.2451 44.3153 52.5893 43.6594 51.7803 43.6594C50.9713 43.6594 50.3154 44.3153 50.3154 45.1243V50.0154C50.3154 50.8244 50.9713 51.4802 51.7803 51.4802Z" fill="#1F7DBB"/>
</g>
</svg>
