<svg width="75" height="75" viewBox="0 0 75 75" fill="none" xmlns="http://www.w3.org/2000/svg">
<path fill-rule="evenodd" clip-rule="evenodd" d="M73.5352 16.8914V4.70034C73.5352 2.91909 72.0778 1.46582 70.3006 1.46582H4.69937C2.91812 1.46582 1.46484 2.91909 1.46484 4.70034V16.8914H73.5352Z" fill="#FF8760"/>
<path fill-rule="evenodd" clip-rule="evenodd" d="M13.7514 49.7853C13.7514 36.6684 24.3812 26.0345 37.4979 26.0345C50.6147 26.0345 61.2488 36.6684 61.2488 49.7853C61.2488 54.3237 59.9741 58.5673 57.7651 62.1755H70.3006C72.0778 62.1755 73.5352 60.7182 73.5352 58.941V16.8914H1.46484V58.941C1.46484 60.7182 2.91812 62.1755 4.69937 62.1755H17.2349C15.0218 58.5673 13.7514 54.3237 13.7514 49.7853Z" fill="white"/>
<path fill-rule="evenodd" clip-rule="evenodd" d="M29.571 40.7625C29.571 37.2581 32.4443 34.3848 35.9488 34.3848H39.0463C42.5549 34.3848 45.4241 37.2581 45.4241 40.7625V45.9985H46.159C47.4919 45.9985 48.5839 47.0905 48.5839 48.4234V54.0248C48.5839 60.1203 43.5972 65.1113 37.4974 65.1113C31.4019 65.1113 26.4109 60.1203 26.4109 54.0248V48.4234C26.4109 47.0905 27.5029 45.9985 28.8399 45.9985H29.5707V40.7625H29.571ZM61.2484 49.7853C61.2484 36.6683 50.6145 26.0344 37.4976 26.0344C24.3806 26.0344 13.751 36.6683 13.751 49.7853C13.751 54.3236 15.0216 58.5673 17.2347 62.1755C21.4077 68.9894 28.9232 73.5359 37.4976 73.5359C46.0761 73.5359 53.5874 68.9892 57.7646 62.1755C59.9737 58.5673 61.2484 54.3236 61.2484 49.7853Z" fill="#CDE3FF"/>
<path fill-rule="evenodd" clip-rule="evenodd" d="M45.4247 45.9985H29.5714H28.8406C27.5037 45.9985 26.4116 47.0906 26.4116 48.4234V54.0249C26.4116 60.1204 31.4026 65.1114 37.4981 65.1114C43.5978 65.1114 48.5847 60.1204 48.5847 54.0249V48.4234C48.5847 47.0906 47.4926 45.9985 46.1598 45.9985H45.4247Z" fill="#FFC107"/>
<path fill-rule="evenodd" clip-rule="evenodd" d="M45.4244 40.7626C45.4244 37.2581 42.5552 34.3848 39.0466 34.3848H35.9491C32.4446 34.3848 29.5713 37.2581 29.5713 40.7626V45.9985H45.4246V40.7626H45.4244Z" fill="#CDE3FF"/>
<path d="M56.7972 10.6415C57.6061 10.6415 58.2621 9.98552 58.2621 9.17664C58.2621 8.36775 57.6061 7.71179 56.7972 7.71179H56.7889C55.98 7.71179 55.3281 8.36775 55.3281 9.17664C55.3281 9.98552 55.9883 10.6415 56.7972 10.6415Z" fill="#1F7DBB"/>
<path d="M64.7035 10.6415C65.5124 10.6415 66.1683 9.98552 66.1683 9.17664C66.1683 8.36775 65.5124 7.71179 64.7035 7.71179H64.6951C63.8862 7.71179 63.2344 8.36775 63.2344 9.17664C63.2344 9.98552 63.8946 10.6415 64.7035 10.6415Z" fill="#1F7DBB"/>
<path d="M48.8915 10.6415C49.7003 10.6415 50.3563 9.98552 50.3563 9.17664C50.3563 8.36775 49.7003 7.71179 48.8915 7.71179H48.8831C48.0742 7.71179 47.4224 8.36775 47.4224 9.17664C47.4224 9.98552 48.0824 10.6415 48.8915 10.6415Z" fill="#1F7DBB"/>
<path d="M10.2925 10.6415H32.3035C33.1125 10.6415 33.7684 9.98552 33.7684 9.17664C33.7684 8.36775 33.1125 7.71179 32.3035 7.71179H10.2925C9.48345 7.71179 8.82764 8.36775 8.82764 9.17664C8.82764 9.98552 9.48345 10.6415 10.2925 10.6415Z" fill="#1F7DBB"/>
<path d="M70.3006 0.000976562H4.69951C2.1082 0.000976562 0 2.10903 0 4.70034V58.941C0 61.5322 2.1082 63.6404 4.69951 63.6404H16.4232C17.3581 65.0557 18.4431 66.3854 19.6705 67.6127C24.4336 72.3758 30.7655 74.9989 37.5 74.9989C44.2346 74.9989 50.5666 72.3758 55.3296 67.6127C56.5645 66.3777 57.6441 65.0455 58.5687 63.6404H70.3006C72.8918 63.6404 75 61.5322 75 58.941V4.70034C75 2.10903 72.8918 0.000976562 70.3006 0.000976562ZM4.69951 2.93066H70.3006C71.2764 2.93066 72.0703 3.72461 72.0703 4.70034V15.4265H2.92969V4.70034C2.92969 3.72461 3.72363 2.93066 4.69951 2.93066ZM70.3006 60.7107H60.2235C64.7234 51.3303 63.0933 39.7217 55.3296 31.9579C51.3825 28.0108 46.3787 25.5344 40.8592 24.7964C35.5172 24.0824 29.9916 25.1181 25.2998 27.7132C24.5918 28.1049 24.3353 28.9961 24.7269 29.7041C25.1184 30.412 26.0099 30.6684 26.7176 30.277C35.3565 25.4985 46.2702 27.0417 53.2579 34.0294C61.9458 42.7173 61.9458 56.8535 53.2579 65.541C49.0482 69.7507 43.452 72.0691 37.5 72.0691C31.548 72.0691 25.9518 69.7507 21.7421 65.541C14.7554 58.5544 13.2123 47.6424 17.9895 39.0051C18.381 38.2971 18.1245 37.4059 17.4166 37.0142C16.7089 36.6227 15.8174 36.8792 15.4258 37.5871C12.8307 42.2789 11.7949 47.804 12.509 53.1445C12.8651 55.8068 13.627 58.3488 14.7624 60.7105H4.69951C3.72363 60.7105 2.92969 59.9166 2.92969 58.9409V18.3559H72.0703V58.9409C72.0703 59.9167 71.2764 60.7107 70.3006 60.7107Z" fill="#1F7DBB"/>
<path d="M37.498 58.2259C38.3071 58.2259 38.9629 57.5699 38.9629 56.761V53.2649C38.9629 52.456 38.3069 51.8 37.498 51.8C36.6892 51.8 36.0332 52.456 36.0332 53.2649V56.761C36.0332 57.5701 36.689 58.2259 37.498 58.2259Z" fill="#1F7DBB"/>
<path d="M37.498 66.576C44.4188 66.576 50.0492 60.9455 50.0492 54.0247V48.4233C50.0492 46.5281 48.6865 44.946 46.8896 44.6032V40.7624C46.8896 36.4381 43.3713 32.9198 39.0468 32.9198H35.9492C31.6249 32.9198 28.1066 36.4381 28.1066 40.7624V44.6038C26.3094 44.9478 24.9468 46.5292 24.9468 48.4233V54.0247C24.9466 60.9456 30.5772 66.576 37.498 66.576ZM31.0363 40.7624C31.0363 38.0535 33.2401 35.8495 35.9492 35.8495H39.0468C41.7559 35.8495 43.9599 38.0535 43.9599 40.7624V44.5335H31.0363V40.7624ZM27.8763 48.4233C27.8763 47.9028 28.318 47.4632 28.8406 47.4632H46.1595C46.6799 47.4632 47.1195 47.9028 47.1195 48.4233V54.0247C47.1195 59.3301 42.8034 63.6464 37.498 63.6464C32.1926 63.6464 27.8763 59.3301 27.8763 54.0247V48.4233Z" fill="#1F7DBB"/>
<path d="M19.6707 31.9578C19.0987 32.5298 19.0987 33.4574 19.6707 34.0295C19.9568 34.3155 20.3317 34.4586 20.7065 34.4586C21.0814 34.4586 21.4564 34.3155 21.7423 34.0295L21.7464 34.0254C22.3184 33.4534 22.3164 32.5279 21.7443 31.9559C21.1723 31.3839 20.2429 31.3858 19.6707 31.9578Z" fill="#1F7DBB"/>
</svg>
