<svg width="75" height="75" viewBox="0 0 75 75" fill="none" xmlns="http://www.w3.org/2000/svg">
<path d="M1.46484 21.2286H73.5352V67.2096H1.46484V21.2286Z" fill="white"/>
<path d="M1.46484 7.85132H73.5352V21.2286H1.46484V7.85132Z" fill="#CDE3FF"/>
<path d="M73.5352 6.38647H44.0918C43.2828 6.38647 42.627 7.04243 42.627 7.85132C42.627 8.66021 43.2828 9.31616 44.0918 9.31616H72.0703V19.7637H2.92969V9.31616H30.9082C31.7172 9.31616 32.373 8.66021 32.373 7.85132C32.373 7.04243 31.7172 6.38647 30.9082 6.38647H1.46484C0.655811 6.38647 0 7.04243 0 7.85132V67.2096C0 68.0185 0.655811 68.6744 1.46484 68.6744H73.5352C74.3442 68.6744 75 68.0185 75 67.2096V7.85132C75 7.04229 74.3442 6.38647 73.5352 6.38647ZM2.92969 65.7446V22.6934H72.0703V65.7446H2.92969Z" fill="#1F7DBB"/>
<path d="M37.5 9.25549C38.309 9.25549 38.9648 8.59966 38.9648 7.79065C38.9648 6.98164 38.309 6.32581 37.5 6.32581C36.691 6.32581 36.0352 6.98164 36.0352 7.79065C36.0352 8.59966 36.691 9.25549 37.5 9.25549Z" fill="#1F7DBB"/>
<path d="M9.40234 16.0048C10.2114 16.0048 10.8672 15.3489 10.8672 14.5399C10.8672 13.7309 10.2114 13.0751 9.40234 13.0751C8.59333 13.0751 7.9375 13.7309 7.9375 14.5399C7.9375 15.3489 8.59333 16.0048 9.40234 16.0048Z" fill="#1F7DBB"/>
<path d="M15.2617 16.0048C16.0707 16.0048 16.7266 15.3489 16.7266 14.5399C16.7266 13.7309 16.0707 13.0751 15.2617 13.0751C14.4527 13.0751 13.7969 13.7309 13.7969 14.5399C13.7969 15.3489 14.4527 16.0048 15.2617 16.0048Z" fill="#1F7DBB"/>
<path d="M21.1211 16.0048C21.9301 16.0048 22.5859 15.3489 22.5859 14.5399C22.5859 13.7309 21.9301 13.0751 21.1211 13.0751C20.3121 13.0751 19.6562 13.7309 19.6562 14.5399C19.6562 15.3489 20.3121 16.0048 21.1211 16.0048Z" fill="#1F7DBB"/>
<path d="M15.2617 30.9359H23.2001C24.0092 30.9359 24.665 30.28 24.665 29.4711C24.665 28.6622 24.0092 28.0062 23.2001 28.0062H15.2617C14.4527 28.0062 13.7969 28.6622 13.7969 29.4711C13.7969 30.2801 14.4527 30.9359 15.2617 30.9359Z" fill="#1F7DBB"/>
<path d="M9.40234 30.9359C10.2114 30.9359 10.8672 30.2801 10.8672 29.4711C10.8672 28.6621 10.2114 28.0062 9.40234 28.0062C8.59333 28.0062 7.9375 28.6621 7.9375 29.4711C7.9375 30.2801 8.59333 30.9359 9.40234 30.9359Z" fill="#1F7DBB"/>
<path d="M15.2617 38.3098H31.1419C31.951 38.3098 32.6068 37.654 32.6068 36.845C32.6068 36.0359 31.951 35.3801 31.1419 35.3801H15.2617C14.4527 35.3801 13.7969 36.0359 13.7969 36.845C13.7969 37.654 14.4527 38.3098 15.2617 38.3098Z" fill="#1F7DBB"/>
<path d="M9.40234 38.3099C10.2114 38.3099 10.8672 37.6541 10.8672 36.8451C10.8672 36.0361 10.2114 35.3802 9.40234 35.3802C8.59333 35.3802 7.9375 36.0361 7.9375 36.8451C7.9375 37.6541 8.59333 38.3099 9.40234 38.3099Z" fill="#1F7DBB"/>
<path d="M49.531 42.7542H15.2617C14.4527 42.7542 13.7969 43.4101 13.7969 44.219C13.7969 45.0279 14.4527 45.6838 15.2617 45.6838H49.531C50.34 45.6838 50.9958 45.0279 50.9958 44.219C50.9958 43.4101 50.34 42.7542 49.531 42.7542Z" fill="#1F7DBB"/>
<path d="M9.40234 45.6838C10.2114 45.6838 10.8672 45.028 10.8672 44.219C10.8672 43.41 10.2114 42.7542 9.40234 42.7542C8.59333 42.7542 7.9375 43.41 7.9375 44.219C7.9375 45.028 8.59333 45.6838 9.40234 45.6838Z" fill="#1F7DBB"/>
<path d="M37.3965 50.1282H15.2617C14.4527 50.1282 13.7969 50.784 13.7969 51.593C13.7969 52.4019 14.4527 53.0579 15.2617 53.0579H37.3965C38.2056 53.0579 38.8614 52.4019 38.8614 51.593C38.8614 50.784 38.2056 50.1282 37.3965 50.1282Z" fill="#1F7DBB"/>
<path d="M9.40234 53.0579C10.2114 53.0579 10.8672 52.402 10.8672 51.593C10.8672 50.784 10.2114 50.1282 9.40234 50.1282C8.59333 50.1282 7.9375 50.784 7.9375 51.593C7.9375 52.402 8.59333 53.0579 9.40234 53.0579Z" fill="#1F7DBB"/>
<path d="M28.5599 57.5022H15.2617C14.4527 57.5022 13.7969 58.1582 13.7969 58.967C13.7969 59.7761 14.4527 60.4319 15.2617 60.4319H28.5599C29.3689 60.4319 30.0247 59.7761 30.0247 58.967C30.0247 58.158 29.3689 57.5022 28.5599 57.5022Z" fill="#1F7DBB"/>
<path d="M9.40234 60.4317C10.2114 60.4317 10.8672 59.7759 10.8672 58.9669C10.8672 58.1578 10.2114 57.502 9.40234 57.502C8.59333 57.502 7.9375 58.1578 7.9375 58.9669C7.9375 59.7759 8.59333 60.4317 9.40234 60.4317Z" fill="#1F7DBB"/>
</svg>
