<svg width="75" height="75" viewBox="0 0 75 75" fill="none" xmlns="http://www.w3.org/2000/svg">
<g clip-path="url(#clip0_69_270)">
<mask id="mask0_69_270" style="mask-type:luminance" maskUnits="userSpaceOnUse" x="0" y="0" width="75" height="75">
<path d="M0 7.62939e-06H75V75H0V7.62939e-06Z" fill="white"/>
</mask>
<g mask="url(#mask0_69_270)">
<path fill-rule="evenodd" clip-rule="evenodd" d="M29.2806 25.3402H45.7151C47.8827 25.3402 49.6598 27.1132 49.6598 29.2806V45.7153C49.6598 47.8827 47.8827 49.6598 45.7151 49.6598H29.2806C27.1132 49.6598 25.3402 47.8827 25.3402 45.7153V29.2806C25.3402 27.1132 27.1132 25.3402 29.2806 25.3402ZM61.4106 26.2247V21.3416C61.4106 17.0773 57.9186 13.5894 53.6543 13.5894H48.7712H37.4979H26.2247H21.3416C17.0771 13.5894 13.5894 17.0773 13.5894 21.3416V26.2247V37.498V48.7712V53.6543C13.5894 57.9186 17.0771 61.4106 21.3416 61.4106H26.2247H37.4979H48.7712H53.6543C57.9186 61.4106 61.4106 57.9186 61.4106 53.6543V48.7712V37.498V26.2247Z" fill="#91C271"/>
<path fill-rule="evenodd" clip-rule="evenodd" d="M49.6598 45.7152V29.2807C49.6598 27.1132 47.8827 25.3401 45.7152 25.3401H29.2806C27.1133 25.3401 25.3402 27.1132 25.3402 29.2807V45.7152C25.3402 47.8826 27.1133 49.6599 29.2806 49.6599H45.7152C47.8827 49.6599 49.6598 47.8826 49.6598 45.7152Z" fill="white"/>
<path fill-rule="evenodd" clip-rule="evenodd" d="M12.1136 53.6543C12.1136 58.7326 16.2613 62.8864 21.3416 62.8864H53.6543C58.7336 62.8864 62.8863 58.7336 62.8863 53.6543V21.3416C62.8863 16.2613 58.7326 12.1137 53.6543 12.1137H21.3416C16.2623 12.1137 12.1136 16.2623 12.1136 21.3416V53.6543ZM21.3416 59.935C17.8933 59.935 15.065 57.1046 15.065 53.6543V21.3416C15.065 17.8923 17.8923 15.0651 21.3416 15.0651H53.6543C57.1046 15.0651 59.9349 17.8933 59.9349 21.3416V53.6543C59.9349 57.1036 57.1036 59.935 53.6543 59.935H21.3416Z" fill="#1F7DBB"/>
<path fill-rule="evenodd" clip-rule="evenodd" d="M-0.0108643 37.4979C-0.0108643 38.3129 0.649822 38.9736 1.46482 38.9736H13.5893C14.4043 38.9736 15.065 38.3129 15.065 37.4979C15.065 36.683 14.4043 36.0223 13.5893 36.0223H1.46482C0.649822 36.0223 -0.0108643 36.683 -0.0108643 37.4979Z" fill="#1F7DBB"/>
<path fill-rule="evenodd" clip-rule="evenodd" d="M5.4328 48.7713C5.4328 49.5863 6.09349 50.2469 6.90848 50.2469H13.5893C14.4043 50.2469 15.065 49.5863 15.065 48.7713C15.065 47.9563 14.4043 47.2956 13.5893 47.2956H6.90848C6.09349 47.2956 5.4328 47.9563 5.4328 48.7713Z" fill="#1F7DBB"/>
<path fill-rule="evenodd" clip-rule="evenodd" d="M5.4328 26.2246C5.4328 27.0396 6.09349 27.7003 6.90848 27.7003H13.5893C14.4043 27.7003 15.065 27.0396 15.065 26.2246C15.065 25.4096 14.4043 24.749 13.5893 24.749H6.90848C6.09349 24.749 5.4328 25.4096 5.4328 26.2246Z" fill="#1F7DBB"/>
<path fill-rule="evenodd" clip-rule="evenodd" d="M23.8644 45.7151C23.8644 48.6956 26.2961 51.1355 29.2806 51.1355H30.9332C31.7482 51.1355 32.4089 50.4748 32.4089 49.6598C32.4089 48.8448 31.7482 48.1841 30.9332 48.1841H29.2806C27.9302 48.1841 26.8158 47.0697 26.8158 45.7151V29.2806C26.8158 27.9282 27.9282 26.8159 29.2806 26.8159H45.7152C47.0696 26.8159 48.1841 27.9302 48.1841 29.2806V45.7151C48.1841 47.0677 47.0676 48.1841 45.7152 48.1841H44.0626C43.2476 48.1841 42.5869 48.8448 42.5869 49.6598C42.5869 50.4748 43.2476 51.1355 44.0626 51.1355H45.7152C48.6976 51.1355 51.1354 48.6976 51.1354 45.7151V29.2806C51.1354 26.2962 48.6956 23.8645 45.7152 23.8645H29.2806C26.2982 23.8645 23.8644 26.2982 23.8644 29.2806V45.7151Z" fill="#1F7DBB"/>
<path fill-rule="evenodd" clip-rule="evenodd" d="M20.1815 21.6571C20.1815 22.4721 20.8421 23.1328 21.6571 23.1328H21.6779C22.4929 23.1328 23.1536 22.4721 23.1536 21.6571C23.1536 20.8421 22.4929 20.1814 21.6779 20.1814H21.6571C20.8421 20.1814 20.1815 20.8421 20.1815 21.6571Z" fill="#1F7DBB"/>
<path fill-rule="evenodd" clip-rule="evenodd" d="M51.8422 21.6571C51.8422 22.4721 52.5029 23.1328 53.3179 23.1328H53.3428C54.1578 23.1328 54.8185 22.4721 54.8185 21.6571C54.8185 20.8421 54.1578 20.1814 53.3428 20.1814H53.3179C52.5029 20.1814 51.8422 20.8421 51.8422 21.6571Z" fill="#1F7DBB"/>
<path fill-rule="evenodd" clip-rule="evenodd" d="M20.1566 53.3429C20.1566 54.1579 20.8172 54.8186 21.6322 54.8186H21.6571C22.4721 54.8186 23.1328 54.1579 23.1328 53.3429C23.1328 52.5279 22.4721 51.8672 21.6571 51.8672H21.6322C20.8172 51.8672 20.1566 52.5279 20.1566 53.3429Z" fill="#1F7DBB"/>
<path fill-rule="evenodd" clip-rule="evenodd" d="M51.8671 53.3429C51.8671 54.1579 52.5278 54.8186 53.3428 54.8186H53.3636C54.1786 54.8186 54.8393 54.1579 54.8393 53.3429C54.8393 52.5279 54.1786 51.8672 53.3636 51.8672H53.3428C52.5278 51.8672 51.8671 52.5279 51.8671 53.3429Z" fill="#1F7DBB"/>
<path fill-rule="evenodd" clip-rule="evenodd" d="M36.0222 49.6598C36.0222 50.4748 36.6829 51.1355 37.4979 51.1355H37.5312C38.3461 51.1355 39.0068 50.4748 39.0068 49.6598C39.0068 48.8448 38.3461 48.1841 37.5312 48.1841H37.4979C36.6829 48.1841 36.0222 48.8448 36.0222 49.6598Z" fill="#1F7DBB"/>
<path fill-rule="evenodd" clip-rule="evenodd" d="M59.9349 37.4979C59.9349 38.3129 60.5956 38.9736 61.4106 38.9736H73.5351C74.3501 38.9736 75.0108 38.3129 75.0108 37.4979C75.0108 36.683 74.3501 36.0223 73.5351 36.0223H61.4106C60.5956 36.0223 59.9349 36.683 59.9349 37.4979Z" fill="#1F7DBB"/>
<path fill-rule="evenodd" clip-rule="evenodd" d="M59.9349 48.7713C59.9349 49.5863 60.5956 50.2469 61.4106 50.2469H68.0915C68.9065 50.2469 69.5672 49.5863 69.5672 48.7713C69.5672 47.9563 68.9065 47.2956 68.0915 47.2956H61.4106C60.5956 47.2956 59.9349 47.9563 59.9349 48.7713Z" fill="#1F7DBB"/>
<path fill-rule="evenodd" clip-rule="evenodd" d="M59.9349 26.2246C59.9349 27.0396 60.5956 27.7003 61.4106 27.7003H68.0915C68.9065 27.7003 69.5672 27.0396 69.5672 26.2246C69.5672 25.4096 68.9065 24.749 68.0915 24.749H61.4106C60.5956 24.749 59.9349 25.4096 59.9349 26.2246Z" fill="#1F7DBB"/>
<path fill-rule="evenodd" clip-rule="evenodd" d="M37.4979 15.0651C38.3129 15.0651 38.9736 14.4044 38.9736 13.5894V1.46487C38.9736 0.649873 38.3129 -0.0108128 37.4979 -0.0108128C36.6829 -0.0108128 36.0222 0.649873 36.0222 1.46487V13.5894C36.0222 14.4044 36.6829 15.0651 37.4979 15.0651Z" fill="#1F7DBB"/>
<path fill-rule="evenodd" clip-rule="evenodd" d="M48.7712 15.0651C49.5862 15.0651 50.2468 14.4044 50.2468 13.5894V6.90852C50.2468 6.09352 49.5862 5.43284 48.7712 5.43284C47.9562 5.43284 47.2955 6.09352 47.2955 6.90852V13.5894C47.2955 14.4044 47.9562 15.0651 48.7712 15.0651Z" fill="#1F7DBB"/>
<path fill-rule="evenodd" clip-rule="evenodd" d="M26.2246 15.0651C27.0396 15.0651 27.7003 14.4044 27.7003 13.5894V6.90852C27.7003 6.09352 27.0396 5.43284 26.2246 5.43284C25.4096 5.43284 24.749 6.09352 24.749 6.90852V13.5894C24.749 14.4044 25.4096 15.0651 26.2246 15.0651Z" fill="#1F7DBB"/>
<path fill-rule="evenodd" clip-rule="evenodd" d="M37.6723 75.0109C38.4873 75.0109 39.148 74.3502 39.148 73.5352V61.4107C39.148 60.5957 38.4873 59.935 37.6723 59.935C36.8573 59.935 36.1966 60.5957 36.1966 61.4107V73.5352C36.1966 74.3502 36.8573 75.0109 37.6723 75.0109Z" fill="#1F7DBB"/>
<path fill-rule="evenodd" clip-rule="evenodd" d="M48.9456 69.5673C49.7606 69.5673 50.4213 68.9066 50.4213 68.0916V61.4107C50.4213 60.5957 49.7606 59.935 48.9456 59.935C48.1306 59.935 47.4699 60.5957 47.4699 61.4107V68.0916C47.4699 68.9066 48.1306 69.5673 48.9456 69.5673Z" fill="#1F7DBB"/>
<path fill-rule="evenodd" clip-rule="evenodd" d="M26.399 69.5673C27.214 69.5673 27.8747 68.9066 27.8747 68.0916V61.4107C27.8747 60.5957 27.214 59.935 26.399 59.935C25.584 59.935 24.9233 60.5957 24.9233 61.4107V68.0916C24.9233 68.9066 25.584 69.5673 26.399 69.5673Z" fill="#1F7DBB"/>
</g>
</g>
<defs>
<clipPath id="clip0_69_270">
<rect width="75" height="75" fill="white"/>
</clipPath>
</defs>
</svg>
