<svg width="75" height="75" viewBox="0 0 75 75" fill="none" xmlns="http://www.w3.org/2000/svg">
<path fill-rule="evenodd" clip-rule="evenodd" d="M43.9358 9.57349C42.0223 9.57349 40.4574 11.1375 40.4574 13.05C40.4574 14.9625 42.0223 16.5265 43.9358 16.5265H57.0357C58.9493 16.5265 60.5142 14.9625 60.5142 13.05C60.5142 11.1375 58.9493 9.57349 57.0357 9.57349H43.9358Z" fill="#CDE3FF"/>
<path fill-rule="evenodd" clip-rule="evenodd" d="M13.7055 9.57349C11.7837 9.57349 10.2271 11.1291 10.2271 13.05C10.2271 14.9708 11.7837 16.5265 13.7055 16.5265C15.6274 16.5265 17.188 14.9708 17.188 13.05C17.188 11.1293 15.6273 9.57349 13.7055 9.57349Z" fill="#CDE3FF"/>
<path d="M13.7055 16.5433C11.7782 16.5433 10.2104 14.9762 10.2104 13.0501C10.2104 11.124 11.7782 9.55688 13.7055 9.55688C15.635 9.55688 17.2047 11.124 17.2047 13.0501C17.2047 14.9762 15.635 16.5433 13.7055 16.5433ZM13.7055 9.59028C11.7967 9.59028 10.2438 11.1423 10.2438 13.0501C10.2438 14.9579 11.7967 16.5099 13.7055 16.5099C15.6165 16.5099 17.1713 14.9579 17.1713 13.0501C17.1713 11.1423 15.6165 9.59028 13.7055 9.59028Z" fill="#49B1F7"/>
<path fill-rule="evenodd" clip-rule="evenodd" d="M26.5481 9.57349C24.6262 9.57349 23.0697 11.1291 23.0697 13.05C23.0697 14.9708 24.6262 16.5265 26.5481 16.5265C28.47 16.5265 30.0306 14.9708 30.0306 13.05C30.0306 11.1293 28.47 9.57349 26.5481 9.57349Z" fill="#FFDD40"/>
<path fill-rule="evenodd" clip-rule="evenodd" d="M56.1309 46.8364C51.9593 46.8364 48.5805 50.2135 48.5805 54.3827C48.5805 58.548 51.9593 61.9249 56.1309 61.9249C60.2984 61.9249 63.677 58.5479 63.677 54.3827C63.677 50.2135 60.2982 46.8364 56.1309 46.8364Z" fill="white"/>
<path fill-rule="evenodd" clip-rule="evenodd" d="M52.9098 38.8297V40.5182C51.3325 40.8875 49.8549 41.5138 48.5266 42.356L47.3352 41.1695C46.6255 40.4559 45.4591 40.4559 44.7451 41.1695L42.8565 43.0571C42.1425 43.7706 42.1425 44.9364 42.8565 45.6457L44.0601 46.8529C43.2341 48.1762 42.6198 49.6449 42.2628 51.2132H40.5693C39.5606 51.2132 38.7388 52.0387 38.7388 53.0427V55.7186C38.7388 56.7226 39.5607 57.5482 40.5693 57.5482H42.267C42.6281 59.1246 43.2508 60.6015 44.0893 61.9291L42.8897 63.1239C42.18 63.8375 42.18 65.0033 42.8897 65.7126L44.7825 67.6045C45.4922 68.318 46.6586 68.318 47.3726 67.6045L48.5681 66.4096C49.9005 67.2435 51.3823 67.8699 52.9597 68.2267V69.9318C52.9597 70.9399 53.7857 71.7655 54.7901 71.7655H57.4674C58.4719 71.7655 59.2979 70.9399 59.2979 69.9318V68.231C60.8834 67.87 62.3653 67.2478 63.6977 66.4097L64.8973 67.6046C65.607 68.3181 66.7734 68.3181 67.4874 67.6046L69.376 65.7128C70.09 65.0033 70.09 63.8376 69.376 63.1241L68.1806 61.9292C69.0149 60.6016 69.6375 59.1248 69.9986 57.5483H71.688C72.6967 57.5483 73.5227 56.7227 73.5227 55.7187V53.0429C73.5227 52.0389 72.6967 51.2133 71.688 51.2133H70.0069C69.6458 49.6285 69.0231 48.1433 68.1806 46.8075L69.376 45.6085C70.09 44.8991 70.09 43.7334 69.376 43.0198L68.1806 41.825L67.4874 41.1321C66.7734 40.4186 65.6071 40.4186 64.8973 41.1321L63.6977 42.327C62.3487 41.4806 60.8502 40.8501 59.2481 40.4933V38.8297C59.2481 37.8216 58.4221 36.996 57.4134 36.996H54.7403C53.7318 36.996 52.9098 37.8216 52.9098 38.8297ZM56.1309 46.8365C60.2984 46.8365 63.677 50.2135 63.677 54.3828C63.677 58.5481 60.2982 61.925 56.1309 61.925C51.9593 61.925 48.5805 58.5479 48.5805 54.3828C48.5805 50.2135 51.9593 46.8365 56.1309 46.8365Z" fill="#CDE3FF"/>
<path fill-rule="evenodd" clip-rule="evenodd" d="M62.7265 3.23438H13.2489H6.93134C3.93032 3.23438 1.47714 6.16333 1.47714 9.74766V22.7578H24.4519H68.1807V9.7478C68.1807 6.16743 65.7275 3.23438 62.7265 3.23438ZM26.5481 9.57349C28.47 9.57349 30.0306 11.1291 30.0306 13.05C30.0306 14.9708 28.47 16.5265 26.5481 16.5265C24.6262 16.5265 23.0697 14.9708 23.0697 13.05C23.0697 11.1293 24.6262 9.57349 26.5481 9.57349ZM13.7055 9.57349C15.6274 9.57349 17.188 11.1291 17.188 13.05C17.188 14.9708 15.6274 16.5265 13.7055 16.5265C11.7836 16.5265 10.2271 14.9708 10.2271 13.05C10.2271 11.1293 11.7836 9.57349 13.7055 9.57349ZM40.4575 13.05C40.4575 11.1375 42.0224 9.57349 43.9359 9.57349H57.0359C58.9494 9.57349 60.5143 11.1375 60.5143 13.05C60.5143 14.9625 58.9494 16.5265 57.0359 16.5265H43.9359C42.0223 16.5267 40.4575 14.9626 40.4575 13.05Z" fill="#49B1F7"/>
<path fill-rule="evenodd" clip-rule="evenodd" d="M24.4519 22.7578H1.47714V51.0349C1.47714 54.6151 3.93442 57.5481 6.93134 57.5481H40.5694C39.5607 57.5481 38.739 56.7226 38.739 55.7186V53.0427C38.739 52.0387 39.5609 51.2131 40.5694 51.2131H42.2629C42.6199 49.645 43.2343 48.1764 44.0603 46.8529L42.8566 45.6457C42.1427 44.9363 42.1427 43.7706 42.8566 43.057L44.7453 41.1694C45.4592 40.4559 46.6255 40.4559 47.3354 41.1694L48.5268 42.356C49.8551 41.5138 51.3327 40.8873 52.91 40.5182V38.8296C52.91 37.8215 53.7319 36.9959 54.7405 36.9959H57.4135C58.4222 36.9959 59.2482 37.8215 59.2482 38.8296V40.4933C60.8505 40.8501 62.3489 41.4806 63.6978 42.327L64.8974 41.1321C65.6071 40.4186 66.7736 40.4186 67.4875 41.1321L68.1807 41.8249V22.7578H24.4519Z" fill="white"/>
<path d="M13.7055 8.09631C10.973 8.09631 8.74994 10.3186 8.74994 13.05C8.74994 15.7813 10.973 18.0036 13.7055 18.0036C16.4402 18.0036 18.6652 15.7813 18.6652 13.05C18.6652 10.3186 16.4402 8.09631 13.7055 8.09631ZM13.7055 15.0493C12.602 15.0493 11.7044 14.1524 11.7044 13.05C11.7044 11.9475 12.602 11.0508 13.7055 11.0508C14.8112 11.0508 15.7109 11.9477 15.7109 13.0501C15.7109 14.1526 14.8112 15.0493 13.7055 15.0493Z" fill="#1F7DBB"/>
<path d="M57.0357 8.09631H43.9358C41.2033 8.09631 38.9802 10.3186 38.9802 13.05C38.9802 15.7813 41.2033 18.0036 43.9358 18.0036H57.0357C59.7683 18.0036 61.9913 15.7813 61.9913 13.05C61.9913 10.3186 59.7683 8.09631 57.0357 8.09631ZM57.0357 15.0493H43.9358C42.8323 15.0493 41.9347 14.1524 41.9347 13.05C41.9347 11.9475 42.8325 11.0506 43.9358 11.0506H57.0357C58.1392 11.0506 59.0369 11.9475 59.0369 13.05C59.0369 14.1524 58.1392 15.0493 57.0357 15.0493Z" fill="#1F7DBB"/>
<path d="M26.5481 8.09631C23.8156 8.09631 21.5925 10.3186 21.5925 13.05C21.5925 15.7813 23.8156 18.0036 26.5481 18.0036C29.2828 18.0036 31.5078 15.7813 31.5078 13.05C31.5078 10.3186 29.2828 8.09631 26.5481 8.09631ZM26.5481 15.0493C25.4446 15.0493 24.547 14.1524 24.547 13.05C24.547 11.9475 25.4448 11.0506 26.5481 11.0506C27.6538 11.0506 28.5535 11.9475 28.5535 13.05C28.5535 14.1524 27.6538 15.0493 26.5481 15.0493Z" fill="#1F7DBB"/>
<path d="M24.1394 32.5846C23.3462 32.3946 22.5489 32.8843 22.3594 33.678L19.4288 45.9414C19.2393 46.7349 19.7287 47.5319 20.5222 47.7214C20.6376 47.749 20.7532 47.7623 20.8668 47.7623C21.5347 47.7623 22.1402 47.3062 22.3022 46.6281L25.2328 34.3647C25.4225 33.5712 24.933 32.7743 24.1394 32.5846Z" fill="#1F7DBB"/>
<path d="M29.5628 46.2801C29.8443 46.5309 30.1953 46.6543 30.5448 46.6543C30.9516 46.6543 31.3566 46.4873 31.6485 46.1596L35.7908 41.5096C36.4743 40.7488 36.4743 39.5572 35.7951 38.8012L31.6484 34.1464C31.1055 33.537 30.1717 33.4834 29.5628 34.0258C28.9534 34.5686 28.8995 35.5024 29.4422 36.1115L33.0423 40.1528L29.4422 44.1944C28.8996 44.8037 28.9535 45.7376 29.5628 46.2801Z" fill="#1F7DBB"/>
<path d="M15.099 34.0259C14.4896 33.4832 13.5561 33.5376 13.0134 34.1465L8.87153 38.7961C8.18716 39.557 8.18716 40.7491 8.86685 41.5048L13.0135 46.1597C13.3055 46.4875 13.7104 46.6544 14.1173 46.6544C14.4668 46.6544 14.8179 46.531 15.0993 46.2802C15.7087 45.7375 15.7626 44.8037 15.2199 44.1946L11.6197 40.1532L15.2199 36.1117C15.7623 35.5024 15.7084 34.5685 15.099 34.0259Z" fill="#1F7DBB"/>
<path d="M71.6881 49.7361H71.1397C70.8524 48.8056 70.4802 47.9074 70.0261 47.049L70.4175 46.6563C71.0426 46.035 71.3876 45.2055 71.3889 44.3204C71.3902 43.4333 71.0464 42.6004 70.4206 41.9748L69.658 41.2126V9.74778C69.658 5.34167 66.5487 1.7572 62.7267 1.7572H6.93135C3.10928 1.7572 0 5.34167 0 9.74778V51.0348C0 55.4409 3.10928 59.0254 6.93135 59.0254H15.5982C16.414 59.0254 17.0754 58.364 17.0754 57.5483C17.0754 56.7325 16.414 56.0711 15.5982 56.0711H6.93135C4.77568 56.0711 2.95444 53.7647 2.95444 51.035V24.2351H66.7034V39.1626C66.5351 39.1366 66.3646 39.1197 66.191 39.1197C66.1893 39.1197 66.1875 39.1197 66.1859 39.1197C65.3008 39.1211 64.4713 39.4656 63.8549 40.0854L63.4556 40.483C62.5792 40.0199 61.6664 39.6433 60.7252 39.3558V38.8296C60.7252 37.0038 59.2396 35.5186 57.4134 35.5186H54.7402C52.9163 35.5186 51.4326 37.0038 51.4326 38.8296V39.3918C50.5091 39.682 49.6175 40.0554 48.7652 40.5089L48.3826 40.1275C47.7612 39.503 46.9315 39.1582 46.0465 39.1569C46.0449 39.1569 46.0433 39.1569 46.0415 39.1569C45.1563 39.1569 44.3251 39.5004 43.7007 40.1244L41.8121 42.0121C41.1863 42.6376 40.8425 43.4707 40.8438 44.3576C40.8451 45.2427 41.1899 46.0722 41.8103 46.6886L42.2183 47.0978C41.7754 47.943 41.4117 48.8247 41.1303 49.7358H40.5693C38.7453 49.7358 37.2615 51.2191 37.2615 53.0426V55.7184C37.2615 55.8373 37.2681 55.9548 37.2804 56.0705H28.6854C27.8697 56.0705 27.2083 56.7319 27.2083 57.5477C27.2083 58.3635 27.8697 59.0248 28.6854 59.0248H40.5691H41.1359C41.4215 59.9446 41.7908 60.8333 42.2413 61.6841L41.8421 62.0815C40.557 63.3735 40.5582 65.471 41.8452 66.757L43.7348 68.6459C44.3562 69.2704 45.1859 69.6152 46.0709 69.6165H46.0758C46.9611 69.6165 47.7923 69.273 48.4167 68.6488L48.8124 68.2535C49.6708 68.706 50.5633 69.0757 51.4821 69.3597V69.9315C51.4821 71.7572 52.9658 73.2425 54.7898 73.2425H57.4671C59.291 73.2425 60.7748 71.7572 60.7748 69.9315V69.3633C61.7021 69.0772 62.5983 68.706 63.4557 68.2533L63.8496 68.6458C64.4708 69.2704 65.3004 69.6151 66.1854 69.6165H66.1906C67.0758 69.6165 67.9069 69.273 68.5326 68.6478L70.4171 66.7601C71.0421 66.1388 71.3871 65.3093 71.3884 64.4242C71.3897 63.5371 71.046 62.7042 70.42 62.0786L70.0258 61.6845C70.4754 60.833 70.8444 59.9437 71.1296 59.025H71.6878C73.5141 59.025 74.9997 57.5417 74.9997 55.7184V53.0426C75 51.2194 73.5144 49.7361 71.6881 49.7361ZM2.95444 21.2806V9.74778C2.95444 7.01804 4.77568 4.71165 6.93135 4.71165H62.7267C64.8823 4.71165 66.7036 7.01804 66.7036 9.74778V21.2808L2.95444 21.2806ZM72.0456 55.7187C72.0456 55.9063 71.8786 56.0708 71.688 56.0708H69.9987C69.31 56.0708 68.7126 56.5468 68.5588 57.2181C68.2397 58.6104 67.6917 59.9308 66.9299 61.143C66.5629 61.7267 66.6486 62.4867 67.1364 62.974L68.3317 64.1686C68.4211 64.258 68.4343 64.3646 68.4343 64.4203C68.4341 64.4868 68.4168 64.5833 68.3306 64.6689L66.4433 66.5595C66.3538 66.6489 66.247 66.6624 66.1907 66.6624C66.1906 66.6624 66.1904 66.6624 66.1904 66.6624C66.1233 66.6624 66.0265 66.645 65.9399 66.5578L64.7402 65.3631C64.2523 64.8772 63.4938 64.7929 62.9112 65.1592C61.6973 65.9228 60.3713 66.4717 58.9699 66.7906C58.2977 66.9438 57.8206 67.5414 57.8206 68.2311V69.9319C57.8206 70.1218 57.6555 70.2885 57.4674 70.2885H54.7901C54.6019 70.2885 54.4368 70.1219 54.4368 69.9319V68.2268C54.4368 67.5366 53.9587 66.9382 53.2854 66.786C51.9019 66.4731 50.5783 65.9251 49.3516 65.1575C49.1099 65.0062 48.8383 64.9324 48.5684 64.9324C48.1868 64.9324 47.8085 65.0799 47.5236 65.365L46.3285 66.5595C46.239 66.6489 46.1322 66.6624 46.0759 66.6624C46.0758 66.6624 46.0756 66.6624 46.0755 66.6624C46.0085 66.6624 45.9116 66.645 45.8268 66.5597L43.934 64.6678C43.8015 64.5354 43.8029 64.3008 43.9323 64.1707L45.1318 62.9759C45.622 62.4879 45.7077 61.7253 45.3384 61.1405C44.5753 59.9323 44.0266 58.6128 43.7073 57.2185C43.5535 56.5472 42.9561 56.0711 42.2672 56.0711H40.5694C40.378 56.0711 40.2161 55.9098 40.2161 55.719V53.0431C40.2161 52.8523 40.378 52.6908 40.5694 52.6908H42.2629C42.9524 52.6908 43.5504 52.2137 43.7035 51.5415C44.0187 50.1562 44.5604 48.8421 45.3135 47.6354C45.6771 47.0528 45.5912 46.2965 45.1062 45.8102L43.8977 44.5982C43.8157 44.5167 43.7984 44.4202 43.7982 44.3537C43.7982 44.298 43.8114 44.1914 43.9008 44.1022L45.7893 42.2146C45.8788 42.1252 45.9855 42.1117 46.0418 42.1117H46.0422C46.1092 42.1119 46.2062 42.1292 46.2927 42.2163L47.4839 43.4029C47.9733 43.8902 48.7346 43.9737 49.3173 43.604C50.5244 42.8387 51.8464 42.2844 53.2465 41.9568C53.9145 41.8005 54.3869 41.2046 54.3869 40.5184V38.8301C54.3869 38.6368 54.5486 38.4735 54.74 38.4735H57.4132C57.607 38.4735 57.7708 38.6368 57.7708 38.8301V40.4935C57.7708 41.1857 58.2513 41.7849 58.927 41.9354C60.3325 42.2484 61.6734 42.8012 62.9125 43.5786C63.4948 43.9437 64.2526 43.8593 64.7401 43.3739L65.9446 42.1741C66.0264 42.092 66.1232 42.0747 66.1901 42.0745H66.1906C66.2468 42.0745 66.3536 42.088 66.443 42.1774L68.3316 44.0648C68.4209 44.1542 68.4341 44.2608 68.4341 44.3165C68.434 44.383 68.4167 44.4795 68.3298 44.5658L67.1344 45.7648C66.6476 46.253 66.5632 47.013 66.9311 47.596C67.6958 48.8084 68.246 50.1362 68.5666 51.5421C68.7198 52.2142 69.3174 52.691 70.0069 52.691H71.688C71.8784 52.691 72.0456 52.8558 72.0456 53.0433V55.7187Z" fill="#1F7DBB"/>
<path d="M56.1309 45.3591C51.1531 45.3591 47.1034 49.4071 47.1034 54.3827C47.1034 59.356 51.1531 63.4022 56.1309 63.4022C61.1065 63.4022 65.1543 59.3561 65.1543 54.3827C65.1543 49.4072 61.1065 45.3591 56.1309 45.3591ZM56.1309 60.4478C52.7823 60.4478 50.0578 57.727 50.0578 54.3827C50.0578 51.0361 52.7823 48.3136 56.1309 48.3136C59.4773 48.3136 62.1999 51.0361 62.1999 54.3827C62.1999 57.727 59.4772 60.4478 56.1309 60.4478Z" fill="#1F7DBB"/>
<path d="M22.1857 56.071H22.1567C21.3409 56.071 20.6795 56.7324 20.6795 57.5482C20.6795 58.364 21.3409 59.0253 22.1567 59.0253H22.1857C23.0014 59.0253 23.6628 58.364 23.6628 57.5482C23.6628 56.7324 23.0014 56.071 22.1857 56.071Z" fill="#1F7DBB"/>
</svg>
