<svg width="75" height="75" viewBox="0 0 75 75" fill="none" xmlns="http://www.w3.org/2000/svg">
<g clip-path="url(#clip0_167_1216)">
<path fill-rule="evenodd" clip-rule="evenodd" d="M30.176 10.2541H44.825L47.7548 7.32437H59.4731V4.39453L56.5435 1.46484H18.4575L15.5278 4.39453V7.32437H27.2461L30.176 10.2541Z" fill="#E2E9EE"/>
<path fill-rule="evenodd" clip-rule="evenodd" d="M44.825 10.254H30.176L27.2461 7.32434H15.5278V45.0135V58.8864V67.6756H59.4731V30.7621V19.0432V7.32449H47.7548L44.825 10.254ZM32.813 31.9336C32.813 29.3554 34.9224 27.2461 37.5005 27.2461C40.0786 27.2461 42.188 29.3554 42.188 31.9336V36.6211L46.2896 39.746V47.5586L42.7739 50.6836H32.2271L28.7114 47.5586V39.746L32.813 36.6211V31.9336Z" fill="#CDE3FF"/>
<path fill-rule="evenodd" clip-rule="evenodd" d="M42.188 36.6211H32.813L28.7114 39.746V47.5586L32.2271 50.6836H42.7739L46.2896 47.5586V39.746L42.188 36.6211Z" fill="white"/>
<path fill-rule="evenodd" clip-rule="evenodd" d="M32.813 36.6211H42.188V31.9336C42.188 29.3555 40.0786 27.2461 37.5005 27.2461C34.9224 27.2461 32.813 29.3555 32.813 31.9336V36.6211Z" fill="#CDE3FF"/>
<path d="M8.8042 47.0808C9.94814 45.9369 9.94814 44.0822 8.8042 42.9382C7.66026 41.7943 5.80556 41.7943 4.66162 42.9382C3.51768 44.0822 3.51768 45.9369 4.66162 47.0808C5.80556 48.2248 7.66026 48.2248 8.8042 47.0808Z" fill="white"/>
<path d="M7.42529 61.7208C8.99963 61.3487 9.9742 59.7707 9.60205 58.1964C9.22991 56.6221 7.65197 55.6475 6.07764 56.0197C4.5033 56.3918 3.52873 57.9697 3.90088 59.5441C4.27302 61.1184 5.85096 62.093 7.42529 61.7208Z" fill="#FFC107"/>
<path fill-rule="evenodd" clip-rule="evenodd" d="M59.4731 67.6757H15.5278V70.6055L18.4575 73.5352H56.5435L59.4731 70.6055V67.6757Z" fill="#E2E9EE"/>
<path d="M68.9268 33.5883C70.5011 33.2161 71.4757 31.6382 71.1035 30.0638C70.7314 28.4895 69.1534 27.5149 67.5791 27.8871C66.0048 28.2592 65.0302 29.8372 65.4023 31.4115C65.7745 32.9858 67.3524 33.9604 68.9268 33.5883Z" fill="#FFC107"/>
<path d="M70.3242 21.1198C71.4682 19.9758 71.4682 18.1211 70.3242 16.9772C69.1803 15.8332 67.3256 15.8332 66.1816 16.9772C65.0377 18.1211 65.0377 19.9758 66.1816 21.1198C67.3256 22.2637 69.1803 22.2637 70.3242 21.1198Z" fill="white"/>
<path d="M32.2266 52.1484H42.7734C43.1322 52.1484 43.4785 52.0169 43.7467 51.7786L47.2623 48.6536C47.5751 48.3756 47.7539 47.9771 47.7539 47.5586V39.746C47.7539 39.2889 47.5405 38.8579 47.1769 38.5809L43.6523 35.8955V31.9336C43.3134 23.7697 31.6834 23.7759 31.3477 31.9336V35.8955L27.8231 38.5809C27.4595 38.8579 27.2461 39.2889 27.2461 39.746V47.5586C27.2461 47.977 27.4251 48.3754 27.7377 48.6536L31.2533 51.7786C31.5215 52.0169 31.8678 52.1484 32.2266 52.1484ZM37.5 28.7109C39.277 28.7109 40.7227 30.1566 40.7227 31.9336V35.1562H34.2773V31.9336C34.2773 30.1566 35.723 28.7109 37.5 28.7109ZM30.1758 40.4716L33.3069 38.0859H41.6931L44.8242 40.4716V46.9008L42.2165 49.2187H32.7833L30.1758 46.9008V40.4716Z" fill="#1F7DBB"/>
<path d="M36.0355 44.1174V45.4285C36.113 47.372 38.8886 47.3706 38.9652 45.4285V44.119C40.4547 42.8014 39.5166 40.2801 37.5014 40.2832H37.5004C35.4855 40.2804 34.5489 42.8001 36.0355 44.1174Z" fill="#1F7DBB"/>
<path d="M21.3868 17.5786H37.4999C39.4436 17.5011 39.4422 14.7257 37.4999 14.6489H21.3868C19.4432 14.7263 19.4447 17.5019 21.3868 17.5786Z" fill="#1F7DBB"/>
<path d="M30.9083 21.9733C30.9083 21.1644 30.2525 20.5084 29.4434 20.5084H21.3868C19.4432 20.5858 19.4447 23.3614 21.3868 23.4381H29.4434C30.2525 23.4381 30.9083 22.7822 30.9083 21.9733Z" fill="#1F7DBB"/>
<path d="M53.6132 60.3513H44.0914C42.1478 60.4288 42.1493 63.2042 44.0914 63.281H53.6132C55.5567 63.2035 55.5553 60.4281 53.6132 60.3513Z" fill="#1F7DBB"/>
<path d="M53.6132 54.4916H45.5567C43.6132 54.5691 43.6146 57.3445 45.5567 57.4213H53.6132C55.5568 57.3438 55.5553 54.5683 53.6132 54.4916Z" fill="#1F7DBB"/>
<path d="M68.262 26.3676C66.3523 26.3676 64.7231 27.5922 64.1186 29.2973H60.9376V20.5081H64.1186C65.8163 25.0954 72.5631 23.9968 72.6565 19.0433C72.5626 14.089 65.8154 12.9918 64.1186 17.5784H60.9376V4.39453C60.9376 4.00605 60.7833 3.63355 60.5086 3.35874L57.5789 0.429053C57.3043 0.154395 56.9317 0 56.5431 0H18.4572C18.0687 0 17.696 0.154395 17.4214 0.429053L14.4917 3.35874C14.2169 3.63355 14.0626 4.00605 14.0626 4.39453V43.5488H10.8817C9.18398 38.9615 2.43721 40.0603 2.34375 45.0136C2.43765 49.9679 9.18486 51.065 10.8817 46.4785H14.0626V57.4217H10.8817C9.18398 52.8344 2.43721 53.9332 2.34375 58.8866C2.4375 63.8407 9.18486 64.9377 10.8817 60.3514H14.0626V70.6055C14.0626 70.9939 14.217 71.3665 14.4917 71.6413L17.4214 74.5709C17.696 74.8456 18.0687 75 18.4572 75H56.5431C56.9316 75 57.3041 74.8456 57.5789 74.5709L60.5086 71.6413C60.7833 71.3665 60.9376 70.9939 60.9376 70.6055V32.227H64.1186C65.8169 36.8149 72.5631 35.7151 72.6565 30.7622C72.6565 28.339 70.6852 26.3676 68.262 26.3676ZM68.262 17.5784C69.0697 17.5784 69.7269 18.2355 69.7269 19.0433C69.6463 20.9865 66.8774 20.9859 66.7972 19.0433C66.7972 18.2355 67.4544 17.5784 68.262 17.5784ZM6.73828 46.4785C5.93057 46.4785 5.27344 45.8213 5.27344 45.0136C5.35386 43.0704 8.12285 43.0708 8.20312 45.0136C8.20298 45.8213 7.54585 46.4785 6.73828 46.4785ZM6.73828 60.3513C5.93057 60.3513 5.27344 59.6943 5.27344 58.8866C5.35386 56.9433 8.12285 56.9437 8.20312 58.8866C8.20298 59.6943 7.54585 60.3513 6.73828 60.3513ZM19.0639 2.92969H55.9364L58.008 5.00142V5.85952H47.7543C47.3659 5.85952 46.9934 6.01392 46.7186 6.28857L44.2181 8.78921H30.7824L28.2816 6.28857C28.0069 6.01392 27.6344 5.85952 27.2458 5.85952H16.9923V5.00142L19.0639 2.92969ZM55.9364 72.0703H19.0639L16.9923 69.9986V69.1405H58.008V69.9986L55.9364 72.0703ZM58.008 66.2108H16.9923V60.3514H21.5112C21.8997 60.3514 22.2724 60.197 22.547 59.9224L26.3947 56.0745C26.9667 55.5025 26.9667 54.575 26.3947 54.0028C25.8227 53.4309 24.8952 53.4309 24.3231 54.0028L20.9045 57.4216H16.9923V46.4783H21.5112C23.4548 46.401 23.4533 43.6254 21.5112 43.5486H16.9923V8.78921H26.6391L29.1397 11.2898C29.4144 11.5645 29.787 11.7189 30.1755 11.7189H44.8245C45.213 11.7189 45.5855 11.5645 45.8603 11.2898L48.3609 8.78921H58.008V17.5784H53.4891C53.1006 17.5784 52.7281 17.7328 52.4533 18.0075L45.6757 24.785C45.1037 25.357 45.1037 26.2846 45.6757 26.8567C46.2479 27.4288 47.1753 27.4288 47.7475 26.8567L54.096 20.5083H58.008V29.2975H54.9539C54.5654 29.2975 54.1929 29.4519 53.9181 29.7265L50.0704 33.5742C49.4984 34.1462 49.4984 35.0738 50.0704 35.6459C50.6426 36.218 51.57 36.218 52.1421 35.6459L55.5608 32.2273H58.008V66.2108ZM68.262 32.227C67.4543 32.227 66.7972 31.5699 66.7972 30.7622C66.8777 28.8189 69.6466 28.8195 69.7269 30.7622C69.7269 31.5699 69.0697 32.227 68.262 32.227Z" fill="#1F7DBB"/>
<path d="M32.228 60.3513H32.227C31.4179 60.3513 30.7627 61.0073 30.7627 61.8162C30.84 63.759 33.6159 63.759 33.6928 61.8162C33.6928 61.0073 33.037 60.3513 32.228 60.3513Z" fill="#1F7DBB"/>
<path d="M21.3883 26.368H21.3873C20.5782 26.368 19.9229 27.024 19.9229 27.8329C20.0002 29.7757 22.7762 29.7757 22.8531 27.8329C22.8531 27.0239 22.1972 26.368 21.3883 26.368Z" fill="#1F7DBB"/>
<path d="M44.8258 17.5786C46.7694 17.5011 46.7679 14.7257 44.8258 14.6489H44.8248C42.8811 14.7267 42.8838 17.502 44.8258 17.5786Z" fill="#1F7DBB"/>
</g>
<defs>
<clipPath id="clip0_167_1216">
<rect width="75" height="75" fill="white"/>
</clipPath>
</defs>
</svg>
