<svg width="75" height="75" viewBox="0 0 75 75" fill="none" xmlns="http://www.w3.org/2000/svg">
<mask id="mask0_167_317" style="mask-type:luminance" maskUnits="userSpaceOnUse" x="0" y="0" width="75" height="75">
<path d="M0 7.62939e-06H75V75H0V7.62939e-06Z" fill="white"/>
</mask>
<g mask="url(#mask0_167_317)">
<path d="M15.918 42.6482H7.51846C4.1751 42.6482 1.46484 45.3585 1.46484 48.7018V61.8873H32.9317V42.6482H24.4874" fill="#CDE3FF"/>
<path fill-rule="evenodd" clip-rule="evenodd" d="M0 61.8873C0 62.6963 0.655833 63.3522 1.46484 63.3522H32.9317C33.7407 63.3522 34.3966 62.6963 34.3966 61.8873V42.6482C34.3966 41.8392 33.7407 41.1834 32.9317 41.1834H24.4874C23.6783 41.1834 23.0225 41.8392 23.0225 42.6482C23.0225 43.4572 23.6783 44.1131 24.4874 44.1131H31.4669V60.4225H2.92969V48.7018C2.92969 46.1675 4.98411 44.1131 7.51846 44.1131H15.918C16.727 44.1131 17.3829 43.4572 17.3829 42.6482C17.3829 41.8392 16.727 41.1834 15.918 41.1834H7.51846C3.36609 41.1834 0 44.5495 0 48.7018V61.8873Z" fill="#1F7DBB"/>
<path d="M8.18301 16.108V23.9272C6.87505 23.9272 5.81494 24.9874 5.81494 26.2954C5.81494 27.6032 6.87505 28.6634 8.18301 28.6634C8.1978 28.6634 8.21245 28.6633 8.22725 28.663C8.81465 35.0504 15.0829 37.7882 16.0801 37.9311L16.1044 42.6483L20.2472 48.929L24.3055 42.6483L24.3298 37.9309C25.3272 37.7881 31.5987 35.08 32.1836 28.663C32.198 28.6633 32.2126 28.6634 32.2272 28.6634C33.5351 28.6634 34.5955 27.6032 34.5955 26.2954C34.5955 24.9874 33.5351 23.9272 32.2272 23.9272V14.4966L8.18301 16.108Z" fill="white"/>
<path fill-rule="evenodd" clip-rule="evenodd" d="M14.2446 27.1326C15.0536 27.1326 15.7095 26.4767 15.7095 25.6677V24.4932C15.7095 23.6842 15.0536 23.0284 14.2446 23.0284C13.4356 23.0284 12.7798 23.6842 12.7798 24.4932V25.6677C12.7798 26.4767 13.4356 27.1326 14.2446 27.1326Z" fill="#1F7DBB"/>
<path fill-rule="evenodd" clip-rule="evenodd" d="M26.2505 27.1326C27.0595 27.1326 27.7153 26.4767 27.7153 25.6677V24.4932C27.7153 23.6842 27.0595 23.0284 26.2505 23.0284C25.4415 23.0284 24.7856 23.6842 24.7856 24.4932V25.6677C24.7856 26.4767 25.4415 27.1326 26.2505 27.1326Z" fill="#1F7DBB"/>
<path fill-rule="evenodd" clip-rule="evenodd" d="M17.6019 32.6938C19.0397 34.1315 21.3708 34.1315 22.8086 32.6938C23.3806 32.1217 23.3806 31.1942 22.8086 30.6222C22.2365 30.0501 21.309 30.0501 20.737 30.6222C20.4433 30.9158 19.9672 30.9158 19.6735 30.6222C19.1014 30.0501 18.174 30.0501 17.6019 30.6222C17.0298 31.1942 17.0298 32.1217 17.6019 32.6938Z" fill="#1F7DBB"/>
<path d="M32.2276 23.1945C32.2276 23.1945 34.4276 19.1896 34.4288 12.6781C34.4297 8.18948 31.4995 5.5406 31.4932 5.54427L31.0812 5.874C28.2003 8.17937 27.112 5.73279 20.8281 4.00984C15.0835 1.64617 12.9446 9.57947 8.7609 9.43533C3.45963 9.25266 8.18332 23.4874 8.18332 23.4874C8.18332 23.4874 9.36295 17.2825 10.5761 17.2825C10.5761 17.2825 15.9596 19.0567 17.6831 19.0567C26.2505 19.0567 28.5158 14.5519 28.5158 14.5519L32.2276 23.1945Z" fill="#FFDD40"/>
<path fill-rule="evenodd" clip-rule="evenodd" d="M9.62229 23.761C9.62227 23.7611 9.62226 23.7611 9.62224 23.7612C9.49755 24.4165 8.94585 24.9049 8.28022 24.949C7.61452 24.9932 7.00305 24.582 6.79293 23.9488L8.18322 23.4874C6.79293 23.9488 6.79283 23.9485 6.79272 23.9481L6.79147 23.9443L6.78831 23.9348C6.78565 23.9267 6.78189 23.9152 6.77709 23.9005C6.76747 23.871 6.75367 23.8283 6.73614 23.7735C6.70107 23.6638 6.65105 23.505 6.58968 23.3041C6.46704 22.9027 6.2987 22.3319 6.1139 21.6484C5.74595 20.2874 5.30542 18.4524 5.03468 16.6053C4.77009 14.8001 4.63978 12.8115 5.0069 11.2239C5.19282 10.4198 5.53672 9.58129 6.18707 8.94201C6.88026 8.26061 7.78906 7.93611 8.81125 7.97133C9.35725 7.99014 9.93859 7.75792 10.7016 7.16174C11.2393 6.74155 11.7269 6.26222 12.2843 5.71432C12.5681 5.43543 12.8699 5.13877 13.2056 4.8231C14.1192 3.96401 15.2297 3.02848 16.5858 2.51179C17.9893 1.97702 19.5574 1.92585 21.2991 2.6202C23.5953 3.25691 25.3488 4.03609 26.5811 4.5837C27.0444 4.78957 27.434 4.96271 27.7511 5.08325C28.3825 5.32323 28.7237 5.37106 28.984 5.34185C29.2242 5.31492 29.5779 5.20071 30.1658 4.73025L30.5779 4.40051C30.6344 4.35526 30.6943 4.31427 30.7569 4.27787C31.2015 4.10871 31.8467 4.12269 32.0116 4.17419C32.0849 4.20421 32.1959 4.25894 32.2347 4.28094C32.2984 4.31831 32.3453 4.35258 32.3578 4.36171L32.3582 4.36201C32.3922 4.38686 32.4179 4.40799 32.4251 4.4139C32.4454 4.43054 32.4619 4.44499 32.4698 4.45198C32.4888 4.46865 32.5077 4.48594 32.5251 4.50215C32.5612 4.53576 32.6059 4.57875 32.6577 4.63062C32.7617 4.73473 32.9002 4.88061 33.0615 5.06674C33.3837 5.43843 33.803 5.97791 34.2199 6.67326C35.0535 8.06347 35.894 10.1061 35.8935 12.6783C35.8929 16.0994 35.3147 18.8723 34.7295 20.8029C34.4369 21.7685 34.1421 22.5248 33.9158 23.0481C33.8027 23.3099 33.7066 23.5137 33.6363 23.6565C33.6011 23.7279 33.5724 23.7842 33.5512 23.8248C33.5406 23.8451 33.5319 23.8616 33.5252 23.8741C33.5219 23.8803 33.519 23.8856 33.5167 23.8899L33.5136 23.8955L33.5124 23.8978L33.5118 23.8988C33.5116 23.8993 33.5113 23.8997 32.2275 23.1944L33.5113 23.8997C33.2417 24.3905 32.716 24.6846 32.1567 24.6576C31.5974 24.6305 31.1025 24.287 30.8815 23.7725L28.092 17.2773C27.815 17.518 27.4996 17.7654 27.1423 18.0112C25.2416 19.3186 22.2389 20.5215 17.683 20.5215C17.0752 20.5215 16.2757 20.376 15.5271 20.2093C14.7414 20.0344 13.8769 19.8042 13.0829 19.5787C12.2862 19.3523 11.5465 19.1266 11.0067 18.9577C10.998 18.955 10.9893 18.9523 10.9807 18.9495C10.7633 19.4149 10.5398 20.0697 10.3324 20.7902C10.1202 21.5271 9.94211 22.2714 9.81631 22.8363C9.7537 23.1174 9.7047 23.3512 9.67154 23.5137C9.65497 23.5949 9.64239 23.6581 9.63409 23.7003C9.62993 23.7215 9.62685 23.7373 9.62487 23.7476L9.62274 23.7586L9.62229 23.761ZM11.0345 15.8912C10.8866 15.8425 10.7318 15.8176 10.576 15.8176C9.78378 15.8176 9.26267 16.3098 9.02219 16.5848C8.74901 16.8972 8.53644 17.2733 8.37151 17.6145C8.32554 17.7096 8.28046 17.808 8.2363 17.909C8.12221 17.3417 8.0183 16.7597 7.9334 16.1804C7.67972 14.4497 7.62311 12.9139 7.86127 11.8839C7.97799 11.3791 8.1348 11.1355 8.24082 11.0313C8.304 10.9692 8.40723 10.8888 8.71037 10.8993C10.2562 10.9525 11.5112 10.2471 12.5054 9.47024C13.176 8.94628 13.8641 8.2711 14.486 7.66092C14.7413 7.41047 14.9854 7.17097 15.2126 6.95737C16.0747 6.14661 16.8375 5.55101 17.6289 5.24949C18.3496 4.97488 19.1746 4.9135 20.2707 5.36447C20.3261 5.38728 20.3829 5.40667 20.4407 5.42252C22.5552 6.00228 23.9376 6.61912 25.1355 7.15358C25.6815 7.3972 26.1891 7.6237 26.7102 7.82178C27.4965 8.12065 28.3603 8.35989 29.3106 8.25328C30.0106 8.17476 30.6544 7.92166 31.2789 7.5307C31.4158 7.7196 31.5613 7.93641 31.7073 8.17983C32.3401 9.23529 32.9642 10.7613 32.9638 12.6778C32.9634 15.3648 32.5684 17.5943 32.1267 19.2478L29.8617 13.9738C29.6369 13.4504 29.1291 13.1048 28.5598 13.0877C27.997 13.0707 27.4748 13.3778 27.2158 13.8766C27.2152 13.8776 27.2145 13.879 27.2135 13.8807C27.2071 13.8919 27.1919 13.918 27.1671 13.9569C27.1174 14.0348 27.0291 14.1636 26.8951 14.327C26.6276 14.6533 26.1765 15.1196 25.482 15.5974C24.1082 16.5423 21.6945 17.5918 17.683 17.5918C17.4291 17.5918 16.9093 17.5156 16.1638 17.3496C15.4554 17.1919 14.6508 16.9785 13.8835 16.7605C13.1189 16.5433 12.405 16.3255 11.8815 16.1617C11.6202 16.0799 11.4071 16.0119 11.26 15.9644C11.1864 15.9407 11.1294 15.9222 11.0911 15.9097C11.0719 15.9035 11.0574 15.8987 11.0479 15.8956L11.0345 15.8912ZM27.2079 13.8919C27.2079 13.8919 27.2079 13.8919 27.2079 13.8919V13.8919ZM11.2252 18.5161C11.2391 18.5025 11.2399 18.4993 11.2276 18.5133C11.2269 18.5142 11.2261 18.5151 11.2252 18.5161Z" fill="#1F7DBB"/>
<path fill-rule="evenodd" clip-rule="evenodd" d="M20.2541 50.3938C20.7488 50.3915 21.209 50.1395 21.4775 49.724L25.5359 43.4433C25.6875 43.2086 25.7689 42.9353 25.7703 42.6558L25.7892 38.9891C26.0371 38.8848 26.2966 38.7641 26.5585 38.6312C27.3831 38.2126 28.3772 37.5993 29.3587 36.7671C31.1178 35.2757 32.8922 33.0283 33.4852 29.9171C34.9842 29.3965 36.0603 27.9716 36.0603 26.2954C36.0603 24.6486 35.0218 23.2445 33.5642 22.7019C33.3352 22.1918 32.8227 21.8365 32.2272 21.8365C31.4182 21.8365 30.7624 22.4924 30.7624 23.3014V23.9272C30.7624 24.7362 31.4182 25.392 32.2272 25.392C32.7261 25.392 33.1306 25.7965 33.1306 26.2954C33.1306 26.794 32.7262 27.1986 32.2272 27.1986C32.2249 27.1986 32.2226 27.1986 32.2205 27.1986C32.218 27.1985 32.2157 27.1985 32.2135 27.1985C31.4447 27.1828 30.7946 27.7642 30.7248 28.53C30.4771 31.2478 29.0317 33.2034 27.4641 34.5325C26.68 35.1973 25.8826 35.6888 25.2325 36.0187C24.9081 36.1834 24.629 36.3034 24.4166 36.3828C24.2477 36.446 24.1535 36.4713 24.125 36.4789C24.1134 36.482 24.1127 36.4822 24.1222 36.4809C23.4036 36.5838 22.8687 37.1974 22.865 37.9234L22.8429 42.2128L20.2345 46.2494L17.567 42.2053L17.5449 37.9235C17.5412 37.1976 17.0064 36.5839 16.2878 36.481C16.2983 36.4825 16.2978 36.4824 16.2855 36.479C16.2568 36.4712 16.1636 36.4459 15.9971 36.3831C15.7849 36.3031 15.506 36.1822 15.1814 36.0164C14.5313 35.6843 13.7335 35.1899 12.9488 34.5228C11.3792 33.1882 9.93448 31.2316 9.68593 28.5288C9.61559 27.7639 8.96627 27.1832 8.19824 27.1984C8.19296 27.1985 8.18798 27.1986 8.18301 27.1986C7.68412 27.1986 7.27978 26.7942 7.27978 26.2954C7.27978 25.7963 7.68418 25.392 8.18301 25.392C8.99202 25.392 9.64785 24.7362 9.64785 23.9272V23.5756C9.64785 22.7666 8.99202 22.1107 8.18301 22.1107C7.73558 22.1107 7.33501 22.3113 7.06632 22.6275C5.49404 23.1056 4.3501 24.5669 4.3501 26.2954C4.3501 27.9722 5.42688 29.3977 6.92687 29.9177C7.52187 33.0165 9.29553 35.2621 11.0511 36.7548C12.0316 37.5884 13.0246 38.2044 13.8486 38.6254C14.1111 38.7595 14.3716 38.8816 14.6207 38.987L14.6396 42.6558C14.6411 42.94 14.7252 43.2176 14.8816 43.4549L19.0244 49.7355C19.2968 50.1485 19.7593 50.3961 20.2541 50.3938Z" fill="#1F7DBB"/>
<path d="M71.4983 66.6812H32.9316V40.6581C32.9316 39.1383 34.1636 37.9062 35.6834 37.9062H68.7466C70.2664 37.9062 71.4983 39.1383 71.4983 40.6581V66.6812Z" fill="white"/>
<path fill-rule="evenodd" clip-rule="evenodd" d="M71.4983 62.7725C72.3073 62.7725 72.9631 62.1166 72.9631 61.3076V40.6579C72.9631 38.3291 71.0754 36.4413 68.7466 36.4413C67.9376 36.4413 67.2817 37.0971 67.2817 37.9062C67.2817 38.7152 67.9376 39.371 68.7466 39.371C69.4573 39.371 70.0334 39.9471 70.0334 40.6579V61.3076C70.0334 62.1166 70.6893 62.7725 71.4983 62.7725Z" fill="#1F7DBB"/>
<path d="M68.3643 71.4302H36.0658C33.2101 71.4302 30.895 69.1151 30.895 66.2594V61.8873H44.477V65.0339H59.953V61.8873H73.535V66.2594C73.535 69.1151 71.22 71.4302 68.3643 71.4302Z" fill="#49B1F7"/>
<path fill-rule="evenodd" clip-rule="evenodd" d="M29.4302 66.2594C29.4302 69.9241 32.401 72.895 36.0658 72.895H68.3643C72.029 72.895 74.9999 69.9241 74.9999 66.2594V61.8873C74.9999 61.0783 74.344 60.4225 73.535 60.4225H59.953C59.144 60.4225 58.4881 61.0783 58.4881 61.8873V63.5691H45.9419V61.8873C45.9419 61.0783 45.2861 60.4225 44.477 60.4225H30.895C30.086 60.4225 29.4302 61.0783 29.4302 61.8873V66.2594ZM36.0658 69.9653C34.0191 69.9653 32.3599 68.3061 32.3599 66.2594V63.3521H43.0122V65.0339C43.0122 65.8429 43.668 66.4988 44.477 66.4988H59.953C60.762 66.4988 61.4178 65.8429 61.4178 65.0339V63.3521H72.0702V66.2594C72.0702 68.3061 70.411 69.9653 68.3643 69.9653H36.0658Z" fill="#1F7DBB"/>
<path fill-rule="evenodd" clip-rule="evenodd" d="M49.9512 58.0595C50.7075 58.3466 51.5534 57.9663 51.8406 57.2099L55.3288 48.0217C55.6159 47.2654 55.2356 46.4195 54.4792 46.1323C53.7229 45.8452 52.877 46.2256 52.5899 46.9819L49.1016 56.1701C48.8145 56.9265 49.1948 57.7724 49.9512 58.0595Z" fill="#1F7DBB"/>
<path fill-rule="evenodd" clip-rule="evenodd" d="M58.7717 57.8029C59.4716 58.2088 60.3679 57.9705 60.7738 57.2706L63.4001 52.7419C63.6683 52.2795 63.6632 51.7077 63.387 51.2501L60.7607 46.8991C60.3426 46.2064 59.4422 45.9839 58.7496 46.4019C58.057 46.82 57.8344 47.7204 58.2525 48.413L60.4309 52.022L58.2394 55.8009C57.8336 56.5007 58.0719 57.3971 58.7717 57.8029Z" fill="#1F7DBB"/>
<path fill-rule="evenodd" clip-rule="evenodd" d="M45.6585 57.8029C46.3584 57.3971 46.5967 56.5007 46.1909 55.8009L43.9994 52.022L46.1778 48.413C46.5958 47.7204 46.3733 46.82 45.6807 46.4019C44.988 45.9839 44.0877 46.2064 43.6696 46.8991L41.0433 51.2501C40.767 51.7077 40.762 52.2795 41.0302 52.7419L43.6565 57.2706C44.0624 57.9705 44.9587 58.2088 45.6585 57.8029Z" fill="#1F7DBB"/>
<path fill-rule="evenodd" clip-rule="evenodd" d="M32.9316 62.7725C33.7407 62.7725 34.3965 62.1166 34.3965 61.3076V40.6579C34.3965 39.9471 34.9726 39.371 35.6834 39.371H55.3372C56.1462 39.371 56.802 38.7152 56.802 37.9062C56.802 37.0971 56.1462 36.4413 55.3372 36.4413H35.6834C33.3546 36.4413 31.4668 38.3291 31.4668 40.6579V61.3076C31.4668 62.1166 32.1226 62.7725 32.9316 62.7725Z" fill="#1F7DBB"/>
</g>
</svg>
