<svg width="75" height="75" viewBox="0 0 75 75" fill="none" xmlns="http://www.w3.org/2000/svg">
<mask id="mask0_167_986" style="mask-type:luminance" maskUnits="userSpaceOnUse" x="0" y="0" width="75" height="75">
<path d="M0 7.62939e-06H75V75H0V7.62939e-06Z" fill="white"/>
</mask>
<g mask="url(#mask0_167_986)">
<path fill-rule="evenodd" clip-rule="evenodd" d="M18.9468 23.6128C17.6937 29.0814 17.0839 35.0937 23.1911 40.2757C23.7969 40.7906 24.4689 41.2972 25.2157 41.7954L37.5006 49.9878L49.7814 41.7954C50.5282 41.2972 51.2003 40.7906 51.8061 40.2757C57.9132 35.0937 57.3034 29.0814 56.0504 23.6128C54.9094 21.7567 52.748 20.0377 49.5698 18.7963L47.9351 28.6288C46.9932 34.2965 43.2387 39.0716 37.5006 39.0716C31.7586 39.0716 28.0039 34.2965 27.062 28.6288L25.4274 18.7963C22.2493 20.0377 20.0877 21.7567 18.9468 23.6128Z" fill="#CDE3FF"/>
<path fill-rule="evenodd" clip-rule="evenodd" d="M37.5006 1.46479C27.9167 1.46479 22.1248 9.53257 20.0794 18.9C19.7516 20.3989 19.3202 21.981 18.9468 23.6128C20.0876 21.7567 22.2493 20.0378 25.4274 18.7962C28.4976 17.6003 32.5219 16.8487 37.5006 16.8487C42.4751 16.8487 46.4996 17.6003 49.5698 18.7962C52.7479 20.0378 54.9094 21.7567 56.0504 23.6128C55.677 21.981 55.2455 20.3989 54.9219 18.9C52.8724 9.53257 47.0804 1.46479 37.5006 1.46479Z" fill="#49B1F7"/>
<path fill-rule="evenodd" clip-rule="evenodd" d="M5.6578 59.2764C2.56273 66.4888 2.61663 73.5352 13.2047 73.5352H61.7925C72.3847 73.5352 72.4387 66.4846 69.3392 59.2764L65.2816 49.8425C63.2073 45.0094 60.9833 40.2757 55.7226 40.2757H51.8061C51.2002 40.7906 50.5282 41.2972 49.7814 41.7955L37.5006 49.9878L25.2158 41.7955C24.4689 41.2972 23.7968 40.7906 23.1911 40.2757H19.2745C14.0178 40.2757 11.7899 45.0094 9.71541 49.8425L5.6578 59.2764ZM37.5006 49.9878H53.5734C54.4904 49.9878 55.3284 50.7435 55.2413 51.6612L53.3204 71.1684C53.2333 72.0819 52.5694 72.8376 51.6526 72.8376H23.3446C22.4276 72.8376 21.7639 72.0819 21.6767 71.1684L19.7557 51.6612C19.6686 50.7435 20.5068 49.9878 21.4277 49.9878H37.5006Z" fill="#49B1F7"/>
<path fill-rule="evenodd" clip-rule="evenodd" d="M25.4272 18.7962L27.0619 28.6287C28.0038 34.2964 31.7584 39.0715 37.5005 39.0715C43.2386 39.0715 46.9933 34.2964 47.935 28.6287L49.5696 18.7962C46.4996 17.6003 42.4751 16.8488 37.5005 16.8488C32.5219 16.8488 28.4974 17.6003 25.4272 18.7962Z" fill="white"/>
<path fill-rule="evenodd" clip-rule="evenodd" d="M34.4678 64.6328C32.6962 64.6328 31.2482 63.1836 31.2482 61.4148C31.2482 59.6418 32.6962 58.1926 34.4678 58.1926H40.5293C42.3009 58.1926 43.7489 59.6418 43.7489 61.4148C43.7489 63.1836 42.3009 64.6328 40.5293 64.6328H34.4678ZM19.7558 51.6612L21.6768 71.1683C21.7638 72.082 22.4276 72.8375 23.3445 72.8375H51.6526C52.5694 72.8375 53.2333 72.082 53.3205 71.1683L55.2413 51.6612C55.3285 50.7436 54.4904 49.9879 53.5734 49.9879H37.5006H21.4277C20.5066 49.9879 19.6686 50.7436 19.7558 51.6612Z" fill="white"/>
<path fill-rule="evenodd" clip-rule="evenodd" d="M34.4676 58.1926C32.696 58.1926 31.248 59.6418 31.248 61.4148C31.248 63.1836 32.696 64.6328 34.4676 64.6328H40.5292C42.3007 64.6328 43.7487 63.1836 43.7487 61.4148C43.7487 59.6418 42.3007 58.1926 40.5292 58.1926H34.4676Z" fill="#CDE3FF"/>
<path fill-rule="evenodd" clip-rule="evenodd" d="M36.6818 51.2155C37.1776 51.5462 37.8237 51.5461 38.3195 51.2154L50.6 43.0231C50.6 43.023 50.6001 43.023 50.6001 43.023C56.2271 39.2701 58.1456 34.8711 58.3316 30.4186C58.4688 27.1341 57.6365 23.7902 56.9226 20.9219C56.718 20.0999 56.5231 19.3168 56.3635 18.5855L56.3634 18.5846C54.2569 8.95634 48.1254 -0.0109596 37.5005 -0.0109596C26.8717 -0.0109596 20.7403 8.95579 18.6377 18.5846C18.478 19.3145 18.2833 20.0956 18.0788 20.9157C17.3632 23.7855 16.5289 27.1314 16.6658 30.4184C16.8512 34.8712 18.7698 39.2702 24.3968 43.0231L24.3969 43.0231L36.6818 51.2155ZM37.5004 48.214L26.0344 40.5677C26.0344 40.5677 26.0344 40.5677 26.0344 40.5677C21.1772 37.3282 19.76 33.7882 19.6146 30.2956C19.4972 27.4765 20.1838 24.7098 20.8788 21.9097C21.1006 21.0159 21.3233 20.1187 21.5209 19.2154L21.521 19.2148C23.5093 10.1088 28.9615 2.94041 37.5005 2.94041C46.035 2.94041 51.4874 10.1082 53.48 19.2146C53.6776 20.1203 53.9005 21.0198 54.1225 21.9159C54.8156 24.7139 55.5005 27.4783 55.3828 30.2954C55.2369 33.7882 53.8196 37.3283 48.9624 40.5677L48.9623 40.5678L37.5004 48.214Z" fill="#1F7DBB"/>
<path fill-rule="evenodd" clip-rule="evenodd" d="M6.42741 73.6226C8.15809 74.5484 10.4106 75.0107 13.2047 75.0107H61.7926C64.5769 75.0107 66.8232 74.5516 68.5514 73.6325C70.3158 72.6942 71.4698 71.3114 72.0747 69.6416C73.2366 66.4342 72.2872 62.4297 70.73 58.7766C70.4105 58.0269 69.5436 57.6782 68.7939 57.9977C68.0442 58.3173 67.6955 59.1841 68.015 59.9339C69.5198 63.4642 70.0557 66.5496 69.2998 68.6363C68.9458 69.6135 68.29 70.4288 67.1656 71.0267C66.005 71.644 64.2835 72.0594 61.7926 72.0594H13.2047C10.7049 72.0594 8.98008 71.641 7.81949 71.0202C6.69553 70.4189 6.04123 69.599 5.69 68.6145C4.93969 66.5114 5.49218 63.4046 7.01364 59.8589C7.01374 59.8587 7.01384 59.8584 7.01394 59.8582L11.0715 50.4246C12.1206 47.9804 13.1221 45.7847 14.4404 44.1852C15.7007 42.6562 17.1828 41.7513 19.2746 41.7513H23.1911C24.0061 41.7513 24.6668 41.0906 24.6668 40.2756C24.6668 39.4606 24.0061 38.8 23.1911 38.8H19.2746C16.1097 38.8 13.8494 40.2619 12.163 42.308C10.5346 44.2837 9.38486 46.8714 8.35941 49.2605L4.30175 58.6943C2.72837 62.3608 1.7604 66.3832 2.91024 69.6062C3.50911 71.2848 4.6601 72.6772 6.42741 73.6226ZM64.7777 48.616C65.5129 48.2642 65.8238 47.3831 65.472 46.6479C63.6319 42.8016 60.998 38.8 55.7227 38.8H51.8061C50.9911 38.8 50.3305 39.4606 50.3305 40.2756C50.3305 41.0906 50.9911 41.7513 51.8061 41.7513H55.7227C59.0856 41.7513 60.9985 44.1358 62.8097 47.9216C63.1614 48.6568 64.0425 48.9677 64.7777 48.616Z" fill="#1F7DBB"/>
<path fill-rule="evenodd" clip-rule="evenodd" d="M18.1249 24.9991C18.8263 25.4141 19.7314 25.1819 20.1464 24.4805C21.9321 21.4622 27.4433 18.3245 37.5006 18.3245C47.5538 18.3245 53.065 21.4621 54.851 24.4805C55.266 25.1819 56.171 25.4141 56.8724 24.9991C57.5739 24.584 57.806 23.679 57.391 22.9776C54.8038 18.605 47.9265 15.3731 37.5006 15.3731C27.071 15.3731 20.1934 18.6049 17.6063 22.9776C17.1913 23.6791 17.4235 24.5841 18.1249 24.9991Z" fill="#1F7DBB"/>
<path fill-rule="evenodd" clip-rule="evenodd" d="M25.6065 28.8707C26.6137 34.9324 30.7566 40.5472 37.5008 40.5472C44.2413 40.5472 48.3837 34.9319 49.391 28.8707C49.391 28.8707 49.391 28.8707 49.391 28.8707L51.0257 19.0382C51.1593 18.2343 50.6159 17.4742 49.812 17.3405C49.008 17.2069 48.2479 17.7502 48.1143 18.5542L46.4796 28.3867C45.6031 33.661 42.2362 37.5959 37.5008 37.5959C32.761 37.5959 29.3942 33.6606 28.5179 28.3868L26.8833 18.5542C26.7496 17.7502 25.9895 17.2069 25.1856 17.3405C24.3816 17.4742 23.8382 18.2343 23.9719 19.0382L25.6065 28.8706C25.6065 28.8706 25.6065 28.8707 25.6065 28.8707Z" fill="#1F7DBB"/>
<path fill-rule="evenodd" clip-rule="evenodd" d="M20.2081 71.3108C20.3509 72.797 21.4965 74.3131 23.3446 74.3131H51.6527C53.5014 74.3131 54.647 72.7962 54.7895 71.3098C54.7895 71.3093 54.7896 71.3089 54.7896 71.3084L56.71 51.8057L56.7105 51.8006C56.8968 49.839 55.1715 48.5121 53.5736 48.5121H21.4279C19.8284 48.5121 18.1003 49.8367 18.2868 51.8006L18.2873 51.8057L20.2079 71.3081C20.2079 71.309 20.208 71.3099 20.2081 71.3108ZM23.2633 71.3226C23.2187 71.2763 23.1601 71.1772 23.1459 71.0283L23.1455 71.0236L21.2281 51.5534C21.2312 51.5498 21.2351 51.5455 21.24 51.5408C21.2605 51.5209 21.2907 51.4999 21.328 51.4846C21.3646 51.4695 21.3991 51.4635 21.4279 51.4635H53.5736C53.6004 51.4635 53.6337 51.4691 53.6697 51.484C53.7064 51.4992 53.7365 51.52 53.757 51.5399C53.7621 51.5449 53.7661 51.5493 53.7693 51.553L51.852 71.0236L51.8516 71.0281C51.8374 71.1771 51.7787 71.2762 51.7341 71.3226C51.7135 71.344 51.6982 71.3523 51.6912 71.3554C51.6859 71.3578 51.6756 71.3617 51.6527 71.3617H23.3446C23.3217 71.3617 23.3115 71.3578 23.3061 71.3554C23.2991 71.3523 23.2839 71.344 23.2633 71.3226Z" fill="#1F7DBB"/>
<path fill-rule="evenodd" clip-rule="evenodd" d="M29.7725 61.4147C29.7725 63.9987 31.8813 66.1084 34.4677 66.1084H40.5292C43.1157 66.1084 45.2245 63.9987 45.2245 61.4147C45.2245 58.8278 43.117 56.7168 40.5292 56.7168H34.4677C31.88 56.7168 29.7725 58.8278 29.7725 61.4147ZM34.4677 63.157C33.511 63.157 32.7238 62.3684 32.7238 61.4147C32.7238 60.4556 33.5123 59.6682 34.4677 59.6682H40.5292C41.4847 59.6682 42.2731 60.4556 42.2731 61.4147C42.2731 62.3684 41.486 63.157 40.5292 63.157H34.4677Z" fill="#1F7DBB"/>
<path fill-rule="evenodd" clip-rule="evenodd" d="M66.7755 54.7936C67.5905 54.7936 68.2512 54.1329 68.2512 53.3179V53.3095C68.2512 52.4945 67.5905 51.8339 66.7755 51.8339C65.9605 51.8339 65.2998 52.4945 65.2998 53.3095V53.3179C65.2998 54.1329 65.9605 54.7936 66.7755 54.7936Z" fill="#1F7DBB"/>
</g>
</svg>
