<svg width="75" height="75" viewBox="0 0 75 75" fill="none" xmlns="http://www.w3.org/2000/svg">
<g clip-path="url(#clip0_69_329)">
<path d="M49.2187 16.1133H25.7812V1.46484H49.2187V16.1133Z" fill="#F9F9F9"/>
<mask id="mask0_69_329" style="mask-type:luminance" maskUnits="userSpaceOnUse" x="0" y="0" width="75" height="75">
<path d="M0 7.62939e-06H75V75H0V7.62939e-06Z" fill="white"/>
</mask>
<g mask="url(#mask0_69_329)">
<path fill-rule="evenodd" clip-rule="evenodd" d="M24.3164 16.1133C24.3164 16.9223 24.9722 17.5781 25.7812 17.5781H49.2187C50.0278 17.5781 50.6836 16.9223 50.6836 16.1133V1.46485C50.6836 0.655834 50.0278 1.90735e-06 49.2187 1.90735e-06H25.7812C24.9722 1.90735e-06 24.3164 0.655834 24.3164 1.46485V16.1133ZM27.2461 14.6484V2.92969H47.7539V14.6484H27.2461Z" fill="#1F7DBB"/>
</g>
<path d="M47.0215 73.5352H27.9785V63.2813H47.0215V73.5352Z" fill="#49B1F7"/>
<mask id="mask1_69_329" style="mask-type:luminance" maskUnits="userSpaceOnUse" x="0" y="0" width="75" height="75">
<path d="M0 7.62939e-06H75V75H0V7.62939e-06Z" fill="white"/>
</mask>
<g mask="url(#mask1_69_329)">
<path fill-rule="evenodd" clip-rule="evenodd" d="M26.5137 73.5352C26.5137 74.3442 27.1695 75 27.9785 75H47.0215C47.8305 75 48.4863 74.3442 48.4863 73.5352V63.2813C48.4863 62.4722 47.8305 61.8164 47.0215 61.8164H27.9785C27.1695 61.8164 26.5137 62.4722 26.5137 63.2813V73.5352ZM29.4434 72.0703V64.7461H45.5566V72.0703H29.4434Z" fill="#1F7DBB"/>
</g>
<path d="M47.0215 54.1992H27.9785V43.9453H47.0215V54.1992Z" fill="#F9F9F9"/>
<path fill-rule="evenodd" clip-rule="evenodd" d="M26.5137 54.1992C26.5137 55.0082 27.1695 55.6641 27.9785 55.6641H47.0215C47.8305 55.6641 48.4863 55.0082 48.4863 54.1992V43.9453C48.4863 43.1363 47.8305 42.4805 47.0215 42.4805H27.9785C27.1695 42.4805 26.5137 43.1363 26.5137 43.9453V54.1992ZM29.4434 52.7344V45.4102H45.5566V52.7344H29.4434Z" fill="#1F7DBB"/>
<path d="M20.5078 54.1992H1.46484V43.9453H20.5078V54.1992Z" fill="#F9F9F9"/>
<mask id="mask2_69_329" style="mask-type:luminance" maskUnits="userSpaceOnUse" x="0" y="0" width="75" height="75">
<path d="M0 7.62939e-06H75V75H0V7.62939e-06Z" fill="white"/>
</mask>
<g mask="url(#mask2_69_329)">
<path fill-rule="evenodd" clip-rule="evenodd" d="M0 54.1992C0 55.0082 0.655833 55.6641 1.46484 55.6641H20.5078C21.3168 55.6641 21.9727 55.0082 21.9727 54.1992V43.9453C21.9727 43.1363 21.3168 42.4805 20.5078 42.4805H1.46484C0.655833 42.4805 0 43.1363 0 43.9453V54.1992ZM2.92969 52.7344V45.4102H19.043V52.7344H2.92969Z" fill="#1F7DBB"/>
</g>
<path d="M20.5078 35.1562H1.46484V24.9023H20.5078V35.1562Z" fill="#FF7D97"/>
<mask id="mask3_69_329" style="mask-type:luminance" maskUnits="userSpaceOnUse" x="0" y="0" width="75" height="75">
<path d="M0 7.62939e-06H75V75H0V7.62939e-06Z" fill="white"/>
</mask>
<g mask="url(#mask3_69_329)">
<path fill-rule="evenodd" clip-rule="evenodd" d="M0 35.1563C0 35.9653 0.655833 36.6211 1.46484 36.6211H20.5078C21.3168 36.6211 21.9727 35.9653 21.9727 35.1563V24.9023C21.9727 24.0933 21.3168 23.4375 20.5078 23.4375H1.46484C0.655833 23.4375 0 24.0933 0 24.9023V35.1563ZM2.92969 33.6914V26.3672H19.043V33.6914H2.92969Z" fill="#1F7DBB"/>
</g>
<path d="M73.5352 35.1562H54.4922V24.9023H73.5352V35.1562Z" fill="#FFDD40"/>
<mask id="mask4_69_329" style="mask-type:luminance" maskUnits="userSpaceOnUse" x="0" y="0" width="75" height="75">
<path d="M0 7.62939e-06H75V75H0V7.62939e-06Z" fill="white"/>
</mask>
<g mask="url(#mask4_69_329)">
<path fill-rule="evenodd" clip-rule="evenodd" d="M53.0273 35.1563C53.0273 35.9653 53.6832 36.6211 54.4922 36.6211H73.5352C74.3442 36.6211 75 35.9653 75 35.1563V24.9023C75 24.0933 74.3442 23.4375 73.5352 23.4375H54.4922C53.6832 23.4375 53.0273 24.0933 53.0273 24.9023V35.1563ZM55.957 33.6914V26.3672H72.0703V33.6914H55.957Z" fill="#1F7DBB"/>
</g>
<path fill-rule="evenodd" clip-rule="evenodd" d="M30.1758 8.78906C30.1758 9.59807 30.8316 10.2539 31.6406 10.2539H43.3594C44.1684 10.2539 44.8242 9.59807 44.8242 8.78906C44.8242 7.98005 44.1684 7.32422 43.3594 7.32422H31.6406C30.8316 7.32422 30.1758 7.98005 30.1758 8.78906Z" fill="#1F7DBB"/>
<path d="M45.5566 30.0293L37.5 38.0859L29.4434 30.0293L37.5 21.9727L45.5566 30.0293Z" fill="#CDE3FF"/>
<path fill-rule="evenodd" clip-rule="evenodd" d="M36.4642 39.1217C37.0363 39.6938 37.9637 39.6938 38.5358 39.1217L46.5924 31.0651C47.1645 30.493 47.1645 29.5656 46.5924 28.9935L38.5358 20.9369C37.9637 20.3648 37.0363 20.3648 36.4642 20.9369L28.4076 28.9935C27.8355 29.5656 27.8355 30.493 28.4076 31.0651L36.4642 39.1217ZM31.515 30.0293L37.5 24.0443L43.485 30.0293L37.5 36.0143L31.515 30.0293Z" fill="#1F7DBB"/>
<path fill-rule="evenodd" clip-rule="evenodd" d="M37.5 23.4375C38.309 23.4375 38.9648 22.7817 38.9648 21.9727V16.1133C38.9648 15.3043 38.309 14.6484 37.5 14.6484C36.691 14.6484 36.0352 15.3043 36.0352 16.1133V21.9727C36.0352 22.7817 36.691 23.4375 37.5 23.4375Z" fill="#1F7DBB"/>
<path fill-rule="evenodd" clip-rule="evenodd" d="M37.5 45.4102C38.309 45.4102 38.9648 44.7543 38.9648 43.9453V38.0859C38.9648 37.2769 38.309 36.6211 37.5 36.6211C36.691 36.6211 36.0352 37.2769 36.0352 38.0859V43.9453C36.0352 44.7543 36.691 45.4102 37.5 45.4102Z" fill="#1F7DBB"/>
<path fill-rule="evenodd" clip-rule="evenodd" d="M10.9863 45.4102C11.7953 45.4102 12.4512 44.7543 12.4512 43.9453V35.1563C12.4512 34.3472 11.7953 33.6914 10.9863 33.6914C10.1773 33.6914 9.52148 34.3472 9.52148 35.1563V43.9453C9.52148 44.7543 10.1773 45.4102 10.9863 45.4102Z" fill="#1F7DBB"/>
<path fill-rule="evenodd" clip-rule="evenodd" d="M45.5566 49.0723C45.5566 49.8813 46.2125 50.5371 47.0215 50.5371H64.0137C64.8227 50.5371 65.4785 49.8813 65.4785 49.0723V35.1563C65.4785 34.3472 64.8227 33.6914 64.0137 33.6914C63.2047 33.6914 62.5488 34.3472 62.5488 35.1563V47.6074H47.0215C46.2125 47.6074 45.5566 48.2633 45.5566 49.0723Z" fill="#1F7DBB"/>
<path fill-rule="evenodd" clip-rule="evenodd" d="M37.5 64.7461C38.309 64.7461 38.9648 64.0903 38.9648 63.2813V54.1992C38.9648 53.3902 38.309 52.7344 37.5 52.7344C36.691 52.7344 36.0352 53.3902 36.0352 54.1992V63.2813C36.0352 64.0903 36.691 64.7461 37.5 64.7461Z" fill="#1F7DBB"/>
<path fill-rule="evenodd" clip-rule="evenodd" d="M19.043 30.0293C19.043 30.8383 19.6988 31.4941 20.5078 31.4941H29.4434C30.2524 31.4941 30.9082 30.8383 30.9082 30.0293C30.9082 29.2203 30.2524 28.5645 29.4434 28.5645H20.5078C19.6988 28.5645 19.043 29.2203 19.043 30.0293Z" fill="#1F7DBB"/>
<path fill-rule="evenodd" clip-rule="evenodd" d="M44.0918 30.0293C44.0918 30.8383 44.7476 31.4941 45.5566 31.4941H54.4922C55.3012 31.4941 55.957 30.8383 55.957 30.0293C55.957 29.2203 55.3012 28.5645 54.4922 28.5645H45.5566C44.7476 28.5645 44.0918 29.2203 44.0918 30.0293Z" fill="#1F7DBB"/>
</g>
<defs>
<clipPath id="clip0_69_329">
<rect width="75" height="75" fill="white"/>
</clipPath>
</defs>
</svg>
