<svg width="20" height="20" viewBox="0 0 20 20" fill="none" xmlns="http://www.w3.org/2000/svg">
<path d="M16.666 1.66669H3.33268C2.41221 1.66669 1.66602 2.41288 1.66602 3.33335V16.6667C1.66602 17.5872 2.41221 18.3334 3.33268 18.3334H16.666C17.5865 18.3334 18.3327 17.5872 18.3327 16.6667V3.33335C18.3327 2.41288 17.5865 1.66669 16.666 1.66669Z" fill="white"/>
<path d="M16.666 18.9584H3.33268C2.72503 18.9579 2.14239 18.7163 1.71272 18.2867C1.28304 17.857 1.04146 17.2743 1.04102 16.6667V3.33335C1.04146 2.7257 1.28304 2.14306 1.71272 1.71339C2.14239 1.28371 2.72503 1.04213 3.33268 1.04169H9.99935C10.1651 1.04169 10.3241 1.10754 10.4413 1.22475C10.5585 1.34196 10.6243 1.50093 10.6243 1.66669C10.6243 1.83245 10.5585 1.99142 10.4413 2.10863C10.3241 2.22584 10.1651 2.29169 9.99935 2.29169H3.33268C3.05655 2.29213 2.79185 2.40202 2.5966 2.59727C2.40134 2.79253 2.29146 3.05722 2.29102 3.33335V16.6667C2.29146 16.9428 2.40134 17.2075 2.5966 17.4028C2.79185 17.598 3.05655 17.7079 3.33268 17.7084H16.666C16.9421 17.7079 17.2068 17.598 17.4021 17.4028C17.5974 17.2075 17.7072 16.9428 17.7077 16.6667V13.3334C17.7077 13.1676 17.7735 13.0086 17.8907 12.8914C18.008 12.7742 18.1669 12.7084 18.3327 12.7084C18.4984 12.7084 18.6574 12.7742 18.7746 12.8914C18.8918 13.0086 18.9577 13.1676 18.9577 13.3334V16.6667C18.9572 17.2743 18.7157 17.857 18.286 18.2867C17.8563 18.7163 17.2737 18.9579 16.666 18.9584Z" fill="#CDE3FF"/>
<path d="M19.2568 5.04166C19.2597 5.34206 19.2022 5.63998 19.0876 5.91771C18.9731 6.19544 18.8039 6.4473 18.5901 6.65833L10.5317 14.7167C10.3088 14.9393 10.019 15.0827 9.70675 15.125L5.86508 15.675C5.83499 15.6815 5.8042 15.6843 5.77341 15.6833C5.69136 15.6833 5.61011 15.6671 5.53433 15.6356C5.45854 15.6042 5.3897 15.5581 5.33175 15.5C5.2616 15.4319 5.20903 15.3478 5.17855 15.2549C5.14807 15.162 5.14059 15.0631 5.15675 14.9667L5.29841 13.9667L5.70675 11.125C5.74905 10.8128 5.89247 10.523 6.11508 10.3L14.1651 2.24166C14.5957 1.81328 15.1785 1.57281 15.7859 1.57281C16.3934 1.57281 16.9761 1.81328 17.4067 2.24166L18.4151 3.24999L18.5901 3.42499C18.8033 3.6365 18.972 3.88845 19.0865 4.16607C19.201 4.44369 19.2589 4.74137 19.2568 5.04166Z" fill="#CDE3FF"/>
<path d="M18.4238 3.37499C18.4267 3.67539 18.3692 3.97331 18.2547 4.25104C18.1402 4.52877 17.971 4.78063 17.7572 4.99166L9.69883 13.05C9.47584 13.2726 9.18606 13.416 8.87383 13.4583L5.29883 13.9667L5.70716 11.125C5.74946 10.8128 5.89289 10.523 6.11549 10.3L14.1655 2.24166C14.5962 1.81328 15.1789 1.57281 15.7863 1.57281C16.3938 1.57281 16.9765 1.81328 17.4072 2.24166L18.4155 3.24999C18.4224 3.29128 18.4252 3.33315 18.4238 3.37499Z" fill="#CDE3FF"/>
<path d="M6.11508 10.3C5.89247 10.523 5.74905 10.8128 5.70675 11.125L5.55675 12.1917L5.15675 14.9667C5.14059 15.0631 5.14807 15.162 5.17855 15.2549C5.20903 15.3478 5.2616 15.4319 5.33175 15.5C5.3897 15.5581 5.45854 15.6042 5.53433 15.6357C5.61011 15.6671 5.69136 15.6834 5.77341 15.6834C5.8042 15.6844 5.83499 15.6816 5.86508 15.675L8.64008 15.275L9.70675 15.125C10.019 15.0827 10.3088 14.9393 10.5317 14.7167L6.11508 10.3Z" fill="#CDE3FF"/>
<path d="M5.7733 15.6842C5.68371 15.6844 5.59512 15.6653 5.51358 15.6282C5.43203 15.5911 5.35944 15.5368 5.30076 15.4691C5.24208 15.4014 5.19868 15.3219 5.17352 15.2359C5.14836 15.1499 5.14203 15.0595 5.15497 14.9709L5.70497 11.1209C5.74953 10.8085 5.89428 10.519 6.11747 10.2959L14.17 2.24253C14.6004 1.81375 15.1832 1.573 15.7908 1.573C16.3984 1.573 16.9812 1.81375 17.4116 2.24253L18.59 3.42086C19.019 3.8512 19.2598 4.43406 19.2598 5.04169C19.2598 5.64933 19.019 6.23219 18.59 6.66253L12.1075 13.1434C12.0503 13.2048 11.9813 13.254 11.9046 13.2882C11.8279 13.3223 11.7452 13.3407 11.6612 13.3422C11.5773 13.3437 11.494 13.3282 11.4161 13.2968C11.3383 13.2654 11.2676 13.2186 11.2083 13.1592C11.1489 13.0999 11.1021 13.0292 11.0707 12.9514C11.0393 12.8735 11.0238 12.7902 11.0253 12.7063C11.0268 12.6223 11.0452 12.5396 11.0793 12.4629C11.1135 12.3862 11.1627 12.3172 11.2241 12.26L17.7058 5.77919C17.9007 5.58337 18.01 5.31836 18.01 5.04211C18.01 4.76586 17.9007 4.50085 17.7058 4.30503L16.5275 3.12669C16.3319 2.93144 16.0668 2.82177 15.7904 2.82177C15.514 2.82177 15.2489 2.93144 15.0533 3.12669L6.99914 11.18C6.96743 11.2119 6.94671 11.2531 6.93997 11.2975L6.5083 14.3234L9.80747 13.8517C9.88887 13.8389 9.97202 13.8425 10.052 13.8624C10.132 13.8822 10.2072 13.9179 10.2731 13.9673C10.3391 14.0167 10.3945 14.0788 10.436 14.15C10.4775 14.2212 10.5044 14.3 10.515 14.3817C10.5266 14.4629 10.5222 14.5456 10.5018 14.6251C10.4815 14.7046 10.4457 14.7793 10.3965 14.8449C10.3472 14.9105 10.2856 14.9658 10.215 15.0076C10.1443 15.0494 10.0662 15.0768 9.98497 15.0884L5.85997 15.6775C5.83126 15.6817 5.80231 15.6839 5.7733 15.6842Z" fill="#1F7DBB"/>
<path d="M9.89939 15.095C9.81738 15.0952 9.73614 15.0792 9.66035 15.0478C9.58455 15.0165 9.51569 14.9705 9.45773 14.9125L5.92106 11.3759C5.86139 11.3182 5.81381 11.2492 5.78109 11.1729C5.74837 11.0967 5.73117 11.0146 5.73049 10.9316C5.72981 10.8487 5.74566 10.7664 5.77712 10.6896C5.80858 10.6128 5.85502 10.543 5.91374 10.4844C5.97245 10.4257 6.04225 10.3793 6.11907 10.3479C6.1959 10.3166 6.27821 10.3008 6.36119 10.3015C6.44418 10.3023 6.52618 10.3196 6.60242 10.3524C6.67866 10.3852 6.7476 10.4328 6.80523 10.4925L10.3411 14.0284C10.4284 14.1158 10.4878 14.2271 10.5119 14.3482C10.5359 14.4694 10.5236 14.595 10.4763 14.7091C10.429 14.8233 10.349 14.9208 10.2463 14.9895C10.1437 15.0582 10.0229 15.0949 9.89939 15.095Z" fill="#1F7DBB"/>
<path d="M16.666 18.9584H3.33268C2.72503 18.9579 2.14239 18.7163 1.71272 18.2867C1.28304 17.857 1.04146 17.2743 1.04102 16.6667V3.33335C1.04146 2.7257 1.28304 2.14306 1.71272 1.71339C2.14239 1.28371 2.72503 1.04213 3.33268 1.04169H9.99935C10.1651 1.04169 10.3241 1.10754 10.4413 1.22475C10.5585 1.34196 10.6243 1.50093 10.6243 1.66669C10.6243 1.83245 10.5585 1.99142 10.4413 2.10863C10.3241 2.22584 10.1651 2.29169 9.99935 2.29169H3.33268C3.05655 2.29213 2.79185 2.40202 2.5966 2.59727C2.40134 2.79253 2.29146 3.05722 2.29102 3.33335V16.6667C2.29146 16.9428 2.40134 17.2075 2.5966 17.4028C2.79185 17.598 3.05655 17.7079 3.33268 17.7084H16.666C16.9421 17.7079 17.2068 17.598 17.4021 17.4028C17.5974 17.2075 17.7072 16.9428 17.7077 16.6667V13.3334C17.7077 13.1676 17.7735 13.0086 17.8907 12.8914C18.008 12.7742 18.1669 12.7084 18.3327 12.7084C18.4984 12.7084 18.6574 12.7742 18.7746 12.8914C18.8918 13.0086 18.9577 13.1676 18.9577 13.3334V16.6667C18.9572 17.2743 18.7157 17.857 18.286 18.2867C17.8563 18.7163 17.2737 18.9579 16.666 18.9584Z" fill="#1F7DBB"/>
</svg>
