<svg width="30" height="30" viewBox="0 0 30 30" fill="none" xmlns="http://www.w3.org/2000/svg">
<g clip-path="url(#clip0_235_255)">
<mask id="mask0_235_255" style="mask-type:luminance" maskUnits="userSpaceOnUse" x="-5" y="-6" width="41" height="41">
<path d="M35.002 34.9963H-4.99805V-5.00366H35.002V34.9963Z" fill="white"/>
</mask>
<g mask="url(#mask0_235_255)">
<path d="M25.4968 20.6909C23.9383 23.638 21.0439 25.8234 17.8156 26.6027C16.8957 26.8253 15.9465 26.9366 14.9973 26.9366C8.40587 26.9425 3.05652 21.5932 3.05652 15.0017C3.05652 8.40435 8.40001 3.06086 14.9973 3.06086C21.5888 3.06086 26.9382 8.40435 26.9382 15.0017C26.9382 16.9821 26.446 18.9507 25.4968 20.6909ZM25.7898 24.5579C28.1334 21.9213 29.4166 18.5581 29.4166 15.0017C29.4166 11.1523 27.9166 7.53134 25.198 4.81273C22.4735 2.08825 18.8585 0.58832 15.0091 0.58832C11.1596 0.58832 7.53872 2.08825 4.82011 4.81273C2.09563 7.5372 0.595703 11.1523 0.595703 15.0017C0.595703 18.8511 2.09563 22.472 4.82011 25.1906C7.54458 27.9151 11.1596 29.4092 15.0091 29.4092H29.4224L25.7898 24.5579Z" fill="#CDE3FF"/>
<path d="M14.9994 26.9397C8.40208 26.9397 3.05859 21.5962 3.05859 14.9989C3.05859 8.40154 8.40208 3.05805 14.9994 3.05805C21.5909 3.05805 26.9402 8.40154 26.9402 14.9989C26.9402 21.5962 21.5909 26.9397 14.9994 26.9397Z" fill="#EFF6FF"/>
<path d="M17.818 21.4088H16.3825V11.2784H13.7167L11.0156 13.1709L12.3515 15.081L14.0448 13.8916V21.4088H12.3398V23.7407H17.818V21.4088Z" fill="white"/>
<path d="M16.4627 7.44954C16.4627 8.29911 15.7714 8.99048 14.9218 8.99048C14.0722 8.99048 13.3809 8.29911 13.3809 7.44954C13.3809 6.59997 14.0722 5.9086 14.9218 5.9086C15.7714 5.9086 16.4627 6.59997 16.4627 7.44954Z" fill="white"/>
<path d="M17.8158 24.3281H12.3434C12.0212 24.3281 11.7575 24.0645 11.7575 23.7422V21.4103C11.7575 21.088 12.0212 20.8244 12.3434 20.8244H13.4625V15.0239L12.6891 15.5629C12.4255 15.7504 12.0563 15.686 11.8747 15.4165L10.533 13.5064C10.3455 13.2427 10.4099 12.8736 10.6795 12.692L13.3805 10.7995C13.4801 10.7292 13.5973 10.694 13.7145 10.694H16.3803C16.7026 10.694 16.9663 10.9577 16.9663 11.2799C16.9663 11.6022 16.7026 11.8658 16.3803 11.8658H13.902L11.8337 13.313L12.4958 14.2681L13.7145 13.4185C13.8961 13.2955 14.1246 13.2779 14.3238 13.3775C14.5172 13.4771 14.6402 13.6763 14.6402 13.8989V21.4103C14.6402 21.7325 14.3765 21.9962 14.0543 21.9962H12.9352V23.1563H17.2358V21.9962H16.3803C16.0581 21.9962 15.7944 21.7325 15.7944 21.4103V16.4477C15.7944 16.1254 16.0581 15.8617 16.3803 15.8617C16.7026 15.8617 16.9663 16.1254 16.9663 16.4477V20.8244H17.8158C18.1381 20.8244 18.4017 21.088 18.4017 21.4103V23.7422C18.4017 24.0645 18.1439 24.3281 17.8158 24.3281Z" fill="#1F7DBB"/>
<path d="M14.9218 9.57642C14.3534 9.57642 13.8203 9.35377 13.416 8.95535C13.0117 8.55108 12.7949 8.0179 12.7949 7.44957C12.7949 6.88124 13.0176 6.34806 13.416 5.94378C13.8203 5.5395 14.3534 5.32272 14.9218 5.32272C15.4901 5.32272 16.0233 5.54536 16.4276 5.94378C16.826 6.34806 17.0486 6.88124 17.0486 7.44957C17.0486 8.62138 16.0936 9.57642 14.9218 9.57642ZM14.9218 6.49454C14.664 6.49454 14.4237 6.59414 14.248 6.77577C14.0722 6.9574 13.9609 7.19177 13.9609 7.44957C13.9609 7.70737 14.0605 7.94759 14.2421 8.12336C14.4237 8.30499 14.664 8.4046 14.9159 8.4046C15.4491 8.4046 15.8768 7.97688 15.8768 7.44957C15.8768 7.19177 15.7772 6.95154 15.5956 6.77577C15.4139 6.59414 15.1737 6.49454 14.9218 6.49454Z" fill="#1F7DBB"/>
<path d="M14.9995 27.5276C10.0017 27.5276 5.48433 24.5629 3.4981 19.9752C3.3692 19.6764 3.50981 19.3307 3.80277 19.2018C4.10158 19.0729 4.44727 19.2135 4.57617 19.5065C6.37491 23.6664 10.4704 26.3499 14.9995 26.3499C21.2629 26.3499 26.3544 21.2584 26.3544 14.995C26.3544 8.73163 21.2629 3.64009 14.9995 3.64009C8.88846 3.64594 3.79691 8.60859 3.65043 14.7138C3.64457 15.036 3.37505 15.2938 3.0528 15.288C2.73055 15.2821 2.47275 15.0126 2.47861 14.6903C2.56064 11.4092 3.89651 8.33907 6.24601 6.04231C8.60136 3.74555 11.7067 2.47412 14.9995 2.47412C18.345 2.47412 21.4914 3.77484 23.8584 6.14191C26.2255 8.50899 27.5262 11.6553 27.5262 15.0009C27.5262 18.3464 26.2255 21.4927 23.8584 23.8598C21.4914 26.2269 18.345 27.5276 14.9995 27.5276Z" fill="#1F7DBB"/>
<path d="M3.27536 17.9587C3.25778 17.9587 3.23435 17.9587 3.21677 17.9529C3.19919 17.9529 3.17576 17.947 3.15818 17.947C3.12303 17.9412 3.08201 17.9294 3.04686 17.9119C3.01756 17.9001 2.98241 17.8826 2.94725 17.8591C2.92968 17.8474 2.91796 17.8357 2.90038 17.824C2.8828 17.8123 2.87108 17.8005 2.85937 17.783C2.84765 17.7712 2.83007 17.7537 2.81835 17.742C2.80663 17.7302 2.79492 17.7127 2.7832 17.6951C2.76562 17.6658 2.74804 17.6306 2.73633 17.5955C2.71875 17.5603 2.70703 17.5252 2.70117 17.49C2.69531 17.4666 2.69531 17.449 2.68945 17.4314C2.68945 17.4138 2.68945 17.3904 2.68945 17.3728C2.68945 17.3553 2.68945 17.3318 2.68945 17.3142C2.68945 17.2967 2.69531 17.2732 2.69531 17.2556C2.70117 17.2205 2.71289 17.1795 2.73047 17.1443C2.74804 17.115 2.76562 17.0799 2.78906 17.0506C2.80078 17.033 2.81249 17.0213 2.82421 17.0037C2.83593 16.992 2.84765 16.9744 2.86523 16.9627C2.87694 16.951 2.89452 16.9334 2.90624 16.9217C2.91796 16.91 2.93553 16.8982 2.95311 16.8865C2.98241 16.8631 3.01756 16.8455 3.05272 16.8338C3.08787 16.8162 3.12303 16.8045 3.15818 16.7986C3.17576 16.7928 3.19333 16.7928 3.21677 16.7928C3.25778 16.7869 3.29294 16.7869 3.33395 16.7928C3.35153 16.7928 3.37497 16.7986 3.39254 16.7986C3.4277 16.8045 3.46871 16.8162 3.50387 16.8338C3.53316 16.8455 3.56832 16.8631 3.59761 16.8865C3.61519 16.8982 3.62691 16.91 3.64448 16.9217C3.66206 16.9334 3.67378 16.9451 3.6855 16.9627C3.69722 16.9744 3.71479 16.992 3.72651 17.0037C3.73823 17.0213 3.74995 17.033 3.76167 17.0506C3.7851 17.0799 3.80268 17.115 3.8144 17.1502C3.83198 17.1853 3.84369 17.2205 3.84955 17.2556C3.85541 17.2791 3.85541 17.2967 3.86127 17.3142C3.86127 17.3318 3.86127 17.3553 3.86127 17.3728C3.86127 17.3904 3.86127 17.4138 3.85541 17.4314C3.85541 17.449 3.84955 17.4666 3.84955 17.49C3.84369 17.5252 3.83198 17.5603 3.8144 17.5955C3.80268 17.6306 3.7851 17.6658 3.76167 17.7009C3.74995 17.7127 3.73823 17.7302 3.72651 17.742C3.71479 17.7595 3.70308 17.7712 3.69136 17.7888C3.67378 17.8005 3.66206 17.8123 3.64448 17.824C3.63277 17.8357 3.61519 17.8474 3.59761 17.8591C3.56832 17.8826 3.53316 17.9001 3.49801 17.9119C3.46285 17.9294 3.4277 17.9412 3.39254 17.947C3.36911 17.9529 3.35153 17.9529 3.33395 17.9529C3.31638 17.9587 3.29294 17.9587 3.27536 17.9587Z" fill="#1F7DBB"/>
<path d="M29.4146 29.9988H15.0012C10.9936 29.9988 7.22621 28.4403 4.39627 25.6045C1.56047 22.7687 0.00195312 19.0013 0.00195312 14.9995C0.00195312 10.9919 1.56047 7.2245 4.39627 4.39456C7.23207 1.55876 10.9936 0.000246048 15.0012 0.000246048C19.0088 0.000246048 22.7762 1.55876 25.6062 4.39456C28.442 7.2245 30.0005 10.9919 30.0005 14.9995C30.0005 16.8393 29.6724 18.6321 29.0279 20.3313C28.442 21.8781 27.6041 23.3018 26.5378 24.5791L29.8833 29.0613C30.0181 29.2371 30.0356 29.4773 29.936 29.6765C29.8364 29.8757 29.6314 29.9988 29.4146 29.9988ZM15.0012 1.17206C11.31 1.17206 7.83555 2.6134 5.2224 5.22069C2.60925 7.83385 1.17377 11.3024 1.17377 14.9995C1.17377 18.6907 2.61511 22.1652 5.2224 24.7783C7.83555 27.3915 11.3041 28.827 15.0012 28.827H28.2428L25.3191 24.9072C25.155 24.6846 25.1667 24.3741 25.3484 24.169C27.5924 21.6437 28.8228 18.3919 28.8228 14.9995C28.8228 11.3083 27.3873 7.83385 24.7742 5.22069C22.161 2.60754 18.6924 1.17206 15.0012 1.17206Z" fill="#1F7DBB"/>
<path d="M16.3808 14.4253C16.3633 14.4253 16.3398 14.4253 16.3222 14.4194C16.3047 14.4194 16.2812 14.4136 16.2636 14.4136C16.2285 14.4077 16.1875 14.396 16.1523 14.3784C16.123 14.3667 16.0879 14.3491 16.0527 14.3257C16.0351 14.314 16.0234 14.3023 16.0058 14.2905C15.9883 14.2788 15.9766 14.2671 15.9648 14.2495C15.9531 14.2378 15.9355 14.2202 15.9238 14.2085C15.9121 14.1909 15.9004 14.1792 15.8887 14.1616C15.8711 14.1323 15.8535 14.0972 15.8418 14.062C15.8242 14.0269 15.8125 13.9917 15.8066 13.9566C15.8008 13.939 15.8008 13.9214 15.8008 13.898C15.8008 13.8804 15.7949 13.857 15.7949 13.8394C15.7949 13.8218 15.7949 13.7984 15.8008 13.7808C15.8008 13.7632 15.8066 13.7456 15.8066 13.7222C15.8125 13.687 15.8242 13.646 15.8418 13.6109C15.8535 13.5816 15.8711 13.5464 15.8945 13.5171C15.9062 13.4996 15.918 13.4878 15.9297 13.4703C15.9414 13.4527 15.9531 13.441 15.9707 13.4292C15.9824 13.4175 16 13.4 16.0117 13.3882C16.0234 13.3765 16.041 13.3648 16.0586 13.3531C16.0879 13.3296 16.123 13.3121 16.1582 13.3003C16.1933 13.2828 16.2285 13.2711 16.2636 13.2652C16.2812 13.2593 16.2988 13.2593 16.3222 13.2593C16.3633 13.2535 16.3984 13.2535 16.4394 13.2593C16.457 13.2593 16.4804 13.2652 16.498 13.2652C16.5332 13.2711 16.5742 13.2828 16.6093 13.3003C16.6386 13.3121 16.6738 13.3296 16.7031 13.3531C16.7207 13.3648 16.7324 13.3765 16.75 13.3882C16.7675 13.4 16.7792 13.4117 16.791 13.4292C16.8027 13.441 16.8203 13.4585 16.832 13.4703C16.8437 13.4878 16.8554 13.4996 16.8671 13.5171C16.8906 13.5464 16.9081 13.5816 16.9199 13.6167C16.9374 13.6519 16.9492 13.687 16.955 13.7222C16.9609 13.7398 16.9609 13.7574 16.9667 13.7808C16.9667 13.7984 16.9667 13.8218 16.9667 13.8394C16.9667 13.857 16.9667 13.8804 16.9609 13.898C16.9609 13.9156 16.955 13.9331 16.9492 13.9566C16.9492 13.9917 16.9374 14.0269 16.9199 14.062C16.9081 14.0972 16.8906 14.1323 16.8671 14.1675C16.8554 14.1792 16.8437 14.1968 16.832 14.2085C16.8203 14.2261 16.8085 14.2378 16.7968 14.2554C16.7792 14.2671 16.7675 14.2788 16.75 14.2905C16.7382 14.3023 16.7207 14.314 16.7031 14.3257C16.6738 14.3491 16.6386 14.3667 16.6035 14.3784C16.5683 14.396 16.5332 14.4077 16.498 14.4136C16.4746 14.4194 16.457 14.4194 16.4394 14.4194C16.4218 14.4253 16.3984 14.4253 16.3808 14.4253Z" fill="#1F7DBB"/>
</g>
</g>
<defs>
<clipPath id="clip0_235_255">
<rect width="30" height="30" fill="white"/>
</clipPath>
</defs>
</svg>
