<svg width="16" height="16" viewBox="0 0 16 16" fill="none" xmlns="http://www.w3.org/2000/svg">
<g clip-path="url(#clip0_218_794)">
<path d="M8 0C6.41775 0 4.87104 0.469192 3.55544 1.34824C2.23985 2.22729 1.21447 3.47672 0.608967 4.93853C0.00346629 6.40034 -0.15496 8.00887 0.153721 9.56072C0.462403 11.1126 1.22433 12.538 2.34315 13.6569C3.46197 14.7757 4.88743 15.5376 6.43928 15.8463C7.99113 16.155 9.59966 15.9965 11.0615 15.391C12.5233 14.7855 13.7727 13.7602 14.6518 12.4446C15.5308 11.129 16 9.58225 16 8C15.9977 5.87897 15.1541 3.84547 13.6543 2.34568C12.1545 0.845886 10.121 0.00229405 8 0ZM8 14C6.81332 14 5.65328 13.6481 4.66658 12.9888C3.67989 12.3295 2.91085 11.3925 2.45673 10.2961C2.0026 9.19975 1.88378 7.99335 2.11529 6.82946C2.3468 5.66557 2.91825 4.59647 3.75736 3.75736C4.59648 2.91824 5.66558 2.3468 6.82946 2.11529C7.99335 1.88378 9.19975 2.0026 10.2961 2.45672C11.3925 2.91085 12.3295 3.67988 12.9888 4.66658C13.6481 5.65327 14 6.81331 14 8C13.9981 9.5907 13.3653 11.1157 12.2405 12.2405C11.1157 13.3653 9.59071 13.9981 8 14Z" fill="#1F7DBB"/>
<path d="M7.69704 6.36335H7.49704C7.23503 6.35692 6.98006 6.44859 6.78212 6.62038C6.58418 6.79217 6.45754 7.03171 6.42704 7.29202C6.4096 7.55244 6.49466 7.80935 6.66407 8.00791C6.83347 8.20646 7.07379 8.33091 7.33371 8.35469V11.4547C7.33371 11.7199 7.43906 11.9743 7.6266 12.1618C7.81414 12.3493 8.06849 12.4547 8.33371 12.4547C8.59892 12.4547 8.85328 12.3493 9.04082 12.1618C9.22835 11.9743 9.33371 11.7199 9.33371 11.4547V8.00002C9.33371 7.56595 9.16127 7.14966 8.85434 6.84272C8.5474 6.53579 8.13111 6.36335 7.69704 6.36335Z" fill="#1F7DBB"/>
<path d="M7.88619 5.64402C8.11245 5.64402 8.33363 5.57692 8.52176 5.45122C8.70989 5.32552 8.85652 5.14685 8.94311 4.93781C9.02969 4.72877 9.05235 4.49875 9.00821 4.27684C8.96406 4.05492 8.85511 3.85108 8.69512 3.69109C8.53513 3.5311 8.33128 3.42214 8.10937 3.378C7.88746 3.33386 7.65744 3.35651 7.4484 3.4431C7.23936 3.52969 7.06069 3.67632 6.93499 3.86445C6.80928 4.05258 6.74219 4.27376 6.74219 4.50002C6.7421 4.65028 6.77163 4.79908 6.82909 4.93791C6.88655 5.07675 6.97081 5.2029 7.07706 5.30914C7.18331 5.41539 7.30946 5.49965 7.44829 5.55712C7.58713 5.61458 7.73593 5.64411 7.88619 5.64402Z" fill="#1F7DBB"/>
</g>
<defs>
<clipPath id="clip0_218_794">
<rect width="16" height="16" fill="white"/>
</clipPath>
</defs>
</svg>
