<svg width="20" height="20" viewBox="0 0 20 20" fill="none" xmlns="http://www.w3.org/2000/svg">
<path d="M16.3337 3.66667C14.8086 2.15076 12.7887 1.23461 10.6435 1.08582C8.49835 0.937035 6.37132 1.56555 4.65154 2.85639C2.93177 4.14724 1.73423 6.0141 1.278 8.11547C0.821768 10.2168 1.13735 12.4122 2.16702 14.3C2.18608 14.3539 2.18608 14.4127 2.16702 14.4667L1.50868 16.6667C1.43588 16.9192 1.43146 17.1865 1.49589 17.4413C1.56031 17.696 1.69127 17.9291 1.87535 18.1167C2.0622 18.3045 2.29668 18.4379 2.55361 18.5025C2.81055 18.5671 3.08022 18.5604 3.33368 18.4833L5.54202 17.825C5.56842 17.814 5.59674 17.8083 5.62535 17.8083C5.65395 17.8083 5.68228 17.814 5.70868 17.825C7.01973 18.5612 8.49674 18.9513 10.0003 18.9583C10.6471 18.957 11.2921 18.89 11.9253 18.7583C13.4962 18.4138 14.9453 17.6527 16.1207 16.555C17.296 15.4573 18.1541 14.0635 18.605 12.5198C19.056 10.9761 19.083 9.33952 18.6833 7.78178C18.2837 6.22404 17.4721 4.8026 16.3337 3.66667Z" fill="white"/>
<path d="M10.0007 8.16668C10.9211 8.16668 11.6673 7.42049 11.6673 6.50001C11.6673 5.57954 10.9211 4.83334 10.0007 4.83334C9.08018 4.83334 8.33398 5.57954 8.33398 6.50001C8.33398 7.42049 9.08018 8.16668 10.0007 8.16668Z" fill="#CDE3FF"/>
<path d="M10.0007 9.02499C9.55862 9.02499 9.1347 9.20059 8.82214 9.51315C8.50958 9.82571 8.33398 10.2496 8.33398 10.6917V13.6583C8.33398 14.1004 8.50958 14.5243 8.82214 14.8368C9.1347 15.1494 9.55862 15.325 10.0007 15.325C10.4427 15.325 10.8666 15.1494 11.1792 14.8368C11.4917 14.5243 11.6673 14.1004 11.6673 13.6583V10.6917C11.6673 10.2496 11.4917 9.82571 11.1792 9.51315C10.8666 9.20059 10.4427 9.02499 10.0007 9.02499Z" fill="#CDE3FF"/>
<path d="M10.0004 18.9583C9.11024 18.9585 8.22517 18.8237 7.37544 18.5583C7.29647 18.5345 7.22299 18.4953 7.15924 18.443C7.09549 18.3907 7.04273 18.3262 7.00399 18.2534C6.96526 18.1806 6.94132 18.1008 6.93356 18.0187C6.9258 17.9366 6.93437 17.8538 6.95877 17.775C7.01043 17.6183 7.1212 17.488 7.26749 17.4117C7.41379 17.3355 7.58407 17.3193 7.7421 17.3667C9.45985 17.9029 11.3106 17.8246 12.977 17.1453C14.6433 16.466 16.0214 15.228 16.8747 13.6437C17.728 12.0594 18.0034 10.2276 17.6536 8.46239C17.3039 6.69722 16.3508 5.10878 14.9578 3.96956C13.5648 2.83034 11.8189 2.21135 10.0194 2.21879C8.21992 2.22622 6.47912 2.85962 5.09563 4.01031C3.71213 5.16101 2.77218 6.75727 2.43703 8.52527C2.10187 10.2933 2.3924 12.1228 3.25877 13.7C3.35266 13.87 3.41203 14.057 3.43348 14.25C3.45493 14.4431 3.43804 14.6385 3.38377 14.825L2.7171 17.0333C2.70665 17.0692 2.70602 17.1072 2.71529 17.1434C2.72456 17.1795 2.74338 17.2126 2.76979 17.239C2.7962 17.2654 2.82922 17.2842 2.8654 17.2935C2.90158 17.3027 2.93958 17.3021 2.97544 17.2917L5.52544 16.525C5.68457 16.4775 5.85606 16.4951 6.00218 16.574C6.1483 16.653 6.25709 16.7867 6.3046 16.9458C6.35212 17.105 6.33448 17.2764 6.25556 17.4226C6.17664 17.5687 6.0429 17.6775 5.88377 17.725L3.33377 18.4833C3.08222 18.5599 2.81467 18.567 2.55941 18.5039C2.30416 18.4408 2.07071 18.3099 1.88377 18.125C1.69679 17.9375 1.56341 17.7034 1.49746 17.447C1.43152 17.1905 1.43543 16.9211 1.50877 16.6667L2.17544 14.4583C2.1945 14.4044 2.1945 14.3456 2.17544 14.2917C1.27368 12.6398 0.915047 10.7459 1.15044 8.87873C1.38583 7.01154 2.20328 5.26591 3.48679 3.88954C4.77031 2.51318 6.45469 1.576 8.30092 1.21098C10.1471 0.845969 12.0614 1.07167 13.7722 1.85605C15.4829 2.64043 16.9031 3.94365 17.8313 5.58078C18.7595 7.21791 19.1486 9.10579 18.9433 10.9765C18.738 12.8473 17.9487 14.6058 16.6875 16.0027C15.4263 17.3995 13.7572 18.3637 11.9171 18.7583C11.2867 18.8902 10.6445 18.9572 10.0004 18.9583Z" fill="#1F7DBB"/>
<path d="M10 8.125C9.62916 8.125 9.26665 8.01503 8.95831 7.80901C8.64996 7.60298 8.40964 7.31014 8.26773 6.96753C8.12581 6.62492 8.08868 6.24792 8.16103 5.88421C8.23338 5.52049 8.41195 5.1864 8.67418 4.92418C8.9364 4.66195 9.27049 4.48338 9.63421 4.41103C9.99792 4.33868 10.3749 4.37581 10.7175 4.51773C11.0601 4.65964 11.353 4.89996 11.559 5.20831C11.765 5.51665 11.875 5.87916 11.875 6.25C11.875 6.74728 11.6775 7.2242 11.3258 7.57583C10.9742 7.92746 10.4973 8.125 10 8.125ZM10 5.625C9.87639 5.625 9.75555 5.66166 9.65277 5.73033C9.54999 5.79901 9.46988 5.89662 9.42258 6.01082C9.37527 6.12503 9.36289 6.25069 9.38701 6.37193C9.41113 6.49317 9.47065 6.60453 9.55806 6.69194C9.64547 6.77935 9.75683 6.83888 9.87807 6.86299C9.99931 6.88711 10.125 6.87473 10.2392 6.82743C10.3534 6.78012 10.451 6.70001 10.5197 6.59723C10.5883 6.49445 10.625 6.37361 10.625 6.25C10.6228 6.08491 10.5563 5.92719 10.4396 5.81045C10.3228 5.6937 10.1651 5.62716 10 5.625Z" fill="#1F7DBB"/>
<path d="M10 15.625C9.50272 15.625 9.02581 15.4274 8.67417 15.0758C8.32254 14.7242 8.125 14.2473 8.125 13.75V10.4167C8.125 9.91938 8.32254 9.44246 8.67417 9.09083C9.02581 8.7392 9.50272 8.54166 10 8.54166C10.4973 8.54166 10.9742 8.7392 11.3258 9.09083C11.6775 9.44246 11.875 9.91938 11.875 10.4167V13.75C11.875 14.2473 11.6775 14.7242 11.3258 15.0758C10.9742 15.4274 10.4973 15.625 10 15.625ZM10 9.79166C9.83491 9.79381 9.67719 9.86036 9.56045 9.9771C9.4437 10.0938 9.37716 10.2516 9.375 10.4167V13.75C9.375 13.9158 9.44085 14.0747 9.55806 14.1919C9.67527 14.3091 9.83424 14.375 10 14.375C10.1658 14.375 10.3247 14.3091 10.4419 14.1919C10.5592 14.0747 10.625 13.9158 10.625 13.75V10.4167C10.6228 10.2516 10.5563 10.0938 10.4396 9.9771C10.3228 9.86036 10.1651 9.79381 10 9.79166Z" fill="#1F7DBB"/>
</svg>
