<svg width="165" height="30" viewBox="0 0 165 30" fill="none" xmlns="http://www.w3.org/2000/svg">
<g clip-path="url(#clip0_26_557)">
<path d="M120.785 0L122.18 4.26035H124.797L125.93 0H120.785Z" fill="#1F7DBB"/>
<path d="M118.779 7.45562L115.727 18.9941H120.872L122.791 11.716L123.576 8.87574H123.488L123.924 7.45562H118.779Z" fill="#263238"/>
<path d="M163.517 0H148.43H139.012C138.924 0 138.75 0 138.663 0H135.262C128.983 0 126.541 4.26036 125.756 7.18935L125.669 7.45562L125.058 9.76331L124.797 10.6509L124.273 12.6036C123.837 14.2899 124.099 15.7101 124.971 17.0414C125.93 18.284 127.413 18.9941 129.593 18.9941H143.372L144.506 14.7337H132.035C131.163 14.7337 130.465 14.4675 130.029 13.9349C129.593 13.4024 129.506 12.6923 129.68 11.8935L130.116 10.1183L130.378 9.14201L130.901 7.18935C130.901 7.18935 131.686 4.26035 134.913 4.1716H145.552H150.698L146.773 18.9053H151.919L155.843 4.1716H165L163.517 0Z" fill="#263238"/>
<path d="M106.831 0L104.826 7.54438L91.0465 7.45562L93.0523 0H87.907L85.4651 8.87574H85.5523L82.8488 18.9941H87.9942L89.9128 11.716H103.692L101.773 18.9941H106.919L111.977 0H106.831Z" fill="#1F7DBB"/>
<path d="M55.3779 0H49.7093L36.9768 14.7337H22.9361L23.8081 11.3609H37.6744L41.25 7.45562H19.7093L16.657 18.9941H33.4012H39.3314L51.2791 4.97041L53.2849 11.3609H48.6628L50.1454 15.5325H54.6802L55.7268 18.9941H61.5698L55.3779 0Z" fill="#1F7DBB"/>
<path d="M23.2849 4.26036H42.0349L40.5523 0H21.8895H0L1.48256 4.26036H9.06977L5.14535 18.9941H10.2907L14.2151 4.26036H23.2849Z" fill="#1F7DBB"/>
<path d="M82.2384 14.7337H69.7674C68.8954 14.7337 68.1977 14.4675 67.7616 13.9349C67.3256 13.4024 67.2384 12.6923 67.4128 11.8935L67.8488 10.1183L68.1105 9.14201L68.6337 7.18935C68.6337 7.18935 69.4186 4.26035 72.6454 4.1716H85.0291L86.0756 0H76.657C76.5698 0 76.3954 0 76.3081 0H72.907C66.6279 0 64.186 4.26036 63.4012 7.18935L63.314 7.45562L62.7907 9.76331L62.5291 10.6509L62.0058 12.6036C61.5698 14.2899 61.8314 15.7101 62.7035 17.0414C63.6628 18.284 65.1453 18.9941 67.3256 18.9941H81.1047L82.2384 14.7337Z" fill="#1F7DBB"/>
<path d="M115.901 11.716L117.035 7.45562H112.762H111.89L110.756 11.716H115.901Z" fill="#263238"/>
<path d="M2.18023 23.8757L1.56977 26.3609H5.49419L5.31977 26.9822H1.39535L0.610465 29.9112H0L1.74419 23.3432H6.5407L6.36628 23.9645H2.18023V23.8757Z" fill="#263238"/>
<path d="M15.3488 26.5385C14.7384 28.8462 12.8198 30 10.9012 30C9.06976 30 7.67441 28.8462 8.28487 26.5385C8.89534 24.2308 10.8139 23.0769 12.7325 23.0769C14.5639 23.0769 15.9593 24.2308 15.3488 26.5385ZM14.7384 26.5385C15.1744 24.8521 14.3895 23.6982 12.6453 23.6982C10.8139 23.6982 9.5058 24.8521 8.98255 26.5385C8.45929 28.2248 9.33139 29.3787 11.0756 29.3787C12.8198 29.3787 14.3023 28.2248 14.7384 26.5385Z" fill="#263238"/>
<path d="M23.4593 29.8225H22.7616L21.8895 27.3373C21.8023 27.3373 21.7151 27.3373 21.6279 27.3373H18.9244L18.2267 29.8225H17.6163L19.3605 23.2544H22.6744C24.5058 23.2544 24.7674 24.2308 24.5058 25.2959C24.2442 26.0947 23.7209 26.9822 22.5 27.2485L23.4593 29.8225ZM23.8953 25.2959C24.157 24.4083 23.8081 23.8757 22.5 23.8757H19.7093L18.9244 26.716H21.8023C23.1105 26.716 23.6337 26.1834 23.8953 25.2959Z" fill="#263238"/>
<path d="M37.2384 27.426H37.8488C37.064 29.1124 35.5814 30 33.9244 30C32.093 30 30.8721 28.8462 31.4826 26.5385C32.093 24.3195 33.9244 23.0769 35.7558 23.0769C37.4128 23.0769 38.4593 23.9645 38.3721 25.6509H37.7616C37.7616 24.4083 37.1512 23.6982 35.6686 23.6982C33.9244 23.6982 32.6163 24.8521 32.1802 26.5385C31.7442 28.2248 32.4419 29.3787 34.1861 29.3787C35.5814 29.3787 36.6279 28.5799 37.2384 27.426Z" fill="#263238"/>
<path d="M47.7907 26.5385C47.1802 28.8462 45.2616 30 43.343 30C41.5116 30 40.1163 28.8462 40.7267 26.5385C41.3372 24.2308 43.2558 23.0769 45.1744 23.0769C47.0058 23.0769 48.3139 24.2308 47.7907 26.5385ZM47.093 26.5385C47.5291 24.8521 46.7442 23.6982 45 23.6982C43.1686 23.6982 41.8605 24.8521 41.3372 26.5385C40.9012 28.2248 41.686 29.3787 43.4302 29.3787C45.2616 29.3787 46.657 28.2248 47.093 26.5385Z" fill="#263238"/>
<path d="M59.564 23.2544L57.8198 29.8225H57.2093L58.6919 24.2308L54.2442 29.8225H53.5465L52.064 24.2308L50.5814 29.8225H49.9709L51.7151 23.2544H52.5L54.0698 29.2012L58.7791 23.2544H59.564Z" fill="#263238"/>
<path d="M68.2849 25.3846C68.0233 26.3609 67.2384 27.5148 65.3198 27.5148H62.6163L62.0058 29.9112H61.3954L63.1395 23.3432H66.4535C68.2849 23.2544 68.5465 24.2308 68.2849 25.3846ZM67.6744 25.3846C67.9361 24.497 67.6744 23.8757 66.3663 23.8757H63.6628L62.7907 26.8047H65.4942C66.8023 26.8047 67.4128 26.1834 67.6744 25.3846Z" fill="#263238"/>
<path d="M77.5291 23.2544L76.4825 27.1598C75.9593 29.2899 74.5639 30 72.907 30C71.25 30 70.2907 29.2899 70.8139 27.1598L71.8604 23.2544H72.4709L71.5116 27.1598C71.0756 28.7574 71.5988 29.3787 73.0814 29.3787C74.6511 29.3787 75.436 28.6686 75.8721 27.1598L76.9186 23.2544H77.5291Z" fill="#263238"/>
<path d="M85.9884 23.8757H83.5465L81.9768 29.8225H81.3663L82.9361 23.8757H80.4942L80.6686 23.2544H86.1628L85.9884 23.8757Z" fill="#263238"/>
<path d="M92.3547 29.8225H87.4709L89.2151 23.2544H94.0116L93.8372 23.8757H89.6512L89.0407 26.1834H92.9651L92.7907 26.8047H88.8663L88.2558 29.2899H92.5291L92.3547 29.8225Z" fill="#263238"/>
<path d="M101.424 29.8225H100.727L99.8547 27.3373C99.7675 27.3373 99.6802 27.3373 99.593 27.3373H96.8023L96.1047 29.8225H95.4942L97.2384 23.2544H100.64C102.471 23.2544 102.733 24.2308 102.471 25.2959C102.209 26.0947 101.686 26.9822 100.465 27.2485L101.424 29.8225ZM101.86 25.2959C102.122 24.4083 101.773 23.8757 100.465 23.8757H97.6744L96.8895 26.716H99.6803C101.076 26.716 101.686 26.1834 101.86 25.2959Z" fill="#263238"/>
<path d="M115.116 28.0473C114.767 29.2012 113.634 30 111.715 30C109.797 30 108.75 29.2899 109.099 28.0473H109.709C109.448 29.2012 110.756 29.3787 111.89 29.3787C113.11 29.3787 114.244 29.0237 114.506 28.0473C114.767 27.1598 114.07 27.071 112.674 26.8935C110.669 26.6272 109.709 26.4497 110.058 25.0296C110.407 23.6982 111.802 23.0769 113.285 23.0769C114.855 23.0769 115.814 23.6095 115.552 24.9408H114.942C115.116 24.0533 114.331 23.6982 113.11 23.6982C111.977 23.6982 110.93 24.0533 110.669 25.0296C110.407 26.0059 111.279 26.0947 112.936 26.2722C114.593 26.5385 115.465 26.716 115.116 28.0473Z" fill="#263238"/>
<path d="M123.75 27.426H124.36C123.576 29.1124 122.093 30 120.436 30C118.605 30 117.384 28.8462 117.994 26.5385C118.605 24.3195 120.436 23.0769 122.267 23.0769C123.924 23.0769 124.971 23.9645 124.884 25.6509H124.273C124.273 24.4083 123.663 23.6982 122.18 23.6982C120.436 23.6982 119.128 24.8521 118.692 26.5385C118.256 28.2248 118.953 29.3787 120.698 29.3787C122.18 29.3787 123.14 28.5799 123.75 27.426Z" fill="#263238"/>
<path d="M129.244 23.2544L127.5 29.8225H126.89L128.634 23.2544H129.244Z" fill="#263238"/>
<path d="M135.872 29.8225H130.988L132.733 23.2544H137.529L137.355 23.8757H133.169L132.558 26.1834H136.483L136.308 26.8047H132.384L131.773 29.2899H136.047L135.872 29.8225Z" fill="#263238"/>
<path d="M146.686 23.2544L144.942 29.8225H144.07L141.192 23.9645L139.622 29.8225H139.012L140.756 23.2544H141.628L144.506 29.1124L146.076 23.2544H146.686Z" fill="#263238"/>
<path d="M154.709 27.426H155.32C154.535 29.1124 153.052 30 151.395 30C149.564 30 148.343 28.8462 148.953 26.5385C149.564 24.3195 151.395 23.0769 153.227 23.0769C154.884 23.0769 155.93 23.9645 155.843 25.6509H155.233C155.233 24.4083 154.622 23.6982 153.14 23.6982C151.395 23.6982 150.087 24.8521 149.651 26.5385C149.215 28.2248 149.913 29.3787 151.657 29.3787C153.052 29.3787 154.012 28.5799 154.709 27.426Z" fill="#263238"/>
<path d="M162.645 29.8225H157.762L159.506 23.2544H164.302L164.128 23.8757H159.942L159.331 26.1834H163.256L163.081 26.8047H159.157L158.547 29.2899H162.82L162.645 29.8225Z" fill="#263238"/>
</g>
<defs>
<clipPath id="clip0_26_557">
<rect width="165" height="30" fill="white"/>
</clipPath>
</defs>
</svg>
