<svg width="30" height="30" viewBox="0 0 30 30" fill="none" xmlns="http://www.w3.org/2000/svg">
<g clip-path="url(#clip0_235_88)">
<mask id="mask0_235_88" style="mask-type:luminance" maskUnits="userSpaceOnUse" x="0" y="0" width="30" height="30">
<path d="M0 1.90735e-06H30V30H0V1.90735e-06Z" fill="white"/>
</mask>
<g mask="url(#mask0_235_88)">
<path d="M20.9767 29.4141H1.40613C0.953144 29.4141 0.585938 29.0469 0.585938 28.5939V1.40607C0.585938 0.953144 0.953144 0.585938 1.40613 0.585938H20.9767C21.4297 0.585938 21.7969 0.953144 21.7969 1.40607V28.5939C21.7969 29.0469 21.4297 29.4141 20.9767 29.4141Z" fill="white"/>
<path fill-rule="evenodd" clip-rule="evenodd" d="M21.7969 17.1091C22.1205 17.1091 22.3828 16.8468 22.3828 16.5232V1.40601C22.3828 0.629442 21.7533 -0.000127792 20.9767 -0.000127792H1.40607C0.629512 -0.000127792 0 0.629442 0 1.40601V12.3705C0 12.6941 0.262333 12.9565 0.585937 12.9565C0.909542 12.9565 1.17187 12.6941 1.17187 12.3705V1.40601C1.17187 1.27659 1.27678 1.17175 1.40607 1.17175H20.9767C21.106 1.17175 21.2109 1.27659 21.2109 1.40601V16.5232C21.2109 16.8468 21.4733 17.1091 21.7969 17.1091Z" fill="#1F7DBB"/>
<path fill-rule="evenodd" clip-rule="evenodd" d="M0 28.5937C0 29.3703 0.629568 29.9998 1.40607 29.9998H20.9767C21.7532 29.9998 22.3828 29.3703 22.3828 28.5937C22.3828 28.2701 22.1205 28.0077 21.7969 28.0077C21.4733 28.0077 21.2109 28.2701 21.2109 28.5937C21.2109 28.723 21.1061 28.8279 20.9767 28.8279H1.40607C1.27672 28.8279 1.17187 28.723 1.17187 28.5937V17.6439C1.17187 17.3203 0.909542 17.0579 0.585937 17.0579C0.262333 17.0579 0 17.3203 0 17.6439V28.5937Z" fill="#1F7DBB"/>
<path d="M3.86719 8.92944H8.55469V4.24194H3.86719V8.92944Z" fill="#CDE3FF"/>
<path fill-rule="evenodd" clip-rule="evenodd" d="M3.28125 8.92944C3.28125 9.25305 3.54358 9.51538 3.86719 9.51538H8.55469C8.87829 9.51538 9.14062 9.25305 9.14062 8.92944C9.14062 8.60584 8.87829 8.34351 8.55469 8.34351H4.45312V4.24194C4.45312 3.91834 4.19079 3.65601 3.86719 3.65601C3.54358 3.65601 3.28125 3.91834 3.28125 4.24194V8.92944Z" fill="#1F7DBB"/>
<path fill-rule="evenodd" clip-rule="evenodd" d="M6.7166 6.69972C6.94542 6.92854 7.31642 6.92854 7.54524 6.69972L9.85395 4.39101C10.0828 4.16219 10.0828 3.79119 9.85395 3.56237C9.62513 3.33355 9.25413 3.33355 9.02531 3.56237L7.13092 5.45676L6.39088 4.71672C6.16206 4.4879 5.79106 4.4879 5.56224 4.71672C5.33342 4.94555 5.33342 5.31654 5.56224 5.54537L6.7166 6.69972Z" fill="#1F7DBB"/>
<path d="M8.55469 21.2031H3.86719V25.8906H8.55469V21.2031Z" fill="#EFF6FF"/>
<path fill-rule="evenodd" clip-rule="evenodd" d="M3.28125 25.8906C3.28125 26.2142 3.54358 26.4766 3.86719 26.4766H8.55469C8.87829 26.4766 9.14062 26.2142 9.14062 25.8906V21.2031C9.14062 20.8795 8.87829 20.6172 8.55469 20.6172H3.86719C3.54358 20.6172 3.28125 20.8795 3.28125 21.2031V25.8906ZM4.45312 25.3047V21.7891H7.96875V25.3047H4.45312Z" fill="#1F7DBB"/>
<path d="M8.55469 12.6563H3.86719V17.3438H8.55469V12.6563Z" fill="#EFF6FF"/>
<path fill-rule="evenodd" clip-rule="evenodd" d="M3.28125 17.3438C3.28125 17.6674 3.54358 17.9297 3.86719 17.9297H8.55469C8.87829 17.9297 9.14062 17.6674 9.14062 17.3438V12.6563C9.14062 12.3326 8.87829 12.0703 8.55469 12.0703H3.86719C3.54358 12.0703 3.28125 12.3326 3.28125 12.6563V17.3438ZM4.45312 16.7578V13.2422H7.96875V16.7578H4.45312Z" fill="#1F7DBB"/>
<path d="M25.6055 29.4141H24.082C21.9786 29.4141 20.2734 27.5777 20.2734 25.3125V19.8047C20.2734 17.5395 21.9786 15.7031 24.082 15.7031H24.8438H25.6055C27.7089 15.7031 29.4141 17.5395 29.4141 19.8047V25.3125C29.4141 27.5777 27.7089 29.4141 25.6055 29.4141Z" fill="#49B1F7"/>
<path fill-rule="evenodd" clip-rule="evenodd" d="M19.6875 25.3125C19.6875 27.8597 21.6148 30 24.082 30H25.6055C28.0726 30 30 27.8597 30 25.3125V19.8047C30 17.2575 28.0726 15.1172 25.6055 15.1172H24.082C21.6148 15.1172 19.6875 17.2575 19.6875 19.8047V25.3125ZM24.082 28.8281C22.3423 28.8281 20.8594 27.2958 20.8594 25.3125V19.8047C20.8594 17.8214 22.3423 16.2891 24.082 16.2891H25.6055C27.3451 16.2891 28.8281 17.8214 28.8281 19.8047V25.3125C28.8281 27.2958 27.3451 28.8281 25.6055 28.8281H24.082Z" fill="#1F7DBB"/>
<path fill-rule="evenodd" clip-rule="evenodd" d="M24.8437 15.8496C25.1674 15.8496 25.4297 15.5873 25.4297 15.2637V5.15625C25.4297 4.18542 24.6427 3.39844 23.6719 3.39844H21.7969C21.4733 3.39844 21.2109 3.66077 21.2109 3.98438C21.2109 4.30798 21.4733 4.57031 21.7969 4.57031H23.6719C23.9955 4.57031 24.2578 4.83263 24.2578 5.15625V15.2637C24.2578 15.5873 24.5201 15.8496 24.8437 15.8496Z" fill="#1F7DBB"/>
<path fill-rule="evenodd" clip-rule="evenodd" d="M19.6875 20.918C19.6875 21.2416 19.9498 21.5039 20.2734 21.5039H29.4141C29.7377 21.5039 30 21.2416 30 20.918C30 20.5944 29.7377 20.332 29.4141 20.332H20.2734C19.9498 20.332 19.6875 20.5944 19.6875 20.918Z" fill="#1F7DBB"/>
<path fill-rule="evenodd" clip-rule="evenodd" d="M24.8437 21.5039C25.1674 21.5039 25.4297 21.2416 25.4297 20.918V15.7031C25.4297 15.3795 25.1674 15.1172 24.8437 15.1172C24.5201 15.1172 24.2578 15.3795 24.2578 15.7031V20.918C24.2578 21.2416 24.5201 21.5039 24.8437 21.5039Z" fill="#1F7DBB"/>
<path fill-rule="evenodd" clip-rule="evenodd" d="M11.6992 7.52319C11.6992 7.8468 11.9616 8.10913 12.2852 8.10913H18.5156C18.8392 8.10913 19.1015 7.8468 19.1015 7.52319C19.1015 7.19959 18.8392 6.93726 18.5156 6.93726H12.2852C11.9616 6.93726 11.6992 7.19959 11.6992 7.52319Z" fill="#1F7DBB"/>
<path fill-rule="evenodd" clip-rule="evenodd" d="M11.6992 4.24194C11.6992 4.56555 11.9616 4.82788 12.2852 4.82788H18.5156C18.8392 4.82788 19.1015 4.56555 19.1015 4.24194C19.1015 3.91834 18.8392 3.65601 18.5156 3.65601H12.2852C11.9616 3.65601 11.6992 3.91834 11.6992 4.24194Z" fill="#1F7DBB"/>
<path fill-rule="evenodd" clip-rule="evenodd" d="M11.6992 15.9375C11.6992 16.2611 11.9616 16.5234 12.2852 16.5234H18.5156C18.8392 16.5234 19.1015 16.2611 19.1015 15.9375C19.1015 15.6139 18.8392 15.3516 18.5156 15.3516H12.2852C11.9616 15.3516 11.6992 15.6139 11.6992 15.9375Z" fill="#1F7DBB"/>
<path fill-rule="evenodd" clip-rule="evenodd" d="M11.6992 12.6563C11.6992 12.9799 11.9616 13.2422 12.2852 13.2422H18.5156C18.8392 13.2422 19.1015 12.9799 19.1015 12.6563C19.1015 12.3326 18.8392 12.0703 18.5156 12.0703H12.2852C11.9616 12.0703 11.6992 12.3326 11.6992 12.6563Z" fill="#1F7DBB"/>
<path fill-rule="evenodd" clip-rule="evenodd" d="M11.6992 24.3518C11.6992 24.6754 11.9616 24.9377 12.2852 24.9377H17.9297C18.2533 24.9377 18.5156 24.6754 18.5156 24.3518C18.5156 24.0282 18.2533 23.7659 17.9297 23.7659H12.2852C11.9616 23.7659 11.6992 24.0282 11.6992 24.3518Z" fill="#1F7DBB"/>
<path fill-rule="evenodd" clip-rule="evenodd" d="M11.6992 21.0706C11.6992 21.3942 11.9616 21.6565 12.2852 21.6565H17.9297C18.2533 21.6565 18.5156 21.3942 18.5156 21.0706C18.5156 20.747 18.2533 20.4846 17.9297 20.4846H12.2852C11.9616 20.4846 11.6992 20.747 11.6992 21.0706Z" fill="#1F7DBB"/>
</g>
</g>
<defs>
<clipPath id="clip0_235_88">
<rect width="30" height="30" fill="white"/>
</clipPath>
</defs>
</svg>
