<svg width="60" height="18" viewBox="0 0 60 18" fill="none" xmlns="http://www.w3.org/2000/svg">
<g clip-path="url(#clip0_247_791)">
<path d="M53.3283 4.52238C52.5459 3.48209 50.9875 3.10886 49.5147 3.17636C47.9576 3.17636 46.712 3.59989 45.6739 3.81165L45.3625 6.24694C45.8815 6.03518 47.3348 5.61165 48.5805 5.50577C49.8262 5.50577 50.5528 5.71753 50.3452 6.88224C48.4767 6.88224 46.9196 7.06753 45.7647 7.57047C45.548 7.66444 45.3456 7.77033 45.1588 7.88812C45.0342 7.96621 44.9148 8.04959 44.8032 8.13959C44.1882 8.63062 43.7768 9.29106 43.5978 10.1646C43.5407 10.4955 43.516 10.8012 43.5199 11.0831C43.5563 13.6733 46.0022 14.2146 47.8486 13.4946C47.9693 13.4483 48.0874 13.3953 48.2016 13.3384C48.2781 13.3 48.3534 13.259 48.4261 13.2167C48.718 13.0459 48.9827 12.8381 49.2033 12.5999L48.9957 13.7646H52.3175L53.7708 6.88224C53.9992 5.83268 53.7929 5.069 53.3283 4.52238ZM49.7224 10.2705C49.5147 11.1175 48.7881 11.4352 47.9576 11.5411C47.231 11.5411 46.6082 11.1175 47.0234 10.2705C47.4386 9.63518 48.3729 9.63518 49.0995 9.63518H49.8638C49.7859 9.70797 49.7224 10.0216 49.7224 10.2705Z" fill="white"/>
<path d="M58.9615 0H56.574L53.875 13.7647H57.1968L59.9996 0H58.9615Z" fill="white"/>
<path d="M41.2731 0.00661765C41.2173 0.00264706 41.1615 0 41.107 0H34.9825L32.4184 13.0765L32.1797 13.7647H35.9167L36.851 9.52941H39.4461C41.9375 9.52941 44.0136 8.04706 44.5326 5.4C45.0361 2.42471 43.0054 0.146912 41.2731 0.00661765ZM38.9271 6.35294H37.2662L37.9928 3.17647H39.7575C40.6918 3.17647 41.2108 3.81176 41.0032 4.76471C40.7956 5.71765 39.8613 6.35294 38.9271 6.35294Z" fill="white"/>
<path d="M20.737 4.21808C19.8702 3.40808 18.4481 3.11558 17.1285 3.17647C15.5714 3.17647 14.3257 3.6 13.3914 3.81176L13.08 6.24705C13.1384 6.21661 13.2214 6.1822 13.3214 6.14647L13.1838 6.24705C13.5977 6.03529 15.147 5.61441 16.3914 5.5072C17.5787 5.51779 18.2651 5.74808 18.0627 6.88235C14.4295 6.88235 11.9381 7.62353 11.4191 10.1647C10.9727 12.7668 12.4844 13.8097 14.1272 13.7859C15.1276 13.7991 16.1903 13.4087 16.8988 12.7284L16.7145 13.7647H20.0363L21.4896 6.88235C21.7647 5.62235 21.4131 4.77264 20.7383 4.21808H20.737ZM17.4399 10.2706C17.2323 11.1176 16.5056 11.4353 15.6752 11.5412C14.9485 11.5412 14.3257 11.1176 14.8447 10.2706C15.2599 9.63529 16.1942 9.63529 16.817 9.63529H17.5813C17.5035 9.70808 17.4399 10.0218 17.4399 10.2706Z" fill="white"/>
<path d="M30.0015 3.17651L26.6797 9.10593L26.1606 3.17651H22.8388L24.1883 13.553L21.8008 18H25.5378L33.4271 3.17651H30.0015Z" fill="white"/>
<path d="M8.92734 0H2.69896L0 13.7647H3.63322L4.56747 9.52941H7.16263C9.65398 9.52941 11.7301 8.04706 12.2491 5.4C12.872 2.32941 10.692 0 8.92734 0ZM8.82353 4.76471C8.61592 5.71765 7.68166 6.35294 6.7474 6.35294H5.0865L5.81315 3.17647H7.57785C8.51211 3.17647 9.03114 3.81176 8.82353 4.76471Z" fill="white"/>
</g>
<defs>
<clipPath id="clip0_247_791">
<rect width="60" height="18" fill="white"/>
</clipPath>
</defs>
</svg>
