<svg width="50" height="50" viewBox="0 0 50 50" fill="none" xmlns="http://www.w3.org/2000/svg">
<g clip-path="url(#clip0_258_4295)">
<path d="M25.4971 49.1377L1.35938 45.6897V4.31029L25.4971 0.861755V49.1377Z" fill="#FF8760"/>
<path d="M25.5 50C25.4595 50 25.4186 49.997 25.3782 49.9911L1.23992 46.5431C0.8157 46.4819 0.5 46.1184 0.5 45.6897V4.3103C0.5 3.88114 0.8157 3.51759 1.23992 3.45692L25.3782 0.00888305C25.6253 -0.0266333 25.8764 0.0468657 26.0653 0.210635C26.2537 0.374405 26.3623 0.611673 26.3623 0.861767V49.1377C26.3623 49.3878 26.2537 49.6256 26.0648 49.7889C25.9074 49.926 25.7062 50 25.5 50ZM2.22402 44.9419L24.6382 48.1438V1.85573L2.22402 5.05762V44.9419Z" fill="#C9513C"/>
<path d="M25.5 7.7583H48.776V43.1034H25.5V7.7583Z" fill="#FFDBB6"/>
<path d="M48.7745 43.9657H25.4985C25.022 43.9657 24.6367 43.5794 24.6367 43.1034V7.75831C24.6367 7.28229 25.022 6.89655 25.4985 6.89655H48.7745C49.251 6.89655 49.6367 7.28229 49.6367 7.75831V43.1034C49.6367 43.5794 49.251 43.9657 48.7745 43.9657ZM26.3607 42.2411H47.9122V8.62056H26.3607V42.2411Z" fill="#C9513C"/>
<path d="M48.7721 43.9656L25.4961 45.6897V43.1034H48.7721V43.9656Z" fill="#C9513C"/>
<path d="M25.4985 46.5519C25.2814 46.5519 25.0718 46.4701 24.9115 46.3216C24.7369 46.1583 24.6367 45.9294 24.6367 45.6897V43.1034C24.6367 42.6274 25.022 42.2411 25.4985 42.2411H48.7745C49.251 42.2411 49.6367 42.6274 49.6367 43.1034V43.9657C49.6367 44.417 49.288 44.7919 48.8386 44.825L25.5626 46.549C25.5404 46.5509 25.5197 46.5519 25.4985 46.5519ZM26.3607 43.9657V44.7613L37.1044 43.9657H26.3607Z" fill="#C9513C"/>
<path d="M13.7848 26.1044H11.3816V29.7705C11.3816 30.2949 11.2587 30.692 11.0111 30.9628C10.7635 31.2341 10.4512 31.3697 10.0739 31.3697C9.67976 31.3697 9.36159 31.2351 9.11988 30.9677C8.87867 30.6994 8.75781 30.3062 8.75781 29.7883V19.8057C8.75781 19.2286 8.89001 18.8167 9.1554 18.5691C9.42078 18.3214 9.84155 18.1981 10.4192 18.1981H13.7848C14.7798 18.1981 15.5449 18.2746 16.0811 18.4275C16.6109 18.575 17.0686 18.8192 17.4553 19.1605C17.8406 19.5024 18.1336 19.9202 18.3339 20.4149C18.5337 20.9102 18.6338 21.4666 18.6338 22.0847C18.6338 23.4042 18.2278 24.4036 17.4149 25.0838C16.603 25.7646 15.392 26.1044 13.7848 26.1044ZM13.1485 20.1678H11.3816V24.1254H13.1485C13.7671 24.1254 14.2836 24.0608 14.6994 23.931C15.1142 23.8013 15.4309 23.5897 15.649 23.2952C15.866 23.0007 15.9755 22.615 15.9755 22.138C15.9755 21.5667 15.8078 21.1011 15.4719 20.742C15.095 20.3587 14.3205 20.1678 13.1485 20.1678Z" fill="#C9513C"/>
<path d="M37.5664 12.9309V21.5515H46.187C46.187 16.7903 42.3276 12.9309 37.5664 12.9309Z" fill="#E1734C"/>
<path d="M46.186 22.4137H37.5654C37.0889 22.4137 36.7031 22.0275 36.7031 21.5514V12.9309C36.7031 12.4548 37.0889 12.0686 37.5654 12.0686C42.7942 12.0686 47.0482 16.3227 47.0482 21.5514C47.0482 22.0275 46.6625 22.4137 46.186 22.4137ZM38.4276 20.6897H45.2759C44.8778 17.0986 42.0177 14.239 38.4276 13.8405V20.6897Z" fill="#C9513C"/>
<path d="M34.1206 16.3794C29.3599 16.3794 25.5 20.2388 25.5 25C25.5 29.7611 29.3599 33.6206 34.1206 33.6206C38.8817 33.6206 42.7417 29.7611 42.7417 25H34.1206V16.3794Z" fill="#FF8760"/>
<path d="M34.1191 34.4828C28.8903 34.4828 24.6367 30.2288 24.6367 25C24.6367 19.7712 28.8903 15.5172 34.1191 15.5172C34.5956 15.5172 34.9813 15.9029 34.9813 16.3794V24.1377H42.7401C43.2167 24.1377 43.6019 24.524 43.6019 25C43.6019 30.2288 39.3483 34.4828 34.1191 34.4828ZM33.2573 17.2885C29.3831 17.7187 26.3607 21.0133 26.3607 24.9995C26.3607 29.2777 29.8408 32.7583 34.1191 32.7583C38.1063 32.7583 41.3999 29.7355 41.83 25.8618H34.1191C33.6426 25.8618 33.2573 25.476 33.2573 24.9995V17.2885Z" fill="#C9513C"/>
<path d="M15.1552 12.9308C14.6787 12.9308 14.293 12.5451 14.293 12.0686V8.62056C14.293 8.14454 14.6787 7.7583 15.1552 7.7583C15.6317 7.7583 16.017 8.14454 16.017 8.62056V12.0686C16.017 12.5451 15.6317 12.9308 15.1552 12.9308Z" fill="white"/>
<path d="M16.8767 11.2069H13.4282C12.9517 11.2069 12.5664 10.8206 12.5664 10.3446C12.5664 9.8686 12.9517 9.48285 13.4282 9.48285H16.8767C17.3532 9.48285 17.739 9.8686 17.739 10.3446C17.739 10.8206 17.3532 11.2069 16.8767 11.2069Z" fill="white"/>
<path d="M3.94819 43.1034C3.47168 43.1034 3.08594 42.7177 3.08594 42.2412V37.0691C3.08594 36.5926 3.47168 36.2068 3.94819 36.2068C4.4247 36.2068 4.80996 36.5926 4.80996 37.0691V42.2412C4.80996 42.7177 4.4247 43.1034 3.94819 43.1034Z" fill="white"/>
</g>
<defs>
<clipPath id="clip0_258_4295">
<rect width="50" height="50" fill="white"/>
</clipPath>
</defs>
</svg>
