<svg width="30" height="30" viewBox="0 0 30 30" fill="none" xmlns="http://www.w3.org/2000/svg">
<g clip-path="url(#clip0_235_2)">
<path d="M29.4141 15C29.4141 22.9607 22.9607 29.4141 15 29.4141C7.03926 29.4141 0.585938 22.9607 0.585938 15C0.585938 7.03926 7.03926 0.585938 15 0.585938C22.9607 0.585938 29.4141 7.03926 29.4141 15Z" fill="#CDE3FF"/>
<path d="M15 30C10.9934 30 7.22649 28.4397 4.39339 25.6066C1.56029 22.7735 0 19.0066 0 15C0 10.9934 1.56029 7.22649 4.39339 4.39339C7.22649 1.56029 10.9934 0 15 0C19.0066 0 22.7735 1.56029 25.6066 4.39339C28.4397 7.22649 30 10.9934 30 15C30 19.0066 28.4397 22.7735 25.6066 25.6066C22.7735 28.4397 19.0066 30 15 30ZM15 1.17188C7.37503 1.17188 1.17188 7.37503 1.17188 15C1.17188 22.625 7.37503 28.8281 15 28.8281C22.625 28.8281 28.8281 22.625 28.8281 15C28.8281 7.37503 22.625 1.17188 15 1.17188Z" fill="#1F7DBB"/>
<path d="M26.6016 15C26.6016 21.4073 21.4073 26.6016 15 26.6016C8.59268 26.6016 3.39844 21.4073 3.39844 15C3.39844 8.59268 8.59268 3.39844 15 3.39844C21.4073 3.39844 26.6016 8.59268 26.6016 15Z" fill="white"/>
<path d="M15 27.1875C8.2798 27.1875 2.8125 21.7202 2.8125 15C2.8125 8.2798 8.2798 2.8125 15 2.8125C17.4046 2.8125 19.7305 3.51196 21.7266 4.83536C21.9962 5.01411 22.0699 5.37781 21.8912 5.64743C21.7122 5.91728 21.3485 5.99075 21.0789 5.812C19.2755 4.61632 17.1735 3.98438 15 3.98438C8.92593 3.98438 3.98438 8.92593 3.98438 15C3.98438 21.0741 8.92593 26.0156 15 26.0156C21.0741 26.0156 26.0156 21.0741 26.0156 15C26.0156 12.8465 25.3944 10.7609 24.2191 8.96828C24.0417 8.69774 24.1173 8.3345 24.3878 8.15689C24.6586 7.97974 25.0216 8.05527 25.1992 8.32581C26.4999 10.3098 27.1875 12.6178 27.1875 15C27.1875 21.7202 21.7202 27.1875 15 27.1875Z" fill="#1F7DBB"/>
<path d="M9.86719 11.7621C9.86719 8.85983 12.2846 6.51173 15.2116 6.62503C17.9687 6.73192 20.1648 9.03264 20.149 11.7918C20.1362 14.0836 18.616 16.0247 16.5318 16.6727V18.3106H13.4849V15.3798C13.4849 14.5427 14.1697 13.8556 15.0065 13.8563C16.2086 13.8572 17.1779 12.8401 17.0976 11.6213C17.03 10.5945 16.2065 9.75751 15.1807 9.67488C13.9479 9.57577 12.9129 10.5515 12.9141 11.7643L9.86719 11.7621Z" fill="#FF8760"/>
<path d="M16.5234 22.0312C16.5234 22.8726 15.8414 23.5547 15 23.5547C14.1586 23.5547 13.4766 22.8726 13.4766 22.0312C13.4766 21.1899 14.1586 20.5078 15 20.5078C15.8414 20.5078 16.5234 21.1899 16.5234 22.0312Z" fill="#FF8760"/>
<path d="M16.5318 18.8965H13.4849C13.1613 18.8965 12.899 18.6342 12.899 18.3105V15.3797C12.899 14.8183 13.1185 14.2893 13.5172 13.8899C13.9161 13.4903 14.4446 13.2703 15.0054 13.2703H15.0083C15.429 13.2703 15.8195 13.1005 16.1083 12.7922C16.397 12.4841 16.5407 12.082 16.513 11.6597C16.4645 10.9206 15.8714 10.3184 15.1338 10.2592C14.7074 10.2251 14.2995 10.3651 13.9861 10.6544C13.6767 10.9401 13.4995 11.3445 13.5 11.7636C13.5002 11.9192 13.4384 12.0685 13.3286 12.1786C13.2185 12.2884 13.0695 12.3502 12.9141 12.3502H12.9136L9.86673 12.3482C9.54332 12.3479 9.28125 12.0856 9.28125 11.7622C9.28125 10.1925 9.90587 8.72702 11.0402 7.63594C12.1736 6.54578 13.6623 5.97792 15.2342 6.03972C16.7201 6.09717 18.1088 6.72568 19.1438 7.8092C20.1783 8.89204 20.7437 10.3077 20.735 11.7952C20.7281 13.0339 20.3305 14.2117 19.5853 15.2012C18.9531 16.0405 18.0882 16.6987 17.1177 17.0862V18.3105C17.1177 18.6342 16.8552 18.8965 16.5318 18.8965ZM14.0708 17.7246H15.9458V16.6727C15.9458 16.4161 16.1127 16.1893 16.3576 16.113C18.2637 15.5207 19.5519 13.7828 19.5631 11.7883C19.577 9.35828 17.6146 7.30452 15.1889 7.21045C13.9404 7.16261 12.7543 7.61305 11.8527 8.48028C11.0931 9.2111 10.6207 10.1525 10.4902 11.1765L12.3931 11.1779C12.5117 10.6512 12.7882 10.1655 13.1908 9.79361C13.7394 9.28686 14.4819 9.03097 15.2278 9.09094C16.5405 9.19646 17.5958 10.2679 17.6824 11.5828C17.7316 12.3321 17.4764 13.0462 16.9634 13.5935C16.4581 14.1328 15.7456 14.442 15.0081 14.442C15.007 14.442 15.0063 14.442 15.0051 14.442C14.7577 14.442 14.5238 14.5399 14.3464 14.7175C14.1686 14.8958 14.0706 15.1309 14.0706 15.3795V17.7246H14.0708Z" fill="#1F7DBB"/>
<path d="M15 24.1406C13.8368 24.1406 12.8906 23.1944 12.8906 22.0312C12.8906 20.8681 13.8368 19.9219 15 19.9219C16.1632 19.9219 17.1094 20.8681 17.1094 22.0312C17.1094 23.1944 16.1632 24.1406 15 24.1406ZM15 21.0938C14.4832 21.0938 14.0625 21.5144 14.0625 22.0312C14.0625 22.5481 14.4832 22.9688 15 22.9688C15.5168 22.9688 15.9375 22.5481 15.9375 22.0312C15.9375 21.5144 15.5168 21.0938 15 21.0938Z" fill="#1F7DBB"/>
<path d="M23.2238 7.40322C23.0729 7.40322 22.9223 7.34532 22.8077 7.22996L22.7887 7.21096C22.56 6.98208 22.56 6.61106 22.7887 6.38218C23.0176 6.15353 23.3886 6.15353 23.6175 6.38218L23.6399 6.40461C23.8679 6.63441 23.8663 7.00543 23.6365 7.23339C23.5222 7.34669 23.373 7.40322 23.2238 7.40322Z" fill="#1F7DBB"/>
<path d="M7.42213 19.85C7.21751 19.85 7.01861 19.7424 6.91104 19.5515C6.10583 18.1219 5.69453 16.4946 5.72199 14.845C5.72726 14.5246 5.98864 14.2687 6.3077 14.2687H6.31754C6.64118 14.2742 6.8989 14.5408 6.89364 14.8645C6.86961 16.306 7.22895 17.728 7.93208 18.9763C8.09092 19.2583 7.99113 19.6156 7.70915 19.7744C7.61828 19.8255 7.51963 19.85 7.42213 19.85Z" fill="#1F7DBB"/>
<path d="M8.85401 21.7328C8.70272 21.7328 8.55188 21.6746 8.43744 21.5591C8.21016 21.3343 8.2049 20.9676 8.42714 20.7365C8.65145 20.5032 9.02247 20.4959 9.2557 20.7202C9.26279 20.7271 9.26943 20.7337 9.2763 20.7408C9.5006 20.974 9.49328 21.3451 9.26005 21.5694C9.14652 21.6785 9.00004 21.7328 8.85401 21.7328Z" fill="#1F7DBB"/>
</g>
<defs>
<clipPath id="clip0_235_2">
<rect width="30" height="30" fill="white"/>
</clipPath>
</defs>
</svg>
