<svg width="75" height="75" viewBox="0 0 75 75" fill="none" xmlns="http://www.w3.org/2000/svg">
<g clip-path="url(#clip0_258_3825)">
<path d="M70.6055 51.709H4.39453C2.7832 51.709 1.46484 50.3906 1.46484 48.7793V10.6934C1.46484 9.08203 2.7832 7.76367 4.39453 7.76367H70.6055C72.2168 7.76367 73.5352 9.08203 73.5352 10.6934V48.7793C73.5352 50.3906 72.2168 51.709 70.6055 51.709Z" fill="white"/>
<path d="M55.8086 7.76367H19.1875V4.54102C19.1875 2.92282 20.499 1.61133 22.1172 1.61133H52.8789C54.4971 1.61133 55.8086 2.92282 55.8086 4.54102V7.76367Z" fill="#CDE3FF"/>
<path d="M52.8789 57.5684H22.1172C20.499 57.5684 19.1875 56.2569 19.1875 54.6387V51.709H55.8086V54.6387C55.8086 56.2569 54.4971 57.5684 52.8789 57.5684Z" fill="#CDE3FF"/>
<path d="M9.66797 19.4092H65.332V45.7764H9.66797V19.4092Z" fill="#FF8760"/>
<path d="M33.1797 27.4658L41.8223 32.5928L33.1797 37.7197V27.4658Z" fill="white"/>
<path d="M70.6055 6.29883H57.2754V4.54102C57.2754 2.1183 55.3036 0.146484 52.8809 0.146484H22.1191C19.6964 0.146484 17.7246 2.1183 17.7246 4.54102V6.29883H4.39453C1.97182 6.29883 0 8.27065 0 10.6934V48.7793C0 51.202 1.97182 53.1738 4.39453 53.1738H17.7246V54.6387C17.7246 57.0614 19.6964 59.0332 22.1191 59.0332H24.4085L19.2804 72.8806C18.9989 73.6393 19.3874 74.4816 20.1462 74.7625C20.9049 75.0423 21.7472 74.6555 22.0282 73.8968L27.5333 59.0332H47.4667L52.9718 73.8968C53.1916 74.489 53.7512 74.8535 54.3457 74.8535C54.5139 74.8535 54.6867 74.8243 54.8538 74.7625C55.6126 74.4816 56.0011 73.6393 55.7196 72.8806L50.5915 59.0332H52.8809C55.3036 59.0332 57.2754 57.0614 57.2754 54.6387V53.1738H70.6055C73.0282 53.1738 75 51.202 75 48.7793V10.6934C75 8.27065 73.0282 6.29883 70.6055 6.29883ZM20.6543 4.54102C20.6543 3.73363 21.3118 3.07617 22.1191 3.07617H52.8809C53.6882 3.07617 54.3457 3.73363 54.3457 4.54102V6.00586H20.6543V4.54102ZM54.3457 54.6387C54.3457 55.4461 53.6882 56.1035 52.8809 56.1035H22.1191C21.3118 56.1035 20.6543 55.4461 20.6543 54.6387V53.1738H54.3457V54.6387ZM72.0703 48.7793C72.0703 49.5867 71.4128 50.2441 70.6055 50.2441H4.39453C3.58715 50.2441 2.92969 49.5867 2.92969 48.7793V10.6934C2.92969 9.88598 3.58715 9.22852 4.39453 9.22852H70.6055C71.4128 9.22852 72.0703 9.88598 72.0703 10.6934V48.7793Z" fill="#1F7DBB"/>
<path d="M22.9258 15.1829H9.74219C8.93309 15.1829 8.27734 14.5265 8.27734 13.718C8.27734 12.9089 8.93309 12.2532 9.74219 12.2532H22.9258C23.7349 12.2532 24.3906 12.9089 24.3906 13.718C24.3906 14.5265 23.7349 15.1829 22.9258 15.1829Z" fill="#1F7DBB"/>
<path d="M28.0553 15.1829C27.2462 15.1829 26.5898 14.5265 26.5898 13.718C26.5898 12.9089 27.245 12.2532 28.0541 12.2532H28.0553C28.8644 12.2532 29.5201 12.9089 29.5201 13.718C29.5201 14.5265 28.8644 15.1829 28.0553 15.1829Z" fill="#1F7DBB"/>
<path d="M65.2578 15.1829H33.9102C33.1011 15.1829 32.4453 14.5265 32.4453 13.718C32.4453 12.9089 33.1011 12.2532 33.9102 12.2532H65.2578C66.0669 12.2532 66.7227 12.9089 66.7227 13.718C66.7227 14.5265 66.0669 15.1829 65.2578 15.1829Z" fill="#1F7DBB"/>
<path d="M65.332 47.2412H9.66797C8.85887 47.2412 8.20312 46.5855 8.20312 45.7764V19.4092C8.20312 18.6001 8.85887 17.9443 9.66797 17.9443H65.332C66.1411 17.9443 66.7969 18.6001 66.7969 19.4092V45.7764C66.7969 46.5855 66.1411 47.2412 65.332 47.2412ZM11.1328 44.3115H63.8672V20.874H11.1328V44.3115Z" fill="#1F7DBB"/>
<path d="M33.1797 39.1846C32.9296 39.1846 32.6796 39.1205 32.4547 38.9923C31.9975 38.7319 31.7148 38.2461 31.7148 37.7197V27.4658C31.7148 26.9394 31.9975 26.4536 32.4547 26.1932C32.9125 25.9323 33.4744 25.9374 33.927 26.2058L42.5696 31.3328C43.0147 31.5971 43.2871 32.0755 43.2871 32.5928C43.2871 33.11 43.0147 33.589 42.5696 33.8528L33.927 38.9797C33.697 39.1165 33.4383 39.1846 33.1797 39.1846ZM34.6445 30.0379V35.1477L38.9509 32.5928L34.6445 30.0379Z" fill="#1F7DBB"/>
</g>
<defs>
<clipPath id="clip0_258_3825">
<rect width="75" height="75" fill="white"/>
</clipPath>
</defs>
</svg>
