<svg width="75" height="75" viewBox="0 0 75 75" fill="none" xmlns="http://www.w3.org/2000/svg">
<path d="M44.2383 1.46484H1.46484V73.5352H55.957V13.1836L44.2383 1.46484Z" fill="white"/>
<mask id="mask0_258_3861" style="mask-type:luminance" maskUnits="userSpaceOnUse" x="0" y="0" width="75" height="75">
<path d="M0 7.62939e-06H75V75H0V7.62939e-06Z" fill="white"/>
</mask>
<g mask="url(#mask0_258_3861)">
<path d="M61.8164 16.9922C55.3443 16.9922 50.0977 22.2397 50.0977 28.7109C50.0977 35.1826 55.3447 40.4297 61.8164 40.4297C68.2881 40.4297 73.5352 35.1826 73.5352 28.7109C73.5352 22.2393 68.2881 16.9922 61.8164 16.9922Z" fill="#FFC107"/>
<path d="M40.4297 31.6406H34.5703V25.7813H40.4297V31.6406Z" fill="#FFC107"/>
<path d="M61.8164 46.2891C55.3065 46.2891 50.0977 51.5751 50.0977 58.0078C50.0977 64.4795 55.3447 69.7266 61.8164 69.7266C68.2881 69.7266 73.5352 64.4795 73.5352 58.0078C73.5352 51.5361 68.2881 46.2891 61.8164 46.2891Z" fill="#CDE3FF"/>
<path d="M34.5703 60.9375H40.4297V55.0781H34.5703V60.9375Z" fill="#CDE3FF"/>
<path d="M34.5703 46.2891H40.4297V40.4297H34.5703V46.2891Z" fill="#CDE3FF"/>
<path d="M7.32422 16.9922H25.7812V11.1328H7.32422V16.9922Z" fill="#CDE3FF"/>
<path d="M28.7109 30.1758C29.5195 30.1758 30.1758 30.832 30.1758 31.6406C30.1758 32.4492 29.5195 33.1055 28.7109 33.1055C27.9023 33.1055 27.2461 32.4492 27.2461 31.6406C27.2461 30.832 27.9023 30.1758 28.7109 30.1758Z" fill="#1F7DBB"/>
<path d="M28.7109 44.8242C29.5195 44.8242 30.1758 45.4805 30.1758 46.2891C30.1758 47.0977 29.5195 47.7539 28.7109 47.7539C27.9023 47.7539 27.2461 47.0977 27.2461 46.2891C27.2461 45.4805 27.9023 44.8242 28.7109 44.8242Z" fill="#1F7DBB"/>
<path fill-rule="evenodd" clip-rule="evenodd" d="M55.2243 69.4276C57.1646 70.5484 59.4173 71.1914 61.8164 71.1914C69.0971 71.1914 75 65.2884 75 58.0078C75 50.7272 69.0971 44.8243 61.8164 44.8243C59.4174 44.8243 57.1646 45.4671 55.2242 46.5881L55.2222 46.5893C54.2237 47.1683 53.3065 47.8729 52.4941 48.6852L52.4936 48.6857C50.1111 51.07 48.6328 54.3676 48.6328 58.0078C48.6328 62.8895 51.2872 67.1487 55.2232 69.427L55.2243 69.4276ZM56.6904 66.8912C53.6217 65.1147 51.5625 61.8008 51.5625 58.0078C51.5625 55.1766 52.709 52.6151 54.5655 50.757C55.1972 50.1254 55.9116 49.5762 56.6912 49.1241C58.1988 48.2534 59.9474 47.7539 61.8164 47.7539C67.4791 47.7539 72.0703 52.3452 72.0703 58.0078C72.0703 63.6704 67.4791 68.2617 61.8164 68.2617C59.9472 68.2617 58.1982 67.762 56.6904 66.8912Z" fill="#1F7DBB"/>
<path fill-rule="evenodd" clip-rule="evenodd" d="M55.2243 40.1308C57.1646 41.2516 59.4173 41.8946 61.8164 41.8946C69.0971 41.8946 75 35.9915 75 28.711C75 21.4303 69.0971 15.5274 61.8164 15.5274C59.4174 15.5274 57.1646 16.1702 55.2242 17.2912L55.2232 17.2918C51.2873 19.5701 48.6328 23.8292 48.6328 28.711C48.6328 33.5926 51.2872 37.8518 55.2232 40.1301L55.2243 40.1308ZM56.6904 37.5943C53.6217 35.8178 51.5625 32.5039 51.5625 28.711C51.5625 24.9181 53.6215 21.6045 56.6898 19.828M56.6904 37.5943C58.1982 38.4652 59.9472 38.9649 61.8164 38.9649C67.4791 38.9649 72.0703 34.3735 72.0703 28.711C72.0703 23.0483 67.4791 18.4571 61.8164 18.4571C59.9469 18.4571 58.1978 18.9568 56.6899 19.8279" fill="#1F7DBB"/>
<path fill-rule="evenodd" clip-rule="evenodd" d="M58.8867 59.4727C59.6957 59.4727 60.3516 58.8168 60.3516 58.0078V53.6133H61.8164C62.626 53.6133 63.2812 54.2685 63.2812 55.0781C63.2812 55.8878 62.626 56.543 61.8164 56.543C61.0074 56.543 60.3516 57.1988 60.3516 58.0078C60.3516 58.8168 61.0074 59.4727 61.8164 59.4727C64.2441 59.4727 66.2109 57.5058 66.2109 55.0781C66.2109 52.6505 64.2441 50.6836 61.8164 50.6836H58.8867C58.0777 50.6836 57.4219 51.3394 57.4219 52.1484V58.0078C57.4219 58.8168 58.0777 59.4727 58.8867 59.4727Z" fill="#1F7DBB"/>
<path fill-rule="evenodd" clip-rule="evenodd" d="M57.4219 63.8672C57.4219 64.6762 58.0777 65.332 58.8867 65.332H64.7461C67.1738 65.332 69.1406 63.3652 69.1406 60.9375C69.1406 58.5098 67.1738 56.543 64.7461 56.543H58.8867C58.0777 56.543 57.4219 57.1988 57.4219 58.0078V63.8672ZM60.3516 62.4023V59.4727H64.7461C65.5557 59.4727 66.2109 60.1279 66.2109 60.9375C66.2109 61.7471 65.5557 62.4023 64.7461 62.4023H60.3516Z" fill="#1F7DBB"/>
<path fill-rule="evenodd" clip-rule="evenodd" d="M56.7743 35.9371C57.5291 36.2281 58.377 35.8521 58.668 35.0972L61.8173 26.9255L64.9666 35.0972C65.2576 35.8521 66.1054 36.2281 66.8603 35.9371C67.6152 35.6461 67.9912 34.7983 67.7002 34.0434L63.1842 22.3249C62.9664 21.7596 62.4231 21.3867 61.8173 21.3867C61.2115 21.3867 60.6682 21.7596 60.4504 22.3249L55.9344 34.0434C55.6434 34.7983 56.0194 35.6461 56.7743 35.9371Z" fill="#1F7DBB"/>
<path fill-rule="evenodd" clip-rule="evenodd" d="M56.9648 31.6406C56.9648 32.4496 57.6207 33.1055 58.4297 33.1055H65.2046C66.0136 33.1055 66.6694 32.4496 66.6694 31.6406C66.6694 30.8316 66.0136 30.1758 65.2046 30.1758H58.4297C57.6207 30.1758 56.9648 30.8316 56.9648 31.6406Z" fill="#1F7DBB"/>
<path fill-rule="evenodd" clip-rule="evenodd" d="M55.957 49.3213C56.766 49.3213 57.4219 48.6654 57.4219 47.8564V38.8623C57.4219 38.0533 56.766 37.3974 55.957 37.3974C55.148 37.3974 54.4922 38.0533 54.4922 38.8623V47.8564C54.4922 48.6654 55.148 49.3213 55.957 49.3213Z" fill="#1F7DBB"/>
<path fill-rule="evenodd" clip-rule="evenodd" d="M42.7734 13.1836C42.7734 13.9926 43.4293 14.6484 44.2383 14.6484H55.957C56.766 14.6484 57.4219 13.9926 57.4219 13.1836C57.4219 12.3746 56.766 11.7188 55.957 11.7188H45.7031V1.46485C45.7031 0.655834 45.0473 9.53674e-07 44.2383 9.53674e-07C43.4293 9.53674e-07 42.7734 0.655834 42.7734 1.46485V13.1836Z" fill="#1F7DBB"/>
<path fill-rule="evenodd" clip-rule="evenodd" d="M5.85938 25.7813C5.85938 26.5903 6.51521 27.2461 7.32422 27.2461H28.7109C29.5199 27.2461 30.1758 26.5903 30.1758 25.7813C30.1758 24.9722 29.5199 24.3164 28.7109 24.3164H7.32422C6.51521 24.3164 5.85938 24.9722 5.85938 25.7813Z" fill="#1F7DBB"/>
<path fill-rule="evenodd" clip-rule="evenodd" d="M5.85938 31.6406C5.85938 32.4496 6.51521 33.1055 7.32422 33.1055H22.8516C23.6606 33.1055 24.3164 32.4496 24.3164 31.6406C24.3164 30.8316 23.6606 30.1758 22.8516 30.1758H7.32422C6.51521 30.1758 5.85938 30.8316 5.85938 31.6406Z" fill="#1F7DBB"/>
<path fill-rule="evenodd" clip-rule="evenodd" d="M33.1055 31.6406C33.1055 32.4496 33.7613 33.1055 34.5703 33.1055H40.4297C41.2387 33.1055 41.8945 32.4496 41.8945 31.6406V25.7813C41.8945 24.9722 41.2387 24.3164 40.4297 24.3164H34.5703C33.7613 24.3164 33.1055 24.9722 33.1055 25.7813V31.6406ZM36.0352 30.1758V27.2461H38.9648V30.1758H36.0352Z" fill="#1F7DBB"/>
<path fill-rule="evenodd" clip-rule="evenodd" d="M33.1055 46.2891C33.1055 47.0981 33.7613 47.7539 34.5703 47.7539H40.4297C41.2387 47.7539 41.8945 47.0981 41.8945 46.2891V40.4297C41.8945 39.6207 41.2387 38.9648 40.4297 38.9648H34.5703C33.7613 38.9648 33.1055 39.6207 33.1055 40.4297V46.2891ZM36.0352 44.8242V41.8945H38.9648V44.8242H36.0352Z" fill="#1F7DBB"/>
<path fill-rule="evenodd" clip-rule="evenodd" d="M33.1055 60.9375C33.1055 61.7465 33.7613 62.4023 34.5703 62.4023H40.4297C41.2387 62.4023 41.8945 61.7465 41.8945 60.9375V55.0781C41.8945 54.2691 41.2387 53.6133 40.4297 53.6133H34.5703C33.7613 53.6133 33.1055 54.2691 33.1055 55.0781V60.9375ZM36.0352 59.4727V56.543H38.9648V59.4727H36.0352Z" fill="#1F7DBB"/>
<path fill-rule="evenodd" clip-rule="evenodd" d="M5.85938 40.4297C5.85938 41.2387 6.51521 41.8945 7.32422 41.8945H28.7109C29.5199 41.8945 30.1758 41.2387 30.1758 40.4297C30.1758 39.6207 29.5199 38.9648 28.7109 38.9648H7.32422C6.51521 38.9648 5.85938 39.6207 5.85938 40.4297Z" fill="#1F7DBB"/>
<path fill-rule="evenodd" clip-rule="evenodd" d="M5.85938 55.0781C5.85938 55.8871 6.51521 56.543 7.32422 56.543H28.7109C29.5199 56.543 30.1758 55.8871 30.1758 55.0781C30.1758 54.2691 29.5199 53.6133 28.7109 53.6133H7.32422C6.51521 53.6133 5.85938 54.2691 5.85938 55.0781Z" fill="#1F7DBB"/>
<path fill-rule="evenodd" clip-rule="evenodd" d="M5.85938 60.9375C5.85938 61.7465 6.51521 62.4023 7.32422 62.4023H28.7109C29.5199 62.4023 30.1758 61.7465 30.1758 60.9375C30.1758 60.1285 29.5199 59.4727 28.7109 59.4727H7.32422C6.51521 59.4727 5.85938 60.1285 5.85938 60.9375Z" fill="#1F7DBB"/>
<path fill-rule="evenodd" clip-rule="evenodd" d="M5.85938 46.2891C5.85938 47.0981 6.51521 47.7539 7.32422 47.7539H22.8516C23.6606 47.7539 24.3164 47.0981 24.3164 46.2891C24.3164 45.4801 23.6606 44.8242 22.8516 44.8242H7.32422C6.51521 44.8242 5.85938 45.4801 5.85938 46.2891Z" fill="#1F7DBB"/>
<path fill-rule="evenodd" clip-rule="evenodd" d="M38.9648 28.7109C38.9648 29.5199 39.6207 30.1758 40.4297 30.1758H50.0977C50.9067 30.1758 51.5625 29.5199 51.5625 28.7109C51.5625 27.9019 50.9067 27.2461 50.0977 27.2461H40.4297C39.6207 27.2461 38.9648 27.9019 38.9648 28.7109Z" fill="#1F7DBB"/>
<path fill-rule="evenodd" clip-rule="evenodd" d="M54.5656 50.757C55.1376 50.1849 55.1376 49.2574 54.5656 48.6854L48.2038 42.3236C47.9291 42.0489 47.5565 41.8945 47.168 41.8945H40.4297C39.6207 41.8945 38.9648 42.5504 38.9648 43.3594C38.9648 44.1684 39.6207 44.8242 40.4297 44.8242H46.5612L52.494 50.757C53.066 51.329 53.9935 51.329 54.5656 50.757Z" fill="#1F7DBB"/>
<path fill-rule="evenodd" clip-rule="evenodd" d="M5.85938 16.9922C5.85938 17.8012 6.51521 18.457 7.32422 18.457H25.7812C26.5903 18.457 27.2461 17.8012 27.2461 16.9922V11.1328C27.2461 10.3238 26.5903 9.66797 25.7812 9.66797H7.32422C6.51521 9.66797 5.85938 10.3238 5.85938 11.1328V16.9922ZM8.78906 15.5273V12.5977H24.3164V15.5273H8.78906Z" fill="#1F7DBB"/>
<path d="M30.1758 73.5352C30.1758 74.344 29.52 75 28.7109 75C27.9019 75 27.2461 74.344 27.2461 73.5352C27.2461 72.7263 27.9019 72.0703 28.7109 72.0703C29.52 72.0703 30.1758 72.7263 30.1758 73.5352Z" fill="#1F7DBB"/>
<path fill-rule="evenodd" clip-rule="evenodd" d="M33.8398 73.5351C33.8398 74.3441 34.4957 75 35.3047 75H55.959C56.768 75 57.4238 74.3441 57.4238 73.5351V68.1591C57.4238 67.3501 56.768 66.6943 55.959 66.6943C55.15 66.6943 54.4941 67.3501 54.4941 68.1591V72.0703H35.3047C34.4957 72.0703 33.8398 72.7261 33.8398 73.5351Z" fill="#1F7DBB"/>
<path fill-rule="evenodd" clip-rule="evenodd" d="M0 73.5352C0 74.3442 0.655833 75 1.46484 75H22.1191C22.9282 75 23.584 74.3442 23.584 73.5352C23.584 72.7261 22.9282 72.0703 22.1191 72.0703H2.92969V2.92969H43.6315L54.4922 13.7903V18.5596C54.4922 19.3686 55.148 20.0244 55.957 20.0244C56.766 20.0244 57.4219 19.3686 57.4219 18.5596V13.1836C57.4219 12.7951 57.2675 12.4225 56.9928 12.1478L45.2741 0.429047C44.9994 0.154335 44.6268 0 44.2383 0H1.46484C0.655833 0 0 0.65583 0 1.46484V73.5352Z" fill="#1F7DBB"/>
</g>
</svg>
