<svg width="75" height="75" viewBox="0 0 75 75" fill="none" xmlns="http://www.w3.org/2000/svg">
<path d="M70.6055 49.6674V11.2793C70.6055 8.04331 67.9821 5.41992 64.7461 5.41992H58.3008H16.6992H10.2539C7.01792 5.41992 4.39453 8.04331 4.39453 11.2793V49.6674H70.6055Z" fill="#CDE3FF"/>
<path d="M67.6758 61.3862H7.32422C4.08823 61.3862 1.46484 58.7628 1.46484 55.5268V49.6674H73.5352V55.5268C73.5352 58.7628 70.9118 61.3862 67.6758 61.3862Z" fill="#CDE3FF"/>
<path d="M10.8398 11.8652H64.1602V49.6674H10.8398V11.8652Z" fill="white"/>
<path d="M17.4375 18.4616H42.0469V43.071H17.4375V18.4616Z" fill="white"/>
<path d="M25.6406 34.8678H33.8438V43.071H25.6406V34.8678Z" fill="#FFC107"/>
<path d="M17.4375 26.6647H25.6406V34.8678H17.4375V26.6647Z" fill="#FFC107"/>
<path d="M33.8438 26.6647H42.0469V34.8678H33.8438V26.6647Z" fill="#FFC107"/>
<path d="M25.6406 18.4616H33.8438V26.6647H25.6406V18.4616Z" fill="#FFC107"/>
<path d="M53.1016 44.043L67.3565 52.2731L63.7687 54.3445L70.2052 65.4929L63.1259 69.5801L56.6894 58.4318L53.1016 60.5032V44.043Z" fill="#FF8760"/>
<path d="M73.5352 48.2026H72.0703V11.2793C72.0703 7.24072 68.7847 3.95508 64.7461 3.95508H10.2539C6.21533 3.95508 2.92969 7.24072 2.92969 11.2793V48.2026H1.46484C0.655811 48.2026 0 48.8585 0 49.6674V55.5268C0 59.5654 3.28564 62.851 7.32422 62.851H57.5508L61.8587 70.3125C62.053 70.649 62.3729 70.8945 62.7482 70.995C62.873 71.0285 63.0004 71.0449 63.1273 71.0449C63.3823 71.0449 63.6352 70.9784 63.8597 70.8486L70.939 66.7614C71.6396 66.3568 71.8797 65.4611 71.4752 64.7604L70.129 62.4287C72.9773 61.4156 75 58.6926 75 55.5268V49.6674C75 48.8584 74.3442 48.2026 73.5352 48.2026ZM5.85938 11.2793C5.85938 8.85615 7.83076 6.88477 10.2539 6.88477H64.7461C67.1692 6.88477 69.1406 8.85615 69.1406 11.2793V48.2026H65.625V11.8652C65.625 11.0563 64.9692 10.4004 64.1602 10.4004H10.8398C10.0308 10.4004 9.375 11.0563 9.375 11.8652V48.2026H5.85938V11.2793ZM2.92969 55.5268V51.1323H30.9082C31.7172 51.1323 32.373 50.4763 32.373 49.6674C32.373 48.8585 31.7172 48.2026 30.9082 48.2026H12.3047V13.3301H62.6953V47.8897L53.8354 42.7745C53.3821 42.5127 52.8237 42.5127 52.3705 42.7745C51.9173 43.0361 51.6381 43.5198 51.6381 44.043V48.2026H44.0918C43.2828 48.2026 42.627 48.8585 42.627 49.6674C42.627 50.4763 43.2828 51.1323 44.0918 51.1323H51.6379V59.9213H7.32422C4.90107 59.9213 2.92969 57.9498 2.92969 55.5268ZM63.6634 67.5791L57.9593 57.6993C57.7651 57.3628 57.4452 57.1173 57.0699 57.0168C56.9452 56.9833 56.8178 56.9669 56.6909 56.9669C56.4359 56.9669 56.1831 57.0334 55.9585 57.1632L54.5679 57.9661V46.5801L64.4284 52.2729L63.0378 53.0758C62.3372 53.4804 62.0971 54.3762 62.5017 55.0768L68.2058 64.9564L63.6634 67.5791ZM72.0703 55.5268C72.0703 57.6166 70.6024 59.3845 68.6219 59.8187L65.771 54.8808L68.0903 53.5416C68.5436 53.28 68.8228 52.7963 68.8228 52.2731C68.8228 51.8253 68.6171 51.4077 68.2742 51.1323H72.0703V55.5268Z" fill="#1F7DBB"/>
<path d="M43.291 54.062H31.707C30.898 54.062 30.2422 54.7179 30.2422 55.5268C30.2422 56.3357 30.898 56.9916 31.707 56.9916H43.2909C44.0999 56.9916 44.7557 56.3357 44.7557 55.5268C44.7557 54.7179 44.1 54.062 43.291 54.062Z" fill="#1F7DBB"/>
<path d="M36.4644 48.6313C36.1919 48.9037 36.0352 49.2816 36.0352 49.6668C36.0352 50.0521 36.1919 50.43 36.4644 50.7025C36.7368 50.9749 37.1147 51.1317 37.5 51.1317C37.8853 51.1317 38.2632 50.9751 38.5356 50.7025C38.8081 50.4299 38.9648 50.0521 38.9648 49.6668C38.9648 49.2816 38.8081 48.9037 38.5356 48.6313C38.2632 48.3589 37.8853 48.202 37.5 48.202C37.1147 48.2021 36.7368 48.3589 36.4644 48.6313Z" fill="#1F7DBB"/>
<path d="M42.0469 44.5358C42.8559 44.5358 43.5117 43.8798 43.5117 43.071V18.4616C43.5117 17.6527 42.8559 16.9967 42.0469 16.9967H17.4375C16.6285 16.9967 15.9727 17.6527 15.9727 18.4616V43.071C15.9727 43.8798 16.6285 44.5358 17.4375 44.5358H42.0469ZM18.9023 28.1295H24.1758V33.403H18.9023V28.1295ZM27.1055 28.1295H32.3789V33.403H27.1055V28.1295ZM27.1055 25.1999V19.9264H32.3789V25.1999H27.1055ZM40.582 33.403H35.3086V28.1295H40.582V33.403ZM32.3789 36.3327V41.6061H27.1055V36.3327H32.3789ZM35.3086 41.6061V36.3327H40.582V41.6061H35.3086ZM40.582 25.1999H35.3086V19.9264H40.582V25.1999ZM24.1758 19.9264V25.1999H18.9023V19.9264H24.1758ZM18.9023 36.3327H24.1758V41.6061H18.9023V36.3327Z" fill="#1F7DBB"/>
<path d="M48.6406 19.9264H57.5624C58.3714 19.9264 59.0272 19.2705 59.0272 18.4616C59.0272 17.6527 58.3714 16.9967 57.5624 16.9967H48.6406C47.8316 16.9967 47.1758 17.6527 47.1758 18.4616C47.1758 19.2705 47.8316 19.9264 48.6406 19.9264Z" fill="#1F7DBB"/>
<path d="M48.6406 28.1295H57.5624C58.3714 28.1295 59.0272 27.4736 59.0272 26.6647C59.0272 25.8558 58.3714 25.1999 57.5624 25.1999H48.6406C47.8316 25.1999 47.1758 25.8558 47.1758 26.6647C47.1758 27.4736 47.8316 28.1295 48.6406 28.1295Z" fill="#1F7DBB"/>
<path d="M48.6406 36.3327H57.5624C58.3714 36.3327 59.0272 35.6767 59.0272 34.8678C59.0272 34.0589 58.3714 33.403 57.5624 33.403H48.6406C47.8316 33.403 47.1758 34.0589 47.1758 34.8678C47.1758 35.6767 47.8316 36.3327 48.6406 36.3327Z" fill="#1F7DBB"/>
</svg>
