<svg width="75" height="75" viewBox="0 0 75 75" fill="none" xmlns="http://www.w3.org/2000/svg">
<path d="M67.6758 7.32422H7.32422C4.08823 7.32422 1.46484 9.94761 1.46484 13.1836V61.8164C1.46484 65.0524 4.08823 67.6758 7.32422 67.6758H67.6758C70.9118 67.6758 73.5352 65.0524 73.5352 61.8164V13.1836C73.5352 9.94761 70.9118 7.32422 67.6758 7.32422Z" fill="#CDE3FF"/>
<path d="M67.6758 7.32422H7.32422C4.08823 7.32422 1.46484 9.94761 1.46484 13.1836V50.0977H73.5352V13.1836C73.5352 9.94761 70.9118 7.32422 67.6758 7.32422Z" fill="#FF8760"/>
<path d="M14.6367 61.8164C16.2547 61.8164 17.5664 60.5047 17.5664 58.8867C17.5664 57.2687 16.2547 55.957 14.6367 55.957C13.0187 55.957 11.707 57.2687 11.707 58.8867C11.707 60.5047 13.0187 61.8164 14.6367 61.8164Z" fill="#FFC107"/>
<path d="M35.5459 21.9196L43.2393 26.3615C45.0479 27.4056 45.0479 30.0162 43.2393 31.0604L35.5459 35.5022C33.7373 36.5464 31.4766 35.2412 31.4766 33.1528V24.2692C31.4766 22.1808 33.7373 20.8755 35.5459 21.9196Z" fill="white"/>
<path d="M67.6758 5.85938H44.1114C43.3025 5.85938 42.6466 6.51519 42.6466 7.32422C42.6466 8.13325 43.3025 8.78906 44.1114 8.78906H67.6758C70.0989 8.78906 72.0703 10.7604 72.0703 13.1836V48.6328H2.92969V13.1836C2.92969 10.7604 4.90107 8.78906 7.32422 8.78906H30.9278C31.7367 8.78906 32.3927 8.13325 32.3927 7.32422C32.3927 6.51519 31.7367 5.85938 30.9278 5.85938H7.32422C3.28564 5.85938 0 9.14502 0 13.1836V61.8164C0 65.855 3.28564 69.1406 7.32422 69.1406H67.6758C71.7144 69.1406 75 65.855 75 61.8164V13.1836C75 9.14502 71.7144 5.85938 67.6758 5.85938ZM67.6758 66.2109H7.32422C4.90107 66.2109 2.92969 64.2396 2.92969 61.8164V51.5625H72.0703V61.8164C72.0703 64.2396 70.0989 66.2109 67.6758 66.2109Z" fill="#1F7DBB"/>
<path d="M14.6367 54.4922C12.2136 54.4922 10.2422 56.4636 10.2422 58.8867C10.2422 61.3099 12.2136 63.2812 14.6367 63.2812C17.0599 63.2812 19.0312 61.3099 19.0312 58.8867C19.0312 56.4636 17.0599 54.4922 14.6367 54.4922ZM14.6367 60.3516C13.829 60.3516 13.1719 59.6944 13.1719 58.8867C13.1719 58.079 13.829 57.4219 14.6367 57.4219C15.4444 57.4219 16.1016 58.079 16.1016 58.8867C16.1016 59.6944 15.4443 60.3516 14.6367 60.3516Z" fill="#1F7DBB"/>
<path d="M63.2919 57.4219H26.8047C25.9957 57.4219 25.3398 58.0777 25.3398 58.8867C25.3398 59.6958 25.9957 60.3516 26.8047 60.3516H63.2919C64.1008 60.3516 64.7567 59.6958 64.7567 58.8867C64.7567 58.0777 64.1009 57.4219 63.2919 57.4219Z" fill="#1F7DBB"/>
<path d="M30.0117 24.2691V33.1528C30.0117 34.6632 30.7926 36.0157 32.1006 36.7708C32.7546 37.1484 33.4721 37.3372 34.1896 37.3372C34.9069 37.3372 35.6244 37.1484 36.2785 36.7708L43.9718 32.3289C45.2798 31.5738 46.0607 30.2212 46.0607 28.7109C46.0607 27.2007 45.2798 25.848 43.9718 25.0929L36.2785 20.6511C34.9707 19.8959 33.409 19.8959 32.1007 20.6511C30.7926 21.4062 30.0117 22.7588 30.0117 24.2691ZM32.9414 24.2691C32.9414 23.6187 33.3779 23.2966 33.5654 23.1882C33.6795 23.1224 33.9078 23.0165 34.1959 23.0165C34.3818 23.0165 34.5927 23.0607 34.8136 23.1882L42.507 27.63C43.0702 27.9552 43.131 28.4943 43.131 28.7109C43.131 28.9276 43.0702 29.4666 42.507 29.7918L34.8136 34.2337C34.2502 34.5586 33.7532 34.3419 33.5656 34.2337C33.3781 34.1253 32.9416 33.8032 32.9416 33.1528V24.2691H32.9414Z" fill="#1F7DBB"/>
<path d="M37.5195 8.78906C37.9048 8.78906 38.2827 8.63232 38.5552 8.35986C38.8275 8.0874 38.9844 7.70947 38.9844 7.32422C38.9844 6.93896 38.8276 6.56104 38.5552 6.28857C38.2827 6.01611 37.9048 5.85938 37.5195 5.85938C37.1343 5.85938 36.7563 6.01611 36.4824 6.28857C36.21 6.56104 36.0547 6.93896 36.0547 7.32422C36.0547 7.70947 36.21 8.0874 36.4824 8.35986C36.7563 8.63232 37.1343 8.78906 37.5195 8.78906Z" fill="#1F7DBB"/>
</svg>
