<svg width="75" height="75" viewBox="0 0 75 75" fill="none" xmlns="http://www.w3.org/2000/svg">
<g clip-path="url(#clip0_229_1674)">
<path d="M55.514 16.1112V58.8858C55.514 61.45 53.4353 63.5287 50.8712 63.5287H24.1292C21.5649 63.5287 19.4863 61.4499 19.4863 58.8858V53.5252H32.8565C32.9236 53.5252 32.9891 53.5238 33.0561 53.5208C35.5294 53.4165 37.5008 51.3795 37.5008 48.8824V11.4683H50.871C53.4353 11.4683 55.514 13.547 55.514 16.1112Z" fill="white"/>
<path d="M45.9429 20.9968H37.5V35.6224H45.9429V20.9968Z" fill="#FFC107"/>
<path fill-rule="evenodd" clip-rule="evenodd" d="M36.0352 45.3265C36.0352 44.5175 36.691 43.8617 37.5 43.8617H45.9431C46.7521 43.8617 47.4079 44.5175 47.4079 45.3265C47.4079 46.1355 46.7521 46.7914 45.9431 46.7914H37.5C36.691 46.7914 36.0352 46.1355 36.0352 45.3265Z" fill="#1F7DBB"/>
<path fill-rule="evenodd" clip-rule="evenodd" d="M27.5918 53.521C27.5918 52.712 28.2476 52.0562 29.0566 52.0562H45.9451C46.7541 52.0562 47.41 52.712 47.41 53.521C47.41 54.33 46.7541 54.9858 45.9451 54.9858H29.0566C28.2476 54.9858 27.5918 54.33 27.5918 53.521Z" fill="#1F7DBB"/>
<path fill-rule="evenodd" clip-rule="evenodd" d="M27.5918 53.5207C27.5918 52.7117 28.2476 52.0558 29.0566 52.0558H33.0562C33.8653 52.0558 34.5211 52.7117 34.5211 53.5207C34.5211 54.3297 33.8653 54.9855 33.0562 54.9855H29.0566C28.2476 54.9855 27.5918 54.3297 27.5918 53.5207Z" fill="#1F7DBB"/>
<path d="M73.5295 26.1177V68.8923C73.5295 71.4565 71.4507 73.5352 68.8867 73.5352H42.1448C39.5806 73.5352 37.502 71.4564 37.502 68.8923V63.5288H50.8722C50.9123 63.5288 50.9526 63.5288 50.9913 63.5273C53.5002 63.4633 55.515 61.4099 55.515 58.886V21.4748H68.8867C71.4509 21.4748 73.5295 23.5535 73.5295 26.1177Z" fill="white"/>
<path d="M63.9602 38.3161C63.9602 40.3352 63.1412 42.1638 61.8174 43.4861C60.4951 44.8099 58.6665 45.6289 56.6474 45.6289H55.5156V31.0033H56.6474C60.6858 31.0033 63.9602 34.2776 63.9602 38.3161Z" fill="#FF8760"/>
<path fill-rule="evenodd" clip-rule="evenodd" d="M54.0508 55.333C54.0508 54.524 54.7066 53.8682 55.5156 53.8682H63.96C64.769 53.8682 65.4249 54.524 65.4249 55.333C65.4249 56.142 64.769 56.7979 63.96 56.7979H55.5156C54.7066 56.7979 54.0508 56.142 54.0508 55.333Z" fill="#1F7DBB"/>
<path fill-rule="evenodd" clip-rule="evenodd" d="M45.6055 63.5273C45.6055 62.7183 46.2613 62.0625 47.0703 62.0625H63.9589C64.7679 62.0625 65.4238 62.7183 65.4238 63.5273C65.4238 64.3364 64.7679 64.9922 63.9589 64.9922H47.0703C46.2613 64.9922 45.6055 64.3364 45.6055 63.5273Z" fill="#1F7DBB"/>
<path fill-rule="evenodd" clip-rule="evenodd" d="M36.036 11.4683C36.036 10.6593 36.6918 10.0034 37.5008 10.0034H50.871C54.2443 10.0034 56.9789 12.738 56.9789 16.1112V58.8858C56.9789 62.2591 54.2442 64.9935 50.8712 64.9935H24.1292C20.7559 64.9935 18.0215 62.2589 18.0215 58.8858V53.5252C18.0215 52.7162 18.6773 52.0604 19.4863 52.0604H32.8565C32.9018 52.0604 32.9459 52.0594 32.992 52.0574L32.9943 52.0573C34.6869 51.9859 36.036 50.5911 36.036 48.8824V11.4683ZM38.9657 12.9331V48.8824C38.9657 52.1672 36.3733 54.8459 33.1201 54.9843C33.0323 54.9881 32.9455 54.9901 32.8565 54.9901H20.9512V58.8858C20.9512 60.6409 22.374 62.0638 24.1292 62.0638H50.8712C52.6263 62.0638 54.0492 60.641 54.0492 58.8858V16.1112C54.0492 14.356 52.6262 12.9331 50.871 12.9331H38.9657Z" fill="#1F7DBB"/>
<path fill-rule="evenodd" clip-rule="evenodd" d="M54.0501 21.4748C54.0501 20.6658 54.706 20.0099 55.515 20.0099H68.8867C72.26 20.0099 74.9943 22.7446 74.9943 26.1177V68.8923C74.9943 72.2656 72.2597 75 68.8867 75H42.1448C38.7715 75 36.0371 72.2654 36.0371 68.8923V63.5288C36.0371 62.7198 36.6929 62.064 37.502 62.064H50.8722C50.9177 62.064 50.9297 62.0638 50.9358 62.0636C50.9418 62.0633 50.9479 62.0631 50.9539 62.063C52.6713 62.0192 54.0501 60.6129 54.0501 58.886V21.4748ZM56.9798 22.9396V58.886C56.9798 62.2042 54.3336 64.9031 51.0368 64.9915C50.9691 64.9938 50.9053 64.9937 50.8722 64.9937H38.9668V68.8923C38.9668 70.6474 40.3896 72.0703 42.1448 72.0703H68.8867C70.6418 72.0703 72.0647 70.6475 72.0647 68.8923V26.1177C72.0647 24.3625 70.6418 22.9396 68.8867 22.9396H56.9798Z" fill="#1F7DBB"/>
<path d="M1.47266 33.7296V48.8826C1.47266 51.4469 3.55142 53.5257 6.11577 53.5257H32.858C35.4223 53.5257 37.5011 51.4469 37.5011 48.8826V6.10796C37.5009 3.5436 35.4222 1.46484 32.8578 1.46484H6.11577C3.55142 1.46484 1.47266 3.5436 1.47266 6.10796V20.8392V33.7296Z" fill="white"/>
<path fill-rule="evenodd" clip-rule="evenodd" d="M9.7168 35.3229C9.7168 34.5139 10.3726 33.8581 11.1816 33.8581H28.0703C28.8793 33.8581 29.5351 34.5139 29.5351 35.3229C29.5351 36.1319 28.8793 36.7878 28.0703 36.7878H11.1816C10.3726 36.7878 9.7168 36.1319 9.7168 35.3229Z" fill="#1F7DBB"/>
<path fill-rule="evenodd" clip-rule="evenodd" d="M9.7168 43.518C9.7168 42.709 10.3726 42.0532 11.1816 42.0532H28.0703C28.8793 42.0532 29.5351 42.709 29.5351 43.518C29.5351 44.327 28.8793 44.9828 28.0703 44.9828H11.1816C10.3726 44.9828 9.7168 44.327 9.7168 43.518Z" fill="#1F7DBB"/>
<path d="M19.626 10.9937L11.1816 25.6197H28.0703L19.626 10.9937Z" fill="#CDE3FF"/>
<path fill-rule="evenodd" clip-rule="evenodd" d="M36.0371 20.9968C36.0371 20.1878 36.6929 19.5319 37.502 19.5319H45.9449C46.7539 19.5319 47.4097 20.1878 47.4097 20.9968V35.6224C47.4097 36.4314 46.7539 37.0872 45.9449 37.0872H37.502C36.6929 37.0872 36.0371 36.4314 36.0371 35.6224V20.9968ZM38.9668 22.4616V34.1575H44.48V22.4616H38.9668Z" fill="#1F7DBB"/>
<path fill-rule="evenodd" clip-rule="evenodd" d="M54.0488 31.0033C54.0488 30.1943 54.7047 29.5384 55.5137 29.5384H56.6454C61.4929 29.5384 65.423 33.4686 65.423 38.3161C65.423 40.7391 64.4386 42.936 62.8512 44.5219C61.2653 46.1093 59.0685 47.0937 56.6454 47.0937H55.5137C54.7047 47.0937 54.0488 46.4379 54.0488 45.6289V31.0033ZM56.9785 32.4774V44.1547C58.4606 44.0716 59.7937 43.4373 60.7791 42.4508L60.7802 42.4497C61.84 41.391 62.4934 39.931 62.4934 38.3161C62.4934 35.1984 60.053 32.6501 56.9785 32.4774Z" fill="#1F7DBB"/>
<path fill-rule="evenodd" clip-rule="evenodd" d="M0.0078125 6.10796C0.0078125 2.73459 2.7424 0 6.11577 0H32.8578C36.2312 0 38.9657 2.73459 38.9659 6.10787V48.8826C38.9659 52.2559 36.2313 54.9905 32.858 54.9905H6.11577C2.7424 54.9905 0.0078125 52.2559 0.0078125 48.8826V33.7296C0.0078125 32.9206 0.663645 32.2648 1.47266 32.2648C2.28167 32.2648 2.9375 32.9206 2.9375 33.7296V48.8826C2.9375 50.6379 4.36043 52.0608 6.11577 52.0608H32.858C34.6133 52.0608 36.0362 50.6379 36.0362 48.8826V6.10804C36.0362 6.10801 36.0362 6.10807 36.0362 6.10804C36.0361 4.35266 34.6131 2.92969 32.8578 2.92969H6.11577C4.36043 2.92969 2.9375 4.35261 2.9375 6.10796V20.8392C2.9375 21.6482 2.28167 22.304 1.47266 22.304C0.663645 22.304 0.0078125 21.6482 0.0078125 20.8392V6.10796Z" fill="#1F7DBB"/>
<path fill-rule="evenodd" clip-rule="evenodd" d="M19.626 9.52881C20.1494 9.52881 20.633 9.80801 20.8946 10.2612L29.3389 24.8873C29.6005 25.3405 29.6005 25.8989 29.3389 26.3521C29.0772 26.8053 28.5936 27.0845 28.0703 27.0845H11.1816C10.6583 27.0845 10.1747 26.8053 9.91305 26.3521C9.65138 25.8989 9.65138 25.3405 9.91305 24.8873L18.3574 10.2612C18.6191 9.808 19.1027 9.52881 19.626 9.52881ZM13.7188 24.1548H25.5331L19.626 13.9233L13.7188 24.1548Z" fill="#1F7DBB"/>
<path fill-rule="evenodd" clip-rule="evenodd" d="M9.7168 35.3229C9.7168 34.5139 10.3726 33.8581 11.1816 33.8581H28.0703C28.8793 33.8581 29.5351 34.5139 29.5351 35.3229C29.5351 36.1319 28.8793 36.7878 28.0703 36.7878H11.1816C10.3726 36.7878 9.7168 36.1319 9.7168 35.3229Z" fill="#1F7DBB"/>
<path fill-rule="evenodd" clip-rule="evenodd" d="M9.7168 43.518C9.7168 42.709 10.3726 42.0532 11.1816 42.0532H28.0703C28.8793 42.0532 29.5351 42.709 29.5351 43.518C29.5351 44.327 28.8793 44.9828 28.0703 44.9828H11.1816C10.3726 44.9828 9.7168 44.327 9.7168 43.518Z" fill="#1F7DBB"/>
</g>
<defs>
<clipPath id="clip0_229_1674">
<rect width="75" height="75" fill="white"/>
</clipPath>
</defs>
</svg>
