<svg width="75" height="75" viewBox="0 0 75 75" fill="none" xmlns="http://www.w3.org/2000/svg">
<mask id="mask0_231_1866" style="mask-type:luminance" maskUnits="userSpaceOnUse" x="0" y="0" width="75" height="75">
<path d="M0 7.62939e-06H75V75H0V7.62939e-06Z" fill="white"/>
</mask>
<g mask="url(#mask0_231_1866)">
<path fill-rule="evenodd" clip-rule="evenodd" d="M4.72017 66.7966H70.2803C72.0706 66.7966 73.5354 65.3317 73.5354 63.5412V14.0622H24.5175L21.5878 16.9919H1.46484V63.5412C1.46484 65.3317 2.92969 66.7966 4.72017 66.7966Z" fill="white"/>
<path fill-rule="evenodd" clip-rule="evenodd" d="M24.5175 14.0622H73.5354V11.4581C73.5354 9.66766 72.0706 8.20282 70.2801 8.20282H4.72017C2.92969 8.20282 1.46484 9.66766 1.46484 11.4581V16.9919H21.5878L24.5175 14.0622Z" fill="#CDE3FF"/>
<path fill-rule="evenodd" clip-rule="evenodd" d="M28.7109 24.3161H46.2891C47.9004 24.3161 49.2187 25.6345 49.2187 27.2458V33.1052C49.2187 34.7166 47.9004 36.0349 46.2891 36.0349H28.7109C27.0996 36.0349 25.7812 34.7166 25.7812 33.1052V27.2458C25.7812 25.6345 27.0996 24.3161 28.7109 24.3161Z" fill="#FFC107"/>
<path fill-rule="evenodd" clip-rule="evenodd" d="M16.9922 47.7536H22.8516C24.4629 47.7536 25.7812 49.072 25.7812 50.6833V56.5427C25.7812 58.154 24.4629 59.4724 22.8516 59.4724H16.9922C15.3809 59.4724 14.0625 58.154 14.0625 56.5427V50.6833C14.0625 49.072 15.3809 47.7536 16.9922 47.7536Z" fill="#FF8760"/>
<path fill-rule="evenodd" clip-rule="evenodd" d="M34.5703 47.7536H40.4297C42.041 47.7536 43.3594 49.072 43.3594 50.6833V56.5427C43.3594 58.154 42.041 59.4724 40.4297 59.4724H34.5703C32.959 59.4724 31.6406 58.154 31.6406 56.5427V50.6833C31.6406 49.072 32.959 47.7536 34.5703 47.7536Z" fill="#FF8760"/>
<path fill-rule="evenodd" clip-rule="evenodd" d="M52.1484 47.7536H58.0078C59.6191 47.7536 60.9375 49.072 60.9375 50.6833V56.5427C60.9375 58.154 59.6191 59.4724 58.0078 59.4724H52.1484C50.5371 59.4724 49.2188 58.154 49.2188 56.5427V50.6833C49.2188 49.072 50.5371 47.7536 52.1484 47.7536Z" fill="#FF8760"/>
<path fill-rule="evenodd" clip-rule="evenodd" d="M0 63.5412C0 66.1407 2.12068 68.2614 4.72017 68.2614H9.11455C9.92356 68.2614 10.5794 67.6056 10.5794 66.7966C10.5794 65.9876 9.92356 65.3317 9.11455 65.3317H4.72017C3.7387 65.3317 2.92969 64.5227 2.92969 63.5412V11.4581C2.92969 10.4767 3.7387 9.66767 4.72017 9.66767H70.2801C71.2616 9.66767 72.0706 10.4767 72.0706 11.4581V63.5412C72.0706 64.5227 71.2615 65.3317 70.2801 65.3317H19.2168C18.4078 65.3317 17.752 65.9876 17.752 66.7966C17.752 67.6056 18.4078 68.2614 19.2168 68.2614H70.2801C72.8794 68.2614 75.0003 66.1408 75.0003 63.5412V11.4581C75.0003 8.85865 72.8796 6.73798 70.2801 6.73798H4.72017C2.12068 6.73798 0 8.85866 0 11.4581V63.5412ZM13.504 66.7966C13.504 67.6056 14.1598 68.2614 14.9688 68.2614H15.0083C15.8174 68.2614 16.4732 67.6056 16.4732 66.7966C16.4732 65.9876 15.8174 65.3317 15.0083 65.3317H14.9688C14.1598 65.3317 13.504 65.9876 13.504 66.7966Z" fill="#1F7DBB"/>
<path fill-rule="evenodd" clip-rule="evenodd" d="M0 16.9919C0 17.8009 0.655833 18.4567 1.46484 18.4567H21.5878C21.9763 18.4567 22.3489 18.3024 22.6236 18.0277L25.5533 15.098C26.1254 14.5259 26.1254 13.5985 25.5533 13.0264C24.9813 12.4543 24.0538 12.4543 23.4817 13.0264L20.9811 15.527H1.46484C0.655833 15.527 0 16.1829 0 16.9919Z" fill="#1F7DBB"/>
<path fill-rule="evenodd" clip-rule="evenodd" d="M5.05273 12.5974C5.05273 13.4064 5.70857 14.0622 6.51758 14.0622H6.55713C7.36614 14.0622 8.02197 13.4064 8.02197 12.5974C8.02197 11.7883 7.36614 11.1325 6.55713 11.1325H6.51758C5.70857 11.1325 5.05273 11.7883 5.05273 12.5974Z" fill="#1F7DBB"/>
<path fill-rule="evenodd" clip-rule="evenodd" d="M10.9121 12.5974C10.9121 13.4064 11.5679 14.0622 12.377 14.0622H12.4165C13.2255 14.0622 13.8813 13.4064 13.8813 12.5974C13.8813 11.7883 13.2255 11.1325 12.4165 11.1325H12.377C11.5679 11.1325 10.9121 11.7883 10.9121 12.5974Z" fill="#1F7DBB"/>
<path fill-rule="evenodd" clip-rule="evenodd" d="M16.7734 12.5974C16.7734 13.4064 17.4293 14.0622 18.2383 14.0622H18.2777C19.0867 14.0622 19.7425 13.4064 19.7425 12.5974C19.7425 11.7883 19.0867 11.1325 18.2777 11.1325H18.2383C17.4293 11.1325 16.7734 11.7883 16.7734 12.5974Z" fill="#1F7DBB"/>
<path fill-rule="evenodd" clip-rule="evenodd" d="M23.0527 14.0622C23.0527 14.8712 23.7086 15.527 24.5176 15.527H59.0387C59.8477 15.527 60.5035 14.8712 60.5035 14.0622C60.5035 13.2532 59.8477 12.5974 59.0387 12.5974H24.5176C23.7086 12.5974 23.0527 13.2532 23.0527 14.0622ZM61.7825 14.0622C61.7825 14.8712 62.4383 15.527 63.2473 15.527H63.2867C64.0957 15.527 64.7516 14.8712 64.7516 14.0622C64.7516 13.2532 64.0957 12.5974 63.2867 12.5974H63.2473C62.4383 12.5974 61.7825 13.2532 61.7825 14.0622ZM67.6761 14.0622C67.6761 14.8712 68.332 15.527 69.141 15.527H73.5355C74.3445 15.527 75.0003 14.8712 75.0003 14.0622C75.0003 13.2532 74.3445 12.5974 73.5355 12.5974H69.141C68.332 12.5974 67.6761 13.2532 67.6761 14.0622Z" fill="#1F7DBB"/>
<path fill-rule="evenodd" clip-rule="evenodd" d="M31.9336 30.1755C31.9336 30.9845 32.5894 31.6403 33.3984 31.6403H41.6016C42.4106 31.6403 43.0664 30.9845 43.0664 30.1755C43.0664 29.3665 42.4106 28.7106 41.6016 28.7106H33.3984C32.5894 28.7106 31.9336 29.3665 31.9336 30.1755Z" fill="#1F7DBB"/>
<path fill-rule="evenodd" clip-rule="evenodd" d="M24.3164 33.1052C24.3164 35.5257 26.2906 37.4997 28.7109 37.4997H46.2891C48.7094 37.4997 50.6836 35.5257 50.6836 33.1052V27.2458C50.6836 24.8254 48.7094 22.8513 46.2891 22.8513H28.7109C26.2906 22.8513 24.3164 24.8254 24.3164 27.2458V33.1052ZM28.7109 34.57C27.9086 34.57 27.2461 33.9076 27.2461 33.1052V27.2458C27.2461 26.4435 27.9086 25.7809 28.7109 25.7809H46.2891C47.0914 25.7809 47.7539 26.4435 47.7539 27.2458V33.1052C47.7539 33.9076 47.0914 34.57 46.2891 34.57H28.7109Z" fill="#1F7DBB"/>
<path fill-rule="evenodd" clip-rule="evenodd" d="M12.5977 56.5427C12.5977 58.963 14.5718 60.9372 16.9922 60.9372H22.8516C25.2719 60.9372 27.2461 58.963 27.2461 56.5427V50.6833C27.2461 48.2629 25.2719 46.2888 22.8516 46.2888H16.9922C14.5718 46.2888 12.5977 48.2629 12.5977 50.6833V56.5427ZM16.9922 58.0075C16.1899 58.0075 15.5273 57.345 15.5273 56.5427V50.6833C15.5273 49.881 16.1899 49.2184 16.9922 49.2184H22.8516C23.6539 49.2184 24.3164 49.881 24.3164 50.6833V56.5427C24.3164 57.345 23.6539 58.0075 22.8516 58.0075H16.9922Z" fill="#1F7DBB"/>
<path fill-rule="evenodd" clip-rule="evenodd" d="M30.1758 56.5427C30.1758 58.963 32.15 60.9372 34.5703 60.9372H40.4297C42.85 60.9372 44.8242 58.963 44.8242 56.5427V50.6833C44.8242 48.2629 42.85 46.2888 40.4297 46.2888H34.5703C32.15 46.2888 30.1758 48.2629 30.1758 50.6833V56.5427ZM34.5703 58.0075C33.768 58.0075 33.1055 57.345 33.1055 56.5427V50.6833C33.1055 49.881 33.768 49.2184 34.5703 49.2184H40.4297C41.232 49.2184 41.8945 49.881 41.8945 50.6833V56.5427C41.8945 57.345 41.232 58.0075 40.4297 58.0075H34.5703Z" fill="#1F7DBB"/>
<path fill-rule="evenodd" clip-rule="evenodd" d="M47.7539 56.5427C47.7539 58.963 49.7281 60.9372 52.1484 60.9372H58.0078C60.4282 60.9372 62.4023 58.963 62.4023 56.5427V50.6833C62.4023 48.2629 60.4282 46.2888 58.0078 46.2888H52.1484C49.7281 46.2888 47.7539 48.2629 47.7539 50.6833V56.5427ZM52.1484 58.0075C51.3461 58.0075 50.6836 57.345 50.6836 56.5427V50.6833C50.6836 49.881 51.3461 49.2184 52.1484 49.2184H58.0078C58.8101 49.2184 59.4727 49.881 59.4727 50.6833V56.5427C59.4727 57.345 58.8101 58.0075 58.0078 58.0075H52.1484Z" fill="#1F7DBB"/>
<path fill-rule="evenodd" clip-rule="evenodd" d="M37.5 49.2184C38.309 49.2184 38.9648 48.5626 38.9648 47.7536V36.0349C38.9648 35.2258 38.309 34.57 37.5 34.57C36.691 34.57 36.0352 35.2258 36.0352 36.0349V47.7536C36.0352 48.5626 36.691 49.2184 37.5 49.2184Z" fill="#1F7DBB"/>
<path fill-rule="evenodd" clip-rule="evenodd" d="M19.9219 49.2184C20.7309 49.2184 21.3867 48.5626 21.3867 47.7536V44.8239C21.3867 44.0216 22.0492 43.3591 22.8516 43.3591H52.1484C52.9508 43.3591 53.6133 44.0216 53.6133 44.8239V47.7536C53.6133 48.5626 54.2691 49.2184 55.0781 49.2184C55.8871 49.2184 56.543 48.5626 56.543 47.7536V44.8239C56.543 42.4036 54.5688 40.4294 52.1484 40.4294H22.8516C20.4312 40.4294 18.457 42.4036 18.457 44.8239V47.7536C18.457 48.5626 19.1129 49.2184 19.9219 49.2184Z" fill="#1F7DBB"/>
</g>
</svg>
