<svg width="75" height="75" viewBox="0 0 75 75" fill="none" xmlns="http://www.w3.org/2000/svg">
<g clip-path="url(#clip0_229_1702)">
<path d="M73.5352 37.5C73.5352 57.4018 57.4018 73.5352 37.5 73.5352C17.5982 73.5352 1.46484 57.4018 1.46484 37.5C1.46484 17.5982 17.5982 1.46484 37.5 1.46484C57.4018 1.46484 73.5352 17.5982 73.5352 37.5Z" fill="#CDE3FF"/>
<path d="M37.5 75C27.4836 75 18.0662 71.0993 10.9835 64.0165C3.90072 56.9338 0 47.5164 0 37.5C0 27.4836 3.90072 18.0662 10.9835 10.9835C18.0662 3.90072 27.4836 0 37.5 0C47.5164 0 56.9338 3.90072 64.0165 10.9835C71.0993 18.0662 75 27.4836 75 37.5C75 47.5164 71.0993 56.9338 64.0165 64.0165C56.9338 71.0993 47.5164 75 37.5 75ZM37.5 2.92969C18.4376 2.92969 2.92969 18.4376 2.92969 37.5C2.92969 56.5624 18.4376 72.0703 37.5 72.0703C56.5624 72.0703 72.0703 56.5624 72.0703 37.5C72.0703 18.4376 56.5624 2.92969 37.5 2.92969Z" fill="#1F7DBB"/>
<path d="M66.5039 37.5C66.5039 53.5183 53.5183 66.5039 37.5 66.5039C21.4817 66.5039 8.49609 53.5183 8.49609 37.5C8.49609 21.4817 21.4817 8.49609 37.5 8.49609C53.5183 8.49609 66.5039 21.4817 66.5039 37.5Z" fill="white"/>
<path d="M37.5 67.9688C20.6995 67.9688 7.03125 54.3005 7.03125 37.5C7.03125 20.6995 20.6995 7.03125 37.5 7.03125C43.5116 7.03125 49.3263 8.77991 54.3165 12.0884C54.9906 12.5353 55.1748 13.4445 54.7279 14.1186C54.2805 14.7932 53.3712 14.9769 52.6972 14.53C48.1888 11.5408 42.9337 9.96094 37.5 9.96094C22.3148 9.96094 9.96094 22.3148 9.96094 37.5C9.96094 52.6852 22.3148 65.0391 37.5 65.0391C52.6852 65.0391 65.0391 52.6852 65.0391 37.5C65.0391 32.1161 63.4861 26.9022 60.5478 22.4207C60.1044 21.7443 60.2932 20.8363 60.9695 20.3922C61.6465 19.9493 62.554 20.1382 62.998 20.8145C66.2498 25.7744 67.9688 31.5445 67.9688 37.5C67.9688 54.3005 54.3005 67.9688 37.5 67.9688Z" fill="#1F7DBB"/>
<path d="M24.666 29.405C24.666 22.1495 30.7096 16.2792 38.027 16.5624C44.9198 16.8297 50.4101 22.5815 50.3706 29.4794C50.3385 35.2089 46.538 40.0617 41.3275 41.6817V45.7764H33.7103V38.4493C33.7103 36.3567 35.4223 34.639 37.5143 34.6407C40.5195 34.643 42.9428 32.1001 42.742 29.0531C42.5732 26.4862 40.5144 24.3936 37.9497 24.1871C34.8679 23.9393 32.2803 26.3786 32.2832 29.4107L24.666 29.405Z" fill="#FF8760"/>
<path d="M41.3086 55.0781C41.3086 57.1815 39.6034 58.8867 37.5 58.8867C35.3966 58.8867 33.6914 57.1815 33.6914 55.0781C33.6914 52.9747 35.3966 51.2695 37.5 51.2695C39.6034 51.2695 41.3086 52.9747 41.3086 55.0781Z" fill="#FF8760"/>
<path d="M41.3275 47.2412H33.7103C32.9012 47.2412 32.2454 46.5855 32.2454 45.7764V38.4493C32.2454 37.0457 32.7942 35.7233 33.791 34.7248C34.7883 33.7257 36.1095 33.1758 37.5114 33.1758H37.5189C38.5706 33.1758 39.5468 32.7513 40.2689 31.9805C40.9904 31.2103 41.3498 30.205 41.2805 29.1492C41.1592 27.3016 39.6767 25.7961 37.8324 25.6479C36.7664 25.5627 35.7468 25.9128 34.9634 26.6361C34.1898 27.3502 33.7469 28.3613 33.748 29.409C33.7486 29.7981 33.5941 30.1712 33.3195 30.4464C33.0442 30.7211 32.6717 30.8756 32.2832 30.8756H32.2821L24.6649 30.8704C23.8563 30.8699 23.2012 30.2141 23.2012 29.4056C23.2012 25.4814 24.7627 21.8176 27.5986 19.0899C30.4321 16.3645 34.1537 14.9448 38.0836 15.0993C41.7984 15.2429 45.27 16.8142 47.8575 19.523C50.4438 22.2301 51.8572 25.7692 51.8354 29.488C51.8183 32.5848 50.8244 35.5293 48.9613 38.003C47.3808 40.1012 45.2185 41.7469 42.7923 42.7156V45.7764C42.7923 46.5855 42.136 47.2412 41.3275 47.2412ZM35.1751 44.3115H39.8626V41.6817C39.8626 41.0402 40.2798 40.4732 40.892 40.2826C45.6573 38.8018 48.8777 34.457 48.9057 29.4708C48.9407 23.3957 44.0346 18.2613 37.9703 18.0262C34.849 17.9066 31.8838 19.0327 29.6299 21.2007C27.7307 23.0278 26.5497 25.3813 26.2236 27.9413L30.9809 27.9447C31.2773 26.6281 31.9685 25.4139 32.975 24.4841C34.3466 23.2172 36.2028 22.5775 38.0676 22.7274C41.3492 22.9912 43.9876 25.6697 44.2039 28.957C44.327 30.8304 43.689 32.6157 42.4066 33.9838C41.1432 35.3319 39.3619 36.105 37.5183 36.105C37.5154 36.105 37.5137 36.105 37.5109 36.105C36.8923 36.105 36.3075 36.3499 35.8641 36.7939C35.4195 37.2396 35.1746 37.8273 35.1746 38.4487V44.3115H35.1751Z" fill="#1F7DBB"/>
<path d="M37.5 60.3516C34.5921 60.3516 32.2266 57.9861 32.2266 55.0781C32.2266 52.1702 34.5921 49.8047 37.5 49.8047C40.4079 49.8047 42.7734 52.1702 42.7734 55.0781C42.7734 57.9861 40.4079 60.3516 37.5 60.3516ZM37.5 52.7344C36.208 52.7344 35.1563 53.7861 35.1563 55.0781C35.1563 56.3702 36.208 57.4219 37.5 57.4219C38.792 57.4219 39.8438 56.3702 39.8438 55.0781C39.8438 53.7861 38.792 52.7344 37.5 52.7344Z" fill="#1F7DBB"/>
<path d="M58.0614 18.5079C57.6843 18.5079 57.3078 18.3632 57.0211 18.0748L56.9736 18.0273C56.402 17.4551 56.402 16.5275 56.9736 15.9553C57.5459 15.3837 58.4734 15.3837 59.0456 15.9553L59.1017 16.0114C59.6716 16.5859 59.6676 17.5134 59.0931 18.0834C58.8076 18.3666 58.4345 18.5079 58.0614 18.5079Z" fill="#1F7DBB"/>
<path d="M18.5563 49.625C18.0447 49.625 17.5475 49.3561 17.2786 48.8789C15.2655 45.3049 14.2373 41.2365 14.306 37.1126C14.3191 36.3115 14.9726 35.6718 15.7702 35.6718H15.7948C16.6039 35.6855 17.2482 36.3522 17.2351 37.1613C17.175 40.765 18.0734 44.3201 19.8312 47.4409C20.2283 48.1459 19.9788 49.0391 19.2738 49.4362C19.0467 49.5638 18.8001 49.625 18.5563 49.625Z" fill="#1F7DBB"/>
<path d="M22.1321 54.332C21.7539 54.332 21.3768 54.1866 21.0907 53.8977C20.5225 53.3358 20.5093 52.4191 21.0649 51.8412C21.6257 51.2581 22.5532 51.2398 23.1363 51.8005C23.154 51.8177 23.1706 51.8343 23.1878 51.852C23.7486 52.4351 23.7303 53.3627 23.1472 53.9234C22.8634 54.1964 22.4972 54.332 22.1321 54.332Z" fill="#1F7DBB"/>
</g>
<defs>
<clipPath id="clip0_229_1702">
<rect width="75" height="75" fill="white"/>
</clipPath>
</defs>
</svg>
