<svg width="75" height="75" viewBox="0 0 75 75" fill="none" xmlns="http://www.w3.org/2000/svg">
<g clip-path="url(#clip0_229_1714)">
<mask id="mask0_229_1714" style="mask-type:luminance" maskUnits="userSpaceOnUse" x="0" y="0" width="75" height="75">
<path d="M0 7.62939e-06H75V75H0V7.62939e-06Z" fill="white"/>
</mask>
<g mask="url(#mask0_229_1714)">
<path d="M52.4418 73.5352H3.51533C2.38286 73.5352 1.46484 72.6171 1.46484 71.4848V3.51518C1.46484 2.38286 2.38286 1.46484 3.51533 1.46484H52.4418C53.5743 1.46484 54.4922 2.38286 54.4922 3.51518V71.4848C54.4922 72.6171 53.5743 73.5352 52.4418 73.5352Z" fill="white"/>
<path fill-rule="evenodd" clip-rule="evenodd" d="M54.4922 42.7731C55.3012 42.7731 55.957 42.1173 55.957 41.3083V3.51529C55.957 1.57388 54.3832 -4.57764e-05 52.4418 -4.57764e-05H3.51518C1.57378 -4.57764e-05 0 1.57388 0 3.51529V30.9266C0 31.7356 0.655833 32.3915 1.46484 32.3915C2.27385 32.3915 2.92969 31.7356 2.92969 30.9266V3.51529C2.92969 3.19176 3.19194 2.92965 3.51518 2.92965H52.4418C52.7651 2.92965 53.0273 3.19176 53.0273 3.51529V41.3083C53.0273 42.1173 53.6832 42.7731 54.4922 42.7731Z" fill="#1F7DBB"/>
<path fill-rule="evenodd" clip-rule="evenodd" d="M0 71.4848C0 73.4263 1.57392 75 3.51519 75H52.4418C54.3831 75 55.957 73.4263 55.957 71.4848C55.957 70.6758 55.3012 70.0199 54.4922 70.0199C53.6832 70.0199 53.0273 70.6758 53.0273 71.4848C53.0273 71.8082 52.7652 72.0703 52.4418 72.0703H3.51519C3.1918 72.0703 2.92969 71.8082 2.92969 71.4848V44.1102C2.92969 43.3012 2.27385 42.6454 1.46484 42.6454C0.655833 42.6454 0 43.3012 0 44.1102V71.4848Z" fill="#1F7DBB"/>
<path d="M9.66797 22.3236H21.3867V10.6049H9.66797V22.3236Z" fill="#CDE3FF"/>
<path fill-rule="evenodd" clip-rule="evenodd" d="M8.20312 22.3236C8.20312 23.1326 8.85896 23.7885 9.66797 23.7885H21.3867C22.1957 23.7885 22.8516 23.1326 22.8516 22.3236C22.8516 21.5146 22.1957 20.8588 21.3867 20.8588H11.1328V10.6049C11.1328 9.79585 10.477 9.14002 9.66797 9.14002C8.85896 9.14002 8.20312 9.79585 8.20312 10.6049V22.3236Z" fill="#1F7DBB"/>
<path fill-rule="evenodd" clip-rule="evenodd" d="M16.7915 16.7492C17.3636 17.3212 18.291 17.3212 18.8631 16.7492L24.6349 10.9774C25.2069 10.4053 25.2069 9.47786 24.6349 8.9058C24.0628 8.33375 23.1353 8.33375 22.5633 8.9058L17.8273 13.6418L15.9772 11.7917C15.4051 11.2196 14.4777 11.2196 13.9056 11.7917C13.3335 12.3637 13.3335 13.2912 13.9056 13.8633L16.7915 16.7492Z" fill="#1F7DBB"/>
<path d="M21.3867 53.008H9.66797V64.7267H21.3867V53.008Z" fill="#EFF6FF"/>
<path fill-rule="evenodd" clip-rule="evenodd" d="M8.20312 64.7267C8.20312 65.5358 8.85896 66.1916 9.66797 66.1916H21.3867C22.1957 66.1916 22.8516 65.5358 22.8516 64.7267V53.008C22.8516 52.199 22.1957 51.5432 21.3867 51.5432H9.66797C8.85896 51.5432 8.20312 52.199 8.20312 53.008V64.7267ZM11.1328 63.2619V54.4728H19.9219V63.2619H11.1328Z" fill="#1F7DBB"/>
<path d="M21.3867 31.6406H9.66797V43.3594H21.3867V31.6406Z" fill="#EFF6FF"/>
<path fill-rule="evenodd" clip-rule="evenodd" d="M8.20312 43.3594C8.20312 44.1684 8.85896 44.8242 9.66797 44.8242H21.3867C22.1957 44.8242 22.8516 44.1684 22.8516 43.3594V31.6406C22.8516 30.8316 22.1957 30.1758 21.3867 30.1758H9.66797C8.85896 30.1758 8.20312 30.8316 8.20312 31.6406V43.3594ZM11.1328 41.8945V33.1055H19.9219V41.8945H11.1328Z" fill="#1F7DBB"/>
<path d="M64.0137 73.5352H60.2051C54.9464 73.5352 50.6836 68.9443 50.6836 63.2812V49.5117C50.6836 43.8486 54.9464 39.2578 60.2051 39.2578H62.1094H64.0137C69.2722 39.2578 73.5352 43.8486 73.5352 49.5117V63.2812C73.5352 68.9443 69.2722 73.5352 64.0137 73.5352Z" fill="#49B1F7"/>
<path fill-rule="evenodd" clip-rule="evenodd" d="M49.2188 63.2812C49.2188 69.6492 54.0371 75 60.2051 75H64.0137C70.1815 75 75 69.6492 75 63.2812V49.5117C75 43.1437 70.1815 37.793 64.0137 37.793H60.2051C54.0371 37.793 49.2188 43.1438 49.2188 49.5117V63.2812ZM60.2051 72.0703C55.8558 72.0703 52.1484 68.2395 52.1484 63.2812V49.5117C52.1484 44.5535 55.8558 40.7227 60.2051 40.7227H64.0137C68.3628 40.7227 72.0703 44.5535 72.0703 49.5117V63.2812C72.0703 68.2394 68.3628 72.0703 64.0137 72.0703H60.2051Z" fill="#1F7DBB"/>
<path fill-rule="evenodd" clip-rule="evenodd" d="M62.1094 39.624C62.9184 39.624 63.5742 38.9682 63.5742 38.1592V12.8906C63.5742 10.4636 61.6068 8.4961 59.1797 8.4961H54.4922C53.6832 8.4961 53.0273 9.15193 53.0273 9.96094C53.0273 10.77 53.6832 11.4258 54.4922 11.4258H59.1797C59.9887 11.4258 60.6445 12.0816 60.6445 12.8906V38.1592C60.6445 38.9682 61.3004 39.624 62.1094 39.624Z" fill="#1F7DBB"/>
<path fill-rule="evenodd" clip-rule="evenodd" d="M49.2188 52.2949C49.2188 53.1039 49.8746 53.7598 50.6836 53.7598H73.5352C74.3442 53.7598 75 53.1039 75 52.2949C75 51.4859 74.3442 50.8301 73.5352 50.8301H50.6836C49.8746 50.8301 49.2188 51.4859 49.2188 52.2949Z" fill="#1F7DBB"/>
<path fill-rule="evenodd" clip-rule="evenodd" d="M62.1094 53.7598C62.9184 53.7598 63.5742 53.1039 63.5742 52.2949V39.2578C63.5742 38.4488 62.9184 37.793 62.1094 37.793C61.3004 37.793 60.6445 38.4488 60.6445 39.2578V52.2949C60.6445 53.1039 61.3004 53.7598 62.1094 53.7598Z" fill="#1F7DBB"/>
<path fill-rule="evenodd" clip-rule="evenodd" d="M29.248 18.808C29.248 19.617 29.9039 20.2728 30.7129 20.2728H46.289C47.098 20.2728 47.7539 19.617 47.7539 18.808C47.7539 17.999 47.098 17.3431 46.289 17.3431H30.7129C29.9039 17.3431 29.248 17.999 29.248 18.808Z" fill="#1F7DBB"/>
<path fill-rule="evenodd" clip-rule="evenodd" d="M29.248 10.6049C29.248 11.4139 29.9039 12.0697 30.7129 12.0697H46.289C47.098 12.0697 47.7539 11.4139 47.7539 10.6049C47.7539 9.79585 47.098 9.14002 46.289 9.14002H30.7129C29.9039 9.14002 29.248 9.79585 29.248 10.6049Z" fill="#1F7DBB"/>
<path fill-rule="evenodd" clip-rule="evenodd" d="M29.248 39.8438C29.248 40.6528 29.9039 41.3086 30.7129 41.3086H46.289C47.098 41.3086 47.7539 40.6528 47.7539 39.8438C47.7539 39.0347 47.098 38.3789 46.289 38.3789H30.7129C29.9039 38.3789 29.248 39.0347 29.248 39.8438Z" fill="#1F7DBB"/>
<path fill-rule="evenodd" clip-rule="evenodd" d="M29.248 31.6406C29.248 32.4496 29.9039 33.1055 30.7129 33.1055H46.289C47.098 33.1055 47.7539 32.4496 47.7539 31.6406C47.7539 30.8316 47.098 30.1758 46.289 30.1758H30.7129C29.9039 30.1758 29.248 30.8316 29.248 31.6406Z" fill="#1F7DBB"/>
<path fill-rule="evenodd" clip-rule="evenodd" d="M29.248 60.8795C29.248 61.6885 29.9039 62.3443 30.7129 62.3443H44.8242C45.6332 62.3443 46.289 61.6885 46.289 60.8795C46.289 60.0705 45.6332 59.4146 44.8242 59.4146H30.7129C29.9039 59.4146 29.248 60.0705 29.248 60.8795Z" fill="#1F7DBB"/>
<path fill-rule="evenodd" clip-rule="evenodd" d="M29.248 52.6764C29.248 53.4854 29.9039 54.1412 30.7129 54.1412H44.8242C45.6332 54.1412 46.289 53.4854 46.289 52.6764C46.289 51.8674 45.6332 51.2115 44.8242 51.2115H30.7129C29.9039 51.2115 29.248 51.8674 29.248 52.6764Z" fill="#1F7DBB"/>
</g>
</g>
<defs>
<clipPath id="clip0_229_1714">
<rect width="75" height="75" fill="white"/>
</clipPath>
</defs>
</svg>
