<svg width="75" height="75" viewBox="0 0 75 75" fill="none" xmlns="http://www.w3.org/2000/svg">
<g clip-path="url(#clip0_231_1798)">
<path d="M64.8193 15.1907H1.46484V56.907C1.46484 59.9697 3.94688 62.4517 7.00957 62.4517H55.3424L50.648 47.7072L64.8193 52.2183V15.1907Z" fill="white"/>
<path d="M7.00898 4.46484H59.2758C62.3377 4.46484 64.8199 6.94702 64.8199 10.009V15.1904H1.46484V10.009C1.46484 6.94717 3.94702 4.46484 7.00898 4.46484Z" fill="#FF8760"/>
<path d="M50.6484 47.7072L57.9154 70.5351L60.5243 62.3074L68.7237 70.5067L73.535 65.6953L65.3357 57.496L73.4763 54.9741L50.6484 47.7072Z" fill="#5C90AE"/>
<path d="M15.9856 35.8667C20.0681 35.8667 23.3775 32.5572 23.3775 28.4748C23.3775 24.3924 20.0681 21.0829 15.9856 21.0829C11.9032 21.0829 8.59375 24.3924 8.59375 28.4748C8.59375 32.5572 11.9032 35.8667 15.9856 35.8667Z" fill="#CDE3FF"/>
<path d="M15.9856 56.3921C20.0681 56.3921 23.3775 53.0826 23.3775 49.0002C23.3775 44.9177 20.0681 41.6083 15.9856 41.6083C11.9032 41.6083 8.59375 44.9177 8.59375 49.0002C8.59375 53.0826 11.9032 56.3921 15.9856 56.3921Z" fill="#CDE3FF"/>
<path d="M9.37111 9.26657C9.06466 8.53107 8.19513 8.16882 7.45802 8.47556C6.72106 8.7823 6.35983 9.65022 6.66554 10.3886C6.97037 11.1252 7.84327 11.4849 8.57862 11.1797C9.31822 10.8726 9.67447 10.0063 9.37111 9.26657Z" fill="#1F7DBB"/>
<path d="M14.3825 9.26805C14.08 8.52947 13.2048 8.17073 12.4694 8.47557C11.7319 8.78128 11.3721 9.64905 11.677 10.3872C11.9814 11.1244 12.8531 11.4866 13.5902 11.1797C14.3251 10.8737 14.6899 10.0052 14.3825 9.26805Z" fill="#1F7DBB"/>
<path d="M19.6872 9.26803C19.3845 8.52916 18.5093 8.17188 17.7741 8.47554C17.036 8.78038 16.6771 9.64976 16.9816 10.3872C17.2862 11.1244 18.1577 11.4864 18.8948 11.1796C19.6298 10.8738 19.9945 10.005 19.6872 9.26803Z" fill="#1F7DBB"/>
<path d="M74.5709 64.6595L68.0881 58.1768L73.9099 56.3733C74.5143 56.1861 74.9389 55.6123 74.9413 54.9798C74.9436 54.3473 74.5236 53.7701 73.9207 53.5782L66.2842 51.1473V40.479C66.2842 39.67 65.6282 39.0142 64.8193 39.0142C64.0105 39.0142 63.3545 39.67 63.3545 40.479V50.2147L51.0929 46.3113C49.9799 45.9575 48.8991 47.043 49.2523 48.1516L53.3388 60.9868H7.00972C4.75986 60.9868 2.92969 59.1567 2.92969 56.907V16.6555H63.3545V27.5805C63.3545 28.3895 64.0105 29.0453 64.8193 29.0453C65.6282 29.0453 66.2842 28.3895 66.2842 27.5805L66.2855 10.0091C66.2855 6.14441 63.1414 3.00012 59.2765 3.00012H7.00972C3.14487 3.00012 0.000732422 6.14441 0.000732422 10.0091L0 56.907C0 60.7721 3.14458 63.9167 7.00972 63.9167H54.2714L56.5198 70.9794C56.7111 71.5804 57.2854 72.0001 57.916 72C58.5469 71.9998 59.1212 71.5794 59.3118 70.9778L61.1925 65.0469L67.6879 71.5424C68.2601 72.1145 69.1874 72.1145 69.7597 71.5424L74.5711 66.7311C74.8457 66.4564 75.0001 66.0838 75.0001 65.6953C75.0001 65.3068 74.8456 64.9343 74.5709 64.6595ZM2.93042 10.0091C2.93042 7.75984 4.7603 5.92981 7.00972 5.92981H59.2767C61.5259 5.92981 63.356 7.75984 63.356 10.0091V13.7256H2.93042V10.0091ZM68.7237 68.4351L61.5604 61.2716C60.7969 60.5081 59.4538 60.8383 59.1281 61.8646L57.9127 65.6975L52.9037 49.9627L68.5875 54.9552L64.9022 56.0968C63.8691 56.417 63.5335 57.7654 64.2999 58.5319L71.4634 65.6954L68.7237 68.4351Z" fill="#1F7DBB"/>
<path d="M17.1684 19.6988C16.7683 19.6451 16.3703 19.618 15.9858 19.618C11.1021 19.618 7.12891 23.5913 7.12891 28.4748C7.12891 33.3583 11.1021 37.3315 15.9858 37.3315C20.1808 37.3315 23.8306 34.351 24.6641 30.2445C24.8251 29.4517 24.313 28.6785 23.5199 28.5174C22.7271 28.3567 21.954 28.8685 21.793 29.6616C21.2354 32.4082 18.7932 34.4018 15.9856 34.4018C12.7173 34.4018 10.0584 31.743 10.0584 28.4748C10.0584 25.2066 12.7173 22.5477 15.9856 22.5477C16.2407 22.5477 16.508 22.5662 16.78 22.6025C17.581 22.71 18.3188 22.1468 18.4261 21.3448C18.5333 20.5429 17.9704 19.8058 17.1684 19.6988Z" fill="#1F7DBB"/>
<path d="M15.9858 57.8571C20.8694 57.8571 24.8425 53.8838 24.8425 49.0003C24.8425 44.1167 20.8694 40.1434 15.9858 40.1434C11.1021 40.1434 7.12891 44.1167 7.12891 49.0003C7.12891 53.8838 11.1021 57.8571 15.9858 57.8571ZM15.9858 43.073C19.254 43.073 21.9128 45.7318 21.9128 49.0002C21.9128 52.2684 19.254 54.9272 15.9858 54.9272C12.7174 54.9272 10.0586 52.2684 10.0586 49.0002C10.0586 45.732 12.7174 43.073 15.9858 43.073Z" fill="#1F7DBB"/>
<path d="M53.7119 23.2995H29.8145C29.0056 23.2995 28.3496 23.9553 28.3496 24.7643C28.3496 25.5734 29.0056 26.2292 29.8145 26.2292H53.7119C54.5208 26.2292 55.1768 25.5734 55.1768 24.7643C55.1768 23.9553 54.5208 23.2995 53.7119 23.2995Z" fill="#1F7DBB"/>
<path d="M55.1768 31.8016C55.1768 30.9925 54.5208 30.3367 53.7119 30.3367H29.8145C29.0056 30.3367 28.3496 30.9925 28.3496 31.8016C28.3496 32.6106 29.0056 33.2664 29.8145 33.2664H53.7119C54.5208 33.2664 55.1768 32.6106 55.1768 31.8016Z" fill="#1F7DBB"/>
<path d="M29.8145 47.0405H43.3024C44.1113 47.0405 44.7673 46.3847 44.7673 45.5757C44.7673 44.7667 44.1113 44.1108 43.3024 44.1108H29.8145C29.0056 44.1108 28.3496 44.7667 28.3496 45.5757C28.3496 46.3847 29.0056 47.0405 29.8145 47.0405Z" fill="#1F7DBB"/>
<path d="M29.8145 54.0779H44.7686C45.5775 54.0779 46.2334 53.4221 46.2334 52.613C46.2334 51.804 45.5775 51.1482 44.7686 51.1482H29.8145C29.0056 51.1482 28.3496 51.804 28.3496 52.613C28.3496 53.4221 29.0056 54.0779 29.8145 54.0779Z" fill="#1F7DBB"/>
<path d="M14.8757 26.5778C14.3036 26.0058 13.3763 26.0058 12.804 26.5778C12.232 27.1498 12.232 28.0774 12.804 28.6495L15.0493 30.8948C15.3354 31.1809 15.7103 31.3239 16.0851 31.3239C16.46 31.3239 16.8348 31.1808 17.1209 30.8948L24.2376 23.7782C24.8096 23.2062 24.8096 22.2786 24.2376 21.7066C23.6657 21.1346 22.7384 21.1346 22.1658 21.7066L16.085 27.7875L14.8757 26.5778Z" fill="#1F7DBB"/>
<path d="M66.0374 33.2051C65.6965 32.6837 65.0269 32.4417 64.43 32.6082C63.8386 32.7729 63.4074 33.2987 63.3601 33.9107C63.2549 35.2695 64.9846 36.0041 65.9001 35.0074C66.351 34.5163 66.4069 33.7591 66.0374 33.2051Z" fill="#1F7DBB"/>
</g>
<defs>
<clipPath id="clip0_231_1798">
<rect width="75" height="75" fill="white"/>
</clipPath>
</defs>
</svg>
