<svg width="20" height="20" viewBox="0 0 20 20" fill="none" xmlns="http://www.w3.org/2000/svg">
<path d="M17.2124 16.5735L13.4044 12.6129C14.3835 11.449 14.92 9.98455 14.92 8.45999C14.92 4.89801 12.022 2 8.45999 2C4.89801 2 2 4.89801 2 8.45999C2 12.022 4.89801 14.92 8.45999 14.92C9.79721 14.92 11.0715 14.5167 12.161 13.751L15.998 17.7416C16.1583 17.9082 16.374 18 16.6052 18C16.824 18 17.0316 17.9166 17.1891 17.7649C17.5239 17.4428 17.5346 16.9085 17.2124 16.5735ZM8.45999 3.68522C11.0929 3.68522 13.2348 5.82713 13.2348 8.45999C13.2348 11.0929 11.0929 13.2348 8.45999 13.2348C5.82713 13.2348 3.68522 11.0929 3.68522 8.45999C3.68522 5.82713 5.82713 3.68522 8.45999 3.68522Z" fill="#263238"/>
</svg>
