<svg width="50" height="50" viewBox="0 0 50 50" fill="none" xmlns="http://www.w3.org/2000/svg">
<g clip-path="url(#clip0_227_622)">
<path d="M49.0234 25C49.0234 38.2679 38.2679 49.0234 25 49.0234C11.7321 49.0234 0.976562 38.2679 0.976562 25C0.976562 11.7321 11.7321 0.976562 25 0.976562C38.2679 0.976562 49.0234 11.7321 49.0234 25Z" fill="#CDE3FF"/>
<path d="M25 50C18.3224 50 12.0441 47.3995 7.32231 42.6777C2.60048 37.9559 0 31.6776 0 25C0 18.3224 2.60048 12.0441 7.32231 7.32231C12.0441 2.60048 18.3224 0 25 0C31.6776 0 37.9559 2.60048 42.6777 7.32231C47.3995 12.0441 50 18.3224 50 25C50 31.6776 47.3995 37.9559 42.6777 42.6777C37.9559 47.3995 31.6776 50 25 50ZM25 1.95313C12.2917 1.95313 1.95313 12.2917 1.95313 25C1.95313 37.7083 12.2917 48.0469 25 48.0469C37.7083 48.0469 48.0469 37.7083 48.0469 25C48.0469 12.2917 37.7083 1.95313 25 1.95313Z" fill="#1F7DBB"/>
<path d="M44.3359 25C44.3359 35.6789 35.6789 44.3359 25 44.3359C14.3211 44.3359 5.66406 35.6789 5.66406 25C5.66406 14.3211 14.3211 5.66406 25 5.66406C35.6789 5.66406 44.3359 14.3211 44.3359 25Z" fill="white"/>
<path d="M25 45.3125C13.7997 45.3125 4.6875 36.2003 4.6875 25C4.6875 13.7997 13.7997 4.6875 25 4.6875C29.0077 4.6875 32.8842 5.85327 36.211 8.05893C36.6604 8.35686 36.7832 8.96301 36.4853 9.41238C36.187 9.86214 35.5808 9.98459 35.1315 9.68666C32.1259 7.69386 28.6224 6.64063 25 6.64063C14.8766 6.64063 6.64063 14.8766 6.64063 25C6.64063 35.1234 14.8766 43.3594 25 43.3594C35.1234 43.3594 43.3594 35.1234 43.3594 25C43.3594 21.4108 42.3241 17.9348 40.3652 14.9471C40.0696 14.4962 40.1955 13.8908 40.6464 13.5948C41.0976 13.2996 41.7027 13.4254 41.9987 13.8763C44.1666 17.1829 45.3125 21.0297 45.3125 25C45.3125 36.2003 36.2003 45.3125 25 45.3125Z" fill="#1F7DBB"/>
<path d="M16.4443 19.6034C16.4443 14.7663 20.4734 10.8528 25.3517 11.0417C29.9468 11.2198 33.607 15.0543 33.5807 19.653C33.5594 23.4726 31.0256 26.7079 27.552 27.7878V30.5176H22.4738V25.6329C22.4738 24.2378 23.6152 23.0927 25.0099 23.0938C27.0133 23.0953 28.6289 21.4001 28.495 19.3688C28.3824 17.6575 27.0099 16.2624 25.3002 16.1247C23.2456 15.9596 21.5206 17.5858 21.5225 19.6072L16.4443 19.6034Z" fill="#FF8760"/>
<path d="M27.5391 36.7188C27.5391 38.121 26.4023 39.2578 25 39.2578C23.5977 39.2578 22.4609 38.121 22.4609 36.7188C22.4609 35.3165 23.5977 34.1797 25 34.1797C26.4023 34.1797 27.5391 35.3165 27.5391 36.7188Z" fill="#FF8760"/>
<path d="M27.552 31.4941H22.4738C21.9344 31.4941 21.4973 31.0569 21.4973 30.5175V25.6328C21.4973 24.6971 21.8631 23.8155 22.5276 23.1498C23.1925 22.4838 24.0733 22.1172 25.008 22.1172H25.0129C25.7141 22.1172 26.3648 21.8342 26.8463 21.3203C27.3273 20.8069 27.5668 20.1366 27.5207 19.4328C27.4398 18.201 26.4514 17.1974 25.222 17.0986C24.5113 17.0418 23.8315 17.2752 23.3093 17.7574C22.7935 18.2335 22.4983 18.9075 22.499 19.606C22.4994 19.8654 22.3964 20.1141 22.2133 20.2976C22.0298 20.4807 21.7815 20.5837 21.5225 20.5837H21.5217L16.4436 20.5803C15.9046 20.5799 15.4678 20.1427 15.4678 19.6037C15.4678 16.9876 16.5088 14.545 18.3994 12.7266C20.2884 10.9096 22.7695 9.9632 25.3894 10.0662C27.8659 10.1619 30.1803 11.2095 31.9053 13.0153C33.6295 14.8201 34.5718 17.1795 34.5573 19.6586C34.5458 21.7231 33.8832 23.6862 32.6412 25.3353C31.5875 26.7341 30.146 27.8312 28.5285 28.4771V30.5175C28.5285 31.0569 28.091 31.4941 27.552 31.4941ZM23.4504 29.541H26.5754V27.7878C26.5754 27.3601 26.8535 26.9821 27.2617 26.8551C30.4386 25.8678 32.5855 22.9713 32.6042 19.6472C32.6274 15.5971 29.3567 12.1742 25.3139 12.0174C23.233 11.9377 21.2562 12.6884 19.7536 14.1338C18.4875 15.3518 17.7001 16.9208 17.4827 18.6275L20.6542 18.6298C20.8518 17.752 21.3127 16.9426 21.9837 16.3227C22.898 15.4781 24.1355 15.0516 25.3787 15.1516C27.5665 15.3274 29.3254 17.1131 29.4696 19.3046C29.5516 20.5536 29.1263 21.7437 28.2714 22.6558C27.4291 23.5546 26.2416 24.0699 25.0125 24.0699C25.0106 24.0699 25.0095 24.0699 25.0076 24.0699C24.5952 24.0699 24.2053 24.2332 23.9097 24.5292C23.6133 24.8264 23.45 25.2182 23.45 25.6324V29.541H23.4504Z" fill="#1F7DBB"/>
<path d="M25 40.2344C23.0614 40.2344 21.4844 38.6574 21.4844 36.7188C21.4844 34.7801 23.0614 33.2031 25 33.2031C26.9386 33.2031 28.5156 34.7801 28.5156 36.7188C28.5156 38.6574 26.9386 40.2344 25 40.2344ZM25 35.1563C24.1386 35.1563 23.4375 35.8574 23.4375 36.7188C23.4375 37.5801 24.1386 38.2812 25 38.2812C25.8614 38.2812 26.5625 37.5801 26.5625 36.7188C26.5625 35.8574 25.8614 35.1563 25 35.1563Z" fill="#1F7DBB"/>
<path d="M38.7073 12.3386C38.4559 12.3386 38.2049 12.2421 38.0138 12.0499L37.9821 12.0182C37.601 11.6367 37.601 11.0184 37.9821 10.6369C38.3636 10.2558 38.9819 10.2558 39.3634 10.6369L39.4008 10.6743C39.7807 11.0573 39.7781 11.6756 39.3951 12.0556C39.2047 12.2444 38.956 12.3386 38.7073 12.3386Z" fill="#1F7DBB"/>
<path d="M12.3709 33.0833C12.0298 33.0833 11.6983 32.904 11.519 32.5859C10.177 30.2032 9.49153 27.491 9.53731 24.7417C9.54608 24.2077 9.98172 23.7812 10.5135 23.7812H10.5299C11.0693 23.7903 11.4988 24.2348 11.4901 24.7742C11.45 27.1767 12.0489 29.5467 13.2208 31.6273C13.4855 32.0972 13.3192 32.6927 12.8492 32.9574C12.6978 33.0425 12.5334 33.0833 12.3709 33.0833Z" fill="#1F7DBB"/>
<path d="M14.7554 36.2213C14.5032 36.2213 14.2518 36.1244 14.0611 35.9318C13.6823 35.5572 13.6735 34.9461 14.0439 34.5608C14.4178 34.1721 15.0361 34.1599 15.4249 34.5337C15.4367 34.5452 15.4477 34.5562 15.4592 34.568C15.833 34.9568 15.8208 35.5751 15.4321 35.949C15.2429 36.1309 14.9988 36.2213 14.7554 36.2213Z" fill="#1F7DBB"/>
</g>
<defs>
<clipPath id="clip0_227_622">
<rect width="50" height="50" fill="white"/>
</clipPath>
</defs>
</svg>
