<svg width="50" height="50" viewBox="0 0 50 50" fill="none" xmlns="http://www.w3.org/2000/svg">
<g clip-path="url(#clip0_227_741)">
<mask id="mask0_227_741" style="mask-type:luminance" maskUnits="userSpaceOnUse" x="0" y="0" width="50" height="50">
<path d="M0 3.8147e-06H50V50H0V3.8147e-06Z" fill="white"/>
</mask>
<g mask="url(#mask0_227_741)">
<path d="M34.9612 49.0234H2.34355C1.58857 49.0234 0.976562 48.4114 0.976562 47.6565V2.34346C0.976562 1.58857 1.58857 0.976562 2.34355 0.976562H34.9612C35.7162 0.976562 36.3281 1.58857 36.3281 2.34346V47.6565C36.3281 48.4114 35.7162 49.0234 34.9612 49.0234Z" fill="white"/>
<path fill-rule="evenodd" clip-rule="evenodd" d="M36.3281 28.5154C36.8675 28.5154 37.3047 28.0782 37.3047 27.5388V2.34351C37.3047 1.04923 36.2555 -4.95911e-05 34.9612 -4.95911e-05H2.34346C1.04919 -4.95911e-05 0 1.04923 0 2.34351V20.6177C0 21.1571 0.437222 21.5943 0.976562 21.5943C1.5159 21.5943 1.95312 21.1571 1.95312 20.6177V2.34351C1.95312 2.12782 2.12796 1.95308 2.34346 1.95308H34.9612C35.1767 1.95308 35.3516 2.12782 35.3516 2.34351V27.5388C35.3516 28.0782 35.7888 28.5154 36.3281 28.5154Z" fill="#1F7DBB"/>
<path fill-rule="evenodd" clip-rule="evenodd" d="M0 47.6565C0 48.9508 1.04928 49.9999 2.34346 49.9999H34.9612C36.2554 49.9999 37.3047 48.9508 37.3047 47.6565C37.3047 47.1171 36.8675 46.6799 36.3281 46.6799C35.7888 46.6799 35.3516 47.1171 35.3516 47.6565C35.3516 47.8721 35.1768 48.0468 34.9612 48.0468H2.34346C2.12787 48.0468 1.95312 47.8721 1.95312 47.6565V29.4068C1.95312 28.8674 1.5159 28.4302 0.976562 28.4302C0.437222 28.4302 0 28.8674 0 29.4068V47.6565Z" fill="#1F7DBB"/>
<path d="M6.44531 14.8824H14.2578V7.06995H6.44531V14.8824Z" fill="#CDE3FF"/>
<path fill-rule="evenodd" clip-rule="evenodd" d="M5.46875 14.8824C5.46875 15.4217 5.90597 15.8589 6.44531 15.8589H14.2578C14.7972 15.8589 15.2344 15.4217 15.2344 14.8824C15.2344 14.343 14.7972 13.9058 14.2578 13.9058H7.42187V7.06989C7.42187 6.53055 6.98465 6.09332 6.44531 6.09332C5.90597 6.09332 5.46875 6.53055 5.46875 7.06989V14.8824Z" fill="#1F7DBB"/>
<path fill-rule="evenodd" clip-rule="evenodd" d="M11.1943 11.1661C11.5757 11.5475 12.194 11.5475 12.5754 11.1661L16.4232 7.31827C16.8046 6.9369 16.8046 6.31857 16.4232 5.9372C16.0419 5.55583 15.4236 5.55583 15.0422 5.9372L11.8849 9.09452L10.6515 7.86113C10.2701 7.47975 9.65177 7.47975 9.2704 7.86113C8.88903 8.2425 8.88903 8.86082 9.2704 9.24219L11.1943 11.1661Z" fill="#1F7DBB"/>
<path d="M14.2578 35.3387H6.44531V43.1512H14.2578V35.3387Z" fill="#EFF6FF"/>
<path fill-rule="evenodd" clip-rule="evenodd" d="M5.46875 43.1512C5.46875 43.6905 5.90597 44.1277 6.44531 44.1277H14.2578C14.7972 44.1277 15.2344 43.6905 15.2344 43.1512V35.3387C15.2344 34.7993 14.7972 34.3621 14.2578 34.3621H6.44531C5.90597 34.3621 5.46875 34.7993 5.46875 35.3387V43.1512ZM7.42187 42.1746V36.3152H13.2812V42.1746H7.42187Z" fill="#1F7DBB"/>
<path d="M14.2578 21.0938H6.44531V28.9062H14.2578V21.0938Z" fill="#EFF6FF"/>
<path fill-rule="evenodd" clip-rule="evenodd" d="M5.46875 28.9063C5.46875 29.4456 5.90597 29.8828 6.44531 29.8828H14.2578C14.7972 29.8828 15.2344 29.4456 15.2344 28.9063V21.0938C15.2344 20.5544 14.7972 20.1172 14.2578 20.1172H6.44531C5.90597 20.1172 5.46875 20.5544 5.46875 21.0938V28.9063ZM7.42187 27.9297V22.0703H13.2812V27.9297H7.42187Z" fill="#1F7DBB"/>
<path d="M42.6758 49.0234H40.1367C36.631 49.0234 33.7891 45.9629 33.7891 42.1875V33.0078C33.7891 29.2324 36.631 26.1719 40.1367 26.1719H41.4062H42.6758C46.1814 26.1719 49.0234 29.2324 49.0234 33.0078V42.1875C49.0234 45.9629 46.1814 49.0234 42.6758 49.0234Z" fill="#49B1F7"/>
<path fill-rule="evenodd" clip-rule="evenodd" d="M32.8125 42.1875C32.8125 46.4328 36.0247 50 40.1367 50H42.6758C46.7877 50 50 46.4328 50 42.1875V33.0078C50 28.7625 46.7877 25.1953 42.6758 25.1953H40.1367C36.0247 25.1953 32.8125 28.7625 32.8125 33.0078V42.1875ZM40.1367 48.0469C37.2372 48.0469 34.7656 45.493 34.7656 42.1875V33.0078C34.7656 29.7023 37.2372 27.1484 40.1367 27.1484H42.6758C45.5752 27.1484 48.0469 29.7024 48.0469 33.0078V42.1875C48.0469 45.493 45.5752 48.0469 42.6758 48.0469H40.1367Z" fill="#1F7DBB"/>
<path fill-rule="evenodd" clip-rule="evenodd" d="M41.4062 26.416C41.9456 26.416 42.3828 25.9788 42.3828 25.4395V8.59375C42.3828 6.9757 41.0712 5.66406 39.4531 5.66406H36.3281C35.7888 5.66406 35.3516 6.10128 35.3516 6.64062C35.3516 7.17997 35.7888 7.61719 36.3281 7.61719H39.4531C39.9925 7.61719 40.4297 8.05438 40.4297 8.59375V25.4395C40.4297 25.9788 40.8669 26.416 41.4062 26.416Z" fill="#1F7DBB"/>
<path fill-rule="evenodd" clip-rule="evenodd" d="M32.8125 34.8633C32.8125 35.4026 33.2497 35.8398 33.7891 35.8398H49.0234C49.5628 35.8398 50 35.4026 50 34.8633C50 34.3239 49.5628 33.8867 49.0234 33.8867H33.7891C33.2497 33.8867 32.8125 34.3239 32.8125 34.8633Z" fill="#1F7DBB"/>
<path fill-rule="evenodd" clip-rule="evenodd" d="M41.4062 35.8398C41.9456 35.8398 42.3828 35.4026 42.3828 34.8633V26.1719C42.3828 25.6325 41.9456 25.1953 41.4062 25.1953C40.8669 25.1953 40.4297 25.6325 40.4297 26.1719V34.8633C40.4297 35.4026 40.8669 35.8398 41.4062 35.8398Z" fill="#1F7DBB"/>
<path fill-rule="evenodd" clip-rule="evenodd" d="M19.499 12.5386C19.499 13.078 19.9362 13.5152 20.4756 13.5152H30.8597C31.399 13.5152 31.8362 13.078 31.8362 12.5386C31.8362 11.9993 31.399 11.5621 30.8597 11.5621H20.4756C19.9362 11.5621 19.499 11.9993 19.499 12.5386Z" fill="#1F7DBB"/>
<path fill-rule="evenodd" clip-rule="evenodd" d="M19.499 7.06989C19.499 7.60923 19.9362 8.04645 20.4756 8.04645H30.8597C31.399 8.04645 31.8362 7.60923 31.8362 7.06989C31.8362 6.53054 31.399 6.09332 30.8597 6.09332H20.4756C19.9362 6.09332 19.499 6.53054 19.499 7.06989Z" fill="#1F7DBB"/>
<path fill-rule="evenodd" clip-rule="evenodd" d="M19.499 26.5625C19.499 27.1018 19.9362 27.5391 20.4756 27.5391H30.8597C31.399 27.5391 31.8362 27.1018 31.8362 26.5625C31.8362 26.0232 31.399 25.5859 30.8597 25.5859H20.4756C19.9362 25.5859 19.499 26.0232 19.499 26.5625Z" fill="#1F7DBB"/>
<path fill-rule="evenodd" clip-rule="evenodd" d="M19.499 21.0938C19.499 21.6331 19.9362 22.0703 20.4756 22.0703H30.8597C31.399 22.0703 31.8362 21.6331 31.8362 21.0938C31.8362 20.5544 31.399 20.1172 30.8597 20.1172H20.4756C19.9362 20.1172 19.499 20.5544 19.499 21.0938Z" fill="#1F7DBB"/>
<path fill-rule="evenodd" clip-rule="evenodd" d="M19.499 40.5863C19.499 41.1256 19.9362 41.5629 20.4756 41.5629H29.8831C30.4224 41.5629 30.8597 41.1256 30.8597 40.5863C30.8597 40.047 30.4224 39.6097 29.8831 39.6097H20.4756C19.9362 39.6097 19.499 40.047 19.499 40.5863Z" fill="#1F7DBB"/>
<path fill-rule="evenodd" clip-rule="evenodd" d="M19.499 35.1176C19.499 35.6569 19.9362 36.0941 20.4756 36.0941H29.8831C30.4224 36.0941 30.8597 35.6569 30.8597 35.1176C30.8597 34.5782 30.4224 34.141 29.8831 34.141H20.4756C19.9362 34.141 19.499 34.5782 19.499 35.1176Z" fill="#1F7DBB"/>
</g>
</g>
<defs>
<clipPath id="clip0_227_741">
<rect width="50" height="50" fill="white"/>
</clipPath>
</defs>
</svg>
