<svg width="75" height="75" viewBox="0 0 75 75" fill="none" xmlns="http://www.w3.org/2000/svg">
<mask id="mask0_226_34" style="mask-type:luminance" maskUnits="userSpaceOnUse" x="0" y="0" width="75" height="75">
<path d="M0 7.62939e-06H75V75H0V7.62939e-06Z" fill="white"/>
</mask>
<g mask="url(#mask0_226_34)">
<path d="M1.46484 12.5977V62.4023H28.0195C30.2388 62.4023 32.2676 63.6562 33.2607 65.6411C34.0635 67.2466 35.7041 68.2617 37.5 68.2617C39.2959 68.2617 40.9365 67.2466 41.7393 65.6411C42.7324 63.6562 44.7612 62.4023 46.9805 62.4023H73.5352V12.5977H1.46484Z" fill="#CDE3FF"/>
<path d="M7.32422 6.73829V56.543H31.6406C34.8765 56.543 37.5 59.1665 37.5 62.4023C37.5 59.1665 40.1235 56.543 43.3594 56.543H67.6758V6.73829H7.32422Z" fill="white"/>
<path d="M61.8164 27.2461H43.3594V18.457H61.8164V27.2461Z" fill="#FFC107"/>
<path d="M24.9023 6.73828V18.457L20.5078 15.5273L16.1133 18.457V6.73828H24.9023Z" fill="#CDE3FF"/>
<path d="M43.3594 34.5703C44.168 34.5703 44.8242 35.2266 44.8242 36.0352C44.8242 36.8438 44.168 37.5 43.3594 37.5C42.5508 37.5 41.8945 36.8438 41.8945 36.0352C41.8945 35.2266 42.5508 34.5703 43.3594 34.5703Z" fill="#1F7DBB"/>
<path d="M43.3594 43.3594C44.168 43.3594 44.8242 44.0156 44.8242 44.8242C44.8242 45.6328 44.168 46.2891 43.3594 46.2891C42.5508 46.2891 41.8945 45.6328 41.8945 44.8242C41.8945 44.0156 42.5508 43.3594 43.3594 43.3594Z" fill="#1F7DBB"/>
<path d="M13.1836 25.7813C13.9922 25.7813 14.6484 26.4375 14.6484 27.2461C14.6484 28.0547 13.9922 28.7109 13.1836 28.7109C12.375 28.7109 11.7188 28.0547 11.7188 27.2461C11.7188 26.4375 12.375 25.7813 13.1836 25.7813Z" fill="#1F7DBB"/>
<path d="M13.1836 34.5703C13.9922 34.5703 14.6484 35.2266 14.6484 36.0352C14.6484 36.8438 13.9922 37.5 13.1836 37.5C12.375 37.5 11.7188 36.8438 11.7188 36.0352C11.7188 35.2266 12.375 34.5703 13.1836 34.5703Z" fill="#1F7DBB"/>
<path d="M13.1836 43.3594C13.9922 43.3594 14.6484 44.0156 14.6484 44.8242C14.6484 45.6328 13.9922 46.2891 13.1836 46.2891C12.375 46.2891 11.7188 45.6328 11.7188 44.8242C11.7188 44.0156 12.375 43.3594 13.1836 43.3594Z" fill="#1F7DBB"/>
<path fill-rule="evenodd" clip-rule="evenodd" d="M37.5 63.8672C38.309 63.8672 38.9648 63.2114 38.9648 62.4023C38.9648 58.3575 35.6855 55.0781 31.6406 55.0781H8.78906V8.20313H16.1133C16.9223 8.20313 17.5781 7.5473 17.5781 6.73829C17.5781 5.92928 16.9223 5.27345 16.1133 5.27345H7.32422C6.51521 5.27345 5.85938 5.92928 5.85938 6.73829V56.543C5.85938 57.352 6.51521 58.0078 7.32422 58.0078H31.6406C34.0674 58.0078 36.0352 59.9755 36.0352 62.4023C36.0352 63.2114 36.691 63.8672 37.5 63.8672Z" fill="#1F7DBB"/>
<path fill-rule="evenodd" clip-rule="evenodd" d="M37.5 14.0625C38.309 14.0625 38.9648 13.4067 38.9648 12.5977C38.9648 8.55281 35.6855 5.27344 31.6406 5.27344H24.9023C24.0933 5.27344 23.4375 5.92927 23.4375 6.73828C23.4375 7.54729 24.0933 8.20312 24.9023 8.20312H31.6406C34.0675 8.20312 36.0352 10.1708 36.0352 12.5977C36.0352 13.4067 36.691 14.0625 37.5 14.0625Z" fill="#1F7DBB"/>
<path fill-rule="evenodd" clip-rule="evenodd" d="M37.5 63.8672C38.309 63.8672 38.9648 63.2114 38.9648 62.4023C38.9648 59.9755 40.9325 58.0078 43.3594 58.0078H67.6758C68.4848 58.0078 69.1406 57.352 69.1406 56.543V6.73829C69.1406 5.92928 68.4848 5.27345 67.6758 5.27345H43.3594C39.3145 5.27345 36.0352 8.55281 36.0352 12.5977V62.4023C36.0352 63.2114 36.691 63.8672 37.5 63.8672ZM38.9648 56.5426V12.5977C38.9648 10.1708 40.9325 8.20313 43.3594 8.20313H66.2109V55.0781H43.3594C41.7106 55.0781 40.189 55.623 38.9648 56.5426Z" fill="#1F7DBB"/>
<path fill-rule="evenodd" clip-rule="evenodd" d="M37.5 66.7969C36.2594 66.7969 35.1258 66.0957 34.5709 64.986L34.5707 64.9856C33.3295 62.5049 30.7937 60.9375 28.0195 60.9375H2.92969V14.0625H7.32422C8.13323 14.0625 8.78906 13.4067 8.78906 12.5977C8.78906 11.7887 8.13323 11.1328 7.32422 11.1328H1.46484C0.655833 11.1328 0 11.7887 0 12.5977V62.4023C0 63.2114 0.655833 63.8672 1.46484 63.8672H28.0195C29.6837 63.8672 31.2054 64.8074 31.9505 66.2962C33.0012 68.3975 35.1488 69.7266 37.5 69.7266C39.8512 69.7266 41.9988 68.3975 43.0495 66.2962C43.7946 64.8074 45.3163 63.8672 46.9805 63.8672H73.5352C74.3442 63.8672 75 63.2114 75 62.4023V12.5977C75 11.7887 74.3442 11.1328 73.5352 11.1328H67.6758C66.8668 11.1328 66.2109 11.7887 66.2109 12.5977C66.2109 13.4067 66.8668 14.0625 67.6758 14.0625H72.0703V60.9375H46.9805C44.2063 60.9375 41.6705 62.5049 40.4293 64.9856L40.4291 64.986C39.8742 66.0957 38.7406 66.7969 37.5 66.7969Z" fill="#1F7DBB"/>
<path fill-rule="evenodd" clip-rule="evenodd" d="M15.4221 19.7485C15.8984 20.0035 16.4763 19.9755 16.9258 19.6759L20.5078 17.2879L24.0898 19.6759C24.5393 19.9755 25.1172 20.0035 25.5935 19.7485C26.0698 19.4936 26.3672 18.9973 26.3672 18.457V6.73828C26.3672 5.92927 25.7114 5.27344 24.9023 5.27344H16.1133C15.3043 5.27344 14.6484 5.92927 14.6484 6.73828V18.457C14.6484 18.9973 14.9458 19.4936 15.4221 19.7485ZM17.5781 15.7199V8.20312H23.4375V15.7199L21.3204 14.3085C20.8283 13.9805 20.1873 13.9805 19.6953 14.3085L17.5781 15.7199Z" fill="#1F7DBB"/>
<path fill-rule="evenodd" clip-rule="evenodd" d="M41.8945 27.2461C41.8945 28.0551 42.5504 28.7109 43.3594 28.7109H61.8164C62.6254 28.7109 63.2812 28.0551 63.2812 27.2461V18.457C63.2812 17.648 62.6254 16.9922 61.8164 16.9922H43.3594C42.5504 16.9922 41.8945 17.648 41.8945 18.457V27.2461ZM44.8242 25.7813V19.9219H60.3516V25.7813H44.8242Z" fill="#1F7DBB"/>
<path fill-rule="evenodd" clip-rule="evenodd" d="M17.5781 27.2461C17.5781 28.0551 18.234 28.7109 19.043 28.7109H31.6406C32.4496 28.7109 33.1055 28.0551 33.1055 27.2461C33.1055 26.4371 32.4496 25.7813 31.6406 25.7813H19.043C18.234 25.7813 17.5781 26.4371 17.5781 27.2461Z" fill="#1F7DBB"/>
<path fill-rule="evenodd" clip-rule="evenodd" d="M17.5781 36.0352C17.5781 36.8442 18.234 37.5 19.043 37.5H31.6406C32.4496 37.5 33.1055 36.8442 33.1055 36.0352C33.1055 35.2261 32.4496 34.5703 31.6406 34.5703H19.043C18.234 34.5703 17.5781 35.2261 17.5781 36.0352Z" fill="#1F7DBB"/>
<path fill-rule="evenodd" clip-rule="evenodd" d="M17.5781 44.8242C17.5781 45.6332 18.234 46.2891 19.043 46.2891H31.6406C32.4496 46.2891 33.1055 45.6332 33.1055 44.8242C33.1055 44.0152 32.4496 43.3594 31.6406 43.3594H19.043C18.234 43.3594 17.5781 44.0152 17.5781 44.8242Z" fill="#1F7DBB"/>
<path fill-rule="evenodd" clip-rule="evenodd" d="M47.7539 36.0352C47.7539 36.8442 48.4097 37.5 49.2187 37.5H61.8164C62.6254 37.5 63.2812 36.8442 63.2812 36.0352C63.2812 35.2261 62.6254 34.5703 61.8164 34.5703H49.2187C48.4097 34.5703 47.7539 35.2261 47.7539 36.0352Z" fill="#1F7DBB"/>
<path fill-rule="evenodd" clip-rule="evenodd" d="M47.7539 44.8242C47.7539 45.6332 48.4097 46.2891 49.2187 46.2891H61.8164C62.6254 46.2891 63.2812 45.6332 63.2812 44.8242C63.2812 44.0152 62.6254 43.3594 61.8164 43.3594H49.2187C48.4097 43.3594 47.7539 44.0152 47.7539 44.8242Z" fill="#1F7DBB"/>
</g>
</svg>
