<svg width="50" height="50" viewBox="0 0 50 50" fill="none" xmlns="http://www.w3.org/2000/svg">
<g clip-path="url(#clip0_227_547)">
<path d="M37.0097 10.7408V39.2572C37.0097 40.9667 35.6238 42.3524 33.9145 42.3524H16.0864C14.377 42.3524 12.9912 40.9666 12.9912 39.2572V35.6835H21.9047C21.9494 35.6835 21.9931 35.6825 22.0377 35.6806C23.6866 35.611 25.0009 34.253 25.0009 32.5883V7.64551H33.9144C35.6238 7.64551 37.0097 9.03135 37.0097 10.7408Z" fill="white"/>
<path d="M30.6296 13.9979H25.001V23.7483H30.6296V13.9979Z" fill="#FFC107"/>
<path fill-rule="evenodd" clip-rule="evenodd" d="M24.0244 30.2177C24.0244 29.6783 24.4616 29.2411 25.001 29.2411H30.6297C31.169 29.2411 31.6062 29.6783 31.6062 30.2177C31.6062 30.757 31.169 31.1942 30.6297 31.1942H25.001C24.4616 31.1942 24.0244 30.757 24.0244 30.2177Z" fill="#1F7DBB"/>
<path fill-rule="evenodd" clip-rule="evenodd" d="M18.3945 35.6807C18.3945 35.1413 18.8318 34.7041 19.3711 34.7041H30.6301C31.1694 34.7041 31.6066 35.1413 31.6066 35.6807C31.6066 36.22 31.1694 36.6572 30.6301 36.6572H19.3711C18.8318 36.6572 18.3945 36.22 18.3945 35.6807Z" fill="#1F7DBB"/>
<path fill-rule="evenodd" clip-rule="evenodd" d="M18.3945 35.6805C18.3945 35.1411 18.8318 34.7039 19.3711 34.7039H22.0375C22.5768 34.7039 23.0141 35.1411 23.0141 35.6805C23.0141 36.2198 22.5768 36.657 22.0375 36.657H19.3711C18.8318 36.657 18.3945 36.2198 18.3945 35.6805Z" fill="#1F7DBB"/>
<path d="M49.0193 17.4118V45.9282C49.0193 47.6377 47.6335 49.0235 45.9241 49.0235H28.0962C26.3867 49.0235 25.001 47.6376 25.001 45.9282V42.3526H33.9145C33.9412 42.3526 33.9681 42.3526 33.9938 42.3516C35.6665 42.3089 37.0097 40.94 37.0097 39.2573V14.3165H45.9241C47.6336 14.3165 49.0193 15.7024 49.0193 17.4118Z" fill="white"/>
<path d="M42.6395 25.5441C42.6395 26.8902 42.0935 28.1092 41.2109 28.9908C40.3294 29.8733 39.1104 30.4193 37.7643 30.4193H37.0098V20.6689H37.7643C40.4565 20.6689 42.6395 22.8518 42.6395 25.5441Z" fill="#FF8760"/>
<path fill-rule="evenodd" clip-rule="evenodd" d="M36.0332 36.8887C36.0332 36.3493 36.4704 35.9121 37.0098 35.9121H42.6394C43.1787 35.9121 43.6159 36.3493 43.6159 36.8887C43.6159 37.428 43.1787 37.8652 42.6394 37.8652H37.0098C36.4704 37.8652 36.0332 37.428 36.0332 36.8887Z" fill="#1F7DBB"/>
<path fill-rule="evenodd" clip-rule="evenodd" d="M30.4033 42.3516C30.4033 41.8122 30.8405 41.375 31.3799 41.375H42.639C43.1783 41.375 43.6155 41.8122 43.6155 42.3516C43.6155 42.8909 43.1783 43.3281 42.639 43.3281H31.3799C30.8405 43.3281 30.4033 42.8909 30.4033 42.3516Z" fill="#1F7DBB"/>
<path fill-rule="evenodd" clip-rule="evenodd" d="M24.0243 7.64551C24.0243 7.10617 24.4615 6.66895 25.0009 6.66895H33.9144C36.1632 6.66895 37.9862 8.49201 37.9862 10.7408V39.2572C37.9862 41.5061 36.1631 43.329 33.9145 43.329H16.0864C13.8376 43.329 12.0146 41.5059 12.0146 39.2572V35.6835C12.0146 35.1442 12.4519 34.7069 12.9912 34.7069H21.9047C21.9349 34.7069 21.9643 34.7063 21.995 34.7049L21.9966 34.7049C23.1249 34.6573 24.0243 33.7274 24.0243 32.5883V7.64551ZM25.9774 8.62207V32.5883C25.9774 34.7781 24.2492 36.5639 22.0804 36.6562C22.0219 36.6588 21.964 36.6601 21.9047 36.6601H13.9678V39.2572C13.9678 40.4273 14.9163 41.3759 16.0864 41.3759H33.9145C35.0845 41.3759 36.0331 40.4273 36.0331 39.2572V10.7408C36.0331 9.57069 35.0845 8.62207 33.9144 8.62207H25.9774Z" fill="#1F7DBB"/>
<path fill-rule="evenodd" clip-rule="evenodd" d="M36.0331 14.3165C36.0331 13.7772 36.4703 13.34 37.0097 13.34H45.9241C48.173 13.34 49.9959 15.1631 49.9959 17.4118V45.9282C49.9959 48.1771 48.1728 50 45.9241 50H28.0962C25.8474 50 24.0244 48.1769 24.0244 45.9282V42.3526C24.0244 41.8132 24.4616 41.376 25.001 41.376H33.9145C33.9448 41.376 33.9528 41.3759 33.9569 41.3757C33.9609 41.3756 33.9649 41.3754 33.9689 41.3753C35.1138 41.3461 36.0331 40.4086 36.0331 39.2573V14.3165ZM37.9862 15.2931V39.2573C37.9862 41.4695 36.2221 43.2687 34.0242 43.3277C33.9791 43.3292 33.9365 43.3291 33.9145 43.3291H25.9775V45.9282C25.9775 47.0983 26.9261 48.0469 28.0962 48.0469H45.9241C47.0942 48.0469 48.0428 47.0984 48.0428 45.9282V17.4118C48.0428 16.2417 47.0942 15.2931 45.9241 15.2931H37.9862Z" fill="#1F7DBB"/>
<path d="M0.981445 22.4864V32.5884C0.981445 34.2979 2.36729 35.6838 4.07686 35.6838H21.905C23.6146 35.6838 25.0004 34.2979 25.0004 32.5884V4.07197C25.0003 2.3624 23.6145 0.976562 21.9049 0.976562H4.07686C2.36729 0.976562 0.981445 2.3624 0.981445 4.07197V13.8928V22.4864Z" fill="white"/>
<path fill-rule="evenodd" clip-rule="evenodd" d="M6.47852 23.5486C6.47852 23.0093 6.91574 22.5721 7.45508 22.5721H18.7142C19.2535 22.5721 19.6907 23.0093 19.6907 23.5486C19.6907 24.088 19.2535 24.5252 18.7142 24.5252H7.45508C6.91574 24.5252 6.47852 24.088 6.47852 23.5486Z" fill="#1F7DBB"/>
<path fill-rule="evenodd" clip-rule="evenodd" d="M6.47852 29.012C6.47852 28.4727 6.91574 28.0355 7.45508 28.0355H18.7142C19.2535 28.0355 19.6907 28.4727 19.6907 29.012C19.6907 29.5514 19.2535 29.9886 18.7142 29.9886H7.45508C6.91574 29.9886 6.47852 29.5514 6.47852 29.012Z" fill="#1F7DBB"/>
<path d="M13.0847 7.3291L7.45508 17.0798H18.7142L13.0847 7.3291Z" fill="#CDE3FF"/>
<path fill-rule="evenodd" clip-rule="evenodd" d="M24.0244 13.9979C24.0244 13.4585 24.4616 13.0213 25.001 13.0213H30.6296C31.1689 13.0213 31.6062 13.4585 31.6062 13.9979V23.7483C31.6062 24.2876 31.1689 24.7248 30.6296 24.7248H25.001C24.4616 24.7248 24.0244 24.2876 24.0244 23.7483V13.9979ZM25.9775 14.9744V22.7717H29.653V14.9744H25.9775Z" fill="#1F7DBB"/>
<path fill-rule="evenodd" clip-rule="evenodd" d="M36.0332 20.6688C36.0332 20.1295 36.4704 19.6923 37.0098 19.6923H37.7643C40.9959 19.6923 43.616 22.3124 43.616 25.544C43.616 27.1594 42.9597 28.6239 41.9015 29.6812C40.8442 30.7395 39.3796 31.3958 37.7643 31.3958H37.0098C36.4704 31.3958 36.0332 30.9586 36.0332 30.4192V20.6688ZM37.9863 21.6516V29.4364C38.9744 29.381 39.8631 28.9582 40.52 28.3005L40.5208 28.2998C41.2273 27.594 41.6629 26.6206 41.6629 25.544C41.6629 23.4656 40.036 21.7667 37.9863 21.6516Z" fill="#1F7DBB"/>
<path fill-rule="evenodd" clip-rule="evenodd" d="M0.00488281 4.07197C0.00488281 1.82306 1.82794 0 4.07686 0H21.9049C24.1538 0 25.9768 1.82306 25.977 4.07192V32.5884C25.977 34.8373 24.1539 36.6604 21.905 36.6604H4.07686C1.82794 36.6604 0.00488281 34.8373 0.00488281 32.5884V22.4864C0.00488281 21.9471 0.442105 21.5099 0.981445 21.5099C1.52079 21.5099 1.95801 21.9471 1.95801 22.4864V32.5884C1.95801 33.7586 2.90663 34.7072 4.07686 34.7072H21.905C23.0752 34.7072 24.0238 33.7586 24.0238 32.5884V4.07203C24.0238 4.07201 24.0238 4.07205 24.0238 4.07203C24.0237 2.90177 23.0751 1.95312 21.9049 1.95312H4.07686C2.90663 1.95312 1.95801 2.90174 1.95801 4.07197V13.8928C1.95801 14.4321 1.52079 14.8693 0.981445 14.8693C0.442105 14.8693 0.00488281 14.4321 0.00488281 13.8928V4.07197Z" fill="#1F7DBB"/>
<path fill-rule="evenodd" clip-rule="evenodd" d="M13.0847 6.35254C13.4336 6.35254 13.756 6.53867 13.9304 6.84082L19.5599 16.5915C19.7343 16.8937 19.7343 17.2659 19.5599 17.5681C19.3854 17.8702 19.0631 18.0563 18.7142 18.0563H7.45508C7.10619 18.0563 6.7838 17.8702 6.60935 17.5681C6.4349 17.2659 6.4349 16.8937 6.60935 16.5915L12.2389 6.84082C12.4134 6.53867 12.7358 6.35254 13.0847 6.35254ZM9.14654 16.1032H17.0227L13.0847 9.28223L9.14654 16.1032Z" fill="#1F7DBB"/>
<path fill-rule="evenodd" clip-rule="evenodd" d="M6.47852 23.5486C6.47852 23.0093 6.91574 22.5721 7.45508 22.5721H18.7142C19.2535 22.5721 19.6907 23.0093 19.6907 23.5486C19.6907 24.088 19.2535 24.5252 18.7142 24.5252H7.45508C6.91574 24.5252 6.47852 24.088 6.47852 23.5486Z" fill="#1F7DBB"/>
<path fill-rule="evenodd" clip-rule="evenodd" d="M6.47852 29.012C6.47852 28.4727 6.91574 28.0355 7.45508 28.0355H18.7142C19.2535 28.0355 19.6907 28.4727 19.6907 29.012C19.6907 29.5514 19.2535 29.9886 18.7142 29.9886H7.45508C6.91574 29.9886 6.47852 29.5514 6.47852 29.012Z" fill="#1F7DBB"/>
</g>
<defs>
<clipPath id="clip0_227_547">
<rect width="50" height="50" fill="white"/>
</clipPath>
</defs>
</svg>
