<svg width="75" height="75" viewBox="0 0 75 75" fill="none" xmlns="http://www.w3.org/2000/svg">
<path d="M55.8105 1.46484H64.5996C65.4086 1.46484 66.0645 2.12065 66.0645 2.92969V72.0703C66.0645 72.8793 65.4086 73.5352 64.5996 73.5352H10.4004C9.59136 73.5352 8.93555 72.8793 8.93555 72.0703V2.92969C8.93555 2.12065 9.59136 1.46484 10.4004 1.46484H44.0918H55.8105Z" fill="white"/>
<path d="M22.8516 19.1895H16.9922C16.5877 19.1895 16.2598 18.8615 16.2598 18.457V12.5977C16.2598 12.1932 16.5877 11.8652 16.9922 11.8652H22.8516C23.256 11.8652 23.584 12.1932 23.584 12.5977V18.457C23.584 18.8615 23.256 19.1895 22.8516 19.1895Z" fill="#EFF6FF"/>
<path d="M22.8516 33.8379H16.9922C16.5877 33.8379 16.2598 33.5099 16.2598 33.1055V27.2461C16.2598 26.8417 16.5877 26.5137 16.9922 26.5137H22.8516C23.256 26.5137 23.584 26.8417 23.584 27.2461V33.1055C23.584 33.5099 23.256 33.8379 22.8516 33.8379Z" fill="#FFC107"/>
<path d="M22.8516 48.4863H16.9922C16.5877 48.4863 16.2598 48.1583 16.2598 47.7539V41.8945C16.2598 41.4901 16.5877 41.1621 16.9922 41.1621H22.8516C23.256 41.1621 23.584 41.4901 23.584 41.8945V47.7539C23.584 48.1583 23.256 48.4863 22.8516 48.4863Z" fill="#80B6FF"/>
<path d="M22.8516 63.1348H16.9922C16.5877 63.1348 16.2598 62.8068 16.2598 62.4023V56.543C16.2598 56.1385 16.5877 55.8105 16.9922 55.8105H22.8516C23.256 55.8105 23.584 56.1385 23.584 56.543V62.4023C23.584 62.8068 23.256 63.1348 22.8516 63.1348Z" fill="#FFC107"/>
<path fill-rule="evenodd" clip-rule="evenodd" d="M7.4707 2.92969C7.4707 1.31164 8.78235 0 10.4004 0H44.0918C44.9008 0 45.5566 0.655833 45.5566 1.46484C45.5566 2.27385 44.9008 2.92969 44.0918 2.92969H10.4004V72.0703H64.5996V2.92969H55.8105C55.0015 2.92969 54.3457 2.27385 54.3457 1.46484C54.3457 0.655833 55.0015 0 55.8105 0H64.5996C66.2177 0 67.5293 1.31164 67.5293 2.92969V72.0703C67.5293 73.6884 66.2177 75 64.5996 75H10.4004C8.78235 75 7.4707 73.6884 7.4707 72.0703V2.92969Z" fill="#1F7DBB"/>
<path fill-rule="evenodd" clip-rule="evenodd" d="M17.7246 13.3301V17.7246H22.1191V13.3301H17.7246ZM14.7949 12.5977C14.7949 11.3842 15.7787 10.4004 16.9922 10.4004H22.8516C24.065 10.4004 25.0488 11.3842 25.0488 12.5977V18.457C25.0488 19.6705 24.065 20.6543 22.8516 20.6543H16.9922C15.7787 20.6543 14.7949 19.6705 14.7949 18.457V12.5977Z" fill="#1F7DBB"/>
<path fill-rule="evenodd" clip-rule="evenodd" d="M17.7246 27.9785V32.373H22.1191V27.9785H17.7246ZM14.7949 27.2461C14.7949 26.0326 15.7787 25.0488 16.9922 25.0488H22.8516C24.065 25.0488 25.0488 26.0326 25.0488 27.2461V33.1055C25.0488 34.3189 24.065 35.3027 22.8516 35.3027H16.9922C15.7787 35.3027 14.7949 34.3189 14.7949 33.1055V27.2461Z" fill="#1F7DBB"/>
<path fill-rule="evenodd" clip-rule="evenodd" d="M17.7246 42.627V47.0215H22.1191V42.627H17.7246ZM14.7949 41.8945C14.7949 40.6811 15.7787 39.6973 16.9922 39.6973H22.8516C24.065 39.6973 25.0488 40.6811 25.0488 41.8945V47.7539C25.0488 48.9674 24.065 49.9512 22.8516 49.9512H16.9922C15.7787 49.9512 14.7949 48.9674 14.7949 47.7539V41.8945Z" fill="#1F7DBB"/>
<path fill-rule="evenodd" clip-rule="evenodd" d="M17.7246 57.2754V61.6699H22.1191V57.2754H17.7246ZM14.7949 56.543C14.7949 55.3295 15.7787 54.3457 16.9922 54.3457H22.8516C24.065 54.3457 25.0488 55.3295 25.0488 56.543V62.4023C25.0488 63.6158 24.065 64.5996 22.8516 64.5996H16.9922C15.7787 64.5996 14.7949 63.6158 14.7949 62.4023V56.543Z" fill="#1F7DBB"/>
<path fill-rule="evenodd" clip-rule="evenodd" d="M27.9785 12.5977C27.9785 11.7886 28.6343 11.1328 29.4434 11.1328H44.0918C44.9008 11.1328 45.5566 11.7886 45.5566 12.5977C45.5566 13.4067 44.9008 14.0625 44.0918 14.0625H29.4434C28.6343 14.0625 27.9785 13.4067 27.9785 12.5977Z" fill="#1F7DBB"/>
<path fill-rule="evenodd" clip-rule="evenodd" d="M27.9785 18.457C27.9785 17.648 28.6343 16.9922 29.4434 16.9922H58.7402C59.5492 16.9922 60.2051 17.648 60.2051 18.457C60.2051 19.266 59.5492 19.9219 58.7402 19.9219H29.4434C28.6343 19.9219 27.9785 19.266 27.9785 18.457Z" fill="#1F7DBB"/>
<path fill-rule="evenodd" clip-rule="evenodd" d="M27.9785 27.2461C27.9785 26.4371 28.6343 25.7812 29.4434 25.7812H44.0918C44.9008 25.7812 45.5566 26.4371 45.5566 27.2461C45.5566 28.0551 44.9008 28.7109 44.0918 28.7109H29.4434C28.6343 28.7109 27.9785 28.0551 27.9785 27.2461Z" fill="#1F7DBB"/>
<path fill-rule="evenodd" clip-rule="evenodd" d="M27.9785 33.1055C27.9785 32.2965 28.6343 31.6406 29.4434 31.6406H58.7402C59.5492 31.6406 60.2051 32.2965 60.2051 33.1055C60.2051 33.9145 59.5492 34.5703 58.7402 34.5703H29.4434C28.6343 34.5703 27.9785 33.9145 27.9785 33.1055Z" fill="#1F7DBB"/>
<path fill-rule="evenodd" clip-rule="evenodd" d="M27.9785 41.8945C27.9785 41.0855 28.6343 40.4297 29.4434 40.4297H44.0918C44.9008 40.4297 45.5566 41.0855 45.5566 41.8945C45.5566 42.7035 44.9008 43.3594 44.0918 43.3594H29.4434C28.6343 43.3594 27.9785 42.7035 27.9785 41.8945Z" fill="#1F7DBB"/>
<path fill-rule="evenodd" clip-rule="evenodd" d="M27.9785 47.7539C27.9785 46.9449 28.6343 46.2891 29.4434 46.2891H58.7402C59.5492 46.2891 60.2051 46.9449 60.2051 47.7539C60.2051 48.5629 59.5492 49.2188 58.7402 49.2188H29.4434C28.6343 49.2188 27.9785 48.5629 27.9785 47.7539Z" fill="#1F7DBB"/>
<path fill-rule="evenodd" clip-rule="evenodd" d="M27.9785 56.543C27.9785 55.734 28.6343 55.0781 29.4434 55.0781H44.0918C44.9008 55.0781 45.5566 55.734 45.5566 56.543C45.5566 57.352 44.9008 58.0078 44.0918 58.0078H29.4434C28.6343 58.0078 27.9785 57.352 27.9785 56.543Z" fill="#1F7DBB"/>
<path fill-rule="evenodd" clip-rule="evenodd" d="M27.9785 62.4023C27.9785 61.5933 28.6343 60.9375 29.4434 60.9375H58.7402C59.5492 60.9375 60.2051 61.5933 60.2051 62.4023C60.2051 63.2114 59.5492 63.8672 58.7402 63.8672H29.4434C28.6343 63.8672 27.9785 63.2114 27.9785 62.4023Z" fill="#1F7DBB"/>
</svg>
