<svg width="75" height="75" viewBox="0 0 75 75" fill="none" xmlns="http://www.w3.org/2000/svg">
<g clip-path="url(#clip0_167_2281)">
<path d="M50.497 31.4237H48.7397V24.7924H50.497C52.328 24.7924 53.8123 26.2773 53.8123 28.1084C53.8123 29.9394 52.328 31.4237 50.497 31.4237Z" fill="white"/>
<path d="M24.6298 31.4237H26.387V24.7924H24.6298C22.7987 24.7924 21.3145 26.2773 21.3145 28.1084C21.3145 29.9394 22.7987 31.4237 24.6298 31.4237Z" fill="white"/>
<path d="M30.3588 43.4154L15.8191 46.4355C10.3597 47.5696 6.4458 52.3795 6.4458 57.9556V73.535H68.6592V57.9619C68.6592 52.383 64.7413 47.5713 59.2785 46.44L44.6679 43.4154V37.4267H30.3588V43.4154Z" fill="#49B1F7"/>
<path d="M37.5527 57.6661C37.563 54.1459 40.42 51.2975 43.9397 51.2975H58.6465V73.535H37.5527V57.6661Z" fill="#FFC107"/>
<path d="M48.7398 20.688V28.5987C48.7398 34.7717 43.7359 39.7756 37.5635 39.7756C31.3911 39.7756 26.3872 34.7717 26.3872 28.5987V20.688C26.3872 16.9018 29.4559 13.8325 33.2422 13.8325H41.8848C45.6705 13.8325 48.7398 16.9018 48.7398 20.688Z" fill="white"/>
<path d="M26.3872 21.3867V15.731C26.3872 10.0811 30.9671 5.5006 36.6171 5.5006H45.3895C48.4199 5.5006 51.25 3.98655 52.9306 1.46484V12.8918C52.9306 17.5838 49.1277 21.3867 44.4362 21.3867H26.3872Z" fill="#FFC107"/>
<path d="M37.5527 57.6661C37.5424 54.1459 34.686 51.2975 31.1658 51.2975H16.459V73.535H37.5527V57.6661Z" fill="#FFDD40"/>
<path d="M33.646 27.7307C33.2609 27.7307 32.8827 27.8875 32.6103 28.1604C32.3379 28.4328 32.1812 28.8105 32.1812 29.1956C32.1812 29.5829 32.3379 29.9606 32.6103 30.2312C32.8827 30.5053 33.2609 30.6604 33.646 30.6604C34.0311 30.6604 34.4093 30.5053 34.6828 30.2312C34.9552 29.9589 35.1108 29.5812 35.1108 29.1956C35.1108 28.8105 34.9552 28.434 34.6828 28.1604C34.4093 27.8875 34.0311 27.7307 33.646 27.7307Z" fill="#1F7DBB"/>
<path d="M42.8262 27.7307C42.4411 27.7307 42.0634 27.8875 41.7905 28.1604C41.5181 28.434 41.3613 28.8105 41.3613 29.1956C41.3613 29.5829 41.5181 29.9589 41.7905 30.2312C42.0634 30.5053 42.4411 30.6604 42.8262 30.6604C43.2118 30.6604 43.5895 30.5053 43.8619 30.2312C44.1342 29.9589 44.291 29.5812 44.291 29.1956C44.291 28.8122 44.1342 28.434 43.8619 28.1604C43.5895 27.8875 43.2113 27.7307 42.8262 27.7307Z" fill="#1F7DBB"/>
<path d="M67.1538 49.6084C65.238 47.2555 62.5469 45.6207 59.5761 45.0056L46.1327 42.2224V37.8891C47.6113 36.5261 48.7643 34.8158 49.4618 32.8886H50.4969C53.133 32.8886 55.2777 30.7439 55.2777 28.1084C55.2777 25.4722 53.133 23.3276 50.4969 23.3276H50.2125V20.9976C52.7422 19.1894 54.3959 16.2311 54.3959 12.8918V1.46485C54.3959 0.819407 53.9736 0.250065 53.3556 0.0629541C52.7377 -0.124157 52.0705 0.115597 51.7123 0.652324C50.2995 2.77119 47.9363 4.03576 45.39 4.03576H36.617C30.1682 4.03576 24.9223 9.2823 24.9223 15.731V21.3867C24.9223 21.4382 24.9251 21.4891 24.9303 21.5395V23.3276H24.6299C21.9943 23.3276 19.8497 25.4722 19.8497 28.1084C19.8497 30.7439 21.9943 32.8886 24.6299 32.8886H25.681C26.3596 34.7648 27.472 36.4334 28.8939 37.7786V42.2235L15.5215 45.001C12.5524 45.6178 9.863 47.2532 7.94898 49.6055C6.03553 51.9578 4.98153 54.923 4.98153 57.9557V60.0585C4.98153 60.8676 5.63727 61.5234 6.44637 61.5234C7.25489 61.5234 7.91121 60.8676 7.91121 60.0585V57.9557C7.91121 53.0994 11.3622 48.8576 16.1172 47.8694L30.6569 44.8493C31.3367 44.708 31.8236 44.1095 31.8236 43.4148V39.8523C33.5494 40.7369 35.5023 41.2405 37.5714 41.2405C39.5941 41.2405 41.5059 40.7598 43.203 39.9118V43.4154C43.203 44.1095 43.6905 44.7086 44.3709 44.8493L58.9821 47.8746C63.7406 48.8599 67.195 53.1022 67.195 57.962V72.0702H60.1116V51.2975C60.1116 50.489 59.4553 49.8327 58.6468 49.8327H43.9394C41.3113 49.8327 38.979 51.1361 37.5525 53.1291C36.126 51.1361 33.7937 49.8327 31.1656 49.8327H16.4588C15.6503 49.8327 14.9939 50.489 14.9939 51.2975V72.0702H7.91064V71.5329C7.91064 70.7244 7.25489 70.0681 6.4458 70.0681C5.6367 70.0681 4.98096 70.7244 4.98096 71.5329V73.5351C4.98096 74.3442 5.6367 74.9999 6.4458 74.9999H68.6592C69.4683 74.9999 70.1241 74.3442 70.1241 73.5351V57.962C70.1241 54.9281 69.0695 51.9613 67.1538 49.6084ZM50.4969 26.2573C51.5171 26.2573 52.3474 27.0876 52.3474 28.1084C52.3474 29.1292 51.5171 29.9595 50.4969 29.9595H50.2045V28.9146C50.2074 28.8093 50.2125 28.7046 50.2125 28.5988V26.2579H50.4969V26.2573ZM27.8519 15.731C27.8519 10.8976 31.7836 6.96545 36.617 6.96545H45.39C47.6021 6.96545 49.7153 6.27651 51.4662 5.03827V12.8918C51.4662 16.7684 48.3128 19.9219 44.4361 19.9219H27.8519V15.731ZM24.9223 29.9595H24.6299C23.6096 29.9595 22.7794 29.1292 22.7794 28.1084C22.7794 27.0876 23.6096 26.2573 24.6299 26.2573H24.9223V29.9595ZM27.86 28.5988V22.8515H44.4361C45.4255 22.8515 46.3805 22.7051 47.2828 22.435V24.6402C47.2777 24.69 47.2748 24.741 47.2748 24.7925V28.9146C47.1072 34.124 42.8202 38.3102 37.5714 38.3102C32.2161 38.3102 27.86 33.954 27.86 28.5988ZM43.9394 52.7623H57.1814V72.0702H53.0798V63.1833C53.0798 62.3748 52.4241 61.7185 51.615 61.7185C50.8059 61.7185 50.1501 62.3748 50.1501 63.1833V72.0702H39.0174V57.6701C39.0254 54.9642 41.2335 52.7623 43.9394 52.7623ZM17.9236 52.7623H31.1656C33.8721 52.7623 36.0802 54.9642 36.0877 57.6701V72.0702H17.9236V52.7623Z" fill="#1F7DBB"/>
<path d="M6.44531 67.627C6.8304 67.627 7.20863 67.4708 7.481 67.1979C7.75508 66.9244 7.9113 66.5479 7.9113 66.1622C7.9113 65.7771 7.75508 65.3995 7.481 65.1271C7.20863 64.853 6.83212 64.6979 6.44531 64.6979C6.06022 64.6979 5.68199 64.853 5.40962 65.1271C5.13725 65.3995 4.98047 65.776 4.98047 66.1622C4.98047 66.5479 5.13725 66.9255 5.40962 67.1979C5.68371 67.4708 6.06022 67.627 6.44531 67.627Z" fill="#1F7DBB"/>
<path d="M51.6152 59.9429C52.0009 59.9429 52.3786 59.7861 52.6509 59.5138C52.9233 59.2414 53.0801 58.8632 53.0801 58.4781C53.0801 58.0924 52.9233 57.7148 52.6509 57.4424C52.3786 57.1683 52.0009 57.0132 51.6152 57.0132C51.2301 57.0132 50.8525 57.1683 50.5795 57.4424C50.3072 57.7148 50.1504 58.0913 50.1504 58.4781C50.1504 58.8632 50.3072 59.2414 50.5795 59.5138C50.8525 59.7861 51.2301 59.9429 51.6152 59.9429Z" fill="#1F7DBB"/>
<path d="M45.6095 11.1494C45.6095 10.3403 44.9537 9.68454 44.1446 9.68454H36.6173C33.283 9.68454 30.5708 12.3968 30.5708 15.731C30.5708 16.5395 31.2265 17.1959 32.0356 17.1959C32.8442 17.1959 33.5005 16.5395 33.5005 15.731C33.5005 14.0121 34.8984 12.6142 36.6173 12.6142H44.1446C44.9537 12.6142 45.6095 11.9579 45.6095 11.1494Z" fill="#1F7DBB"/>
</g>
<defs>
<clipPath id="clip0_167_2281">
<rect width="75" height="75" fill="white"/>
</clipPath>
</defs>
</svg>
