<svg width="50" height="50" viewBox="0 0 50 50" fill="none" xmlns="http://www.w3.org/2000/svg">
<g clip-path="url(#clip0_247_783)">
<path d="M38.4875 10.1223C38.7617 12.3924 38.3945 14.6072 37.9851 16.1208C34.6698 28.3859 19.7088 27.7223 17.5492 27.7223C15.3845 27.7223 14.8826 30.0018 14.8826 30.0018L13.2668 37.9899C13.2237 38.2641 13.1631 38.5092 13.0894 38.7299L11.4354 46.817C11.4354 46.817 11.1293 49.0014 13.0801 49.0014C15.0325 49.0014 17.9507 49.0014 17.9507 49.0014C17.9507 49.0014 20.1952 49.1451 20.6358 46.3382L22.2516 38.3501C22.2516 38.3501 22.7535 36.0706 24.9182 36.0706C27.078 36.0706 42.0387 36.7343 45.3542 24.4691C46.3693 20.7159 47.1246 12.652 38.4875 10.1223Z" fill="white"/>
<path d="M21.3901 9.34634H32.3012C34.7641 9.34634 36.8029 9.62925 38.4854 10.1221C37.9475 5.66675 34.9395 0.998085 24.9324 0.998085H14.0212C14.0212 0.998085 11.7532 0.878749 11.1936 3.61059L4.06435 38.4687C4.06435 38.4687 3.75819 40.653 5.70898 40.653C7.66142 40.653 10.5796 40.653 10.5796 40.653C10.5796 40.653 12.4066 40.7692 13.0873 38.7297L18.5626 11.9588C19.1222 9.22711 21.3901 9.34634 21.3901 9.34634Z" fill="#CDE3FF"/>
<path d="M14.8828 30.002C14.8828 30.002 15.3848 27.7225 17.5494 27.7225C19.7092 27.7225 34.67 28.3862 37.9853 16.1209C38.3948 14.6073 38.7619 12.3926 38.4877 10.1225C36.8052 9.62973 34.7664 9.34672 32.3036 9.34672H21.3924C21.3924 9.34672 19.1245 9.22738 18.5648 11.9592L14.8828 30.002Z" fill="#49B1F7"/>
<path d="M46.4993 16.5748C45.5533 13.1056 43.0971 10.623 39.3792 9.36138C38.9387 6.78071 37.7704 4.68403 35.8973 3.12406C33.4099 1.05257 29.7207 0.00218081 24.9323 0.00218081H14.044C12.9535 -0.0434247 10.7916 0.610971 10.218 3.41107L3.08855 38.2691C3.08436 38.2894 3.08084 38.3098 3.07801 38.3304C3.05652 38.4839 2.89197 39.8575 3.72567 40.8164C4.05594 41.1962 4.66815 41.6489 5.70887 41.6489H10.5528C10.5877 41.6506 10.6238 41.6513 10.6613 41.6513C10.8991 41.6513 11.1878 41.6173 11.4974 41.5334L10.4576 46.6172C10.4534 46.6375 10.4499 46.6579 10.4471 46.6785C10.4256 46.8321 10.261 48.2057 11.0947 49.1646C11.425 49.5444 12.0372 49.9971 13.0779 49.9971H17.921C17.9608 49.9991 18.0019 50 18.0442 50C19.1715 50 21.1683 49.2897 21.6141 46.5148L23.2237 38.5579C23.2511 38.439 23.598 37.0663 24.9161 37.0663C25.0002 37.0663 25.1043 37.0674 25.2268 37.0685C26.8437 37.0843 31.1394 37.1275 35.5524 35.6405C38.0867 34.7866 40.2436 33.5578 41.963 31.9882C44.0668 30.0679 45.5305 27.6253 46.3135 24.7288C46.7615 23.0724 47.3816 19.8103 46.4993 16.5748ZM37.0216 15.8607C35.0979 22.9777 28.6321 26.731 18.3084 26.7307C18.1659 26.7307 18.0215 26.73 17.8775 26.7286C17.7472 26.7273 17.6364 26.7264 17.5471 26.7264C17.1768 26.7264 16.8387 26.7765 16.5305 26.8648L19.5383 12.1589C19.8888 10.4483 21.0495 10.3417 21.332 10.3417C21.3361 10.3417 21.3402 10.3418 21.3439 10.3418C21.3651 10.3434 21.3642 10.3426 21.3902 10.3426H32.3013C34.2678 10.3426 36.0321 10.5316 37.5577 10.9045C37.6911 12.9754 37.2911 14.865 37.0216 15.8607ZM10.6358 39.6584C10.6102 39.6562 10.6096 39.657 10.5795 39.657H5.70897C5.35936 39.657 5.26268 39.5476 5.23084 39.5116C5.06141 39.3201 5.02303 38.8768 5.04832 38.6283L12.1695 3.81049C12.52 2.09984 13.6808 1.9932 13.9633 1.9932C13.9674 1.9932 13.9714 1.9933 13.9751 1.9933C13.9963 1.99496 13.9954 1.99418 14.0214 1.99418H24.9323C31.8979 1.99418 36.0236 4.27904 37.2216 8.79097C35.7408 8.49839 34.0927 8.35044 32.3014 8.35044H21.4129C20.3233 8.30454 18.1605 8.95923 17.5868 11.7593L12.1244 38.4669C11.7179 39.6084 10.8347 39.6652 10.6358 39.6584ZM15.8533 30.2151C15.8998 30.026 16.2678 28.7182 17.5471 28.7182C17.6312 28.7182 17.7353 28.7192 17.8577 28.7203C19.4747 28.7362 23.7703 28.7794 28.1833 27.2924C30.7176 26.4385 32.8746 25.2097 34.594 23.64C36.6977 21.7197 38.1615 19.2771 38.9445 16.3806C39.2132 15.3871 39.5971 13.5998 39.5747 11.5618C46.2168 14.3588 45.1924 21.2446 44.3905 24.2089C42.4668 31.3259 36.0009 35.0792 25.6773 35.0789C25.5348 35.0789 25.3904 35.0781 25.2464 35.0768C25.116 35.0755 25.0053 35.0745 24.9159 35.0745C22.5704 35.0745 21.5099 37.077 21.2767 38.1359C21.2754 38.1414 21.2743 38.1469 21.2731 38.1525L19.6571 46.1406C19.6543 46.1549 19.6517 46.1692 19.6494 46.1836C19.3752 47.9303 18.2581 48.0097 18.0051 48.0067C17.9793 48.0044 17.9786 48.0053 17.9483 48.0053H13.0777C12.7281 48.0053 12.6314 47.8958 12.5996 47.8599C12.4302 47.6684 12.3918 47.225 12.4171 46.9766L15.8533 30.2151Z" fill="#1F7DBB"/>
<path d="M10.9189 20.5335C10.3802 20.4235 9.854 20.7712 9.74394 21.3102L9.64921 21.7743C9.53925 22.3132 9.88691 22.8393 10.4259 22.9493C10.4931 22.9631 10.5602 22.9696 10.6262 22.9696C11.0895 22.9696 11.5046 22.6443 11.6009 22.1727L11.6956 21.7085C11.8056 21.1696 11.4578 20.6435 10.9189 20.5335Z" fill="#1F7DBB"/>
<path d="M10.1601 24.2461C9.62129 24.1362 9.09511 24.4838 8.98506 25.0228L6.46562 37.3671C6.35566 37.9059 6.70331 38.432 7.24228 38.5421C7.30947 38.5558 7.37656 38.5624 7.44257 38.5624C7.90595 38.5624 8.32099 38.2371 8.41728 37.7654L10.9366 25.4211C11.0466 24.8822 10.6989 24.3561 10.1601 24.2461Z" fill="#1F7DBB"/>
</g>
<defs>
<clipPath id="clip0_247_783">
<rect width="50" height="50" fill="white"/>
</clipPath>
</defs>
</svg>
