<svg width="50" height="50" viewBox="0 0 50 50" fill="none" xmlns="http://www.w3.org/2000/svg">
<g clip-path="url(#clip0_247_688)">
<path d="M25.4971 49.1378L1.35938 45.6898V4.31035L25.4971 0.861816V49.1378Z" fill="#CDE3FF"/>
<path d="M25.5 49.9999C25.4595 49.9999 25.4186 49.9969 25.3782 49.991L1.23992 46.5429C0.8157 46.4818 0.5 46.1182 0.5 45.6896V4.31017C0.5 3.88102 0.8157 3.51747 1.23992 3.4568L25.3782 0.00876097C25.6253 -0.0267553 25.8764 0.0467437 26.0653 0.210513C26.2537 0.374282 26.3623 0.611551 26.3623 0.861645V49.1376C26.3623 49.3877 26.2537 49.6255 26.0648 49.7887C25.9074 49.9259 25.7062 49.9999 25.5 49.9999ZM2.22402 44.9418L24.6382 48.1436V1.85561L2.22402 5.0575V44.9418Z" fill="#1F7DBB"/>
<path d="M25.5 7.7583H48.776V43.1034H25.5V7.7583Z" fill="#EFF6FF"/>
<path d="M48.7745 43.9656H25.4985C25.022 43.9656 24.6367 43.5794 24.6367 43.1033V7.75825C24.6367 7.28223 25.022 6.89648 25.4985 6.89648H48.7745C49.251 6.89648 49.6367 7.28223 49.6367 7.75825V43.1033C49.6367 43.5794 49.251 43.9656 48.7745 43.9656ZM26.3607 42.2411H47.9122V8.6205H26.3607V42.2411Z" fill="#1F7DBB"/>
<path d="M41.0144 15.4886H25.4972C25.037 15.4886 24.6641 15.1152 24.6641 14.6549C24.6641 14.1952 25.037 13.8218 25.4972 13.8218H41.0144C41.4751 13.8218 41.848 14.1952 41.848 14.6549C41.848 15.1152 41.4751 15.4886 41.0144 15.4886Z" fill="#1F7DBB"/>
<path d="M41.0144 19.7986H25.4972C25.037 19.7986 24.6641 19.4252 24.6641 18.965C24.6641 18.5052 25.037 18.1318 25.4972 18.1318H41.0144C41.4751 18.1318 41.848 18.5052 41.848 18.965C41.848 19.4252 41.4751 19.7986 41.0144 19.7986Z" fill="#1F7DBB"/>
<path d="M41.0144 24.1089H25.4972C25.037 24.1089 24.6641 23.7355 24.6641 23.2758C24.6641 22.8156 25.037 22.4421 25.4972 22.4421H41.0144C41.4751 22.4421 41.848 22.8156 41.848 23.2758C41.848 23.7355 41.4751 24.1089 41.0144 24.1089Z" fill="#1F7DBB"/>
<path d="M41.0144 28.4192H25.4972C25.037 28.4192 24.6641 28.0463 24.6641 27.5861C24.6641 27.1259 25.037 26.7524 25.4972 26.7524H41.0144C41.4751 26.7524 41.848 27.1259 41.848 27.5861C41.848 28.0463 41.4751 28.4192 41.0144 28.4192Z" fill="#1F7DBB"/>
<path d="M41.0144 32.7295H25.4972C25.037 32.7295 24.6641 32.3566 24.6641 31.8964C24.6641 31.4362 25.037 31.0627 25.4972 31.0627H41.0144C41.4751 31.0627 41.848 31.4362 41.848 31.8964C41.848 32.3566 41.4751 32.7295 41.0144 32.7295Z" fill="#1F7DBB"/>
<path d="M41.0144 37.0403H25.4972C25.037 37.0403 24.6641 36.6669 24.6641 36.2067C24.6641 35.7465 25.037 35.373 25.4972 35.373H41.0144C41.4751 35.373 41.848 35.7465 41.848 36.2067C41.848 36.6669 41.4751 37.0403 41.0144 37.0403Z" fill="#1F7DBB"/>
<path d="M15.1608 29.1075L13.0668 21.3427L10.9472 29.1075C10.7819 29.6964 10.6507 30.1192 10.554 30.3757C10.4564 30.6317 10.2872 30.8611 10.0455 31.0643C9.80424 31.2675 9.48361 31.3692 9.08356 31.3692C8.75947 31.3692 8.49261 31.3085 8.28345 31.1876C8.0748 31.0673 7.90461 30.8966 7.77587 30.6756C7.64613 30.4551 7.54008 30.1927 7.4577 29.8893C7.37532 29.5864 7.30084 29.3048 7.23622 29.0458L5.08107 20.3266C4.95134 19.82 4.88672 19.4347 4.88672 19.1693C4.88672 18.8339 5.00461 18.5512 5.2404 18.3214C5.47619 18.092 5.76723 17.9766 6.11548 17.9766C6.59199 17.9766 6.91312 18.13 7.07837 18.4358C7.24263 18.7426 7.38766 19.1871 7.51098 19.7696L9.20688 27.3321L11.1065 20.256C11.2471 19.7139 11.3744 19.3015 11.4863 19.0189C11.5983 18.7362 11.7803 18.492 12.0334 18.2863C12.2869 18.0802 12.6312 17.9766 13.0673 17.9766C13.5093 17.9766 13.8521 18.0841 14.0968 18.2992C14.341 18.5142 14.5101 18.7481 14.6044 19.0011C14.6991 19.2547 14.8249 19.6725 14.9842 20.256L16.9011 27.3321L18.5975 19.7696C18.6803 19.3755 18.7573 19.0662 18.8318 18.8423C18.9048 18.6183 19.0321 18.418 19.2116 18.2419C19.3907 18.0649 19.6516 17.9766 19.9935 17.9766C20.3343 17.9766 20.6249 18.0905 20.8631 18.3169C21.1024 18.5438 21.2207 18.828 21.2207 19.1693C21.2207 19.411 21.1561 19.7963 21.0274 20.3266L18.8712 29.0453C18.7238 29.6343 18.6019 30.0659 18.5052 30.3402C18.4076 30.6134 18.2423 30.8542 18.01 31.0599C17.7776 31.2661 17.4491 31.3692 17.0254 31.3692C16.6243 31.3692 16.3037 31.269 16.062 31.0687C15.8203 30.8685 15.6531 30.643 15.5584 30.3929C15.4637 30.1429 15.3315 29.7142 15.1608 29.1075Z" fill="#1F7DBB"/>
<path d="M48.7721 43.9655L25.4961 45.6895V43.1033H48.7721V43.9655Z" fill="#1F7DBB"/>
<path d="M25.4985 46.5518C25.2814 46.5518 25.0718 46.4699 24.9115 46.3214C24.7369 46.1581 24.6367 45.9292 24.6367 45.6895V43.1032C24.6367 42.6272 25.022 42.241 25.4985 42.241H48.7745C49.251 42.241 49.6367 42.6272 49.6367 43.1032V43.9655C49.6367 44.4168 49.288 44.7917 48.8386 44.8248L25.5626 46.5488C25.5404 46.5508 25.5197 46.5518 25.4985 46.5518ZM26.3607 43.9655V44.7611L37.1044 43.9655H26.3607Z" fill="#1F7DBB"/>
<path d="M19.4638 45.6896C18.9873 45.6896 18.6016 45.3034 18.6016 44.8274V41.3793C18.6016 40.9033 18.9873 40.5171 19.4638 40.5171C19.9403 40.5171 20.3256 40.9033 20.3256 41.3793V44.8274C20.3256 45.3034 19.9403 45.6896 19.4638 45.6896Z" fill="white"/>
<path d="M21.1892 43.9657H17.7412C17.2647 43.9657 16.8789 43.5795 16.8789 43.1035C16.8789 42.6275 17.2647 42.2412 17.7412 42.2412H21.1892C21.6657 42.2412 22.0515 42.6275 22.0515 43.1035C22.0515 43.5795 21.6657 43.9657 21.1892 43.9657Z" fill="white"/>
<path d="M46.186 18.1035C45.7095 18.1035 45.3242 17.7173 45.3242 17.2412V10.3447C45.3242 9.86866 45.7095 9.48291 46.186 9.48291C46.6625 9.48291 47.0482 9.86866 47.0482 10.3447V17.2412C47.0482 17.7173 46.6625 18.1035 46.186 18.1035Z" fill="white"/>
</g>
<defs>
<clipPath id="clip0_247_688">
<rect width="50" height="50" fill="white"/>
</clipPath>
</defs>
</svg>
