<svg width="30" height="30" viewBox="0 0 30 30" fill="none" xmlns="http://www.w3.org/2000/svg">
<g clip-path="url(#clip0_247_77)">
<mask id="mask0_247_77" style="mask-type:luminance" maskUnits="userSpaceOnUse" x="0" y="0" width="30" height="30">
<path d="M0 3.8147e-06H30V30H0V3.8147e-06Z" fill="white"/>
</mask>
<g mask="url(#mask0_247_77)">
<path fill-rule="evenodd" clip-rule="evenodd" d="M23.5547 0.585878C26.7908 0.585878 29.4141 3.20918 29.4141 6.44525C29.4141 9.68133 26.7908 12.3047 23.5547 12.3047C22.4336 12.3047 21.3862 11.9896 20.4957 11.4435C19.8684 11.6118 19.2411 11.7802 18.6137 11.9483C18.2788 12.0428 17.9581 11.7364 18.0499 11.392C18.2187 10.7623 18.3874 10.1331 18.5563 9.50385C18.0103 8.61357 17.6953 7.56621 17.6953 6.44525C17.6953 3.20918 20.3186 0.585878 23.5547 0.585878Z" fill="#FFC107"/>
<path fill-rule="evenodd" clip-rule="evenodd" d="M12.4673 21.1015C12.1354 20.976 11.7942 20.8701 11.4449 20.7853L11.4416 20.7834C10.7907 20.9808 10.1011 21.0871 9.38793 21.0871C8.67543 21.0871 7.98648 20.9811 7.33609 20.784C6.98506 20.869 6.64205 20.9753 6.30859 21.1015L7.00674 24.0273H11.7691L12.4673 21.1015Z" fill="white"/>
<path fill-rule="evenodd" clip-rule="evenodd" d="M11.7701 24.0272H7.00781L8.29324 29.4141H10.4846L11.7701 24.0272Z" fill="#FFC107"/>
<path fill-rule="evenodd" clip-rule="evenodd" d="M8.29283 29.4141L7.0074 24.0272L6.3092 21.1015C5.67961 21.3396 5.08395 21.6485 4.53217 22.0182L4.41064 25.6434L5.97193 26.3282L4.13672 27.862L5.9993 29.4141H8.29283Z" fill="#FF8760"/>
<path fill-rule="evenodd" clip-rule="evenodd" d="M11.7698 24.0272L10.4844 29.4141H12.7779L14.6405 27.862L12.8053 26.3281L14.3666 25.6433L14.245 22.0181C13.6932 21.6485 13.0976 21.3396 12.468 21.1015L11.7698 24.0272Z" fill="#FF8760"/>
<path fill-rule="evenodd" clip-rule="evenodd" d="M12.8047 26.3281L14.6399 27.862L12.7773 29.4141H18.1533V29.3044C18.1533 26.9713 17.2294 24.8436 15.7294 23.269C15.2825 22.7999 14.7845 22.3799 14.2445 22.0181L14.366 25.6433L12.8047 26.3281Z" fill="#FF8760"/>
<path fill-rule="evenodd" clip-rule="evenodd" d="M4.1384 27.862L5.97361 26.3281L4.41232 25.6433L4.53385 22.0182C3.99391 22.3799 3.49586 22.7999 3.04896 23.269C1.54897 24.8436 0.625 26.9713 0.625 29.3044V29.4141H6.00103L4.1384 27.862Z" fill="#FF8760"/>
<path fill-rule="evenodd" clip-rule="evenodd" d="M8.29469 10.6783H3.38518C3.38518 11.281 2.89217 11.774 2.28953 11.774L1.99463 11.774C1.58934 11.774 1.22377 11.9524 0.972461 12.2345C0.756601 12.4767 0.625 12.7956 0.625 13.1437C0.625 13.6488 0.902207 14.0924 1.31201 14.3297C1.51328 14.4464 1.74648 14.5132 1.99463 14.5132H2.28953C2.54623 17.8469 5.09635 20.4838 8.25953 20.9968C8.62797 21.0562 9.00566 21.0872 9.39021 21.0872C9.47834 21.0872 9.56611 21.0855 9.65348 21.0823C9.68482 21.0811 9.71617 21.0797 9.74752 21.0781C13.2465 20.8987 16.2119 18.1378 16.4909 14.5132H16.7859C17.034 14.5132 17.2672 14.4464 17.4685 14.3297C17.8783 14.0924 18.1555 13.6488 18.1555 13.1437C18.1555 12.7357 17.9747 12.3679 17.6893 12.1164C17.4477 11.9036 17.1312 11.774 16.7859 11.774C16.6876 11.774 16.5893 11.7741 16.4909 11.7739C15.8884 11.7739 15.3953 11.2809 15.3953 10.6783H14.8686C13.0607 10.6783 11.5816 9.19919 11.5816 7.39134C11.5816 9.19919 10.1025 10.6783 8.29469 10.6783Z" fill="white"/>
<path fill-rule="evenodd" clip-rule="evenodd" d="M3.38518 10.6783H8.29469C10.1025 10.6783 11.5816 9.19917 11.5816 7.39131L11.7106 4.50598C11.5605 6.17719 10.1455 7.49836 8.43689 7.49836H1.04148C0.77166 8.27262 0.625 9.10465 0.625 9.9709C0.625 10.7598 0.746875 11.5202 0.972461 12.2345C1.22377 11.9524 1.58934 11.774 1.99457 11.774L2.28953 11.774C2.89211 11.774 3.38518 11.2809 3.38518 10.6783Z" fill="#CDE3FF"/>
<path fill-rule="evenodd" clip-rule="evenodd" d="M1.03906 7.49835H8.43441C10.143 7.49835 11.558 6.17724 11.7082 4.50603L11.7214 4.21142L11.758 3.39304C10.6831 2.79925 9.44732 2.46099 8.13242 2.46099C4.85111 2.46099 2.06129 4.56544 1.03906 7.49835Z" fill="#CDE3FF"/>
<path fill-rule="evenodd" clip-rule="evenodd" d="M11.7227 4.21142C11.7227 6.01927 13.2018 7.49835 15.0096 7.49835H17.7511C16.842 5.08007 14.4969 3.36738 11.7593 3.39304L11.7227 4.21142Z" fill="#CDE3FF"/>
<path fill-rule="evenodd" clip-rule="evenodd" d="M15.0112 7.49839C13.2034 7.49839 11.7242 6.01925 11.7242 4.21146C11.7242 4.31072 11.7198 4.40898 11.7111 4.50607L11.582 7.39134C11.582 9.19919 13.0611 10.6783 14.869 10.6783H15.3957C15.3957 11.2809 15.8888 11.7739 16.4913 11.7739C16.5896 11.7741 16.688 11.774 16.7863 11.774C17.1316 11.774 17.4481 11.9036 17.6897 12.1165C17.99 11.3793 18.1558 10.5729 18.1558 9.72771C18.1558 8.94284 18.0133 8.19167 17.7527 7.49839H15.0112Z" fill="#CDE3FF"/>
<path fill-rule="evenodd" clip-rule="evenodd" d="M16.4895 14.5132C16.2104 18.1378 13.245 20.8986 9.74609 21.0781C10.3326 21.0488 10.9009 20.9477 11.4425 20.7834L11.4458 20.7853C11.7951 20.87 12.1363 20.9759 12.4681 21.1014C13.0977 21.3396 13.6933 21.6485 14.2452 22.0181C15.0696 22.5705 15.7963 23.2587 16.3924 24.05C20.0246 22.2502 16.9475 18.6231 17.4671 14.3297C17.2658 14.4463 17.0326 14.5132 16.7844 14.5132H16.4895Z" fill="#CDE3FF"/>
<path fill-rule="evenodd" clip-rule="evenodd" d="M2.28871 14.5132C2.56779 18.1378 5.53316 20.8986 9.03209 21.0781C8.44562 21.0488 7.87726 20.9477 7.33568 20.7834L7.3324 20.7853C6.98312 20.87 6.64187 20.9759 6.31005 21.1014C5.68046 21.3396 5.08486 21.6485 4.53302 22.0181C3.70855 22.5705 2.98187 23.2587 2.38574 24.05C-1.24637 22.2502 1.83074 18.6231 1.31113 14.3297C1.5124 14.4463 1.74566 14.5132 1.99375 14.5132H2.28871Z" fill="#CDE3FF"/>
<path fill-rule="evenodd" clip-rule="evenodd" d="M8.56928 13.4343C8.56928 13.0785 8.27824 12.7874 7.92246 12.7874H5.29916C4.94338 12.7874 4.65234 13.0785 4.65234 13.4343V14.1297C4.65234 14.8678 5.25627 15.4718 5.99449 15.4718H7.22713C7.96529 15.4718 8.56928 14.8678 8.56928 14.1297V13.4343Z" fill="#EFF6FF"/>
<path fill-rule="evenodd" clip-rule="evenodd" d="M10.2109 13.4343V14.1297C10.2109 14.8678 10.8149 15.4718 11.5531 15.4718H12.7857C13.5239 15.4718 14.1279 14.8678 14.1279 14.1297V13.4343C14.1279 13.0785 13.8368 12.7874 13.4811 12.7874H10.8578C10.502 12.7874 10.2109 13.0785 10.2109 13.4343Z" fill="#EFF6FF"/>
<path fill-rule="evenodd" clip-rule="evenodd" d="M1.76419 15.0856C2.33562 18.9829 5.82003 21.8662 9.77752 21.6633C13.3917 21.4779 16.4809 18.7488 17.0164 15.0856C17.9854 14.9709 18.7414 14.1425 18.7414 13.1436C18.7414 12.0667 17.8627 11.1881 16.7859 11.1881C16.6874 11.1881 16.5897 11.1881 16.4919 11.1879L16.4909 11.1879C16.2119 11.1879 15.9812 10.9572 15.9812 10.6783C15.9812 10.3547 15.7189 10.0924 15.3953 10.0924H14.8686C13.3843 10.0924 12.1675 8.8756 12.1675 7.39135C12.1675 7.06775 11.9052 6.80541 11.5816 6.80541C11.258 6.80541 10.9956 7.06775 10.9956 7.39135C10.9956 8.87561 9.77886 10.0924 8.29463 10.0924H3.38518C3.06157 10.0924 2.79924 10.3547 2.79924 10.6783C2.79924 10.9573 2.56858 11.188 2.28953 11.188L1.99457 11.1881C1.99449 11.1881 1.99442 11.1881 1.99434 11.1881C0.917559 11.1882 0.0390625 12.0668 0.0390625 13.1436C0.0390625 14.1426 0.79514 14.9709 1.76419 15.0856ZM11.5816 9.43437C12.2671 10.5313 13.4857 11.2643 14.8686 11.2643H14.9149C15.1536 11.9029 15.7705 12.3597 16.4906 12.3598C16.4907 12.3598 16.4908 12.3598 16.4909 12.3598V11.7739L16.4899 12.3598C16.4901 12.3598 16.4903 12.3598 16.4906 12.3598C16.5893 12.36 16.6879 12.36 16.7859 12.36C17.2155 12.36 17.5695 12.7139 17.5695 13.1436C17.5695 13.5733 17.2155 13.9272 16.7859 13.9272H16.4909C16.1847 13.9272 15.9302 14.163 15.9067 14.4682C15.6508 17.7915 12.9298 20.3282 9.7175 20.4929C6.21607 20.6725 3.14517 17.9938 2.87374 14.4682C2.85024 14.163 2.59569 13.9272 2.28953 13.9272H1.99457C1.56489 13.9272 1.21094 13.5733 1.21094 13.1436C1.21094 12.7139 1.56489 12.36 1.99457 12.36L2.28953 12.3599V11.7739L2.28976 12.3599C3.00998 12.3598 3.62686 11.903 3.86555 11.2643H3.38518V10.6783H3.97111C3.97111 10.8842 3.93378 11.0817 3.86555 11.2643H8.29463C9.67746 11.2643 10.8961 10.5313 11.5816 9.43437Z" fill="#1F7DBB"/>
<path fill-rule="evenodd" clip-rule="evenodd" d="M0.0390625 29.4141C0.0390625 29.7377 0.301396 30.0001 0.625 30.0001H18.1554C18.479 30.0001 18.7414 29.7377 18.7414 29.4141V29.3044C18.7414 24.9135 15.6777 21.2097 11.5855 20.2159C11.2711 20.1395 10.9542 20.3325 10.8779 20.647C10.8015 20.9614 10.9945 21.2783 11.309 21.3546C14.7414 22.1882 17.3447 25.2031 17.5557 28.8282H1.22477C1.43588 25.2013 4.04155 22.1854 7.47632 21.3534C7.79082 21.2773 7.98403 20.9605 7.90785 20.646C7.83167 20.3315 7.51495 20.1383 7.20044 20.2145C3.10555 21.2064 0.0390625 24.9115 0.0390625 29.3044V29.4141Z" fill="#1F7DBB"/>
<path fill-rule="evenodd" clip-rule="evenodd" d="M9.38877 17.5618C9.02471 17.5618 8.6756 17.4172 8.41826 17.1598C8.18945 16.9309 7.81846 16.9309 7.58962 17.1597C7.36078 17.3885 7.36075 17.7595 7.58955 17.9884C8.06674 18.4656 8.71397 18.7336 9.38877 18.7336C10.0636 18.7336 10.7107 18.4656 11.188 17.9884C11.4168 17.7596 11.4168 17.3886 11.188 17.1598C10.9591 16.9309 10.5881 16.9309 10.3593 17.1598C10.1019 17.4172 9.75281 17.5618 9.38877 17.5618Z" fill="#1F7DBB"/>
<path fill-rule="evenodd" clip-rule="evenodd" d="M8.42022 29.9425C8.73498 29.8674 8.92926 29.5513 8.85415 29.2365L6.89038 21.0071C6.81527 20.6923 6.49921 20.498 6.18444 20.5731C5.86968 20.6482 5.6754 20.9643 5.75051 21.2791L7.71428 29.5085C7.78939 29.8233 8.10545 30.0176 8.42022 29.9425Z" fill="#1F7DBB"/>
<path fill-rule="evenodd" clip-rule="evenodd" d="M6.43091 29.7738C6.63808 29.5252 6.60449 29.1558 6.35588 28.9486L5.05119 27.8614L6.34769 26.7778C6.50332 26.6477 6.58061 26.4464 6.55202 26.2456C6.52343 26.0448 6.39303 25.8731 6.20728 25.7916L5.00956 25.2663L5.11608 22.0892C5.12692 21.7657 4.87353 21.4948 4.5501 21.4839C4.22668 21.4731 3.9557 21.7265 3.94486 22.0499L3.82504 25.6238C3.817 25.8634 3.95574 26.0837 4.17529 26.18L4.87066 26.485L3.76096 27.4125C3.62764 27.5239 3.55065 27.6887 3.55078 27.8625C3.55091 28.0362 3.62814 28.201 3.76162 28.3122L5.60568 29.8489C5.85428 30.056 6.22375 30.0224 6.43091 29.7738Z" fill="#1F7DBB"/>
<path fill-rule="evenodd" clip-rule="evenodd" d="M10.3602 29.9425C10.675 30.0176 10.991 29.8233 11.0662 29.5086L13.03 21.2791C13.1051 20.9643 12.9108 20.6482 12.5961 20.5731C12.2813 20.498 11.9652 20.6923 11.8901 21.0071L9.92629 29.2365C9.85118 29.5513 10.0455 29.8674 10.3602 29.9425Z" fill="#1F7DBB"/>
<path fill-rule="evenodd" clip-rule="evenodd" d="M12.3467 29.7752C12.5539 30.0238 12.9234 30.0574 13.172 29.8502L15.0177 28.3122C15.1512 28.201 15.2285 28.0362 15.2286 27.8625C15.2287 27.6887 15.1517 27.5239 15.0184 27.4125L13.9087 26.4849L14.6041 26.1799C14.8237 26.0836 14.9624 25.8633 14.9544 25.6237L14.8336 22.0208C14.8227 21.6974 14.5517 21.444 14.2283 21.4549C13.9049 21.4657 13.6515 21.7367 13.6624 22.0601L13.7699 25.2662L12.5721 25.7915C12.3863 25.873 12.2559 26.0447 12.2274 26.2455C12.1988 26.4463 12.276 26.6476 12.4317 26.7777L13.7282 27.8614L12.4218 28.9499C12.1732 29.1571 12.1396 29.5266 12.3467 29.7752Z" fill="#1F7DBB"/>
<path fill-rule="evenodd" clip-rule="evenodd" d="M6.46875 24.0273C6.46875 24.3509 6.73108 24.6132 7.05469 24.6132H11.7253C12.0489 24.6132 12.3112 24.3509 12.3112 24.0273C12.3112 23.7037 12.0489 23.4413 11.7253 23.4413H7.05469C6.73108 23.4413 6.46875 23.7037 6.46875 24.0273Z" fill="#1F7DBB"/>
<path fill-rule="evenodd" clip-rule="evenodd" d="M1.14416 12.7811C1.4529 12.6842 1.62457 12.3553 1.52761 12.0466C1.32205 11.3921 1.21094 10.695 1.21094 9.9709C1.21094 6.14689 4.31089 3.04694 8.1349 3.04694C9.34807 3.04694 10.4866 3.35884 11.4772 3.90595C11.5655 3.95476 11.665 3.97991 11.7659 3.97896C14.9627 3.94897 17.5695 6.5308 17.5695 9.72774C17.5695 10.4849 17.4231 11.2065 17.1579 11.8673C17.0374 12.1676 17.1832 12.5088 17.4835 12.6293C17.7839 12.7498 18.125 12.604 18.2455 12.3037C18.5653 11.5069 18.7414 10.6372 18.7414 9.72774C18.7414 5.93061 15.6864 2.85432 11.909 2.80737C10.7816 2.21224 9.49696 1.87506 8.1349 1.87506C3.66368 1.87506 0.0390625 5.49968 0.0390625 9.9709C0.0390625 10.8155 0.168769 11.631 0.409578 12.3977C0.506542 12.7064 0.835426 12.8781 1.14416 12.7811Z" fill="#1F7DBB"/>
<path fill-rule="evenodd" clip-rule="evenodd" d="M2.87862 24.2984C3.02417 24.0094 2.90786 23.6571 2.61883 23.5115C1.83588 23.1172 1.47627 22.6615 1.30846 22.1728C1.12981 21.6526 1.1399 21.0156 1.26122 20.2085C1.32116 19.8097 1.4047 19.3891 1.49573 18.9356C1.4995 18.9168 1.50328 18.8979 1.50707 18.8791C1.59396 18.4463 1.68629 17.9864 1.76406 17.5115C1.92664 16.5188 2.03082 15.4323 1.8963 14.2883C1.85851 13.9669 1.56734 13.737 1.24595 13.7748C0.924556 13.8126 0.694654 14.1038 0.732445 14.4252C0.848944 15.4159 0.761649 16.3814 0.607589 17.3221C0.533292 17.7758 0.444679 18.2172 0.356879 18.6546L0.346763 18.705C0.25656 19.1544 0.167241 19.6027 0.102367 20.0343C-0.0259313 20.8878 -0.0732949 21.7573 0.200112 22.5534C0.484351 23.3812 1.0863 24.0518 2.09175 24.5582C2.38078 24.7037 2.73307 24.5874 2.87862 24.2984Z" fill="#1F7DBB"/>
<path fill-rule="evenodd" clip-rule="evenodd" d="M15.9316 24.2871C16.0789 24.5753 16.4319 24.6894 16.72 24.5421C17.7152 24.0332 18.3083 23.3608 18.5864 22.5341C18.8538 21.7392 18.8044 20.8718 18.6755 20.0202C18.6103 19.5896 18.521 19.1423 18.431 18.6939L18.4231 18.6549C18.3348 18.2149 18.2456 17.7708 18.1711 17.3144C18.0178 16.376 17.9313 15.413 18.0475 14.4248C18.0853 14.1035 17.8554 13.8123 17.534 13.7745C17.2126 13.7367 16.9214 13.9666 16.8836 14.288C16.7494 15.4289 16.8527 16.5127 17.0145 17.5033C17.0926 17.9811 17.1854 18.4436 17.2728 18.8787L17.282 18.9245C17.3729 19.3773 17.4565 19.7973 17.5168 20.1957C17.6389 21.002 17.651 21.6393 17.4757 22.1604C17.3112 22.6497 16.9573 23.1045 16.1865 23.4987C15.8984 23.646 15.7842 23.999 15.9316 24.2871Z" fill="#1F7DBB"/>
<path fill-rule="evenodd" clip-rule="evenodd" d="M11.5559 7.9767C11.8791 7.99116 12.1529 7.74081 12.1674 7.41753L12.3462 3.41921C12.3607 3.09593 12.1103 2.82213 11.7871 2.80767C11.4638 2.79322 11.19 3.04357 11.1755 3.36685L10.9967 7.36517C10.9822 7.68845 11.2326 7.96224 11.5559 7.9767Z" fill="#1F7DBB"/>
<path fill-rule="evenodd" clip-rule="evenodd" d="M6.03516 7.49841C6.03516 7.82202 6.29749 8.08435 6.62109 8.08435H8.43492C9.81771 8.08435 11.0364 7.35136 11.7218 6.25444C12.4073 7.35136 13.626 8.08435 15.0088 8.08435H17.627C17.9506 8.08435 18.2129 7.82202 18.2129 7.49841C18.2129 7.17481 17.9506 6.91248 17.627 6.91248H15.0088C13.5246 6.91248 12.3078 5.69568 12.3078 4.21142C12.3078 3.88782 12.0455 3.62548 11.7219 3.62548C11.3983 3.62548 11.1359 3.88782 11.1359 4.21142C11.1359 5.69568 9.9191 6.91248 8.43492 6.91248H6.62109C6.29749 6.91248 6.03516 7.17481 6.03516 7.49841Z" fill="#1F7DBB"/>
<path fill-rule="evenodd" clip-rule="evenodd" d="M4.06641 14.1297C4.06641 15.1914 4.93274 16.0577 5.99455 16.0577H7.22713C8.28894 16.0577 9.15527 15.1914 9.15527 14.1297V13.4343C9.15527 12.7549 8.60185 12.2015 7.92246 12.2015H5.29916C4.61971 12.2015 4.06641 12.755 4.06641 13.4343V14.1297ZM5.99455 14.8859C5.57992 14.8859 5.23828 14.5442 5.23828 14.1297V13.4343C5.23828 13.4193 5.24388 13.4046 5.25668 13.3918C5.26948 13.379 5.28423 13.3734 5.29916 13.3734H7.92246C7.9374 13.3734 7.95217 13.379 7.965 13.3918C7.97782 13.4046 7.9834 13.4194 7.9834 13.4343V14.1297C7.9834 14.5442 7.64176 14.8859 7.22713 14.8859H5.99455Z" fill="#1F7DBB"/>
<path fill-rule="evenodd" clip-rule="evenodd" d="M9.625 14.1297C9.625 15.1915 10.4914 16.0577 11.5531 16.0577H12.7858C13.8475 16.0577 14.7139 15.1914 14.7139 14.1297V13.4343C14.7139 12.755 14.1606 12.2015 13.4811 12.2015H10.8578C10.1784 12.2015 9.625 12.7549 9.625 13.4343V14.1297ZM11.5531 14.8859C11.1386 14.8859 10.7969 14.5442 10.7969 14.1297V13.4343C10.7969 13.4194 10.8025 13.4046 10.8153 13.3918C10.8281 13.379 10.8429 13.3734 10.8578 13.3734H13.4811C13.496 13.3734 13.5108 13.379 13.5236 13.3918C13.5364 13.4046 13.542 13.4193 13.542 13.4343V14.1297C13.542 14.5442 13.2003 14.8859 12.7858 14.8859H11.5531Z" fill="#1F7DBB"/>
<path fill-rule="evenodd" clip-rule="evenodd" d="M8.10938 13.782C8.10938 14.1056 8.37171 14.3679 8.69531 14.3679H10.0869C10.4105 14.3679 10.6729 14.1056 10.6729 13.782C10.6729 13.4584 10.4105 13.196 10.0869 13.196H8.69531C8.37171 13.196 8.10938 13.4584 8.10938 13.782Z" fill="#1F7DBB"/>
<path fill-rule="evenodd" clip-rule="evenodd" d="M5.13044 13.7712C5.31654 13.5065 5.25278 13.141 4.98804 12.9549L2.62607 11.2946C2.36133 11.1085 1.99585 11.1723 1.80975 11.437C1.62366 11.7017 1.68741 12.0672 1.95216 12.2533L4.31413 13.9136C4.57887 14.0997 4.94435 14.036 5.13044 13.7712Z" fill="#1F7DBB"/>
<path fill-rule="evenodd" clip-rule="evenodd" d="M13.6496 13.7712C13.8357 14.036 14.2012 14.0997 14.4659 13.9136L16.8279 12.2532C17.0926 12.0671 17.1564 11.7016 16.9703 11.4369C16.7842 11.1721 16.4187 11.1084 16.154 11.2945L13.792 12.9549C13.5272 13.141 13.4635 13.5065 13.6496 13.7712Z" fill="#1F7DBB"/>
<path fill-rule="evenodd" clip-rule="evenodd" d="M20.411 12.0729C21.3414 12.5936 22.414 12.8906 23.5547 12.8906C27.1144 12.8906 30 10.0049 30 6.44525C30 2.88558 27.1144 -5.62668e-05 23.5547 -5.62668e-05C19.995 -5.62668e-05 17.1094 2.88558 17.1094 6.44525C17.1094 7.58573 17.4062 8.65833 17.9269 9.58856C17.7792 10.139 17.6316 10.6895 17.484 11.2404L17.4838 11.2411C17.2732 12.0308 18.006 12.7251 18.7684 12.5134C19.2978 12.3716 19.8272 12.2295 20.3565 12.0876C20.3746 12.0827 20.3928 12.0778 20.411 12.0729ZM23.5547 11.7188C22.5449 11.7188 21.6031 11.4353 20.8021 10.944C20.6649 10.86 20.4993 10.8359 20.3439 10.8776C20.2469 10.9036 20.15 10.9296 20.053 10.9557C19.5934 11.0789 19.1339 11.2022 18.6744 11.3254C18.8236 10.7686 18.9729 10.2122 19.1222 9.65572C19.1639 9.50034 19.1399 9.33464 19.0558 9.1975C18.5646 8.39673 18.2812 7.45498 18.2812 6.44525C18.2812 3.53279 20.6422 1.17182 23.5547 1.17182C26.4672 1.17182 28.8281 3.53279 28.8281 6.44525C28.8281 9.35773 26.4671 11.7188 23.5547 11.7188Z" fill="#1F7DBB"/>
<path fill-rule="evenodd" clip-rule="evenodd" d="M3.39844 7.49841C3.39844 7.82202 3.66077 8.08435 3.98437 8.08435H3.98479C4.30839 8.08435 4.57072 7.82202 4.57072 7.49841C4.57072 7.17481 4.30839 6.91248 3.98479 6.91248H3.98437C3.66077 6.91248 3.39844 7.17481 3.39844 7.49841Z" fill="#1F7DBB"/>
<path fill-rule="evenodd" clip-rule="evenodd" d="M20.625 6.44531C20.625 6.76892 20.8873 7.03125 21.2109 7.03125H25.8984C26.222 7.03125 26.4844 6.76892 26.4844 6.44531C26.4844 6.12171 26.222 5.85938 25.8984 5.85938H21.2109C20.8873 5.85938 20.625 6.12171 20.625 6.44531Z" fill="#1F7DBB"/>
<path fill-rule="evenodd" clip-rule="evenodd" d="M20.625 4.10144C20.625 4.42504 20.8873 4.68738 21.2109 4.68738H25.8984C26.222 4.68738 26.4844 4.42504 26.4844 4.10144C26.4844 3.77784 26.222 3.5155 25.8984 3.5155H21.2109C20.8873 3.5155 20.625 3.77784 20.625 4.10144Z" fill="#1F7DBB"/>
<path fill-rule="evenodd" clip-rule="evenodd" d="M20.625 8.78912C20.625 9.11273 20.8873 9.37506 21.2109 9.37506H25.8984C26.222 9.37506 26.4844 9.11273 26.4844 8.78912C26.4844 8.46552 26.222 8.20319 25.8984 8.20319H21.2109C20.8873 8.20319 20.625 8.46552 20.625 8.78912Z" fill="#1F7DBB"/>
</g>
</g>
<defs>
<clipPath id="clip0_247_77">
<rect width="30" height="30" fill="white"/>
</clipPath>
</defs>
</svg>
