<svg width="50" height="50" viewBox="0 0 50 50" fill="none" xmlns="http://www.w3.org/2000/svg">
<g clip-path="url(#clip0_247_841)">
<mask id="mask0_247_841" style="mask-type:luminance" maskUnits="userSpaceOnUse" x="0" y="0" width="50" height="50">
<path d="M0 3.8147e-06H50V50H0V3.8147e-06Z" fill="white"/>
</mask>
<g mask="url(#mask0_247_841)">
<path d="M48.5156 35.1241C49.2225 35.8311 49.2225 36.9776 48.5156 37.6856L46.5136 39.6876C43.3339 42.8663 38.3944 43.7061 34.3574 41.7266C20.29 34.8292 11.8174 22.6778 8.26853 15.5147C6.27429 11.4883 7.13376 6.64167 10.3104 3.46501L12.2675 1.5069C12.9755 0.799969 14.122 0.799969 14.8291 1.5069L22.5644 9.24225C23.2715 9.94928 23.2715 11.0958 22.5644 11.8028L19.2773 15.0899C18.331 16.0362 18.1133 17.5294 18.834 18.6563C21.7353 23.1973 26.7606 28.2217 31.2969 31.1192C32.4247 31.8399 33.9179 31.6221 34.8632 30.6758L38.1503 27.3897C38.8574 26.6817 40.0039 26.6817 40.7119 27.3897L48.5156 35.1241Z" fill="#49B1F7"/>
<path fill-rule="evenodd" clip-rule="evenodd" d="M0.563482 49.8969C1.04588 50.1381 1.63248 49.9426 1.87368 49.4602L3.91231 45.3829L5.95087 49.4602C6.11628 49.791 6.45443 50 6.82432 50C7.19422 50 7.53237 49.7911 7.69779 49.4602L9.73653 45.3829L11.7752 49.4602C11.9406 49.791 12.2788 50 12.6487 50C13.0186 50 13.3567 49.791 13.5221 49.4602L15.5607 45.3829L17.5994 49.4602C17.7648 49.7911 18.103 50 18.4729 50C18.8428 50 19.1809 49.791 19.3463 49.4602L21.3851 45.3826L21.8142 46.2403C21.8142 46.2404 21.8143 46.2405 21.8143 46.2406C22.9661 48.5451 25.3209 50 27.8967 50H34.2052C37.9614 50 41.0061 46.9553 41.0061 43.1992C41.0061 42.6599 40.5688 42.2227 40.0295 42.2227C39.4902 42.2227 39.0529 42.6599 39.0529 43.1992C39.0529 45.8766 36.8827 48.0469 34.2052 48.0469H27.8967C26.0605 48.0469 24.3821 47.0098 23.5613 45.3672L22.2584 42.7624C22.0929 42.4316 21.7548 42.2227 21.3849 42.2227C21.015 42.2227 20.6769 42.4317 20.5115 42.7625L18.4729 46.8398L16.4341 42.7625C16.2687 42.4317 15.9305 42.2227 15.5606 42.2227C15.1908 42.2227 14.8526 42.4317 14.6872 42.7625L12.6486 46.8398L10.61 42.7625C10.4446 42.4317 10.1064 42.2227 9.73655 42.2227C9.36665 42.2227 9.02851 42.4317 8.86308 42.7625L6.82436 46.8398L4.78579 42.7625C4.62038 42.4317 4.28223 42.2227 3.91233 42.2227C3.54243 42.2227 3.20428 42.4317 3.03886 42.7625L0.12675 48.5867C-0.114451 49.0691 0.0810809 49.6557 0.563482 49.8969Z" fill="#1F7DBB"/>
<path d="M26 25.9766C26 26.5158 25.5627 26.9531 25.0234 26.9531C24.4842 26.9531 24.0469 26.5158 24.0469 25.9766C24.0469 25.4373 24.4842 25 25.0234 25C25.5627 25 26 25.4373 26 25.9766Z" fill="#1F7DBB"/>
<path fill-rule="evenodd" clip-rule="evenodd" d="M45.8234 38.9968C42.9365 41.8828 38.4466 42.6439 34.7874 40.8497C20.9749 34.0771 12.6329 22.1235 9.14384 15.0812C7.34073 11.4407 8.11246 7.04416 11.0012 4.15535L11.0013 4.15519L12.9577 2.19783C13.2847 1.8713 13.8133 1.87191 14.1388 2.1974L21.8741 9.9327C22.1998 10.2584 22.1998 10.7865 21.8741 11.1122L18.587 14.3992C17.3425 15.6438 17.0244 17.6389 18.0113 19.1823C18.9147 20.5962 20.0108 22.0454 21.2241 23.4589C21.5754 23.8681 22.1919 23.9151 22.6012 23.5638C23.0104 23.2126 23.0574 22.596 22.7061 22.1868C21.5415 20.83 20.5028 19.4542 19.657 18.1304L19.6568 18.1301C19.2025 17.4196 19.32 16.4284 19.9681 15.7802L23.2552 12.4933C24.3436 11.4049 24.3436 9.64004 23.2552 8.55164L15.5198 0.81628C14.4311 -0.272297 12.6666 -0.271725 11.5776 0.815807L11.577 0.816456L9.62008 2.7743C9.62003 2.77436 9.61998 2.77441 9.61992 2.77446C6.15545 6.23917 5.2083 11.5359 7.39363 15.9481L7.39368 15.9482C11.0023 23.232 19.6056 35.5811 33.9276 42.6034C38.3426 44.7682 43.7317 43.8496 47.2043 40.3781L47.2044 40.378L49.2063 38.3761L49.2069 38.3755C50.2942 37.2865 50.2949 35.5222 49.2064 34.4335L49.2032 34.4304L41.4026 26.6991C41.402 26.6985 41.4014 26.6978 41.4007 26.6972C40.3114 25.61 38.5477 25.61 37.4595 26.6995L34.1729 29.9851L34.1725 29.9856C33.5258 30.6329 32.5347 30.7511 31.8229 30.2962L31.8228 30.2961C30.8615 29.6821 29.8717 28.9655 28.8808 28.1718C28.4598 27.8347 27.8452 27.9026 27.5081 28.3236C27.1709 28.7445 27.2388 29.3591 27.6598 29.6963C28.697 30.527 29.7433 31.2854 30.7712 31.942M45.8234 38.9968L47.8247 36.9955C48.1508 36.669 48.1506 36.1414 47.8266 35.8159C47.8262 35.8154 47.8257 35.815 47.8252 35.8145L40.0246 28.0832L40.0216 28.0802C39.6947 27.7533 39.1669 27.7539 38.8414 28.0797L35.5543 31.3659C34.3103 32.6111 32.3152 32.9285 30.7713 31.9421" fill="#1F7DBB"/>
</g>
</g>
<defs>
<clipPath id="clip0_247_841">
<rect width="50" height="50" fill="white"/>
</clipPath>
</defs>
</svg>
