<svg width="50" height="50" viewBox="0 0 50 50" fill="none" xmlns="http://www.w3.org/2000/svg">
<g clip-path="url(#clip0_247_1068)">
<path d="M49.0254 22.3945V45.1172H36.6875V22.3945L38.9131 23.7393L39.7256 22.3945H49.0254Z" fill="white"/>
<path fill-rule="evenodd" clip-rule="evenodd" d="M36.2077 21.544C36.5146 21.3708 36.8909 21.3765 37.1925 21.5587L38.5823 22.3984L38.8897 21.8895C39.0666 21.5968 39.3836 21.418 39.7256 21.418H49.0254C49.5647 21.418 50.002 21.8552 50.002 22.3945V45.1172C50.002 45.6565 49.5647 46.0938 49.0254 46.0938H36.6875C36.1482 46.0938 35.7109 45.6565 35.7109 45.1172V22.3945C35.7109 22.0422 35.9008 21.7171 36.2077 21.544ZM40.2765 23.3711L39.7489 24.2443C39.615 24.466 39.3985 24.6253 39.147 24.6874C38.8955 24.7494 38.6297 24.709 38.4081 24.5751L37.6641 24.1256V44.1406H48.0488V23.3711H40.2765Z" fill="#1F7DBB"/>
<path d="M49.0234 45.1172H0.976562V49.0234H49.0234V45.1172Z" fill="white"/>
<path fill-rule="evenodd" clip-rule="evenodd" d="M0 45.1172C0 44.5778 0.437222 44.1406 0.976562 44.1406H49.0234C49.5628 44.1406 50 44.5778 50 45.1172V49.0234C50 49.5628 49.5628 50 49.0234 50H19.6289C19.0896 50 18.6523 49.5628 18.6523 49.0234C18.6523 48.4841 19.0896 48.0469 19.6289 48.0469H48.0469V46.0938H1.95312V48.0469H10.8398C11.3792 48.0469 11.8164 48.4841 11.8164 49.0234C11.8164 49.5628 11.3792 50 10.8398 50H0.976562C0.437222 50 0 49.5628 0 49.0234V45.1172Z" fill="#1F7DBB"/>
<path d="M40.9316 20.3955L38.9121 23.7393L25.001 15.3369L20.9404 17.7891L13.3164 22.3945L11.0898 23.7393L10.2773 22.3945L9.07031 20.3955L20.8945 13.2539L23.9912 11.3838C24.6123 11.0088 25.3896 11.0088 26.0107 11.3838L40.9316 20.3955Z" fill="#FF8760"/>
<path fill-rule="evenodd" clip-rule="evenodd" d="M24.4962 12.2197C24.8068 12.0322 25.1954 12.0322 25.506 12.2197L24.4962 12.2197ZM24.4962 12.2197L21.3996 14.0898L10.4112 20.7266L11.1133 21.8895L11.4209 22.3986L12.8116 21.5586L24.4963 14.501C24.8068 14.3135 25.1956 14.3135 25.506 14.501L38.5812 22.3984L39.591 20.7266L25.5061 12.2198C25.5061 12.2198 25.5061 12.2197 25.506 12.2197M23.4866 10.5478C24.4181 9.98537 25.5841 9.98537 26.5156 10.5478L26.5158 10.5479L41.4367 19.5596C41.6584 19.6935 41.8178 19.91 41.8799 20.1614C41.942 20.4129 41.9016 20.6787 41.7677 20.9004L39.7482 24.2441C39.6143 24.4658 39.3978 24.6253 39.1463 24.6874C38.8949 24.7494 38.6291 24.7091 38.4074 24.5752L25.0011 16.4778L13.8215 23.2304L11.5948 24.5752C11.1332 24.854 10.533 24.7058 10.2542 24.2443L8.23447 20.9003C7.95571 20.4386 8.10395 19.8384 8.56558 19.5596L20.3898 12.418L23.4866 10.5478Z" fill="#1F7DBB"/>
<path d="M36.6836 22.3945V45.1172H13.3125V22.3945L24.998 15.3369L36.6836 22.3945Z" fill="white"/>
<path fill-rule="evenodd" clip-rule="evenodd" d="M24.4932 14.501C24.8036 14.3135 25.1925 14.3135 25.5029 14.501L37.1885 21.5586C37.4812 21.7354 37.6602 22.0525 37.6602 22.3945V45.1172C37.6602 45.6565 37.2229 46.0938 36.6836 46.0938H13.3125C12.7732 46.0938 12.3359 45.6565 12.3359 45.1172V22.3945C12.3359 22.0525 12.5149 21.7354 12.8076 21.5586L24.4932 14.501ZM14.2891 22.9456V44.1406H35.707V22.9456L24.998 16.4778L14.2891 22.9456Z" fill="#1F7DBB"/>
<path d="M13.3145 22.3945V45.1172H0.976562V22.3945H10.2764L11.0889 23.7393L13.3145 22.3945Z" fill="white"/>
<path fill-rule="evenodd" clip-rule="evenodd" d="M13.7943 21.544C14.1012 21.7171 14.291 22.0422 14.291 22.3945V45.1172C14.291 45.6565 13.8538 46.0938 13.3145 46.0938H0.976562C0.437222 46.0938 0 45.6565 0 45.1172V22.3945C0 21.8552 0.437222 21.418 0.976562 21.418H10.2764C10.6183 21.418 10.9354 21.5968 11.1122 21.8895L11.4197 22.3984L12.8094 21.5587C13.111 21.3765 13.4874 21.3708 13.7943 21.544ZM1.95312 23.3711V44.1406H12.3379V24.1256L11.5939 24.5751C11.1323 24.854 10.5319 24.7059 10.253 24.2443L9.72544 23.3711H1.95312Z" fill="#1F7DBB"/>
<path d="M9.4082 26.3008H4.88281V30.8262H9.4082V26.3008Z" fill="#CDE3FF"/>
<path fill-rule="evenodd" clip-rule="evenodd" d="M3.90625 26.3008C3.90625 25.7614 4.34347 25.3242 4.88281 25.3242H9.4082C9.94754 25.3242 10.3848 25.7614 10.3848 26.3008V30.8262C10.3848 31.3655 9.94754 31.8027 9.4082 31.8027H4.88281C4.34347 31.8027 3.90625 31.3655 3.90625 30.8262V26.3008ZM5.85938 27.2773V29.8496H8.43164V27.2773H5.85938Z" fill="#1F7DBB"/>
<path d="M9.4082 34.7324H4.88281V39.2578H9.4082V34.7324Z" fill="#CDE3FF"/>
<path fill-rule="evenodd" clip-rule="evenodd" d="M3.90625 34.7324C3.90625 34.1931 4.34347 33.7559 4.88281 33.7559H9.4082C9.94754 33.7559 10.3848 34.1931 10.3848 34.7324V39.2578C10.3848 39.7972 9.94754 40.2344 9.4082 40.2344H4.88281C4.34347 40.2344 3.90625 39.7972 3.90625 39.2578V34.7324ZM5.85938 35.709V38.2812H8.43164V35.709H5.85938Z" fill="#1F7DBB"/>
<path d="M9.06934 20.3955L10.2764 22.3945H0.976562L6.04395 13.2539H20.8936L9.06934 20.3955Z" fill="#FF8760"/>
<path fill-rule="evenodd" clip-rule="evenodd" d="M5.18985 12.7804C5.36196 12.47 5.68898 12.2773 6.04395 12.2773H20.8936C21.332 12.2773 21.7167 12.5695 21.8343 12.9919C21.9519 13.4142 21.7737 13.8632 21.3984 14.0898L10.41 20.7266L11.1124 21.8898C11.2945 22.1914 11.3 22.5677 11.1268 22.8745C10.9537 23.1813 10.6287 23.3711 10.2764 23.3711H0.976563C0.630704 23.3711 0.310643 23.1882 0.135114 22.8902C-0.0404141 22.5921 -0.0452246 22.2235 0.122468 21.921L5.18985 12.7804ZM6.61915 14.2305L2.63454 21.418H8.54593L8.23335 20.9003C7.95459 20.4386 8.10283 19.8384 8.56445 19.5596L17.3878 14.2305H6.61915Z" fill="#1F7DBB"/>
<path d="M40.5918 30.8262H45.1172V26.3008H40.5918V30.8262Z" fill="#CDE3FF"/>
<path fill-rule="evenodd" clip-rule="evenodd" d="M46.0938 30.8262C46.0938 31.3655 45.6565 31.8027 45.1172 31.8027H40.5918C40.0525 31.8027 39.6152 31.3655 39.6152 30.8262V26.3008C39.6152 25.7614 40.0525 25.3242 40.5918 25.3242H45.1172C45.6565 25.3242 46.0938 25.7614 46.0938 26.3008V30.8262ZM44.1406 29.8496V27.2773H41.5684V29.8496H44.1406Z" fill="#1F7DBB"/>
<path d="M40.5918 39.2578H45.1172V34.7324H40.5918V39.2578Z" fill="#CDE3FF"/>
<path fill-rule="evenodd" clip-rule="evenodd" d="M46.0938 39.2578C46.0938 39.7972 45.6565 40.2344 45.1172 40.2344H40.5918C40.0525 40.2344 39.6152 39.7972 39.6152 39.2578V34.7324C39.6152 34.1931 40.0525 33.7559 40.5918 33.7559H45.1172C45.6565 33.7559 46.0938 34.1931 46.0938 34.7324V39.2578ZM44.1406 38.2812V35.709H41.5684V38.2812H44.1406Z" fill="#1F7DBB"/>
<path d="M29.3299 31.8027H20.668V45.1172H29.3299V31.8027Z" fill="#FF8760"/>
<path fill-rule="evenodd" clip-rule="evenodd" d="M19.6914 31.8027C19.6914 31.2634 20.1286 30.8262 20.668 30.8262H29.3299C29.8692 30.8262 30.3064 31.2634 30.3064 31.8027V45.1172C30.3064 45.6565 29.8692 46.0938 29.3299 46.0938H20.668C20.1286 46.0938 19.6914 45.6565 19.6914 45.1172V31.8027ZM21.6445 32.7793V44.1406H28.3533V32.7793H21.6445Z" fill="#1F7DBB"/>
<path fill-rule="evenodd" clip-rule="evenodd" d="M12.3359 41.2109C12.3359 40.6716 12.7732 40.2344 13.3125 40.2344H20.6671C21.2064 40.2344 21.6437 40.6716 21.6437 41.2109V45.1172C21.6437 45.6565 21.2064 46.0938 20.6671 46.0938H13.3125C12.7732 46.0938 12.3359 45.6565 12.3359 45.1172V41.2109ZM14.2891 42.1875V44.1406H19.6905V42.1875H14.2891Z" fill="#1F7DBB"/>
<path fill-rule="evenodd" clip-rule="evenodd" d="M28.3555 41.2109C28.3555 40.6716 28.7927 40.2344 29.332 40.2344H36.6866C37.226 40.2344 37.6632 40.6716 37.6632 41.2109V45.1172C37.6632 45.6565 37.226 46.0938 36.6866 46.0938H29.332C28.7927 46.0938 28.3555 45.6565 28.3555 45.1172V41.2109ZM30.3086 42.1875V44.1406H35.7101V42.1875H30.3086Z" fill="#1F7DBB"/>
<path d="M25 27.4082C26.8877 27.4082 28.418 25.8779 28.418 23.9902C28.418 22.1025 26.8877 20.5723 25 20.5723C23.1123 20.5723 21.582 22.1025 21.582 23.9902C21.582 25.8779 23.1123 27.4082 25 27.4082Z" fill="#CDE3FF"/>
<path fill-rule="evenodd" clip-rule="evenodd" d="M25 21.5488C23.6516 21.5488 22.5586 22.6419 22.5586 23.9902C22.5586 25.3386 23.6516 26.4316 25 26.4316C26.3484 26.4316 27.4414 25.3386 27.4414 23.9902C27.4414 22.6419 26.3484 21.5488 25 21.5488ZM20.6055 23.9902C20.6055 21.5632 22.573 19.5957 25 19.5957C27.427 19.5957 29.3945 21.5632 29.3945 23.9902C29.3945 26.4173 27.427 28.3848 25 28.3848C22.573 28.3848 20.6055 26.4173 20.6055 23.9902Z" fill="#1F7DBB"/>
<path fill-rule="evenodd" clip-rule="evenodd" d="M25 0C25.5393 0 25.9766 0.437222 25.9766 0.976562V11.1025C25.9766 11.6419 25.5393 12.0791 25 12.0791C24.4607 12.0791 24.0234 11.6419 24.0234 11.1025V0.976562C24.0234 0.437222 24.4607 0 25 0Z" fill="#1F7DBB"/>
<path d="M25 5.34268C27.2558 8.60791 29.5114 5.16494 31.7672 8.43018C31.7672 6.9748 31.7672 5.51943 31.7672 4.06406C29.5114 0.798828 27.2558 4.2418 25 0.976562C25 2.43193 25 3.8873 25 5.34268Z" fill="#49B1F7"/>
<path fill-rule="evenodd" clip-rule="evenodd" d="M24.7093 0.0443484C25.1173 -0.0828722 25.5606 0.0699544 25.8035 0.421562C26.2709 1.09812 26.6735 1.34225 26.9998 1.45068C27.3689 1.57336 27.7558 1.5678 28.3451 1.54458C28.3622 1.54391 28.3796 1.54321 28.3971 1.54251C28.9308 1.52119 29.6487 1.4925 30.3834 1.73664C31.185 2.00304 31.9102 2.553 32.5707 3.50906C32.6834 3.67222 32.7437 3.86583 32.7437 4.06414V8.43025C32.7437 8.8576 32.4659 9.23531 32.0579 9.36253C31.6499 9.48975 31.2066 9.33693 30.9637 8.98532C30.4963 8.30876 30.0936 8.06463 29.7674 7.9562C29.3983 7.83352 29.0113 7.83909 28.422 7.8623C28.4049 7.86298 28.3876 7.86367 28.3701 7.86437C27.8364 7.8857 27.1185 7.91439 26.3838 7.67024C25.5822 7.40384 24.857 6.85388 24.1965 5.89782C24.0838 5.73466 24.0234 5.54105 24.0234 5.34275V0.976635C24.0234 0.549282 24.3013 0.171569 24.7093 0.0443484ZM25.9766 3.14071V5.0228C26.3708 5.52344 26.7145 5.72199 26.9998 5.81679C27.3689 5.93947 27.7558 5.93391 28.3451 5.91069C28.3622 5.91002 28.3796 5.90933 28.3971 5.90863C28.9308 5.8873 29.6487 5.85861 30.3834 6.10275C30.5214 6.14861 30.6571 6.20288 30.7906 6.26617V4.38408C30.3963 3.88344 30.0527 3.68489 29.7674 3.59009C29.3983 3.46741 29.0113 3.47297 28.422 3.49619C28.4049 3.49686 28.3876 3.49756 28.3701 3.49825C27.8364 3.51958 27.1184 3.54827 26.3838 3.30413C26.2458 3.25827 26.1101 3.204 25.9766 3.14071Z" fill="#1F7DBB"/>
<path d="M39.7227 22.3945L40.9297 20.3955L29.1055 13.2539H43.9551L49.0225 22.3945H39.7227Z" fill="#FF8760"/>
<path fill-rule="evenodd" clip-rule="evenodd" d="M28.1648 12.9919C28.2825 12.5695 28.6671 12.2773 29.1056 12.2773H43.9552C44.3101 12.2773 44.6371 12.47 44.8093 12.7804L49.8766 21.921C50.0443 22.2235 50.0395 22.5921 49.864 22.8902C49.6885 23.1882 49.3684 23.3711 49.0225 23.3711H39.7227C39.3704 23.3711 39.0454 23.1813 38.8723 22.8745C38.6991 22.5677 38.7046 22.1914 38.8868 21.8898L39.5891 20.7266L28.6007 14.0898C28.2254 13.8632 28.0472 13.4142 28.1648 12.9919ZM32.6113 14.2305L41.4347 19.5596C41.8963 19.8384 42.0445 20.4386 41.7658 20.9003L41.4532 21.418H47.3646L43.38 14.2305H32.6113Z" fill="#1F7DBB"/>
<path fill-rule="evenodd" clip-rule="evenodd" d="M22.6211 38.46C22.6211 37.9206 23.0583 37.4834 23.5977 37.4834H24.3404C24.8798 37.4834 25.317 37.9206 25.317 38.46C25.317 38.9993 24.8798 39.4365 24.3404 39.4365H23.5977C23.0583 39.4365 22.6211 38.9993 22.6211 38.46Z" fill="#1F7DBB"/>
</g>
<defs>
<clipPath id="clip0_247_1068">
<rect width="50" height="50" fill="white"/>
</clipPath>
</defs>
</svg>
