<svg width="30" height="30" viewBox="0 0 30 30" fill="none" xmlns="http://www.w3.org/2000/svg">
<g clip-path="url(#clip0_247_163)">
<path d="M20.199 12.5695H19.4961V9.91699H20.199C20.9314 9.91699 21.5251 10.5109 21.5251 11.2434C21.5251 11.9758 20.9314 12.5695 20.199 12.5695Z" fill="white"/>
<path d="M9.85348 12.5695H10.5564V9.91699H9.85348C9.12106 9.91699 8.52734 10.5109 8.52734 11.2434C8.52734 11.9758 9.12106 12.5695 9.85348 12.5695Z" fill="white"/>
<path d="M12.1433 17.3662L6.32743 18.5742C4.14367 19.0279 2.57812 20.9518 2.57812 23.1823V29.414H27.4635V23.1848C27.4635 20.9532 25.8963 19.0285 23.7112 18.576L17.867 17.3662V14.9707H12.1433V17.3662Z" fill="#49B1F7"/>
<path d="M15.0195 23.0664C15.0237 21.6584 16.1665 20.519 17.5743 20.519H23.457V29.414H15.0195V23.0664Z" fill="#FFC107"/>
<path d="M19.4957 8.27519V11.4395C19.4957 13.9086 17.4941 15.9102 15.0252 15.9102C12.5563 15.9102 10.5547 13.9086 10.5547 11.4395V8.27519C10.5547 6.76068 11.7822 5.53296 13.2967 5.53296H16.7537C18.268 5.53296 19.4957 6.76068 19.4957 8.27519Z" fill="white"/>
<path d="M10.5547 8.55468V6.29241C10.5547 4.03243 12.3867 2.20024 14.6466 2.20024H18.1556C19.3678 2.20024 20.4998 1.59462 21.172 0.585938V5.1567C21.172 7.03353 19.6509 8.55468 17.7743 8.55468H10.5547Z" fill="#FFC107"/>
<path d="M15.0195 23.0664C15.0154 21.6584 13.8728 20.519 12.4647 20.519H6.58203V29.414H15.0195V23.0664Z" fill="#FFDD40"/>
<path d="M13.457 11.0923C13.303 11.0923 13.1517 11.155 13.0428 11.2642C12.9338 11.3731 12.8711 11.5242 12.8711 11.6782C12.8711 11.8332 12.9338 11.9842 13.0428 12.0925C13.1517 12.2021 13.303 12.2642 13.457 12.2642C13.6111 12.2642 13.7624 12.2021 13.8718 12.0925C13.9807 11.9835 14.043 11.8325 14.043 11.6782C14.043 11.5242 13.9807 11.3736 13.8718 11.2642C13.7624 11.155 13.6111 11.0923 13.457 11.0923Z" fill="#1F7DBB"/>
<path d="M17.1289 11.0923C16.9749 11.0923 16.8238 11.155 16.7146 11.2642C16.6057 11.3736 16.543 11.5242 16.543 11.6782C16.543 11.8332 16.6057 11.9835 16.7146 12.0925C16.8238 12.2021 16.9749 12.2642 17.1289 12.2642C17.2832 12.2642 17.4342 12.2021 17.5432 12.0925C17.6521 11.9835 17.7148 11.8325 17.7148 11.6782C17.7148 11.5249 17.6521 11.3736 17.5432 11.2642C17.4342 11.155 17.2829 11.0923 17.1289 11.0923Z" fill="#1F7DBB"/>
<path d="M26.8613 19.8433C26.095 18.9022 25.0186 18.2483 23.8302 18.0022L18.4529 16.8889V15.1556C19.0443 14.6104 19.5055 13.9263 19.7845 13.1554H20.1986C21.253 13.1554 22.1109 12.2976 22.1109 11.2434C22.1109 10.1889 21.253 9.33105 20.1986 9.33105H20.0848V8.39904C21.0967 7.67577 21.7582 6.49246 21.7582 5.1567V0.585941C21.7582 0.327763 21.5893 0.100026 21.3421 0.0251816C21.0949 -0.0496626 20.828 0.0462387 20.6847 0.26093C20.1196 1.10848 19.1743 1.61431 18.1558 1.61431H14.6466C12.0671 1.61431 9.96871 3.71292 9.96871 6.29241V8.55468C9.96871 8.57528 9.96985 8.59565 9.97191 8.61579V9.33105H9.85175C8.79752 9.33105 7.93967 10.1889 7.93967 11.2434C7.93967 12.2976 8.79752 13.1554 9.85175 13.1554H10.2722C10.5437 13.9059 10.9886 14.5733 11.5574 15.1114V16.8894L6.20841 18.0004C5.02075 18.2471 3.945 18.9013 3.1794 19.8422C2.41402 20.7831 1.99242 21.9692 1.99242 23.1823V24.0234C1.99242 24.347 2.25471 24.6093 2.57835 24.6093C2.90176 24.6093 3.16429 24.347 3.16429 24.0234V23.1823C3.16429 21.2397 4.54467 19.5431 6.44668 19.1478L12.2626 17.9397C12.5345 17.8832 12.7292 17.6438 12.7292 17.3659V15.9409C13.4196 16.2948 14.2007 16.4962 15.0284 16.4962C15.8375 16.4962 16.6022 16.3039 17.281 15.9647V17.3662C17.281 17.6438 17.476 17.8834 17.7482 17.9397L23.5926 19.1498C25.496 19.544 26.8778 21.2409 26.8778 23.1848V28.8281H24.0445V20.519C24.0445 20.1956 23.7819 19.9331 23.4585 19.9331H17.5756C16.5243 19.9331 15.5914 20.4545 15.0208 21.2517C14.4502 20.4545 13.5173 19.9331 12.466 19.9331H6.58332C6.25991 19.9331 5.99738 20.1956 5.99738 20.519V28.8281H3.16406V28.6132C3.16406 28.2898 2.90176 28.0272 2.57812 28.0272C2.25449 28.0272 1.99219 28.2898 1.99219 28.6132V29.414C1.99219 29.7377 2.25449 30 2.57812 30H27.4635C27.7871 30 28.0494 29.7377 28.0494 29.414V23.1848C28.0494 21.9713 27.6276 20.7845 26.8613 19.8433ZM20.1986 10.5029C20.6067 10.5029 20.9388 10.835 20.9388 11.2434C20.9388 11.6517 20.6067 11.9838 20.1986 11.9838H20.0816V11.5658C20.0828 11.5237 20.0848 11.4818 20.0848 11.4395V10.5031H20.1986V10.5029ZM11.1406 6.29241C11.1406 4.35905 12.7132 2.78618 14.6466 2.78618H18.1558C19.0407 2.78618 19.8859 2.51061 20.5863 2.01531V5.1567C20.5863 6.70738 19.3249 7.96874 17.7743 7.96874H11.1406V6.29241ZM9.96871 11.9838H9.85175C9.44365 11.9838 9.11155 11.6517 9.11155 11.2434C9.11155 10.835 9.44365 10.5029 9.85175 10.5029H9.96871V11.9838ZM11.1438 11.4395V9.14062H17.7743C18.17 9.14062 18.552 9.08202 18.9129 8.97399V9.8561C18.9109 9.87601 18.9097 9.89638 18.9097 9.91698V11.5658C18.8427 13.6496 17.1279 15.3241 15.0284 15.3241C12.8863 15.3241 11.1438 13.5816 11.1438 11.4395ZM17.5756 21.1049H22.8724V28.8281H21.2317V25.2733C21.2317 24.9499 20.9694 24.6874 20.6458 24.6874C20.3222 24.6874 20.0599 24.9499 20.0599 25.2733V28.8281H15.6067V23.0681C15.6099 21.9857 16.4932 21.1049 17.5756 21.1049ZM7.16926 21.1049H12.466C13.5486 21.1049 14.4319 21.9857 14.4349 23.0681V28.8281H7.16926V21.1049Z" fill="#1F7DBB"/>
<path d="M2.57812 27.0508C2.73216 27.0508 2.88345 26.9883 2.9924 26.8791C3.10203 26.7697 3.16452 26.6191 3.16452 26.4649C3.16452 26.3108 3.10203 26.1598 2.9924 26.0508C2.88345 25.9412 2.73285 25.8792 2.57812 25.8792C2.42409 25.8792 2.2728 25.9412 2.16385 26.0508C2.0549 26.1598 1.99219 26.3104 1.99219 26.4649C1.99219 26.6191 2.0549 26.7702 2.16385 26.8791C2.27348 26.9883 2.42409 27.0508 2.57812 27.0508Z" fill="#1F7DBB"/>
<path d="M20.6445 23.9772C20.7988 23.9772 20.9499 23.9145 21.0588 23.8055C21.1678 23.6966 21.2305 23.5453 21.2305 23.3912C21.2305 23.237 21.1678 23.0859 21.0588 22.977C20.9499 22.8673 20.7988 22.8053 20.6445 22.8053C20.4905 22.8053 20.3394 22.8673 20.2303 22.977C20.1213 23.0859 20.0586 23.2365 20.0586 23.3912C20.0586 23.5453 20.1213 23.6966 20.2303 23.8055C20.3394 23.9145 20.4905 23.9772 20.6445 23.9772Z" fill="#1F7DBB"/>
<path d="M18.242 4.45978C18.242 4.13614 17.9797 3.87384 17.6561 3.87384H14.6452C13.3115 3.87384 12.2266 4.95874 12.2266 6.29243C12.2266 6.61584 12.4889 6.87837 12.8125 6.87837C13.1359 6.87837 13.3984 6.61584 13.3984 6.29243C13.3984 5.60487 13.9576 5.04571 14.6452 5.04571H17.6561C17.9797 5.04571 18.242 4.78319 18.242 4.45978Z" fill="#1F7DBB"/>
</g>
<defs>
<clipPath id="clip0_247_163">
<rect width="30" height="30" fill="white"/>
</clipPath>
</defs>
</svg>
