<svg width="30" height="30" viewBox="0 0 30 30" fill="none" xmlns="http://www.w3.org/2000/svg">
<g clip-path="url(#clip0_247_211)">
<path d="M25.6485 0.58606L11.2147 0.586177C8.03958 0.586177 5.44141 3.18446 5.44141 6.35943C5.44141 8.2707 6.38723 10.058 7.96745 11.1331V9.96102C7.96745 8.64711 8.33278 7.41435 8.96694 6.35949H14.8727H19.8752V6.35556L20.0025 6.35808C21.6735 6.32134 23.1755 5.5656 24.2094 4.38968C25.1042 3.37185 25.6485 2.03948 25.6485 0.58606Z" fill="#FFC107"/>
<path d="M24.2108 4.38971C23.1769 5.56557 21.6749 6.32137 20.0039 6.35811L20.0796 6.35958C20.3888 6.35958 20.6923 6.33497 20.9882 6.28815C21.649 7.35872 22.0312 8.61732 22.0312 9.96105V11.1331C23.6114 10.0581 24.5574 8.27073 24.5574 6.35946C24.5574 5.68768 24.4401 5.02106 24.2108 4.38971Z" fill="#FFC107"/>
<path d="M22.0311 9.96098C22.0311 8.61725 21.6489 7.35865 20.9881 6.28802C20.6921 6.33484 20.3887 6.35945 20.0795 6.35945L20.0038 6.35799C19.9614 6.35881 19.9189 6.35945 19.8764 6.35945H14.8739H8.96824C8.33414 7.41432 7.96875 8.64707 7.96875 9.96098V11.133V14.6486C7.96875 16.3145 8.55586 17.85 9.53397 19.0579C10.8253 20.6546 12.7986 21.6797 15 21.6797C17.2012 21.6797 19.1746 20.6546 20.4658 19.0579C21.444 17.8501 22.0311 16.3146 22.0311 14.6487V11.1331V9.96098Z" fill="white"/>
<path d="M7.96881 14.6487V11.1331H7.38287C6.41203 11.1331 5.625 11.9202 5.625 12.8909C5.625 13.8617 6.41203 14.6487 7.38287 14.6487H7.96881Z" fill="white"/>
<path d="M22.0312 11.1331V14.6487H22.6171C23.588 14.6487 24.375 13.8617 24.375 12.8909C24.375 11.9202 23.588 11.1331 22.6171 11.1331H22.0312Z" fill="white"/>
<path d="M6.79803 27.0704V21.066C5.16438 22.6714 3.99572 24.7485 3.51953 27.0704H6.79803Z" fill="#CDE3FF"/>
<path d="M23.2031 21.066V27.0704H26.4816C26.0055 24.7487 24.8367 22.6716 23.2031 21.066Z" fill="#CDE3FF"/>
<path d="M6.79688 29.4141V27.0704H3.51838C3.36293 27.8283 3.28125 28.6122 3.28125 29.4141H6.79688Z" fill="white"/>
<path d="M6.79688 27.0704V29.4141H23.2032V27.0704V21.066C22.3953 20.272 21.4737 19.5936 20.4664 19.0582C19.1746 20.6545 17.2013 21.6796 15.0001 21.6796C12.7986 21.6796 10.8253 20.6545 9.53403 19.0579C8.52621 19.5936 7.60471 20.272 6.79688 21.0659V27.0704Z" fill="#CDE3FF"/>
<path d="M23.2031 27.0704V29.4141H26.7188C26.7188 28.6122 26.6371 27.8283 26.4816 27.0704H23.2031Z" fill="white"/>
<path d="M15 25.2719C14.6764 25.2719 14.4141 25.5342 14.4141 25.8579V25.8857C14.4141 26.2094 14.6763 26.4717 15 26.4717C15.3236 26.4717 15.5859 26.2094 15.5859 25.8857V25.8579C15.5859 25.5342 15.3237 25.2719 15 25.2719Z" fill="#1F7DBB"/>
<path d="M29.4122 28.828H29.3984C29.0749 28.828 28.8125 29.0903 28.8125 29.4139C28.8125 29.7376 29.0749 29.9999 29.3984 29.9999H29.4122C29.7358 29.9999 29.9981 29.7376 29.9981 29.4139C29.9981 29.0904 29.7359 28.828 29.4122 28.828Z" fill="#1F7DBB"/>
<path d="M27.7149 28.828H27.2886C27.2584 28.1924 27.1792 27.566 27.0539 26.9531C27.0538 26.9526 27.0537 26.9521 27.0536 26.9517C26.3703 23.612 24.3155 20.6763 21.331 18.8764C22.0395 17.8186 22.4905 16.5746 22.5929 15.2346H22.6151C23.9075 15.2346 24.959 14.1832 24.959 12.8908C24.959 11.8864 24.3237 11.0279 23.434 10.695C24.52 9.53059 25.1414 7.9874 25.1414 6.35943C25.1414 5.73323 25.0488 5.11595 24.8681 4.51917C25.7231 3.43612 26.234 2.06954 26.234 0.58588C26.234 0.430489 26.1722 0.281426 26.0623 0.171563C25.9524 0.0617579 25.8032 0 25.6478 0L11.214 0.000234375C7.70745 0.000234375 4.85481 2.85299 4.85481 6.35943C4.85481 7.98746 5.47614 9.53059 6.562 10.695C5.67231 11.0279 5.03704 11.8864 5.03704 12.8908C5.03704 14.1832 6.08845 15.2346 7.38085 15.2346H7.40318C7.5056 16.5747 7.95654 17.8187 8.66499 18.8764C5.68063 20.6763 3.62598 23.6119 2.9426 26.9514C2.94248 26.9521 2.94231 26.9528 2.94213 26.9535C2.81686 27.5663 2.73781 28.1926 2.70758 28.8281H2.28125C1.95764 28.8281 1.69531 29.0904 1.69531 29.414C1.69531 29.7376 1.95764 29.9999 2.28125 29.9999H3.27635C3.27735 29.9999 3.27828 30.0001 3.27922 30.0001C3.28016 30.0001 3.28116 29.9999 3.28209 29.9999H6.79198C6.79292 29.9999 6.79386 30.0001 6.79485 30.0001C6.79579 30.0001 6.79667 29.9999 6.79767 29.9999H23.1983C23.1993 29.9999 23.2002 30.0001 23.2011 30.0001C23.2021 30.0001 23.2031 29.9999 23.204 29.9999H26.714C26.715 29.9999 26.7158 30.0001 26.7168 30.0001C26.7178 30.0001 26.7187 29.9999 26.7196 29.9999H27.7148C28.0384 29.9999 28.3007 29.7376 28.3007 29.414C28.3008 29.0904 28.0385 28.828 27.7149 28.828ZM6.20892 28.828H3.88063C3.90143 28.433 3.94332 28.0421 4.00508 27.6563H6.20892V28.828ZM6.20892 26.4845H4.25862C4.64633 25.0681 5.31085 23.747 6.20892 22.594V26.4845ZM23.787 12.8908C23.787 13.537 23.2612 14.0627 22.6151 14.0627V11.719C23.2613 11.719 23.787 12.2447 23.787 12.8908ZM22.6133 9.85631C22.5977 8.73529 22.3345 7.63566 21.8439 6.63271C22.6005 6.38556 23.2954 6.00036 23.8982 5.50653C23.945 5.78749 23.9694 6.07226 23.9694 6.35943C23.9694 7.669 23.4764 8.91119 22.6133 9.85631ZM7.38085 14.0627C6.73468 14.0627 6.20892 13.537 6.20892 12.8908C6.20892 12.2447 6.73468 11.719 7.38085 11.719V14.0627ZM7.38267 9.85625C6.51964 8.91119 6.02669 7.66894 6.02669 6.35943C6.02669 3.49905 8.35374 1.17211 11.214 1.17211L25.029 1.17199C24.9096 2.22844 24.4713 3.18967 23.8134 3.95725C23.7836 3.9845 23.7568 4.01462 23.7335 4.04696C22.8059 5.08021 21.4712 5.7398 19.9839 5.77097C19.9544 5.77044 19.9247 5.77097 19.8954 5.76997C19.866 5.76898 19.8369 5.77015 19.8081 5.77355H18.5344C19.0769 5.39058 19.5631 4.922 19.9686 4.37925C20.1623 4.12003 20.1091 3.75282 19.8499 3.55917C19.5906 3.36546 19.2235 3.41866 19.0298 3.67788C18.0496 4.98991 16.4953 5.77331 14.872 5.77355H9.10298H8.96628C8.76062 5.77355 8.56996 5.88136 8.46408 6.05761C7.77349 7.20646 7.40118 8.51779 7.38267 9.85625ZM8.55273 14.6486V11.1363C8.55273 11.1357 8.55273 11.1351 8.55273 11.1344V9.96096C8.55273 8.90779 8.81277 7.87209 9.30742 6.94536H14.8721H14.8722H19.8746C19.9062 6.94536 19.9377 6.9446 19.9692 6.94413C20.0065 6.94484 20.0429 6.94536 20.0776 6.94536C20.2761 6.94536 20.4753 6.93605 20.6736 6.91753C21.1781 7.85175 21.4433 8.89642 21.4433 9.96096V11.1344C21.4433 11.1351 21.4433 11.1357 21.4433 11.1365V14.6486C21.4433 16.1519 20.9259 17.5365 20.0599 18.634C20.0245 18.6678 19.993 18.7067 19.9662 18.7501C18.7831 20.1807 16.9952 21.0939 14.9981 21.0939H14.9978C13.0006 21.0939 11.2127 20.1807 10.0296 18.7499C10.0028 18.7067 9.97146 18.6678 9.93607 18.6341C9.07023 17.5366 8.55273 16.1519 8.55273 14.6486ZM22.6152 28.828H7.38079V21.3099C7.98683 20.7415 8.66142 20.2355 9.39677 19.8048C10.6656 21.182 12.4342 22.0922 14.412 22.2433L14.4121 24.1537C14.4121 24.4774 14.6746 24.7397 14.9981 24.7396C15.3217 24.7396 15.584 24.4772 15.584 24.1536L15.5838 22.2432C17.5617 22.0921 19.3303 21.182 20.5992 19.8047C21.3346 20.2354 22.0092 20.7414 22.6153 21.3099V28.828H22.6152ZM23.7871 22.5941C24.6851 23.7471 25.3497 25.0682 25.7374 26.4845H23.7871V22.5941ZM23.7871 28.828V27.6563H25.991C26.0527 28.042 26.0946 28.433 26.1154 28.828H23.7871Z" fill="#1F7DBB"/>
<path d="M0.599591 28.828H0.585939C0.262325 28.828 0 29.0903 0 29.4139C0 29.7376 0.262325 29.9999 0.585939 29.9999H0.599591C0.923146 29.9999 1.18553 29.7376 1.18553 29.4139C1.18553 29.0904 0.923146 28.828 0.599591 28.828Z" fill="#1F7DBB"/>
<path d="M17.9277 13.9162C17.5242 13.9162 17.1953 14.2452 17.1953 14.6486C17.1953 15.052 17.5242 15.3812 17.9277 15.3812C18.3312 15.3812 18.6602 15.052 18.6602 14.6486C18.6602 14.2452 18.3312 13.9162 17.9277 13.9162Z" fill="#1F7DBB"/>
<path d="M12.0684 13.9162C11.6649 13.9162 11.3359 14.2452 11.3359 14.6486C11.3359 15.052 11.6649 15.3812 12.0684 15.3812C12.4718 15.3812 12.8009 15.052 12.8009 14.6486C12.8009 14.2452 12.4718 13.9162 12.0684 13.9162Z" fill="#1F7DBB"/>
<path d="M10.8991 13.205C10.9986 13.205 11.0993 13.1797 11.1916 13.1265C11.4585 12.9723 11.7624 12.8909 12.0705 12.8909C12.3785 12.8909 12.6824 12.9724 12.9493 13.1265C13.2296 13.2883 13.5879 13.1923 13.7497 12.9121C13.9116 12.6318 13.8156 12.2735 13.5354 12.1116C13.0905 11.8548 12.5841 11.7189 12.0705 11.7189C11.557 11.7189 11.0504 11.8547 10.6056 12.1116C10.3253 12.2734 10.2293 12.6318 10.3911 12.912C10.4998 13.1 10.6966 13.205 10.8991 13.205Z" fill="#1F7DBB"/>
<path d="M17.0509 13.1264C17.3178 12.9723 17.6218 12.8908 17.9297 12.8908C18.2378 12.8908 18.5417 12.9723 18.8087 13.1264C18.901 13.1797 19.0017 13.205 19.1011 13.205C19.3036 13.205 19.5005 13.0999 19.6092 12.912C19.771 12.6317 19.675 12.2734 19.3947 12.1115C18.9499 11.8546 18.4432 11.7189 17.9297 11.7189C17.4162 11.7189 16.9097 11.8546 16.4649 12.1116C16.1846 12.2734 16.0887 12.6318 16.2505 12.912C16.4124 13.1922 16.7707 13.2883 17.0509 13.1264Z" fill="#1F7DBB"/>
<path d="M13.3209 17.5C13.159 17.7802 13.2549 18.1386 13.5352 18.3005C13.9799 18.5574 14.4864 18.6932 15 18.6932C15.5137 18.6932 16.0202 18.5574 16.4649 18.3005C16.7451 18.1387 16.8411 17.7803 16.6792 17.5C16.5173 17.2198 16.159 17.1238 15.8788 17.2857C15.6119 17.4398 15.3081 17.5213 15 17.5213C14.692 17.5213 14.3881 17.4398 14.1213 17.2857C13.8411 17.1239 13.4827 17.2198 13.3209 17.5Z" fill="#1F7DBB"/>
<path d="M20.0718 3.15992C20.1394 3.18529 20.2088 3.19736 20.2771 3.19736C20.5144 3.19736 20.7381 3.05175 20.8267 2.81662C20.8271 2.8155 20.8295 2.80906 20.8299 2.808C20.9419 2.50507 20.7866 2.17144 20.484 2.05859C20.1817 1.94579 19.8436 2.10165 19.7299 2.40394C19.7299 2.40412 19.7289 2.40658 19.7288 2.40681C19.6153 2.70962 19.769 3.04613 20.0718 3.15992Z" fill="#1F7DBB"/>
</g>
<defs>
<clipPath id="clip0_247_211">
<rect width="30" height="30" fill="white"/>
</clipPath>
</defs>
</svg>
