<svg width="75" height="75" viewBox="0 0 75 75" fill="none" xmlns="http://www.w3.org/2000/svg">
<g clip-path="url(#clip0_167_1978)">
<mask id="mask0_167_1978" style="mask-type:luminance" maskUnits="userSpaceOnUse" x="0" y="0" width="75" height="75">
<path d="M0 7.62939e-06H75V75H0V7.62939e-06Z" fill="white"/>
</mask>
<g mask="url(#mask0_167_1978)">
<path fill-rule="evenodd" clip-rule="evenodd" d="M58.8872 1.46467C66.9774 1.46467 73.5356 8.02292 73.5356 16.1131C73.5356 24.2033 66.9774 30.7617 58.8872 30.7617C56.0845 30.7617 53.466 29.974 51.2398 28.6088C49.6716 29.0295 48.1032 29.4504 46.5348 29.8706C45.6975 30.1069 44.8958 29.3409 45.1253 28.48C45.5472 26.9056 45.969 25.3327 46.3912 23.7596C45.0261 21.5339 44.2388 18.9155 44.2388 16.1131C44.2388 8.02292 50.797 1.46467 58.8872 1.46467Z" fill="#FFC107"/>
<path fill-rule="evenodd" clip-rule="evenodd" d="M31.1721 52.7536C30.3425 52.4399 29.4894 52.1752 28.6162 51.9632L28.608 51.9585C26.9807 52.452 25.2567 52.7177 23.4737 52.7177C21.6925 52.7177 19.9701 52.4526 18.3441 51.96C17.4666 52.1725 16.609 52.4382 15.7754 52.7536L17.5208 60.0682H29.4266L31.1721 52.7536Z" fill="white"/>
<path fill-rule="evenodd" clip-rule="evenodd" d="M29.4262 60.0682H17.5205L20.7341 73.5353H26.2126L29.4262 60.0682Z" fill="#FFC107"/>
<path fill-rule="evenodd" clip-rule="evenodd" d="M20.7345 73.5353L17.5209 60.0681L15.7754 52.7537C14.2015 53.349 12.7123 54.1211 11.3329 55.0454L11.0291 64.1084L14.9323 65.8204L10.3442 69.6551L15.0007 73.5353H20.7345Z" fill="#FF8760"/>
<path fill-rule="evenodd" clip-rule="evenodd" d="M29.4265 60.0682L26.2129 73.5353H31.9467L36.6032 69.6551L32.0151 65.8203L35.9184 64.1083L35.6146 55.0454C34.235 54.1212 32.7459 53.3491 31.172 52.7537L29.4265 60.0682Z" fill="#FF8760"/>
<path fill-rule="evenodd" clip-rule="evenodd" d="M32.0152 65.8203L36.6032 69.6551L31.9468 73.5352H45.3867V73.2611C45.3867 67.4282 43.077 62.1091 39.3268 58.1726C38.2096 56.9997 36.9646 55.9497 35.6146 55.0453L35.9184 64.1083L32.0152 65.8203Z" fill="#FF8760"/>
<path fill-rule="evenodd" clip-rule="evenodd" d="M10.344 69.6551L14.9321 65.8202L11.0289 64.1083L11.3327 55.0454C9.98281 55.9497 8.7377 56.9998 7.62046 58.1726C3.87046 62.1091 1.56055 67.4282 1.56055 73.2611V73.5353H15.0006L10.344 69.6551Z" fill="#FF8760"/>
<path fill-rule="evenodd" clip-rule="evenodd" d="M20.7348 26.6957H8.46099C8.46099 28.2023 7.22847 29.4348 5.72187 29.4348L4.98462 29.435C3.97139 29.435 3.05747 29.8809 2.4292 30.5862C1.88955 31.1918 1.56055 31.9888 1.56055 32.8591C1.56055 34.1219 2.25356 35.2309 3.27808 35.8242C3.78125 36.1159 4.36426 36.2828 4.98462 36.2828H5.72187C6.36362 44.6172 12.7389 51.2093 20.6469 52.4919C21.568 52.6405 22.5122 52.7178 23.4736 52.7178C23.6939 52.7178 23.9133 52.7137 24.1317 52.7056C24.2101 52.7027 24.2885 52.6992 24.3668 52.6951C33.1143 52.2466 40.5277 45.3445 41.2253 36.2828H41.9628C42.5831 36.2828 43.1661 36.1159 43.6692 35.8242C44.6937 35.2309 45.3868 34.1219 45.3868 32.8591C45.3868 31.8391 44.9349 30.9196 44.2213 30.2909C43.6174 29.7589 42.8261 29.435 41.9628 29.435C41.717 29.435 41.4712 29.4351 41.2253 29.4346C39.719 29.4346 38.4863 28.2022 38.4862 26.6957H37.1694C32.6498 26.6957 28.9521 22.9979 28.9521 18.4783C28.9521 22.9979 25.2544 26.6957 20.7348 26.6957Z" fill="white"/>
<path fill-rule="evenodd" clip-rule="evenodd" d="M8.46099 26.6957H20.7348C25.2542 26.6957 28.9521 22.9979 28.9521 18.4783L29.2747 11.2649C28.8992 15.443 25.3618 18.7459 21.0903 18.7459H2.60176C1.9272 20.6815 1.56055 22.7616 1.56055 24.9272C1.56055 26.8995 1.86523 28.8006 2.4292 30.5862C3.05747 29.8809 3.97139 29.435 4.98447 29.435L5.72187 29.4348C7.22832 29.4348 8.46099 28.2023 8.46099 26.6957Z" fill="#CDE3FF"/>
<path fill-rule="evenodd" clip-rule="evenodd" d="M2.60156 18.7459H21.0899C25.3614 18.7459 28.8989 15.4431 29.2745 11.2651L29.3074 10.5285L29.399 8.4826C26.7116 6.99813 23.6222 6.15247 20.335 6.15247C12.1317 6.15247 5.15713 11.4136 2.60156 18.7459Z" fill="#CDE3FF"/>
<path fill-rule="evenodd" clip-rule="evenodd" d="M29.3076 10.5285C29.3076 15.0481 33.0055 18.7458 37.5251 18.7458H44.3787C42.106 12.7001 36.2432 8.41841 29.3992 8.48257L29.3076 10.5285Z" fill="#CDE3FF"/>
<path fill-rule="evenodd" clip-rule="evenodd" d="M37.5251 18.7459C33.0055 18.7459 29.3077 15.048 29.3077 10.5286C29.3077 10.7767 29.2967 11.0224 29.2749 11.2651L28.9521 18.4783C28.9521 22.9979 32.6499 26.6957 37.1695 26.6957H38.4862C38.4864 28.2022 39.719 29.4346 41.2253 29.4346C41.4711 29.4351 41.7171 29.435 41.9627 29.435C42.8261 29.435 43.6174 29.7589 44.2212 30.2912C44.9721 28.4481 45.3867 26.4322 45.3867 24.3192C45.3867 22.357 45.0303 20.4791 44.3787 18.7459H37.5251Z" fill="#CDE3FF"/>
<path fill-rule="evenodd" clip-rule="evenodd" d="M41.2251 36.2829C40.5274 45.3444 33.114 52.2466 24.3667 52.6953C25.8329 52.622 27.2538 52.3692 28.6077 51.9585L28.6161 51.9632C29.4891 52.1751 30.3422 52.4398 31.1718 52.7536C32.7458 53.349 34.2348 54.1212 35.6144 55.0453C37.6755 56.4262 39.4922 58.1467 40.9826 60.1251C50.0628 55.6254 42.3702 46.5577 43.6691 35.8242C43.1659 36.1157 42.5829 36.2829 41.9625 36.2829H41.2251Z" fill="#CDE3FF"/>
<path fill-rule="evenodd" clip-rule="evenodd" d="M5.72177 36.2829C6.41947 45.3444 13.8329 52.2466 22.5802 52.6953C21.1141 52.622 19.6932 52.3692 18.3392 51.9585L18.331 51.9632C17.4578 52.1751 16.6047 52.4398 15.7751 52.7536C14.2012 53.349 12.7121 54.1212 11.3326 55.0453C9.27138 56.4262 7.45468 58.1467 5.96434 60.1251C-3.11593 55.6254 4.57685 46.5577 3.27782 35.8242C3.781 36.1157 4.36415 36.2829 4.98436 36.2829H5.72177Z" fill="#CDE3FF"/>
<path fill-rule="evenodd" clip-rule="evenodd" d="M21.4193 33.5857C21.4193 32.6962 20.6917 31.9685 19.8022 31.9685H13.244C12.3545 31.9685 11.627 32.6962 11.627 33.5857V35.3241C11.627 37.1695 13.1368 38.6795 14.9823 38.6795H18.0639C19.9093 38.6795 21.4193 37.1695 21.4193 35.3241V33.5857Z" fill="#EFF6FF"/>
<path fill-rule="evenodd" clip-rule="evenodd" d="M25.5278 33.5857V35.3241C25.5278 37.1695 27.0378 38.6795 28.8832 38.6795H31.9648C33.8104 38.6795 35.3203 37.1695 35.3203 35.3241V33.5857C35.3203 32.6962 34.5926 31.9685 33.7031 31.9685H27.1449C26.2554 31.9685 25.5278 32.6962 25.5278 33.5857Z" fill="#EFF6FF"/>
<path fill-rule="evenodd" clip-rule="evenodd" d="M4.40852 37.7139C5.83709 47.4571 14.5481 54.6654 24.4419 54.1581C33.4772 53.6946 41.2004 46.8718 42.539 37.7138C44.9614 37.4271 46.8515 35.3563 46.8515 32.8589C46.8515 30.1667 44.6549 27.9702 41.9627 27.9702C41.7167 27.9702 41.4722 27.9702 41.2279 27.9697L41.2253 27.9697C40.5277 27.9697 39.951 27.3929 39.951 26.6958C39.951 25.8868 39.2952 25.2309 38.4862 25.2309H37.1694C33.4588 25.2309 30.4168 22.1889 30.4168 18.4783C30.4168 17.6693 29.761 17.0134 28.952 17.0134C28.1429 17.0134 27.4871 17.6693 27.4871 18.4783C27.4871 22.1889 24.4452 25.2309 20.7346 25.2309H8.46099C7.65198 25.2309 6.99614 25.8868 6.99614 26.6958C6.99614 27.3932 6.41951 27.9699 5.72188 27.9699L4.98447 27.9702C4.98428 27.9702 4.98409 27.9702 4.98389 27.9702C2.29194 27.9705 0.0957031 30.1669 0.0957031 32.8589C0.0957031 35.3564 1.9859 37.4273 4.40852 37.7139ZM28.952 23.5858C30.6657 26.3281 33.7124 28.1606 37.1694 28.1606H37.2853C37.8821 29.7572 39.4243 30.8991 41.2245 30.8994C41.2248 30.8994 41.225 30.8994 41.2253 30.8994V29.4346L41.2227 30.8994C41.2233 30.8994 41.2239 30.8994 41.2245 30.8994C41.4712 30.8999 41.7177 30.8999 41.9627 30.8999C43.0369 30.8999 43.9218 31.7848 43.9218 32.8589C43.9218 33.9331 43.0369 34.818 41.9627 34.818H41.2253C40.4599 34.818 39.8235 35.4073 39.7648 36.1704C39.1251 44.4785 32.3225 50.8203 24.2918 51.2322C15.5382 51.6811 7.86097 44.9844 7.1824 36.1704C7.12365 35.4073 6.48728 34.818 5.72188 34.818H4.98447C3.91028 34.818 3.02539 33.9331 3.02539 32.8589C3.02539 31.7848 3.91028 30.8999 4.98447 30.8999L5.72188 30.8996V29.4347L5.72246 30.8996C7.52301 30.8993 9.06519 29.7573 9.66192 28.1606H8.46099V26.6958H9.92583C9.92583 27.2105 9.83251 27.7041 9.66192 28.1606H20.7346C24.1917 28.1606 27.2383 26.3281 28.952 23.5858Z" fill="#1F7DBB"/>
<path fill-rule="evenodd" clip-rule="evenodd" d="M0.0957031 73.5353C0.0957031 74.3444 0.751536 75.0002 1.56055 75.0002H45.3866C46.1956 75.0002 46.8515 74.3444 46.8515 73.5353V73.2611C46.8515 62.2838 39.1924 53.0242 28.9619 50.5397C28.1757 50.3488 27.3837 50.8313 27.1927 51.6175C27.0018 52.4036 27.4844 53.1957 28.2705 53.3866C36.8516 55.4706 43.3597 63.0077 43.8872 72.0705H3.05996C3.58775 63.0034 10.1019 55.4636 18.6888 53.3836C19.4751 53.1932 19.9581 52.4014 19.7677 51.6151C19.5772 50.8288 18.7854 50.3458 17.9991 50.5363C7.76193 53.0159 0.0957031 62.2788 0.0957031 73.2611V73.5353Z" fill="#1F7DBB"/>
<path fill-rule="evenodd" clip-rule="evenodd" d="M23.4734 43.9044C22.5632 43.9044 21.6905 43.5429 21.0471 42.8994C20.4751 42.3273 19.5476 42.3272 18.9755 42.8992C18.4034 43.4712 18.4033 44.3987 18.9753 44.9708C20.1683 46.164 21.7864 46.834 23.4734 46.834C25.1605 46.834 26.7783 46.1639 27.9713 44.9709C28.5434 44.3989 28.5434 43.4714 27.9713 42.8993C27.3993 42.3273 26.4718 42.3273 25.8997 42.8993C25.2562 43.5429 24.3835 43.9044 23.4734 43.9044Z" fill="#1F7DBB"/>
<path fill-rule="evenodd" clip-rule="evenodd" d="M21.0496 74.8561C21.8365 74.6684 22.3222 73.8782 22.1344 73.0913L17.225 52.5176C17.0372 51.7307 16.2471 51.245 15.4601 51.4327C14.6732 51.6205 14.1875 52.4107 14.3753 53.1976L19.2847 73.7713C19.4725 74.5582 20.2626 75.0439 21.0496 74.8561Z" fill="#1F7DBB"/>
<path fill-rule="evenodd" clip-rule="evenodd" d="M16.0792 74.4345C16.5971 73.813 16.5132 72.8893 15.8917 72.3714L12.6299 69.6534L15.8712 66.9443C16.2603 66.6191 16.4535 66.1159 16.382 65.6139C16.3105 65.1119 15.9845 64.6825 15.5202 64.4789L12.5258 63.1656L12.7921 55.2228C12.8193 54.4143 12.1858 53.7368 11.3772 53.7097C10.5687 53.6826 9.89121 54.3161 9.8641 55.1246L9.56454 64.0593C9.54446 64.6583 9.89131 65.2091 10.4402 65.4499L12.1786 66.2124L9.40435 68.5311C9.07106 68.8096 8.87859 69.2217 8.87891 69.6561C8.87922 70.0905 9.0723 70.5023 9.40599 70.7804L14.0161 74.6221C14.6377 75.14 15.5613 75.056 16.0792 74.4345Z" fill="#1F7DBB"/>
<path fill-rule="evenodd" clip-rule="evenodd" d="M25.8976 74.8561C26.6845 75.0439 27.4747 74.5582 27.6625 73.7713L32.572 53.1976C32.7598 52.4107 32.2741 51.6205 31.4872 51.4327C30.7003 51.245 29.9102 51.7306 29.7224 52.5176L24.8128 73.0913C24.625 73.8782 25.1107 74.6684 25.8976 74.8561Z" fill="#1F7DBB"/>
<path fill-rule="evenodd" clip-rule="evenodd" d="M30.8634 74.4379C31.3813 75.0594 32.305 75.1434 32.9265 74.6255L37.5409 70.7804C37.8746 70.5024 38.0677 70.0905 38.0681 69.6562C38.0684 69.2218 37.8759 68.8097 37.5426 68.5311L34.7683 66.2123L36.5069 65.4498C37.0558 65.2091 37.4027 64.6582 37.3826 64.0592L37.0805 55.052C37.0534 54.2435 36.376 53.61 35.5674 53.6371C34.7588 53.6642 34.1254 54.3417 34.1525 55.1502L34.4213 63.1655L31.4268 64.4788C30.9625 64.6824 30.6364 65.1118 30.565 65.6138C30.4935 66.1158 30.6867 66.619 31.0757 66.9442L34.317 69.6534L31.0511 72.3748C30.4296 72.8927 30.3456 73.8164 30.8634 74.4379Z" fill="#1F7DBB"/>
<path fill-rule="evenodd" clip-rule="evenodd" d="M16.1704 60.0681C16.1704 60.8771 16.8262 61.533 17.6353 61.533H29.3118C30.1208 61.533 30.7767 60.8771 30.7767 60.0681C30.7767 59.2591 30.1208 58.6033 29.3118 58.6033H17.6353C16.8262 58.6033 16.1704 59.2591 16.1704 60.0681Z" fill="#1F7DBB"/>
<path fill-rule="evenodd" clip-rule="evenodd" d="M2.85845 31.9528C3.63029 31.7104 4.05948 30.8882 3.81707 30.1163C3.30317 28.4801 3.02539 26.7373 3.02539 24.9272C3.02539 15.3671 10.7753 7.61725 20.3353 7.61725C23.3682 7.61725 26.2145 8.397 28.6909 9.76479C28.9119 9.88681 29.1606 9.94968 29.4129 9.94732C37.4048 9.87234 43.9218 16.3269 43.9218 24.3193C43.9218 26.2121 43.5558 28.0163 42.8929 29.6681C42.5916 30.4189 42.9561 31.2718 43.7069 31.5731C44.4577 31.8744 45.3106 31.51 45.6119 30.7592C46.4112 28.7671 46.8515 26.593 46.8515 24.3193C46.8515 14.8264 39.2141 7.1357 29.7705 7.01834C26.952 5.53052 23.7404 4.68757 20.3353 4.68757C9.15725 4.68757 0.0957031 13.7491 0.0957031 24.9272C0.0957031 27.0387 0.41997 29.0773 1.02199 30.9942C1.2644 31.766 2.08661 32.1952 2.85845 31.9528Z" fill="#1F7DBB"/>
<path fill-rule="evenodd" clip-rule="evenodd" d="M7.19654 60.7459C7.56041 60.0234 7.26964 59.1426 6.54708 58.7788C4.58971 57.7931 3.69068 56.6538 3.27114 55.4321C2.82452 54.1315 2.84974 52.5391 3.15306 50.5212C3.3029 49.5243 3.51174 48.4728 3.73932 47.3389C3.74874 47.2919 3.75819 47.2448 3.76767 47.1976C3.9849 46.1157 4.21571 44.9661 4.41015 43.7788C4.81659 41.297 5.07704 38.5807 4.74075 35.7208C4.64628 34.9173 3.91834 34.3425 3.11487 34.437C2.31139 34.5315 1.73663 35.2594 1.83111 36.0629C2.12236 38.5398 1.90412 40.9535 1.51897 43.3053C1.33323 44.4395 1.1117 45.543 0.892199 46.6364L0.866906 46.7624C0.641399 47.886 0.418103 49.0067 0.255917 50.0857C-0.0648281 52.2195 -0.183237 54.3932 0.50028 56.3836C1.21088 58.4529 2.71575 60.1296 5.22938 61.3954C5.95194 61.7593 6.83267 61.4685 7.19654 60.7459Z" fill="#1F7DBB"/>
<path fill-rule="evenodd" clip-rule="evenodd" d="M39.826 60.7178C40.1943 61.4381 41.0768 61.7234 41.7971 61.3551C44.2851 60.0829 45.7679 58.402 46.4632 56.3351C47.1317 54.3479 47.0081 52.1795 46.6857 50.0505C46.5227 48.974 46.2995 47.8557 46.0745 46.7347L46.0549 46.6373C45.8341 45.5373 45.6111 44.427 45.4247 43.2859C45.0415 40.9399 44.8253 38.5324 45.1158 36.0621C45.2103 35.2586 44.6356 34.5306 43.8321 34.4361C43.0286 34.3416 42.3007 34.9164 42.2062 35.7198C41.8707 38.5723 42.1288 41.2817 42.5334 43.7583C42.7285 44.9527 42.9607 46.109 43.1791 47.1968L43.2021 47.3113C43.4293 48.4432 43.6382 49.4932 43.789 50.4891C44.0943 52.505 44.1246 54.0983 43.6864 55.401C43.275 56.6241 42.3904 57.7613 40.4633 58.7467C39.743 59.115 39.4576 59.9975 39.826 60.7178Z" fill="#1F7DBB"/>
<path fill-rule="evenodd" clip-rule="evenodd" d="M28.8867 19.9417C29.6949 19.9778 30.3794 19.352 30.4156 18.5438L30.8626 8.54796C30.8988 7.73975 30.2729 7.05527 29.4647 7.01913C28.6565 6.98298 27.972 7.60885 27.9359 8.41706L27.4888 18.4129C27.4526 19.2211 28.0785 19.9055 28.8867 19.9417Z" fill="#1F7DBB"/>
<path fill-rule="evenodd" clip-rule="evenodd" d="M15.0908 18.746C15.0908 19.555 15.7467 20.2108 16.5557 20.2108H21.0902C24.5472 20.2108 27.5938 18.3783 29.3075 15.636C31.0212 18.3783 34.0678 20.2108 37.5249 20.2108H44.0704C44.8794 20.2108 45.5353 19.555 45.5353 18.746C45.5353 17.937 44.8794 17.2811 44.0704 17.2811H37.5249C33.8143 17.2811 30.7724 14.2391 30.7724 10.5285C30.7724 9.71948 30.1166 9.06365 29.3076 9.06365C28.4986 9.06365 27.8427 9.71948 27.8427 10.5285C27.8427 14.2391 24.8007 17.2811 21.0902 17.2811H16.5557C15.7467 17.2811 15.0908 17.937 15.0908 18.746Z" fill="#1F7DBB"/>
<path fill-rule="evenodd" clip-rule="evenodd" d="M10.1616 35.324C10.1616 37.9785 12.3275 40.1443 14.982 40.1443H18.0634C20.718 40.1443 22.8838 37.9785 22.8838 35.324V33.5857C22.8838 31.8872 21.5002 30.5037 19.8018 30.5037H13.2435C11.5449 30.5037 10.1616 31.8874 10.1616 33.5857V35.324ZM14.982 37.2146C13.9454 37.2146 13.0913 36.3604 13.0913 35.324V33.5857C13.0913 33.5483 13.1053 33.5113 13.1373 33.4793C13.1693 33.4473 13.2062 33.4334 13.2435 33.4334H19.8018C19.8391 33.4334 19.876 33.4473 19.9081 33.4794C19.9401 33.5114 19.9541 33.5484 19.9541 33.5857V35.324C19.9541 36.3604 19.1 37.2146 18.0634 37.2146H14.982Z" fill="#1F7DBB"/>
<path fill-rule="evenodd" clip-rule="evenodd" d="M24.063 35.324C24.063 37.9785 26.229 40.1443 28.8833 40.1443H31.9649C34.6194 40.1443 36.7852 37.9785 36.7852 35.324V33.5857C36.7852 31.8874 35.4019 30.5037 33.7033 30.5037H27.145C25.4466 30.5037 24.063 31.8872 24.063 33.5857V35.324ZM28.8833 37.2146C27.8469 37.2146 26.9927 36.3604 26.9927 35.324V33.5857C26.9927 33.5484 27.0066 33.5114 27.0387 33.4794C27.0707 33.4473 27.1077 33.4334 27.145 33.4334H33.7033C33.7406 33.4334 33.7775 33.4473 33.8095 33.4793C33.8415 33.5113 33.8555 33.5483 33.8555 33.5857V35.324C33.8555 36.3604 33.0013 37.2146 31.9649 37.2146H28.8833Z" fill="#1F7DBB"/>
<path fill-rule="evenodd" clip-rule="evenodd" d="M20.269 34.4549C20.269 35.2639 20.9249 35.9197 21.7339 35.9197H25.2129C26.0219 35.9197 26.6777 35.2639 26.6777 34.4549C26.6777 33.6459 26.0219 32.9901 25.2129 32.9901H21.7339C20.9249 32.9901 20.269 33.6459 20.269 34.4549Z" fill="#1F7DBB"/>
<path fill-rule="evenodd" clip-rule="evenodd" d="M12.8251 34.428C13.2904 33.7662 13.131 32.8525 12.4691 32.3872L6.56419 28.2365C5.90234 27.7712 4.98865 27.9306 4.52341 28.5925C4.05817 29.2543 4.21756 30.168 4.87941 30.6332L10.7843 34.784C11.4462 35.2493 12.3599 35.0899 12.8251 34.428Z" fill="#1F7DBB"/>
<path fill-rule="evenodd" clip-rule="evenodd" d="M34.1221 34.4281C34.5873 35.0899 35.501 35.2493 36.1629 34.784L42.0678 30.6329C42.7296 30.1677 42.889 29.254 42.4237 28.5921C41.9585 27.9303 41.0448 27.7709 40.3829 28.2362L34.478 32.3873C33.8162 32.8525 33.6568 33.7662 34.1221 34.4281Z" fill="#1F7DBB"/>
<path fill-rule="evenodd" clip-rule="evenodd" d="M51.028 30.1823C53.3539 31.4841 56.0356 32.2265 58.8872 32.2265C67.7864 32.2265 75.0005 25.0123 75.0005 16.1131C75.0005 7.21391 67.7864 -0.000171661 58.8872 -0.000171661C49.988 -0.000171661 42.7739 7.21391 42.7739 16.1131C42.7739 18.9643 43.516 21.6458 44.8177 23.9714C44.4485 25.3475 44.0794 26.7236 43.7104 28.1009L43.7099 28.1027C43.1835 30.0769 45.0154 31.8127 46.9215 31.2835C48.245 30.9289 49.5685 30.5738 50.8916 30.2189C50.9371 30.2067 50.9826 30.1945 51.028 30.1823ZM58.8872 29.2968C56.3627 29.2968 54.0081 28.5882 52.0057 27.3601C51.6629 27.1499 51.2487 27.0898 50.8603 27.194C50.6178 27.259 50.3754 27.3241 50.1329 27.3891C48.984 27.6973 47.8353 28.0055 46.6865 28.3134C47.0595 26.9214 47.4326 25.5304 47.806 24.1393C47.9102 23.7508 47.8502 23.3366 47.6399 22.9937C46.412 20.9918 45.7036 18.6374 45.7036 16.1131C45.7036 8.83193 51.606 2.92951 58.8872 2.92951C66.1684 2.92951 72.0708 8.83193 72.0708 16.1131C72.0708 23.3943 66.1684 29.2968 58.8872 29.2968Z" fill="#1F7DBB"/>
<path fill-rule="evenodd" clip-rule="evenodd" d="M8.49854 18.746C8.49854 19.555 9.15437 20.2108 9.96338 20.2108H9.9644C10.7734 20.2108 11.4292 19.555 11.4292 18.746C11.4292 17.937 10.7734 17.2811 9.9644 17.2811H9.96338C9.15437 17.2811 8.49854 17.937 8.49854 18.746Z" fill="#1F7DBB"/>
<path fill-rule="evenodd" clip-rule="evenodd" d="M51.563 16.1132C51.563 16.9222 52.2188 17.578 53.0278 17.578H64.7466C65.5556 17.578 66.2114 16.9222 66.2114 16.1132C66.2114 15.3041 65.5556 14.6483 64.7466 14.6483H53.0278C52.2188 14.6483 51.563 15.3041 51.563 16.1132Z" fill="#1F7DBB"/>
<path fill-rule="evenodd" clip-rule="evenodd" d="M51.563 10.2536C51.563 11.0626 52.2188 11.7184 53.0278 11.7184H64.7466C65.5556 11.7184 66.2114 11.0626 66.2114 10.2536C66.2114 9.44456 65.5556 8.78873 64.7466 8.78873H53.0278C52.2188 8.78873 51.563 9.44456 51.563 10.2536Z" fill="#1F7DBB"/>
<path fill-rule="evenodd" clip-rule="evenodd" d="M51.563 21.9727C51.563 22.7818 52.2188 23.4376 53.0278 23.4376H64.7466C65.5556 23.4376 66.2114 22.7818 66.2114 21.9727C66.2114 21.1637 65.5556 20.5079 64.7466 20.5079H53.0278C52.2188 20.5079 51.563 21.1637 51.563 21.9727Z" fill="#1F7DBB"/>
</g>
</g>
<defs>
<clipPath id="clip0_167_1978">
<rect width="75" height="75" fill="white"/>
</clipPath>
</defs>
</svg>
