<svg width="30" height="30" viewBox="0 0 30 30" fill="none" xmlns="http://www.w3.org/2000/svg">
<g clip-path="url(#clip0_118_23)">
<path d="M27.8364 0H2.16363C0.968613 0 0 0.968613 0 2.16363V27.8364C0 29.0314 0.968613 30 2.16363 30H27.8364C29.0314 30 30 29.0314 30 27.8364V2.16363C30 0.968613 29.0314 0 27.8364 0ZM22.5145 11.482V13.5101C21.5581 13.5104 20.6289 13.323 19.7525 12.9533C19.189 12.7154 18.664 12.4088 18.1839 12.0384L18.1983 18.2811C18.1922 19.6869 17.6361 21.0076 16.6296 22.0024C15.8105 22.8122 14.7725 23.3272 13.6475 23.4938C13.3831 23.5329 13.1141 23.553 12.8421 23.553C11.6378 23.553 10.4944 23.1629 9.5591 22.4431C9.38309 22.3076 9.2148 22.1607 9.05449 22.0024C7.96365 20.9243 7.40115 19.463 7.49584 17.9258C7.56814 16.7556 8.0366 15.6396 8.8176 14.7649C9.8509 13.6075 11.2965 12.965 12.8421 12.965C13.1141 12.965 13.3831 12.9854 13.6475 13.0246V13.7745V15.8604C13.3969 15.7778 13.1292 15.7323 12.8504 15.7323C11.4383 15.7323 10.2959 16.8844 10.317 18.2975C10.3304 19.2016 10.8243 19.992 11.5528 20.4277C11.8951 20.6324 12.2889 20.7592 12.7092 20.7823C13.0385 20.8004 13.3547 20.7546 13.6475 20.6579C14.6563 20.3246 15.3841 19.377 15.3841 18.2593L15.3875 14.0789V6.44695H18.1805C18.1832 6.72369 18.2113 6.99375 18.2635 7.25537C18.4743 8.31445 19.0713 9.23332 19.9021 9.85975C20.6266 10.4062 21.5287 10.7301 22.5065 10.7301C22.5071 10.7301 22.5152 10.7301 22.5145 10.7295L22.5145 11.482Z" fill="white"/>
</g>
<defs>
<clipPath id="clip0_118_23">
<rect width="30" height="30" fill="white"/>
</clipPath>
</defs>
</svg>
