<svg width="12" height="12" viewBox="0 0 12 12" fill="none" xmlns="http://www.w3.org/2000/svg">
<g clip-path="url(#clip0_239_904)">
<path d="M12 5.99999C12 8.77747 9.74074 11.037 6.96296 11.037C6.4723 11.037 6.07407 10.6391 6.07407 10.1481C6.07407 9.65717 6.4723 9.25925 6.96296 9.25925C8.7597 9.25925 10.2222 7.79673 10.2222 5.99999C10.2222 4.20295 8.7597 2.74073 6.96296 2.74073C5.25748 2.74073 3.856 4.05836 3.71763 5.72917L4.26044 5.18636C4.60741 4.8391 5.17037 4.8391 5.51733 5.18636C5.86459 5.53332 5.86459 6.09629 5.51733 6.44325L3.51733 8.44325C3.35052 8.60977 3.12444 8.70369 2.88889 8.70369C2.65304 8.70369 2.42696 8.61006 2.26044 8.44325L0.260444 6.44325C-0.0868148 6.09599 -0.0868148 5.53332 0.260444 5.18636C0.607704 4.8391 1.17037 4.8391 1.51763 5.18636L1.94548 5.61421C2.1437 3.01688 4.31585 0.962952 6.96296 0.962952C9.74074 0.962952 12 3.22251 12 5.99999Z" fill="#1F7DBB"/>
</g>
<defs>
<clipPath id="clip0_239_904">
<rect width="12" height="12" fill="white"/>
</clipPath>
</defs>
</svg>
