<svg width="16" height="16" viewBox="0 0 16 16" fill="none" xmlns="http://www.w3.org/2000/svg">
<g clip-path="url(#clip0_217_767)">
<path d="M11 5.33403H5.33373V4.81872C5.33401 3.2621 6.59611 2.00047 8.15273 2.00075C9.17764 2.00094 10.1217 2.55746 10.618 3.45412C10.8861 3.93697 11.4948 4.11111 11.9776 3.8431C12.4605 3.57508 12.6346 2.96637 12.3666 2.48353C11.0767 0.155992 8.14408 -0.685109 5.81654 0.604839C4.28464 1.45385 3.33404 3.06727 3.33386 4.81872V5.73866C2.10781 6.36434 1.33548 7.62398 1.33398 9.00045V12.3336C1.3362 14.3576 2.97641 15.9978 5.0004 16H11C13.024 15.9978 14.6643 14.3576 14.6664 12.3336V9.00045C14.6643 6.97646 13.024 5.33625 11 5.33403ZM12.6666 12.3336C12.6666 13.254 11.9205 14.0001 11 14.0001H5.00044C4.08003 14.0001 3.33389 13.254 3.33389 12.3336V9.00045C3.33389 8.08004 4.08003 7.3339 5.00044 7.3339H11C11.9205 7.3339 12.6666 8.08004 12.6666 9.00045V12.3336Z" fill="#1F7DBB"/>
<path d="M7.66693 9.3338H8.33354C8.88579 9.3338 9.33348 9.78149 9.33348 10.3337C9.33348 10.886 8.88579 11.3337 8.33354 11.3337H7.66693C7.11468 11.3337 6.66699 10.886 6.66699 10.3337C6.66699 9.78149 7.11468 9.3338 7.66693 9.3338Z" fill="#1F7DBB"/>
</g>
<defs>
<clipPath id="clip0_217_767">
<rect width="16" height="16" fill="white"/>
</clipPath>
</defs>
</svg>
