<svg width="16" height="16" viewBox="0 0 16 16" fill="none" xmlns="http://www.w3.org/2000/svg">
<path d="M7.6345 9.34535C4.79334 9.60216 2.62878 12.0029 2.6665 14.8554V15C2.6665 15.5523 3.11422 16 3.6665 16C4.21878 16 4.6665 15.5523 4.6665 15V14.8154C4.63644 13.0639 5.92894 11.5704 7.6665 11.3487C9.50066 11.1668 11.135 12.5063 11.3169 14.3404C11.3276 14.4489 11.3331 14.5577 11.3332 14.6667V15C11.3332 15.5523 11.7809 16 12.3332 16C12.8854 16 13.3332 15.5523 13.3332 15V14.6667C13.3299 11.7178 10.9368 9.32997 7.98794 9.33322C7.87003 9.33338 7.75216 9.33741 7.6345 9.34535Z" fill="#1F7DBB"/>
<path d="M8 8C10.2091 8 12 6.20913 12 4C12 1.79087 10.2091 0 8 0C5.79087 0 4 1.79087 4 4C4.00219 6.20822 5.79178 7.99778 8 8ZM8 2C9.10456 2 10 2.89544 10 4C10 5.10456 9.10456 6 8 6C6.89544 6 6 5.10456 6 4C6 2.89544 6.89544 2 8 2Z" fill="#1F7DBB"/>
</svg>
