<svg width="50" height="50" viewBox="0 0 50 50" fill="none" xmlns="http://www.w3.org/2000/svg">
<g clip-path="url(#clip0_232_3062)">
<path d="M25.4991 49.1377L1.36133 45.6897V4.31029L25.4991 0.861755V49.1377Z" fill="#CDE3FF"/>
<path d="M25.498 50C25.4576 50 25.4167 49.997 25.3762 49.9911L1.23797 46.5431C0.813747 46.4819 0.498047 46.1184 0.498047 45.6897V4.3103C0.498047 3.88114 0.813747 3.51759 1.23797 3.45692L25.3762 0.00888305C25.6233 -0.0266333 25.8744 0.0468657 26.0633 0.210635C26.2518 0.374405 26.3603 0.611673 26.3603 0.861767V49.1377C26.3603 49.3878 26.2518 49.6256 26.0628 49.7889C25.9055 49.926 25.7042 50 25.498 50ZM2.22207 44.9419L24.6363 48.1438V1.85573L2.22207 5.05762V44.9419Z" fill="#1F7DBB"/>
<path d="M25.498 7.75833H48.774V43.1034H25.498V7.75833Z" fill="#EFF6FF"/>
<path d="M48.7745 43.9657H25.4985C25.022 43.9657 24.6367 43.5794 24.6367 43.1034V7.75834C24.6367 7.28232 25.022 6.89658 25.4985 6.89658H48.7745C49.251 6.89658 49.6367 7.28232 49.6367 7.75834V43.1034C49.6367 43.5794 49.251 43.9657 48.7745 43.9657ZM26.3607 42.2412H47.9122V8.62059H26.3607V42.2412Z" fill="#1F7DBB"/>
<path d="M41.0144 15.4885H25.4972C25.037 15.4885 24.6641 15.1151 24.6641 14.6549C24.6641 14.1952 25.037 13.8217 25.4972 13.8217H41.0144C41.4751 13.8217 41.848 14.1952 41.848 14.6549C41.848 15.1151 41.4751 15.4885 41.0144 15.4885Z" fill="#1F7DBB"/>
<path d="M41.0144 19.7988H25.4972C25.037 19.7988 24.6641 19.4254 24.6641 18.9652C24.6641 18.5055 25.037 18.132 25.4972 18.132H41.0144C41.4751 18.132 41.848 18.5055 41.848 18.9652C41.848 19.4254 41.4751 19.7988 41.0144 19.7988Z" fill="#1F7DBB"/>
<path d="M41.0144 24.1091H25.4972C25.037 24.1091 24.6641 23.7357 24.6641 23.276C24.6641 22.8158 25.037 22.4424 25.4972 22.4424H41.0144C41.4751 22.4424 41.848 22.8158 41.848 23.276C41.848 23.7357 41.4751 24.1091 41.0144 24.1091Z" fill="#1F7DBB"/>
<path d="M41.0144 28.4194H25.4972C25.037 28.4194 24.6641 28.0465 24.6641 27.5863C24.6641 27.126 25.037 26.7526 25.4972 26.7526H41.0144C41.4751 26.7526 41.848 27.126 41.848 27.5863C41.848 28.0465 41.4751 28.4194 41.0144 28.4194Z" fill="#1F7DBB"/>
<path d="M41.0144 32.7297H25.4972C25.037 32.7297 24.6641 32.3568 24.6641 31.8966C24.6641 31.4363 25.037 31.0629 25.4972 31.0629H41.0144C41.4751 31.0629 41.848 31.4363 41.848 31.8966C41.848 32.3568 41.4751 32.7297 41.0144 32.7297Z" fill="#1F7DBB"/>
<path d="M41.0144 37.0405H25.4972C25.037 37.0405 24.6641 36.6671 24.6641 36.2069C24.6641 35.7466 25.037 35.3732 25.4972 35.3732H41.0144C41.4751 35.3732 41.848 35.7466 41.848 36.2069C41.848 36.6671 41.4751 37.0405 41.0144 37.0405Z" fill="#1F7DBB"/>
<path d="M15.1608 29.1075L13.0668 21.3428L10.9472 29.1075C10.7819 29.6965 10.6507 30.1193 10.554 30.3758C10.4564 30.6318 10.2872 30.8612 10.0455 31.0644C9.80424 31.2676 9.48361 31.3692 9.08356 31.3692C8.75947 31.3692 8.49261 31.3086 8.28345 31.1877C8.0748 31.0674 7.90461 30.8967 7.77587 30.6757C7.64613 30.4552 7.54008 30.1928 7.4577 29.8894C7.37532 29.5865 7.30084 29.3049 7.23622 29.0459L5.08107 20.3266C4.95134 19.82 4.88672 19.4348 4.88672 19.1694C4.88672 18.834 5.00461 18.5513 5.2404 18.3215C5.47619 18.0921 5.76723 17.9767 6.11548 17.9767C6.59199 17.9767 6.91312 18.1301 7.07837 18.4359C7.24263 18.7427 7.38766 19.1872 7.51098 19.7697L9.20688 27.3322L11.1065 20.2561C11.2471 19.714 11.3744 19.3016 11.4863 19.019C11.5983 18.7363 11.7803 18.4921 12.0334 18.2864C12.2869 18.0802 12.6312 17.9767 13.0673 17.9767C13.5093 17.9767 13.8521 18.0842 14.0968 18.2993C14.341 18.5143 14.5101 18.7481 14.6044 19.0012C14.6991 19.2547 14.8249 19.6726 14.9842 20.2561L16.9011 27.3322L18.5975 19.7697C18.6803 19.3756 18.7573 19.0663 18.8318 18.8424C18.9048 18.6184 19.0321 18.4181 19.2116 18.242C19.3907 18.065 19.6516 17.9767 19.9935 17.9767C20.3343 17.9767 20.6249 18.0906 20.8631 18.317C21.1024 18.5439 21.2207 18.8281 21.2207 19.1694C21.2207 19.4111 21.1561 19.7964 21.0274 20.3266L18.8712 29.0454C18.7238 29.6344 18.6019 30.066 18.5052 30.3403C18.4076 30.6135 18.2423 30.8543 18.01 31.06C17.7776 31.2661 17.4491 31.3692 17.0254 31.3692C16.6243 31.3692 16.3037 31.2691 16.062 31.0688C15.8203 30.8686 15.6531 30.6431 15.5584 30.393C15.4637 30.1429 15.3315 29.7143 15.1608 29.1075Z" fill="#1F7DBB"/>
<path d="M48.774 43.9657L25.498 45.6897V43.1034H48.774V43.9657Z" fill="#1F7DBB"/>
<path d="M25.4985 46.552C25.2814 46.552 25.0718 46.4701 24.9115 46.3216C24.7369 46.1583 24.6367 45.9294 24.6367 45.6897V43.1034C24.6367 42.6274 25.022 42.2412 25.4985 42.2412H48.7745C49.251 42.2412 49.6367 42.6274 49.6367 43.1034V43.9657C49.6367 44.417 49.288 44.7919 48.8386 44.825L25.5626 46.549C25.5404 46.551 25.5197 46.552 25.4985 46.552ZM26.3607 43.9657V44.7614L37.1044 43.9657H26.3607Z" fill="#1F7DBB"/>
<path d="M19.4638 45.6897C18.9873 45.6897 18.6016 45.3035 18.6016 44.8274V41.3794C18.6016 40.9034 18.9873 40.5172 19.4638 40.5172C19.9403 40.5172 20.3256 40.9034 20.3256 41.3794V44.8274C20.3256 45.3035 19.9403 45.6897 19.4638 45.6897Z" fill="white"/>
<path d="M21.1872 43.9657H17.7392C17.2627 43.9657 16.877 43.5794 16.877 43.1034C16.877 42.6274 17.2627 42.2411 17.7392 42.2411H21.1872C21.6638 42.2411 22.0495 42.6274 22.0495 43.1034C22.0495 43.5794 21.6638 43.9657 21.1872 43.9657Z" fill="white"/>
<path d="M46.1879 18.1034C45.7114 18.1034 45.3262 17.7172 45.3262 17.2412V10.3446C45.3262 9.8686 45.7114 9.48285 46.1879 9.48285C46.6644 9.48285 47.0502 9.8686 47.0502 10.3446V17.2412C47.0502 17.7172 46.6644 18.1034 46.1879 18.1034Z" fill="white"/>
</g>
<defs>
<clipPath id="clip0_232_3062">
<rect width="50" height="50" fill="white"/>
</clipPath>
</defs>
</svg>
