<svg width="30" height="30" viewBox="0 0 30 30" fill="none" xmlns="http://www.w3.org/2000/svg">
<g clip-path="url(#clip0_232_3171)">
<path d="M3.05461 27.5391V4.33594H0.585938V29.4141H21.6797V27.5391H3.05461Z" fill="#CDE3FF"/>
<path d="M5.51563 25.6641V2.46094H3.05469V27.5391H23.5548V25.6641H5.51563Z" fill="#EFF6FF"/>
<path d="M25.4298 17.4023V25.6641H5.51562V0.585938H25.4298V3.75V17.4023Z" fill="white"/>
<path d="M29.0984 7.90426L20.1383 16.8643L16.2949 13.0209L25.255 4.06087C25.6764 3.63946 26.3597 3.63946 26.7811 4.06087L29.0984 6.37813C29.5198 6.79954 29.5198 7.48286 29.0984 7.90426Z" fill="#FFDD40"/>
<path d="M28.6924 8.30989L29.098 7.90425C29.5195 7.48278 29.5195 6.79952 29.098 6.37811L26.7808 4.06085C26.3594 3.63938 25.6761 3.63938 25.2546 4.06085L24.4434 4.87214L28.2868 8.71554L28.6924 8.30989Z" fill="#FF8760"/>
<path d="M16.2946 13.0209L15 18.1588L20.138 16.8643L16.2946 13.0209Z" fill="white"/>
<path d="M15.6892 15.4234L15 18.1588L17.7355 17.4696L15.6892 15.4234Z" fill="white"/>
<path d="M9.03125 5.97656H19.6473C19.9708 5.97656 20.2332 5.71424 20.2332 5.39062C20.2332 5.06701 19.9708 4.80469 19.6473 4.80469H9.03125C8.7077 4.80469 8.44531 5.06701 8.44531 5.39062C8.44531 5.71424 8.70764 5.97656 9.03125 5.97656Z" fill="#1F7DBB"/>
<path d="M9.03125 11.1328H13.0079C13.3314 11.1328 13.5938 10.8705 13.5938 10.5469C13.5938 10.2233 13.3314 9.96094 13.0079 9.96094H9.03125C8.7077 9.96094 8.44531 10.2233 8.44531 10.5469C8.44531 10.8705 8.70764 11.1328 9.03125 11.1328Z" fill="#1F7DBB"/>
<path d="M13.5938 15.7031C13.5938 15.3795 13.3314 15.1172 13.0079 15.1172H9.03125C8.7077 15.1172 8.44531 15.3795 8.44531 15.7031C8.44531 16.0267 8.7077 16.2891 9.03125 16.2891H13.0079C13.3315 16.2891 13.5938 16.0267 13.5938 15.7031Z" fill="#1F7DBB"/>
<path d="M11.6094 21.4453H21.9141C22.2377 21.4453 22.5001 21.183 22.5001 20.8594C22.5001 20.5358 22.2377 20.2734 21.9141 20.2734H11.6094C11.2858 20.2734 11.0234 20.5358 11.0234 20.8594C11.0234 21.183 11.2858 21.4453 11.6094 21.4453Z" fill="#1F7DBB"/>
<path d="M8.61641 20.4451C8.50742 20.5541 8.44531 20.7053 8.44531 20.8594C8.44531 21.0135 8.50742 21.1646 8.61641 21.2736C8.72539 21.3826 8.87656 21.4453 9.03066 21.4453C9.18535 21.4453 9.33652 21.3826 9.44551 21.2736C9.55443 21.1646 9.61719 21.0135 9.61719 20.8594C9.61719 20.7053 9.55449 20.5541 9.44551 20.4451C9.33652 20.3361 9.18535 20.2734 9.03066 20.2734C8.87656 20.2734 8.72539 20.3361 8.61641 20.4451Z" fill="#1F7DBB"/>
<path d="M25.0154 14.5922C24.9064 14.7018 24.8438 14.8524 24.8438 15.0065C24.8438 15.1606 24.9064 15.3117 25.0154 15.4207C25.125 15.5303 25.2755 15.5924 25.4297 15.5924C25.5838 15.5924 25.735 15.5303 25.8439 15.4207C25.9529 15.3117 26.0156 15.1606 26.0156 15.0065C26.0156 14.8524 25.9529 14.7018 25.8439 14.5922C25.735 14.4832 25.5838 14.4205 25.4297 14.4205C25.2755 14.4205 25.125 14.4832 25.0154 14.5922Z" fill="#1F7DBB"/>
<path d="M29.5131 5.96379L27.1959 3.64652C26.8814 3.33205 26.4632 3.15885 26.0184 3.15885C26.0175 3.15885 26.0166 3.15891 26.0156 3.15891V0.585938C26.0156 0.262324 25.7532 0 25.4297 0H5.51555C5.19199 0 4.92961 0.262324 4.92961 0.585938V1.875H3.05461C2.73105 1.875 2.46867 2.13732 2.46867 2.46094V3.75H0.585938C0.262383 3.75 0 4.01232 0 4.33594V29.4141C0 29.7377 0.262383 30 0.585938 30H21.6797C22.0032 30 22.2656 29.7377 22.2656 29.4141V28.125H23.5547C23.8782 28.125 24.1406 27.8627 24.1406 27.5391V26.25H25.4297C25.7532 26.25 26.0156 25.9877 26.0156 25.6641V17.4023C26.0156 17.0787 25.7532 16.8164 25.4297 16.8164C25.1061 16.8164 24.8438 17.0787 24.8438 17.4023V25.0781H6.10148V1.17188H24.8438V3.64395C24.8429 3.64482 24.8419 3.64564 24.8411 3.64652L15.881 12.6066C15.8032 12.6844 15.7526 12.7787 15.7276 12.8781C15.7274 12.878 15.7273 12.8779 15.7271 12.8777L14.4326 18.0157C14.3822 18.2157 14.4407 18.4274 14.5864 18.5732C14.6977 18.6844 14.8473 18.7448 15.0008 18.7448C15.0485 18.7448 15.0966 18.739 15.1439 18.7271L20.2819 17.4325C20.2818 17.4323 20.2817 17.4322 20.2816 17.432C20.381 17.4071 20.4753 17.3564 20.553 17.2787L29.5131 8.31867C30.1623 7.66934 30.1623 6.61301 29.5131 5.96379ZM21.0938 28.8281H1.17188V4.92188H2.46867V27.5391C2.46867 27.8627 2.73105 28.125 3.05461 28.125H21.0938V28.8281ZM22.9688 26.25V26.9531H3.64055V3.04688H4.92961V25.6641C4.92961 25.9877 5.19199 26.25 5.51555 26.25H22.9688ZM24.3363 5.80863L26.0104 7.48277L24.9322 8.56102C24.7034 8.78982 24.7034 9.16084 24.9322 9.38971C25.0466 9.50414 25.1965 9.56133 25.3465 9.56133C25.4964 9.56133 25.6464 9.50414 25.7608 9.38971L26.839 8.31146L27.351 8.8234L20.1387 16.0356L18.6673 14.5641L22.4917 10.7396C22.7205 10.5108 22.7205 10.1398 22.4917 9.91096C22.2629 9.68215 21.892 9.68221 21.663 9.91096L17.8386 13.7354L17.124 13.0208L24.3363 5.80863ZM17.9194 16.7617C17.9194 16.7617 16.3632 15.2072 16.3513 15.197L16.6112 14.1654L18.9942 16.5483L17.9613 16.8086C17.9483 16.7924 17.9344 16.7767 17.9194 16.7617ZM16.0185 16.5181L16.6416 17.1412L15.8086 17.3511L16.0185 16.5181ZM28.6845 7.48992L28.1797 7.99471L25.1649 4.98L25.6697 4.47521C25.8621 4.28285 26.175 4.28297 26.3671 4.47521L28.6844 6.79248C28.8768 6.98473 28.8768 7.29762 28.6845 7.48992Z" fill="#1F7DBB"/>
</g>
<defs>
<clipPath id="clip0_232_3171">
<rect width="30" height="30" fill="white"/>
</clipPath>
</defs>
</svg>
